<svg xmlns="http://www.w3.org/2000/svg" viewBox="0 0 1000 1000" role="img" aria-labelledby="title" data-source="bones-patent-art">
  <title id="title">Coccyx</title>
  <g shape-rendering="geometricPrecision">
  <path d="M699 225 L698.1 234.5 L695.5 243.9 L691.4 252.9 L686 261.5 L679.5 269.4 L671.8 276.9 L662.8 283.8 L652.9 290.2 L642.3 296.1 L631.3 301.3 L619.7 306 L607.3 310.2 L594.5 313.8 L581.4 316.9 L568.2 319.5 L554.9 321.6 L541.3 323.2 L527.5 324.4 L513.7 325 L500 325.3 L486.3 325 L472.5 324.4 L458.7 323.2 L445.1 321.6 L431.8 319.5 L418.6 316.9 L405.5 313.8 L392.7 310.2 L380.3 306 L368.7 301.3 L357.7 296.1 L347.1 290.2 L337.2 283.8 L328.2 276.9 L320.5 269.4 L314 261.5 L308.6 252.9 L304.5 243.9 L301.9 234.5 L301 225 L301.9 215.5 L304.5 206.1 L308.6 197.1 L314 188.5 L320.5 180.6 L328.2 173.1 L337.2 166.2 L347.1 159.8 L357.7 153.9 L368.7 148.7 L380.3 144 L392.7 139.8 L405.5 136.2 L418.6 133.1 L431.8 130.5 L445.1 128.4 L458.7 126.8 L472.5 125.6 L486.3 125 L500 124.7 L513.7 125 L527.5 125.6 L541.3 126.8 L554.9 128.4 L568.2 130.5 L581.4 133.1 L594.5 136.2 L607.3 139.8 L619.7 144 L631.3 148.7 L642.3 153.9 L652.9 159.8 L662.8 166.2 L671.8 173.1 L679.5 180.6 L686 188.5 L691.4 197.1 L695.5 206.1 L698.1 215.5 Z M678.4 219.2 L676.6 213 L673.7 206.6 L669.7 200.2 L664.8 194.2 L658.7 188.3 L651.2 182.6 L642.6 177 L633.1 171.7 L623.2 167 L612.8 162.8 L601.4 158.9 L589.4 155.6 L577.1 152.7 L564.7 150.2 L552.1 148.2 L539.3 146.7 L526.2 145.6 L513.1 145 L500 144.8 L486.9 145 L473.8 145.6 L460.7 146.7 L447.9 148.2 L435.3 150.2 L422.9 152.7 L410.6 155.6 L398.6 158.9 L387.2 162.8 L376.8 167 L366.9 171.7 L357.4 177 L348.8 182.6 L341.3 188.3 L335.2 194.2 L330.3 200.2 L326.3 206.6 L323.4 213 L321.6 219.2 L321 225 L321.6 230.8 L323.4 237 L326.3 243.4 L330.3 249.8 L335.2 255.8 L341.3 261.7 L348.8 267.4 L357.4 273 L366.9 278.3 L376.8 283 L387.2 287.2 L398.6 291.1 L410.6 294.4 L422.9 297.3 L435.3 299.8 L447.9 301.8 L460.7 303.3 L473.8 304.4 L486.9 305 L500 305.2 L513.1 305 L526.2 304.4 L539.3 303.3 L552.1 301.8 L564.7 299.8 L577.1 297.3 L589.4 294.4 L601.4 291.1 L612.8 287.2 L623.2 283 L633.1 278.3 L642.6 273 L651.2 267.4 L658.7 261.7 L664.8 255.8 L669.7 249.8 L673.7 243.4 L676.6 237 L678.4 230.8 L679 225 Z" fill="#17252c" data-role="body" data-layer="ink"/>
  <path d="M632.6 156.7 L690.7 214.8 L685.7 219.8 L627.6 161.7 Z" fill="#17252c" data-role="body" data-layer="ink"/>
  <path d="M593.7 143.2 L688.5 238.1 L683.5 243 L588.7 148.2 Z" fill="#17252c" data-role="body" data-layer="ink"/>
  <path d="M561.7 136.7 L679.4 254.4 L674.4 259.3 L556.7 141.7 Z" fill="#17252c" data-role="body" data-layer="ink"/>
  <path d="M532.9 133.4 L666.9 267.4 L662 272.4 L528 138.4 Z" fill="#17252c" data-role="body" data-layer="ink"/>
  <path d="M506.4 132.3 L652 278 L647.1 282.9 L501.4 137.3 Z" fill="#17252c" data-role="body" data-layer="ink"/>
  <path d="M481.5 132.9 L635.5 286.9 L630.6 291.9 L476.5 137.8 Z" fill="#17252c" data-role="body" data-layer="ink"/>
  <path d="M457.9 134.7 L617.7 294.5 L612.7 299.5 L452.9 139.7 Z" fill="#17252c" data-role="body" data-layer="ink"/>
  <path d="M435.6 137.9 L598.2 300.6 L593.3 305.5 L430.7 142.9 Z" fill="#17252c" data-role="body" data-layer="ink"/>
  <path d="M414.7 142.4 L577.7 305.4 L572.7 310.4 L409.7 147.4 Z" fill="#17252c" data-role="body" data-layer="ink"/>
  <path d="M394.8 148 L556 309.2 L551.1 314.2 L389.9 153 Z" fill="#17252c" data-role="body" data-layer="ink"/>
  <path d="M376.2 154.9 L532.9 311.6 L528 316.6 L371.3 159.9 Z" fill="#17252c" data-role="body" data-layer="ink"/>
  <path d="M359.3 163.4 L508.5 312.7 L503.6 317.6 L354.3 168.3 Z" fill="#17252c" data-role="body" data-layer="ink"/>
  <path d="M343.7 173.3 L482.7 312.3 L477.7 317.2 L338.7 178.2 Z" fill="#17252c" data-role="body" data-layer="ink"/>
  <path d="M330.1 185.1 L454.9 310 L450 314.9 L325.1 190.1 Z" fill="#17252c" data-role="body" data-layer="ink"/>
  <path d="M319.6 200.1 L424.4 304.9 L419.4 309.8 L314.6 205 Z" fill="#17252c" data-role="body" data-layer="ink"/>
  <path d="M313.8 219.7 L389.2 295.1 L384.2 300.1 L308.8 224.7 Z" fill="#17252c" data-role="body" data-layer="ink"/>
  <path d="M647.8 419 L647.1 426.1 L645.2 433.2 L642.3 440 L638.4 446.6 L633.7 452.7 L628 458.4 L621.3 463.8 L614 468.8 L606.2 473.4 L598 477.5 L589.3 481.1 L580.1 484.4 L570.5 487.2 L560.8 489.7 L550.9 491.7 L541 493.4 L530.8 494.7 L520.5 495.6 L510.2 496.1 L500 496.3 L489.8 496.1 L479.5 495.6 L469.2 494.7 L459 493.4 L449.1 491.7 L439.2 489.7 L429.5 487.2 L419.9 484.4 L410.7 481.1 L402 477.5 L393.8 473.4 L386 468.8 L378.7 463.8 L372 458.4 L366.3 452.7 L361.6 446.6 L357.7 440 L354.8 433.2 L352.9 426.1 L352.2 419 L352.9 411.9 L354.8 404.8 L357.7 398 L361.6 391.4 L366.3 385.3 L372 379.6 L378.7 374.2 L386 369.2 L393.8 364.6 L402 360.5 L410.7 356.9 L419.9 353.6 L429.5 350.8 L439.2 348.3 L449.1 346.3 L459 344.6 L469.2 343.3 L479.5 342.4 L489.8 341.9 L500 341.7 L510.2 341.9 L520.5 342.4 L530.8 343.3 L541 344.6 L550.9 346.3 L560.8 348.3 L570.5 350.8 L580.1 353.6 L589.3 356.9 L598 360.5 L606.2 364.6 L614 369.2 L621.3 374.2 L628 379.6 L633.7 385.3 L638.4 391.4 L642.3 398 L645.2 404.8 L647.1 411.9 Z M635.3 414 L633.8 408.8 L631.5 403.4 L628.4 398.2 L624.6 393.2 L619.9 388.5 L614.2 383.9 L607.6 379.4 L600.4 375.2 L592.9 371.4 L585 368 L576.4 365 L567.4 362.3 L558.1 360 L548.7 358.1 L539.3 356.5 L529.6 355.3 L519.7 354.4 L509.8 353.9 L500 353.8 L490.2 353.9 L480.3 354.4 L470.4 355.3 L460.7 356.5 L451.3 358.1 L441.9 360 L432.6 362.3 L423.6 365 L415 368 L407.1 371.4 L399.6 375.2 L392.4 379.4 L385.8 383.9 L380.1 388.5 L375.4 393.2 L371.6 398.2 L368.5 403.4 L366.2 408.8 L364.7 414 L364.3 419 L364.7 424 L366.2 429.2 L368.5 434.6 L371.6 439.8 L375.4 444.8 L380.1 449.5 L385.8 454.1 L392.4 458.6 L399.6 462.8 L407.1 466.6 L415 470 L423.6 473 L432.6 475.7 L441.9 478 L451.3 479.9 L460.7 481.5 L470.4 482.7 L480.3 483.6 L490.2 484.1 L500 484.2 L509.8 484.1 L519.7 483.6 L529.6 482.7 L539.3 481.5 L548.7 479.9 L558.1 478 L567.4 475.7 L576.4 473 L585 470 L592.9 466.6 L600.4 462.8 L607.6 458.6 L614.2 454.1 L619.9 449.5 L624.6 444.8 L628.4 439.8 L631.5 434.6 L633.8 429.2 L635.3 424 L635.7 419 Z" fill="#17252c" data-role="body" data-layer="ink"/>
  <path d="M577.1 355.7 L643.7 422.3 L638.7 427.3 L572.1 360.7 Z" fill="#17252c" data-role="body" data-layer="ink"/>
  <path d="M544.2 348.3 L636.1 440.3 L631.2 445.2 L539.2 353.3 Z" fill="#17252c" data-role="body" data-layer="ink"/>
  <path d="M516 345.6 L623.9 453.5 L619 458.4 L511.1 350.6 Z" fill="#17252c" data-role="body" data-layer="ink"/>
  <path d="M490.5 345.5 L608.8 463.8 L603.8 468.8 L485.5 350.5 Z" fill="#17252c" data-role="body" data-layer="ink"/>
  <path d="M467 347.5 L591.7 472.2 L586.8 477.2 L462 352.4 Z" fill="#17252c" data-role="body" data-layer="ink"/>
  <path d="M445.3 351.2 L572.7 478.6 L567.7 483.6 L440.3 356.2 Z" fill="#17252c" data-role="body" data-layer="ink"/>
  <path d="M425.1 356.6 L552 483.4 L547.1 488.4 L420.2 361.5 Z" fill="#17252c" data-role="body" data-layer="ink"/>
  <path d="M406.8 363.6 L529.6 486.5 L524.7 491.4 L401.8 368.6 Z" fill="#17252c" data-role="body" data-layer="ink"/>
  <path d="M390.4 372.7 L505.4 487.7 L500.5 492.7 L385.4 377.7 Z" fill="#17252c" data-role="body" data-layer="ink"/>
  <path d="M376.2 384 L479 486.8 L474.1 491.8 L371.2 388.9 Z" fill="#17252c" data-role="body" data-layer="ink"/>
  <path d="M365.4 398.6 L449.5 482.7 L444.5 487.7 L360.4 403.6 Z" fill="#17252c" data-role="body" data-layer="ink"/>
  <path d="M361 419.7 L413.7 472.4 L408.8 477.4 L356.1 424.7 Z" fill="#17252c" data-role="body" data-layer="ink"/>
  <path d="M605.8 575.5 L605.3 581.1 L603.9 586.7 L601.8 592.1 L599 597.2 L595.6 602.1 L591.4 606.6 L586.6 610.8 L581.4 614.7 L575.7 618.3 L569.9 621.5 L563.7 624.4 L557.1 626.9 L550.2 629.1 L543.3 631 L536.3 632.6 L529.2 633.9 L521.9 634.9 L514.6 635.6 L507.3 636 L500 636.1 L492.7 636 L485.4 635.6 L478.1 634.9 L470.8 633.9 L463.7 632.6 L456.7 631 L449.8 629.1 L442.9 626.9 L436.3 624.4 L430.1 621.5 L424.3 618.3 L418.6 614.7 L413.4 610.8 L408.6 606.6 L404.4 602.1 L401 597.2 L398.2 592.1 L396.1 586.7 L394.7 581.1 L394.2 575.5 L394.7 569.9 L396.1 564.3 L398.2 558.9 L401 553.8 L404.4 548.9 L408.6 544.4 L413.4 540.2 L418.6 536.3 L424.3 532.7 L430.1 529.5 L436.3 526.6 L442.9 524.1 L449.8 521.9 L456.7 520 L463.7 518.4 L470.8 517.1 L478.1 516.1 L485.4 515.4 L492.7 515 L500 514.9 L507.3 515 L514.6 515.4 L521.9 516.1 L529.2 517.1 L536.3 518.4 L543.3 520 L550.2 521.9 L557.1 524.1 L563.7 526.6 L569.9 529.5 L575.7 532.7 L581.4 536.3 L586.6 540.2 L591.4 544.4 L595.6 548.9 L599 553.8 L601.8 558.9 L603.9 564.3 L605.3 569.9 Z M593.4 571.8 L592.5 568 L590.9 564 L588.8 560.1 L586.2 556.5 L583 553 L579.1 549.5 L574.6 546.2 L569.6 543 L564.5 540.2 L559 537.7 L553.1 535.4 L546.8 533.4 L540.4 531.6 L533.9 530.1 L527.3 528.9 L520.6 528 L513.7 527.4 L506.8 527 L500 526.9 L493.2 527 L486.3 527.4 L479.4 528 L472.7 528.9 L466.1 530.1 L459.6 531.6 L453.2 533.4 L446.9 535.4 L441 537.7 L435.5 540.2 L430.4 543 L425.4 546.2 L420.9 549.5 L417 553 L413.8 556.5 L411.2 560.1 L409.1 564 L407.5 568 L406.6 571.8 L406.3 575.5 L406.6 579.2 L407.5 583 L409.1 587 L411.2 590.9 L413.8 594.5 L417 598 L420.9 601.5 L425.4 604.8 L430.4 608 L435.5 610.8 L441 613.3 L446.9 615.6 L453.2 617.6 L459.6 619.4 L466.1 620.9 L472.7 622.1 L479.4 623 L486.3 623.6 L493.2 624 L500 624.1 L506.8 624 L513.7 623.6 L520.6 623 L527.3 622.1 L533.9 620.9 L540.4 619.4 L546.8 617.6 L553.1 615.6 L559 613.3 L564.5 610.8 L569.6 608 L574.6 604.8 L579.1 601.5 L583 598 L586.2 594.5 L588.8 590.9 L590.9 587 L592.5 583 L593.4 579.2 L593.7 575.5 Z" fill="#17252c" data-role="body" data-layer="ink"/>
  <path d="M586.9 543.8 L593 549.9 L588.1 554.9 L582 548.7 Z" fill="#17252c" data-role="body" data-layer="ink"/>
  <path d="M540 522.3 L600.5 582.8 L595.5 587.8 L535.1 527.3 Z" fill="#17252c" data-role="body" data-layer="ink"/>
  <path d="M510.8 518.6 L590.8 598.6 L585.9 603.5 L505.9 523.5 Z" fill="#17252c" data-role="body" data-layer="ink"/>
  <path d="M485.9 519.1 L576.5 609.8 L571.6 614.7 L481 524.1 Z" fill="#17252c" data-role="body" data-layer="ink"/>
  <path d="M463.9 522.6 L559.4 618.1 L554.4 623 L458.9 527.5 Z" fill="#17252c" data-role="body" data-layer="ink"/>
  <path d="M444.3 528.4 L539.6 623.8 L534.7 628.7 L439.4 533.4 Z" fill="#17252c" data-role="body" data-layer="ink"/>
  <path d="M427.3 536.9 L517.5 627.1 L512.5 632 L422.4 541.9 Z" fill="#17252c" data-role="body" data-layer="ink"/>
  <path d="M413.3 548.4 L492.3 627.4 L487.3 632.3 L408.4 553.3 Z" fill="#17252c" data-role="body" data-layer="ink"/>
  <path d="M404.1 564.6 L462.7 623.2 L457.7 628.1 L399.1 569.5 Z" fill="#17252c" data-role="body" data-layer="ink"/>
  <path d="M569 697 L568.7 701.1 L567.8 705.2 L566.4 709.1 L564.5 712.9 L562.2 716.4 L559.5 719.7 L556.3 722.8 L552.9 725.6 L549.2 728.2 L545.3 730.5 L541.3 732.6 L537 734.4 L532.5 736 L528 737.4 L523.5 738.5 L518.9 739.4 L514.2 740.1 L509.4 740.6 L504.7 740.9 L500 741 L495.3 740.9 L490.6 740.6 L485.8 740.1 L481.1 739.4 L476.5 738.5 L472 737.4 L467.5 736 L463 734.4 L458.7 732.6 L454.7 730.5 L450.8 728.2 L447.1 725.6 L443.7 722.8 L440.5 719.7 L437.8 716.4 L435.5 712.9 L433.6 709.1 L432.2 705.2 L431.3 701.1 L431 697 L431.3 692.9 L432.2 688.8 L433.6 684.9 L435.5 681.1 L437.8 677.6 L440.5 674.3 L443.7 671.2 L447.1 668.4 L450.8 665.8 L454.7 663.5 L458.7 661.4 L463 659.6 L467.5 658 L472 656.6 L476.5 655.5 L481.1 654.6 L485.8 653.9 L490.6 653.4 L495.3 653.1 L500 653 L504.7 653.1 L509.4 653.4 L514.2 653.9 L518.9 654.6 L523.5 655.5 L528 656.6 L532.5 658 L537 659.6 L541.3 661.4 L545.3 663.5 L549.2 665.8 L552.9 668.4 L556.3 671.2 L559.5 674.3 L562.2 677.6 L564.5 681.1 L566.4 684.9 L567.8 688.8 L568.7 692.9 Z M556.8 694.7 L556.2 692.2 L555.3 689.6 L554.1 687.1 L552.5 684.7 L550.7 682.4 L548.3 680.2 L545.6 677.9 L542.6 675.9 L539.5 674 L536.2 672.3 L532.6 670.8 L528.8 669.4 L524.8 668.2 L520.8 667.2 L516.8 666.4 L512.7 665.8 L508.5 665.3 L504.2 665.1 L500 665 L495.8 665.1 L491.5 665.3 L487.3 665.8 L483.2 666.4 L479.2 667.2 L475.2 668.2 L471.2 669.4 L467.4 670.8 L463.8 672.3 L460.5 674 L457.4 675.9 L454.4 677.9 L451.7 680.2 L449.3 682.4 L447.5 684.7 L445.9 687.1 L444.7 689.6 L443.8 692.2 L443.2 694.7 L443 697 L443.2 699.3 L443.8 701.8 L444.7 704.4 L445.9 706.9 L447.5 709.3 L449.3 711.6 L451.7 713.8 L454.4 716.1 L457.4 718.1 L460.5 720 L463.8 721.7 L467.4 723.2 L471.2 724.6 L475.2 725.8 L479.2 726.8 L483.2 727.6 L487.3 728.2 L491.5 728.7 L495.8 728.9 L500 729 L504.2 728.9 L508.5 728.7 L512.7 728.2 L516.8 727.6 L520.8 726.8 L524.8 725.8 L528.8 724.6 L532.6 723.2 L536.2 721.7 L539.5 720 L542.6 718.1 L545.6 716.1 L548.3 713.8 L550.7 711.6 L552.5 709.3 L554.1 706.9 L555.3 704.4 L556.2 701.8 L556.8 699.3 L557 697 Z" fill="#17252c" data-role="body" data-layer="ink"/>
  <path d="M523.6 658.7 L564.8 699.8 L559.8 704.8 L518.7 663.6 Z" fill="#17252c" data-role="body" data-layer="ink"/>
  <path d="M496.2 656.7 L555.1 715.6 L550.1 720.5 L491.3 661.7 Z" fill="#17252c" data-role="body" data-layer="ink"/>
  <path d="M474.5 660.4 L539.5 725.4 L534.5 730.4 L469.5 665.4 Z" fill="#17252c" data-role="body" data-layer="ink"/>
  <path d="M456.8 668.2 L519.7 731.1 L514.8 736.1 L451.8 673.2 Z" fill="#17252c" data-role="body" data-layer="ink"/>
  <path d="M443.8 680.7 L495.4 732.3 L490.4 737.2 L438.8 685.6 Z" fill="#17252c" data-role="body" data-layer="ink"/>
  <path d="M441.5 703.8 L460.9 723.3 L456 728.2 L436.5 708.7 Z" fill="#17252c" data-role="body" data-layer="ink"/>
  <path d="M341.5 164.7 L334.9 160.9 L325.4 155.7 L313.7 149.4 L300.9 142.3 L288.1 134.7 L276 127 L265.4 119.2 L256.6 110.4 L250.8 99.3 L249.4 87.5 L251.4 77.4 L254.8 69.3 L258.5 62.7 L261.8 57.7 L263.8 54.7 L264.6 52.9 L295.4 67.1 L293.4 71.3 L290.4 76.2 L287.5 80.5 L285.2 84.5 L283.8 87.6 L283.4 89.2 L283.3 89.2 L283.4 89.6 L287.1 93.1 L295.1 98.9 L305.8 105.7 L317.8 112.7 L330.1 119.6 L341.6 125.9 L351.5 131.2 L358.5 135.3 Z" fill="#17252c" data-role="body" data-layer="ink"/>
  <path d="M641.5 135.3 L648.5 131.2 L658.4 125.9 L669.9 119.6 L682.2 112.7 L694.2 105.7 L704.9 98.9 L712.9 93.1 L716.6 89.6 L716.7 89.2 L716.6 89.2 L716.2 87.6 L714.8 84.5 L712.5 80.5 L709.6 76.2 L706.6 71.3 L704.6 67.1 L735.4 52.9 L736.2 54.7 L738.2 57.7 L741.5 62.7 L745.2 69.3 L748.6 77.4 L750.6 87.5 L749.2 99.3 L743.4 110.4 L734.6 119.2 L724 127 L711.9 134.7 L699.1 142.3 L686.3 149.4 L674.6 155.7 L665.1 160.9 L658.5 164.7 Z" fill="#17252c" data-role="body" data-layer="ink"/>
  </g>
</svg>
