<svg xmlns="http://www.w3.org/2000/svg" viewBox="0 0 1000 1000" role="img" aria-labelledby="title" data-source="gray-anatomy" data-figure="Gray224">
  <title id="title">Left pisiform</title>
  <g fill-rule="nonzero">
  <path d="M347.5 918.0 C329.2 916.8 311.3 914.3 307.8 912.5 C304.3 910.6 296.9 908.3 291.3 907.2 C285.8 906.2 272.9 899.5 262.7 892.5 C252.6 885.4 243.3 879.6 242.0 879.6 C237.3 879.6 210.3 858.8 189.6 839.1 C185.4 835.2 177.8 829.8 172.6 827.2 C167.5 824.5 163.2 820.9 163.2 819.2 C163.2 817.4 155.0 803.5 145.0 788.3 C134.9 773.0 124.9 756.9 122.7 752.6 C120.4 748.2 116.5 741.0 114.0 736.7 C111.4 732.3 109.3 726.4 109.3 723.6 C109.3 720.7 107.1 716.6 104.5 714.4 C101.9 712.3 99.7 706.0 99.7 700.5 C99.7 695.1 97.1 686.3 93.9 681.1 C90.4 675.3 87.3 662.0 86.0 647.3 C84.9 634.0 82.6 619.5 80.9 615.0 C72.0 591.7 74.4 489.1 84.5 462.6 C86.3 457.8 88.1 444.2 88.5 432.4 C88.9 419.6 91.2 407.2 94.4 401.5 C97.3 396.3 99.7 388.0 99.7 383.1 C99.7 378.2 101.9 370.1 104.5 365.0 C109.5 355.2 117.2 329.6 123.2 302.5 C125.2 293.5 129.3 283.4 132.3 280.0 C135.3 276.7 137.8 271.7 137.8 269.0 C137.8 266.3 140.0 262.3 142.7 260.1 C146.7 256.7 148.4 257.1 152.1 262.1 C157.6 269.3 158.2 264.7 153.4 251.1 C150.3 242.3 150.9 239.9 158.2 230.8 C162.8 225.1 167.6 219.0 168.9 217.3 C192.0 186.1 226.8 154.7 264.4 131.3 C275.4 124.4 289.4 115.6 295.5 111.6 C301.5 107.7 309.0 104.5 312.0 104.5 C315.1 104.5 323.0 101.7 329.7 98.3 C336.3 94.9 346.3 91.2 351.8 90.1 C357.3 89.0 366.1 86.2 371.3 83.9 C385.7 77.5 471.8 78.9 479.8 85.6 C483.8 88.9 493.5 90.8 509.5 91.3 C525.8 91.8 537.1 94.0 545.4 98.2 C552.0 101.7 560.5 104.5 564.2 104.5 C568.0 104.5 577.3 107.5 585.0 111.2 L598.9 117.9 L606.9 110.4 C613.8 103.9 618.1 102.9 640.1 102.7 C654.0 102.5 666.6 101.1 668.2 99.5 C669.7 97.9 672.2 88.7 673.7 79.1 C676.1 63.2 677.1 61.5 685.1 60.6 C693.7 59.6 693.8 59.7 693.8 78.7 C693.8 102.0 696.9 104.5 726.9 104.5 C742.0 104.5 750.4 106.2 758.0 110.8 C763.8 114.3 772.3 117.2 777.0 117.2 C781.7 117.2 787.4 119.7 789.7 122.7 C792.0 125.8 801.0 132.0 809.7 136.5 C832.6 148.2 849.5 158.8 849.5 161.3 C849.5 162.5 854.8 170.6 861.4 179.4 C877.8 201.4 898.9 244.9 905.2 269.7 C909.5 286.6 916.1 342.3 916.2 361.8 C916.2 378.3 909.8 419.9 905.1 433.3 C889.3 478.5 883.4 493.3 869.7 521.7 C867.3 526.6 865.3 533.4 865.3 536.7 C865.3 540.1 861.2 551.0 856.1 561.1 C851.1 571.2 841.5 591.6 834.8 606.4 C828.1 621.3 815.5 643.9 806.7 656.7 C797.9 669.5 786.0 687.7 780.2 697.2 C774.5 706.7 768.5 714.4 766.9 714.4 C765.3 714.4 752.4 728.4 738.2 745.4 C724.0 762.5 707.4 780.2 701.4 784.8 C695.3 789.5 686.5 798.1 682.0 803.9 C666.2 824.2 603.8 866.9 589.9 867.0 C586.7 867.0 579.9 869.8 574.7 873.3 C569.4 876.8 563.2 879.6 560.8 879.6 C558.5 879.6 552.1 881.5 546.5 883.8 C520.7 894.7 493.6 902.7 476.2 904.7 C465.7 905.9 453.5 909.1 449.2 912.0 C439.3 918.4 394.3 921.0 347.5 918.0 Z M486.6 844.6 C490.6 838.7 498.1 832.1 503.3 829.9 C514.5 825.2 515.2 820.9 505.8 815.8 C499.8 812.6 497.9 813.3 490.7 821.7 C486.2 827.0 476.9 833.1 470.0 835.3 C458.4 839.0 457.1 838.7 452.9 832.4 C449.9 827.8 445.1 825.6 438.3 825.6 C431.3 825.6 425.4 822.8 419.5 816.7 C410.6 807.4 411.1 803.4 421.1 803.4 C424.3 803.4 426.9 802.0 426.9 800.2 C426.9 798.5 425.5 797.0 423.8 797.0 C422.0 797.0 417.7 794.2 414.2 790.7 L407.9 784.3 L407.9 793.9 C407.9 803.2 407.5 803.4 392.2 803.4 C383.5 803.4 375.6 802.1 374.6 800.4 C372.0 796.1 388.8 781.4 399.8 778.5 L409.1 776.1 L401.9 768.8 C393.7 760.6 390.1 730.8 397.0 728.2 C402.3 726.2 417.4 742.0 417.4 749.5 C417.4 752.9 418.8 755.7 420.6 755.7 C428.4 755.7 421.1 732.8 408.3 717.0 C405.7 713.6 404.7 708.4 406.0 703.4 C408.9 691.7 399.8 692.9 393.5 705.1 C386.2 719.1 378.2 716.4 375.9 699.2 C373.6 682.2 366.0 673.4 358.8 679.4 C351.2 685.7 352.8 693.0 363.8 702.0 C380.1 715.4 367.8 723.4 347.4 712.8 C338.6 708.2 338.0 706.7 338.0 689.2 C338.0 673.8 339.4 668.7 345.9 661.0 C356.7 648.2 367.9 645.8 378.3 654.0 C382.8 657.5 388.3 660.4 390.5 660.4 C392.7 660.4 395.3 662.7 396.4 665.4 C397.5 668.2 399.9 669.4 402.0 668.1 C404.6 666.5 404.1 664.7 400.4 662.0 C397.5 659.9 394.3 653.7 393.2 648.3 C392.1 642.9 387.8 636.2 383.7 633.5 C378.5 630.1 376.1 625.5 376.1 619.0 C376.1 613.3 374.1 608.6 371.2 607.5 C363.0 604.4 356.3 587.7 358.5 575.9 C360.0 567.8 358.8 563.0 353.7 556.1 C347.3 547.4 347.1 545.3 350.3 519.4 C352.1 504.3 352.9 490.0 351.9 487.6 C351.0 485.2 352.6 475.5 355.4 466.2 C358.2 456.8 361.4 431.5 362.5 409.9 L364.4 370.6 L356.7 373.0 C347.9 375.8 344.3 380.2 346.4 385.9 C348.5 391.3 339.1 408.7 331.5 413.4 C328.1 415.6 325.3 420.5 325.3 424.3 C325.3 433.2 320.0 436.6 314.0 431.6 C310.4 428.6 309.4 428.6 309.4 431.9 C309.4 434.1 313.8 439.7 319.2 444.2 L329.1 452.4 L320.3 465.8 C315.4 473.2 308.8 480.1 305.6 481.1 C300.6 482.7 300.0 484.8 302.1 494.7 C305.4 509.9 305.3 538.5 302.1 541.7 C296.9 546.9 288.7 537.2 286.8 523.5 C285.7 515.8 283.7 505.0 282.4 499.5 C280.3 490.4 281.1 488.9 290.0 484.3 C298.2 480.1 299.9 477.3 299.9 468.1 C299.9 455.5 295.6 454.2 280.3 462.1 C261.5 471.9 265.2 459.4 288.9 433.7 C296.7 425.2 303.0 416.6 303.0 414.6 C303.0 412.6 310.7 400.1 320.2 386.8 C329.6 373.5 338.2 359.7 339.4 356.0 C340.6 352.3 352.1 338.9 365.0 326.2 C386.6 304.9 397.2 289.3 417.4 248.8 C425.6 232.5 463.3 185.2 473.3 178.6 C477.5 175.9 480.9 171.1 480.9 168.0 C480.9 161.1 486.1 156.8 497.8 154.0 C505.1 152.3 506.6 150.4 506.1 143.3 C504.6 124.8 506.3 117.9 512.7 116.3 C516.2 115.3 519.1 113.0 519.1 111.1 C519.1 106.8 510.6 106.6 507.9 110.8 C506.9 112.6 501.4 114.1 495.8 114.1 C490.3 114.2 483.0 116.2 479.8 118.7 C475.1 122.2 472.6 122.4 467.7 119.4 C462.6 116.3 460.8 116.6 457.4 121.2 C449.9 131.2 426.9 126.0 426.9 114.2 C426.9 107.6 432.9 104.5 445.7 104.5 C450.5 104.5 455.4 103.5 456.6 102.4 C461.2 97.7 450.8 91.8 437.9 91.8 C422.9 91.8 406.5 102.6 401.5 115.7 C399.1 121.9 397.1 122.6 384.7 121.2 C372.0 119.8 370.1 120.5 364.1 129.0 C360.1 134.6 357.0 144.5 356.4 153.9 C355.7 166.4 354.2 169.8 349.3 170.7 C345.9 171.4 341.4 169.5 339.2 166.5 C335.6 161.5 334.8 161.6 328.7 167.8 C323.9 172.6 322.6 176.7 324.0 182.4 C325.6 188.8 324.8 190.3 319.7 190.3 C316.2 190.3 309.6 193.3 304.9 197.0 C296.7 203.4 296.1 203.5 290.1 198.0 C283.9 192.4 283.5 192.6 274.0 204.0 C268.7 210.5 260.5 217.8 255.8 220.2 C251.1 222.7 245.3 228.7 243.0 233.7 C240.7 238.6 236.7 247.2 234.0 252.7 C229.0 263.3 230.5 269.7 237.9 269.7 C243.4 269.7 252.2 281.9 252.2 289.5 C252.2 292.7 247.3 299.6 241.3 304.9 C227.1 317.3 229.2 322.5 248.3 322.3 C261.3 322.1 263.3 323.0 263.3 328.4 C263.3 334.0 261.4 334.7 248.4 334.3 C236.2 333.9 233.0 334.9 231.5 339.9 C229.5 346.1 213.0 348.7 209.6 343.2 C206.3 337.9 214.3 317.7 220.5 315.7 C225.8 314.0 226.8 310.8 226.8 294.8 C226.8 272.5 220.3 266.4 210.5 279.5 C193.2 302.7 191.1 304.6 182.6 304.6 C177.8 304.6 173.0 305.4 172.0 306.5 C169.4 309.0 179.1 336.4 182.6 336.4 C187.5 336.4 185.8 354.6 180.7 356.6 C170.5 360.5 160.9 349.7 169.7 344.3 C174.4 341.4 170.2 336.4 163.1 336.4 C158.7 336.4 156.9 338.6 156.9 343.7 C156.9 347.8 154.8 353.8 152.2 357.2 C146.3 365.0 146.2 368.2 151.7 368.2 C154.1 368.2 157.9 370.4 160.2 373.1 C163.6 377.2 162.4 379.9 152.4 390.2 L140.5 402.4 L147.3 407.1 C152.9 411.1 153.8 413.9 152.1 423.0 C150.8 429.6 151.3 435.0 153.3 436.2 C155.3 437.4 155.8 444.5 154.7 454.0 C153.2 466.5 153.8 469.8 157.4 469.8 C159.9 469.8 163.4 468.4 165.1 466.7 C167.1 464.7 168.3 469.6 168.5 481.0 L168.7 498.4 L154.9 498.4 C139.9 498.4 137.5 502.0 146.2 511.6 C151.0 516.8 151.0 518.2 146.4 527.6 C143.7 533.2 142.0 538.7 142.6 539.8 C143.3 540.8 144.5 550.7 145.4 561.6 C146.3 572.5 148.7 583.5 150.7 586.0 C152.8 588.5 153.5 594.0 152.4 598.4 C150.8 605.0 151.8 606.6 158.6 608.3 C169.1 611.0 171.6 608.2 166.9 599.3 C164.9 595.3 162.9 575.4 162.4 554.0 C161.7 518.4 162.1 515.9 167.7 515.9 C172.9 515.9 173.9 518.7 174.8 534.7 C175.7 552.0 176.9 554.7 189.2 567.2 C202.5 580.8 202.5 580.9 196.4 587.6 C193.0 591.3 190.1 598.2 189.9 602.8 C189.7 607.4 188.5 619.8 187.2 630.3 C185.7 642.6 186.2 652.7 188.6 658.8 L192.3 668.3 L198.3 660.4 C202.6 654.7 204.1 647.7 203.8 635.7 C203.4 618.0 209.0 606.6 212.7 617.8 C213.7 621.2 216.4 628.9 218.7 635.0 C220.9 641.1 224.5 651.1 226.7 657.3 C228.9 663.4 230.5 672.4 230.2 677.2 C229.7 689.3 234.6 697.4 243.8 699.8 C256.9 703.0 258.1 718.5 245.6 722.5 C236.9 725.2 237.9 738.5 247.4 748.1 C252.2 752.8 255.4 759.7 255.4 765.0 C255.4 770.0 257.5 775.8 260.1 778.0 C262.8 780.2 264.9 784.6 264.9 787.9 C264.9 796.7 276.0 795.3 283.7 785.5 C289.2 778.6 291.1 777.8 295.1 781.1 C297.7 783.3 299.9 787.1 299.9 789.5 C299.9 791.9 302.0 793.9 304.6 793.9 C307.2 793.9 311.1 796.7 313.3 800.2 C318.4 808.4 327.4 808.4 330.0 800.3 C332.0 794.1 332.2 794.1 341.4 800.9 C352.2 808.9 353.5 816.1 344.1 816.1 C339.5 816.1 337.9 817.8 338.6 821.7 C339.5 826.0 342.6 827.1 352.4 826.5 C373.8 825.3 385.6 828.4 385.6 835.1 C385.6 838.4 384.2 842.0 382.5 843.1 C376.9 846.6 378.9 851.9 384.8 849.3 C395.3 844.8 437.7 844.9 442.8 849.5 C447.0 853.2 467.4 857.1 476.2 855.8 C477.9 855.5 482.6 850.5 486.6 844.6 Z M560.4 847.9 C563.9 844.4 566.7 840.2 566.7 838.6 C566.7 837.0 574.6 832.0 584.2 827.6 C597.8 821.4 601.7 818.0 601.7 812.5 L601.7 805.5 L594.3 812.4 C589.5 816.8 582.9 819.3 575.4 819.3 C569.1 819.3 562.9 820.9 561.7 822.8 C560.6 824.7 554.8 828.3 548.9 830.8 C541.0 834.0 538.1 837.2 538.1 842.6 C538.1 856.0 549.6 858.7 560.4 847.9 Z M255.5 811.2 C263.5 798.2 263.2 797.4 248.3 795.0 L237.3 793.2 L237.6 807.8 C238.0 826.2 245.3 827.6 255.5 811.2 Z M302.5 815.6 C301.1 806.4 291.8 800.6 286.7 805.8 C283.7 808.8 284.1 811.0 288.7 816.0 C296.4 824.6 303.8 824.4 302.5 815.6 Z M665.4 795.2 C668.2 792.7 672.9 790.7 675.9 790.7 C682.8 790.7 686.3 781.9 681.3 777.0 C678.3 774.1 675.9 775.0 670.5 781.2 C666.7 785.5 659.4 790.5 654.3 792.3 C641.5 796.7 638.8 805.1 651.3 802.0 C656.3 800.7 662.7 797.7 665.4 795.2 Z M602.9 770.0 C607.7 765.7 613.4 762.1 615.7 762.1 C618.0 762.1 621.7 759.9 623.9 757.3 C626.1 754.7 632.8 752.6 638.8 752.6 C651.3 752.6 652.2 745.3 639.9 743.5 C630.5 742.2 604.6 749.3 599.1 754.8 C596.7 757.0 591.0 759.8 586.3 760.9 C573.5 764.0 569.1 768.4 573.4 773.6 C579.1 780.5 593.6 778.7 602.9 770.0 Z M226.8 765.7 C226.8 754.5 219.9 740.2 211.9 735.0 C203.5 729.5 203.2 722.1 209.9 688.6 C211.4 680.9 210.7 679.5 204.9 679.5 C198.8 679.5 198.3 680.7 200.1 691.9 C202.0 703.8 201.5 704.7 189.0 713.0 C181.8 717.7 176.0 722.3 176.0 723.0 C176.0 728.5 183.6 736.9 187.3 735.4 C194.9 732.5 201.4 737.0 201.4 745.1 C201.4 749.9 205.4 756.6 211.6 762.3 C223.5 773.1 226.8 773.9 226.8 765.7 Z M314.9 761.6 C308.9 757.2 306.2 752.4 306.2 745.9 C306.2 735.2 308.5 734.7 321.9 742.2 C330.1 746.8 331.5 749.2 329.9 755.7 C327.0 767.7 324.5 768.6 314.9 761.6 Z M571.5 747.8 C571.5 742.3 569.2 741.4 554.0 740.9 C518.3 739.9 503.2 734.8 503.2 723.9 C503.2 720.7 498.7 714.4 493.3 709.9 C484.5 702.5 455.5 662.7 455.5 658.1 C455.5 657.1 446.9 646.5 436.4 634.7 C425.7 622.6 416.5 609.0 415.4 603.6 C414.3 598.2 411.5 592.2 409.1 590.2 C406.7 588.2 404.7 582.2 404.7 576.9 C404.7 571.5 401.8 564.1 398.3 560.3 C392.6 554.3 391.9 549.0 391.7 512.5 C391.2 441.6 399.1 399.6 412.0 404.0 C416.3 405.5 416.1 415.5 411.2 442.8 C409.3 453.3 407.5 483.2 407.3 509.2 C407.0 548.5 407.8 556.9 411.8 559.2 C414.5 560.6 417.6 565.8 418.8 570.6 C422.6 586.4 434.0 606.9 444.9 617.8 C450.7 623.7 455.5 631.1 455.5 634.4 C455.5 637.7 459.5 644.8 464.3 650.1 C469.1 655.4 482.2 670.8 493.5 684.2 C515.0 709.8 532.7 721.6 555.8 725.6 C562.7 726.8 576.5 730.6 586.6 734.0 L604.9 740.3 L615.6 733.7 C621.4 730.1 628.1 727.1 630.3 727.1 C636.1 727.1 673.8 709.0 676.2 705.0 C677.4 703.2 681.1 701.7 684.5 701.7 C699.4 701.7 759.4 630.8 781.4 587.4 C786.3 577.8 794.1 564.2 798.7 557.2 C803.4 550.2 811.3 535.2 816.2 523.8 C821.1 512.5 827.5 500.3 830.5 496.8 C842.5 482.4 859.7 440.4 862.4 418.7 C863.9 406.7 867.2 392.8 869.6 388.0 C876.6 374.4 875.0 293.8 867.6 286.4 C863.1 281.9 860.5 281.6 852.8 284.5 C844.9 287.5 842.6 287.1 838.0 282.0 C835.0 278.7 831.2 276.0 829.6 276.0 C826.3 276.0 827.8 293.0 832.0 302.7 C834.3 308.0 833.3 307.8 823.8 301.1 C817.8 297.0 812.3 293.1 811.5 292.6 C810.7 292.1 810.4 286.5 810.8 280.2 L811.6 268.8 L797.7 270.7 C788.9 271.9 782.4 271.2 780.1 268.9 C773.9 262.7 775.9 257.0 784.3 257.0 C790.2 257.0 792.3 255.3 792.3 250.5 C792.3 244.4 791.8 244.3 782.9 248.9 C777.7 251.6 770.8 253.8 767.5 253.8 C761.8 253.8 754.2 242.2 754.2 233.5 C754.2 231.3 750.6 226.1 746.2 222.0 C741.8 217.9 738.3 212.9 738.3 210.8 C738.3 208.8 735.1 205.6 731.1 203.8 C723.6 200.3 723.7 200.2 739.9 195.1 C749.0 192.2 745.3 181.7 734.4 179.5 C726.0 177.8 723.1 178.8 718.5 184.6 C712.5 192.5 710.9 209.3 716.2 209.3 C718.1 209.3 718.5 211.0 717.2 213.1 C715.4 216.1 714.6 216.1 713.6 213.1 C711.7 207.4 693.8 208.3 693.8 214.1 C693.8 216.7 696.6 218.8 700.1 218.8 C710.6 218.8 708.4 230.9 697.8 232.1 C689.6 233.1 689.0 234.1 688.7 249.0 C688.6 257.8 688.0 283.5 687.5 306.2 C686.8 334.9 687.8 350.1 690.6 356.1 C694.3 363.9 693.9 365.6 687.1 372.7 C675.1 385.3 655.7 382.3 655.7 367.8 C655.7 364.8 659.2 358.0 663.6 352.9 C672.9 341.8 673.7 334.7 666.1 330.5 C661.6 327.9 661.4 326.7 664.9 322.4 C667.8 318.9 669.0 308.6 668.6 289.5 C668.3 274.2 668.2 257.4 668.4 252.2 C669.5 216.5 670.9 202.9 674.6 191.0 C679.7 175.0 679.1 174.1 661.4 172.1 C649.7 170.8 646.0 172.0 635.4 180.4 C627.2 186.9 619.5 190.3 612.6 190.3 C595.4 190.3 567.8 225.9 579.4 233.1 C584.3 236.2 583.2 247.4 578.0 247.4 C575.5 247.4 572.0 244.9 570.2 241.9 C567.6 237.2 566.1 236.9 560.6 240.3 C551.9 245.6 547.7 245.3 547.7 239.4 C547.7 232.7 539.1 230.0 533.3 234.8 C526.8 240.1 527.4 246.4 534.5 248.2 C543.9 250.7 550.9 267.8 547.5 279.8 C543.7 293.1 547.1 314.2 553.0 314.2 C561.2 314.2 569.9 307.7 569.9 301.7 C569.9 298.4 572.0 294.9 574.7 293.9 C582.9 290.8 579.9 283.6 566.7 274.4 C554.6 266.0 554.2 265.2 559.1 259.7 C565.2 253.0 569.9 254.7 569.9 263.5 C569.9 274.4 589.8 271.8 601.5 259.4 C606.8 253.7 611.2 247.3 611.2 245.3 C611.2 239.5 601.9 231.6 595.0 231.6 C586.3 231.6 583.9 223.0 590.5 215.7 C595.0 210.8 598.8 209.9 609.3 211.4 C621.3 213.0 622.9 212.4 626.4 204.8 C628.5 200.3 633.8 194.9 638.1 192.9 C642.5 190.9 646.1 188.0 646.1 186.6 C646.1 185.1 648.5 183.9 651.3 183.9 C655.5 183.9 656.1 186.1 654.6 195.3 C652.2 210.3 647.4 215.7 636.3 215.7 C623.8 215.7 620.3 223.8 622.8 247.1 L624.8 266.3 L605.3 285.1 C594.6 295.5 585.8 305.2 585.8 306.8 C585.8 308.4 580.1 312.2 573.2 315.3 C566.3 318.3 559.8 323.6 558.7 327.0 C557.6 330.4 554.3 333.2 551.2 333.2 C548.2 333.2 541.5 338.9 536.3 345.8 C527.2 358.2 522.2 361.6 522.2 355.7 C522.2 349.1 512.1 342.8 504.5 344.7 C493.9 347.3 494.8 341.5 506.3 333.3 C513.6 328.1 518.3 327.0 526.9 328.6 C533.1 329.8 538.1 330.1 538.1 329.3 C538.1 323.7 527.2 307.9 519.2 302.0 C507.5 293.4 506.8 286.4 517.3 282.4 C527.7 278.5 536.0 265.4 533.4 257.1 C530.0 246.4 523.7 249.5 506.3 270.5 C487.2 293.4 485.2 294.6 479.5 286.9 C475.6 281.5 474.9 281.5 467.3 286.4 C461.8 290.0 459.8 293.7 460.9 297.9 C461.9 302.0 460.2 305.3 455.6 307.7 C450.8 310.3 449.1 313.8 449.8 319.7 C450.5 326.1 448.6 329.1 441.2 333.2 C430.9 338.9 428.4 344.8 433.2 352.2 C435.6 356.0 437.0 356.2 440.1 353.0 C445.5 347.6 457.1 348.1 461.9 353.9 C464.1 356.5 468.3 358.6 471.4 358.6 C474.5 358.6 478.8 356.5 480.9 353.9 C487.6 345.9 494.2 348.0 493.1 357.8 C492.2 365.2 490.4 366.7 481.3 367.6 C475.4 368.2 469.1 367.1 467.2 365.2 C461.2 359.2 448.7 361.2 446.8 368.5 C445.4 374.1 443.3 374.9 434.6 373.5 C426.0 372.1 423.3 373.2 419.1 379.5 C412.0 390.3 407.9 389.1 407.9 376.2 C407.9 368.3 409.7 364.2 414.5 361.6 C419.4 359.0 420.8 355.9 419.7 350.0 C417.9 341.0 429.7 311.5 437.7 304.9 C440.5 302.6 442.8 298.4 442.8 295.7 C442.8 293.0 448.5 284.0 455.5 275.7 C462.5 267.4 468.2 259.6 468.2 258.3 C468.2 257.1 473.6 249.8 480.1 242.2 C509.8 207.5 523.5 193.4 527.3 193.4 C529.5 193.4 541.1 184.9 553.0 174.4 C570.6 158.9 576.7 155.4 585.9 155.4 C593.1 155.3 599.0 153.0 602.5 149.0 C609.5 140.8 620.8 140.9 637.1 149.2 C650.0 155.8 650.0 155.8 656.8 149.5 C660.5 146.0 667.2 142.7 671.6 142.1 C682.3 140.6 683.4 130.0 673.7 120.9 C666.5 114.1 665.0 113.9 644.6 117.2 C632.8 119.1 618.6 122.5 613.2 124.8 C607.7 127.0 597.6 130.0 590.7 131.2 C583.8 132.5 575.3 135.6 571.7 138.1 C568.2 140.6 560.2 142.6 554.1 142.6 C546.3 142.6 541.6 144.5 538.9 149.0 C536.7 152.4 533.1 155.3 530.9 155.3 C522.9 155.3 466.1 214.4 448.2 241.4 C438.3 256.5 430.1 269.6 430.1 270.7 C430.1 271.7 425.8 278.9 420.5 286.7 C415.2 294.6 408.7 306.4 405.9 313.1 C403.1 319.7 398.1 328.6 394.8 332.8 C391.5 337.0 388.8 343.9 388.8 348.1 C388.8 352.3 386.5 360.3 383.6 365.9 C380.5 371.9 378.2 384.7 377.9 397.3 C377.5 412.9 375.8 420.4 371.6 425.0 C366.5 430.7 365.9 437.5 366.3 487.8 C366.8 545.8 367.7 554.1 375.0 568.1 C377.3 572.6 379.2 581.0 379.3 586.9 C379.3 592.7 382.1 601.1 385.6 605.6 C389.1 610.0 392.0 617.4 392.0 622.0 C392.0 626.7 394.8 632.9 398.3 635.9 C402.1 639.1 404.7 645.2 404.7 650.9 C404.7 656.1 406.2 660.4 408.0 660.4 C409.9 660.4 413.4 665.3 415.9 671.3 C418.4 677.2 429.0 691.0 439.6 701.9 C450.1 712.8 458.7 722.6 458.7 723.7 C458.7 724.8 461.5 727.1 464.9 728.8 C468.3 730.5 479.3 736.7 489.2 742.6 C503.6 751.0 509.8 752.9 518.8 751.6 C525.1 750.7 533.0 751.2 536.5 752.7 C540.0 754.2 549.3 755.2 557.2 754.8 C569.1 754.3 571.5 753.1 571.5 747.8 Z M680.9 732.6 C696.5 724.8 700.4 718.8 692.0 715.5 C688.2 714.1 684.3 715.9 679.8 721.4 C676.1 725.8 669.2 730.4 664.3 731.6 C659.4 732.7 656.3 735.1 657.3 736.8 C660.1 741.3 665.1 740.4 680.9 732.6 Z M277.7 717.8 C275.9 714.4 274.4 707.3 274.4 701.9 C274.4 693.9 275.7 692.2 281.7 692.2 C285.8 692.2 291.0 690.4 293.3 688.2 C296.8 685.0 297.1 685.7 295.2 692.2 C293.9 696.6 292.1 705.5 291.2 712.1 C289.5 725.1 283.1 727.9 277.7 717.8 Z M260.7 668.5 C253.0 662.7 255.0 653.2 264.3 651.0 C268.3 650.1 271.2 647.9 270.7 646.1 C269.7 643.0 258.0 642.2 249.0 644.8 C245.8 645.7 244.3 643.8 244.3 639.2 C244.3 635.4 241.0 629.2 236.9 625.4 C230.2 619.1 230.0 618.0 234.5 613.0 C239.9 607.0 238.2 603.2 230.2 603.2 C227.4 603.2 222.2 598.0 218.8 591.6 C212.4 579.8 211.9 567.6 216.0 532.6 C218.7 510.6 224.1 514.0 223.6 537.3 C222.9 566.7 222.8 566.5 233.1 579.4 C238.4 586.0 242.7 594.0 242.7 597.1 C242.7 600.3 245.5 603.7 249.0 604.8 C259.4 608.1 262.2 603.9 256.8 593.3 C252.9 585.9 252.6 582.7 255.5 579.2 C258.7 575.5 260.6 576.2 267.7 583.7 C272.9 589.4 282.4 594.4 293.0 597.1 C315.6 602.9 323.4 612.2 317.4 626.4 C314.2 634.0 311.0 636.6 305.0 636.8 C297.1 636.9 286.7 647.9 277.2 666.0 C272.9 674.2 268.9 674.8 260.7 668.5 Z M135.7 662.4 C137.9 656.5 131.8 650.9 122.9 650.9 C116.7 650.9 115.6 649.3 115.6 639.8 C115.6 632.0 117.0 628.7 120.4 628.7 C127.0 628.7 126.7 608.5 119.9 598.2 C115.9 592.2 115.6 589.3 118.3 586.6 C122.9 581.9 123.1 563.0 118.5 560.2 C116.6 559.0 113.0 560.0 110.5 562.5 C106.9 566.1 106.8 568.8 110.0 577.4 C113.6 586.8 113.3 588.4 107.8 592.4 C102.3 596.4 102.0 598.4 105.1 610.0 C107.4 618.7 107.5 626.7 105.5 634.0 C100.9 650.7 104.7 663.0 115.0 664.5 C131.4 667.0 134.0 666.8 135.7 662.4 Z M187.6 483.6 C182.4 478.4 186.4 467.0 196.8 456.9 C207.8 446.3 208.3 446.2 212.7 452.2 C218.9 460.6 218.7 461.5 206.6 474.4 C196.0 485.6 191.7 487.7 187.6 483.6 Z M210.9 407.9 C205.8 401.7 209.1 393.6 216.8 393.6 C225.9 393.6 231.8 401.9 226.8 407.9 C221.8 413.9 215.9 413.9 210.9 407.9 Z M495.3 406.3 C494.2 404.6 489.4 403.1 484.7 403.1 C464.8 402.9 461.4 386.4 481.0 384.6 C487.7 384.0 494.1 381.0 497.4 376.8 C502.3 370.5 503.2 370.3 508.5 374.9 C511.7 377.7 517.0 380.8 520.2 382.0 C525.1 383.7 525.4 385.0 522.2 388.8 C517.7 394.2 507.7 395.1 504.8 390.4 C503.7 388.6 501.2 387.2 499.2 387.2 C496.6 387.2 496.6 388.3 499.4 391.0 C503.9 395.6 504.4 405.2 500.2 407.7 C498.6 408.7 496.4 408.1 495.3 406.3 Z M202.5 382.3 C200.1 376.1 208.6 366.7 221.5 361.4 C227.0 359.2 233.5 355.4 235.9 353.1 C243.5 345.6 243.1 350.9 234.8 367.4 C230.4 376.2 224.5 384.2 221.8 385.3 C212.9 388.7 204.4 387.4 202.5 382.3 Z M747.8 323.9 C747.8 320.2 750.7 314.8 754.2 311.8 C757.6 308.8 760.5 304.6 760.5 302.3 C760.5 297.2 765.1 297.2 773.6 302.2 C779.3 305.7 780.8 305.3 785.0 299.1 C787.7 295.1 791.0 291.9 792.4 291.9 C794.7 291.9 802.8 311.3 801.0 312.6 C790.5 321.0 775.7 322.5 770.0 315.7 C764.0 308.5 760.8 310.0 761.5 319.7 C762.0 326.6 760.6 328.7 754.9 329.5 C749.5 330.2 747.8 328.9 747.8 323.9 Z M465.7 324.1 C462.9 322.4 462.2 318.5 463.7 312.8 C465.6 305.2 467.0 304.3 474.2 306.1 C478.8 307.3 487.2 309.0 492.9 310.0 C506.8 312.3 505.8 315.2 489.7 320.0 C482.2 322.2 474.7 324.6 473.0 325.4 C471.2 326.1 467.9 325.6 465.7 324.1 Z M315.7 312.8 C315.7 310.2 317.3 307.2 319.1 306.1 C321.0 304.9 323.8 300.6 325.4 296.4 C327.0 292.2 330.5 288.7 333.1 288.7 C339.8 288.7 339.2 292.7 330.8 305.9 C323.5 317.4 315.7 320.9 315.7 312.8 Z M263.7 282.4 C265.5 270.9 265.1 269.7 259.0 269.7 C248.9 269.7 250.5 257.5 262.2 244.5 C270.0 236.0 273.2 234.4 277.2 236.9 C285.7 242.3 285.2 250.3 276.3 253.7 C267.3 257.1 264.7 269.7 272.9 269.7 C278.4 269.7 285.1 284.4 282.6 290.9 C281.7 293.2 276.6 295.1 271.3 295.1 C261.8 295.1 261.7 294.9 263.7 282.4 Z M737.8 289.5 C735.1 286.5 730.5 282.5 727.5 280.8 C720.1 276.4 719.1 259.2 726.2 257.7 C729.9 256.9 733.3 260.0 736.5 267.1 C739.1 272.9 743.1 280.1 745.3 283.1 C751.1 291.1 744.4 296.8 737.8 289.5 Z M493.6 266.4 C493.6 264.6 497.2 261.8 501.6 260.1 C506.2 258.4 509.5 254.6 509.5 251.1 C509.5 247.8 511.7 243.3 514.3 241.1 C516.9 238.9 519.1 234.1 519.1 230.4 C519.1 224.1 518.6 224.2 511.0 232.4 C506.6 237.2 501.1 241.1 498.9 241.1 C496.7 241.1 492.4 246.6 489.5 253.3 C482.9 268.2 482.9 269.7 488.9 269.7 C491.5 269.7 493.6 268.2 493.6 266.4 Z M828.4 245.9 C835.6 240.5 833.2 231.6 824.5 231.6 C816.8 231.6 810.1 239.5 812.5 245.8 C814.8 251.8 820.6 251.8 828.4 245.9 Z M630.8 240.3 C631.6 235.1 634.0 233.1 639.8 233.1 C645.6 233.1 648.0 235.1 648.7 240.3 C649.6 246.4 648.3 247.4 639.8 247.4 C631.3 247.4 630.0 246.4 630.8 240.3 Z M785.9 221.5 C785.9 213.6 777.5 203.0 771.2 203.0 C769.0 203.0 765.4 206.1 763.4 209.9 C760.2 215.8 760.7 217.7 766.8 222.6 C776.7 230.7 785.9 230.1 785.9 221.5 Z M332.8 201.5 C331.0 196.8 351.8 176.0 358.3 176.0 C366.0 176.0 363.2 187.4 353.3 196.4 C341.6 207.0 335.5 208.5 332.8 201.5 Z M581.1 189.5 C583.2 184.6 586.9 182.3 592.8 182.3 C597.5 182.3 603.2 179.9 605.5 176.9 C607.7 173.9 613.7 170.0 618.6 168.1 C623.5 166.3 627.0 163.0 626.3 160.8 C624.7 156.0 598.5 153.6 598.5 158.3 C598.5 160.1 593.1 165.0 586.6 169.2 C561.4 185.4 555.0 196.6 570.9 196.6 C575.1 196.6 579.2 193.8 581.1 189.5 Z M267.5 172.0 C266.6 161.2 265.6 160.1 257.2 160.1 C245.4 160.1 243.9 164.7 252.3 175.4 C262.3 188.0 268.7 186.6 267.5 172.0 Z M790.7 177.5 C792.9 174.0 772.7 158.5 766.0 158.5 C761.4 158.5 747.8 172.5 747.8 177.2 C747.8 180.3 788.8 180.6 790.7 177.5 Z M365.2 146.1 C360.0 137.7 379.6 123.7 390.6 127.9 C398.1 130.8 394.6 137.1 382.2 143.2 C369.4 149.6 367.5 149.9 365.2 146.1 Z M743.8 128.1 C746.0 127.5 747.8 125.6 747.8 124.1 C747.8 120.9 702.4 117.2 693.2 119.6 C685.9 121.5 685.7 129.0 693.0 130.8 C698.9 132.2 737.1 130.2 743.8 128.1 Z" fill="#17232b" data-role="body" data-layer="ink"/>
  </g>
</svg>
