<svg xmlns="http://www.w3.org/2000/svg" viewBox="0 0 1000 1000" role="img" aria-labelledby="title" data-source="gray-anatomy" data-figure="Gray227">
  <title id="title">Left capitate</title>
  <g fill-rule="nonzero">
  <path d="M649.6 938.7 C648.1 937.7 648.9 935.6 653.1 929.8 C656.1 925.6 659.7 920.5 661.2 918.5 C664.1 914.3 662.3 912.1 655.9 912.0 C654.0 912.0 651.5 910.6 650.5 909.0 C648.9 906.5 647.4 906.1 642.2 906.8 C637.8 907.4 633.6 906.8 628.2 904.5 C624.0 902.8 616.3 901.0 611.2 900.4 C606.1 899.9 600.5 898.5 598.8 897.4 C597.0 896.3 589.3 895.0 581.6 894.6 C572.9 894.1 565.6 892.8 562.5 891.2 C559.1 889.4 552.7 888.4 543.0 888.1 C535.1 887.8 527.1 886.8 525.1 885.7 C523.2 884.7 512.8 882.8 501.9 881.6 C491.0 880.3 480.4 878.7 478.2 877.9 C476.1 877.1 467.3 876.2 458.8 875.9 L443.3 875.3 L435.7 883.1 C431.6 887.5 423.0 897.1 416.5 904.4 C410.1 911.8 403.3 918.6 401.3 919.5 C399.3 920.4 397.2 922.7 396.6 924.5 C395.7 927.4 394.7 927.8 390.0 927.0 C387.0 926.5 384.2 925.8 383.8 925.4 C382.7 924.3 411.2 893.8 422.4 884.1 C432.1 875.6 435.0 868.7 428.1 870.7 C420.0 873.0 395.5 876.1 391.5 875.3 C387.1 874.4 379.3 875.7 363.1 879.7 C358.4 880.9 353.7 881.6 352.7 881.3 C351.8 881.0 347.8 882.2 343.8 884.0 C339.9 885.8 334.1 887.3 330.9 887.4 C324.7 887.6 302.9 897.8 296.3 903.5 C287.4 911.4 265.4 910.7 248.7 902.0 C242.9 899.1 232.6 888.1 232.6 885.0 C232.6 883.8 231.5 882.0 230.2 880.9 C229.0 879.9 227.9 877.8 227.9 876.3 C227.9 871.9 206.5 846.1 201.8 844.8 C197.5 843.6 193.0 839.0 190.7 833.4 C189.9 831.6 185.4 824.4 180.7 817.4 C170.7 802.7 166.4 793.0 165.1 782.3 C164.6 778.1 163.1 773.5 161.8 772.1 C160.6 770.7 159.1 767.1 158.5 764.2 C158.0 761.3 156.5 756.9 155.3 754.5 C154.0 751.9 153.0 744.5 152.8 735.9 C152.6 724.0 152.0 721.1 149.6 719.1 C145.7 715.9 147.4 704.8 152.3 701.3 C155.6 698.9 155.6 698.8 152.6 696.6 C150.3 694.9 146.7 694.6 136.7 695.4 L123.7 696.4 L123.7 691.2 L123.7 686.1 L134.5 687.0 C145.5 687.9 150.4 686.0 147.8 681.9 C146.5 679.7 145.0 664.8 145.2 655.5 C146.0 622.5 146.4 617.1 149.0 612.1 C152.5 605.4 152.5 601.3 149.0 597.5 C146.7 595.0 146.3 591.4 146.3 574.1 C146.3 554.8 146.5 553.2 150.5 545.6 C152.9 541.2 155.5 537.1 156.4 536.6 C157.2 536.0 158.0 531.0 158.0 525.5 C158.0 518.8 158.9 513.7 160.7 510.4 C162.2 507.7 163.4 502.6 163.5 499.0 C163.5 494.4 164.7 491.2 167.7 487.7 C170.1 484.9 171.9 481.3 171.9 479.6 C171.9 475.7 176.7 467.0 183.6 458.0 C192.0 447.3 195.3 441.9 195.3 439.1 C195.3 437.7 198.0 433.1 201.3 428.9 C204.6 424.7 207.8 419.6 208.5 417.5 C210.0 412.8 217.4 403.0 230.8 388.2 C233.9 384.7 234.3 383.2 233.4 376.6 C232.9 372.5 231.3 367.3 229.9 365.2 C222.2 353.5 222.1 288.1 229.7 283.4 C231.4 282.3 232.6 279.8 232.6 277.3 C232.6 275.0 234.3 269.3 236.5 264.6 C240.8 255.2 241.1 252.5 238.7 248.0 C236.2 243.4 234.6 244.4 233.7 251.4 C232.7 258.8 231.4 260.6 229.4 257.4 C227.3 254.1 227.6 245.4 229.9 244.5 C231.3 243.9 231.0 243.2 229.1 241.9 C225.3 239.5 225.6 233.0 229.5 231.8 C234.8 230.1 237.0 224.8 236.6 214.5 C236.3 205.0 234.1 199.9 230.2 199.9 C227.1 199.9 226.6 203.3 228.8 207.9 C230.5 211.3 230.5 212.4 228.6 215.1 C227.3 216.9 226.5 220.5 226.7 223.1 C227.0 225.6 226.4 227.8 225.6 227.9 C223.5 228.1 221.6 212.7 223.2 208.6 C223.9 206.8 224.1 198.7 223.6 190.4 C222.6 170.4 225.3 162.0 234.8 156.0 C238.5 153.7 242.3 151.7 243.2 151.7 C246.1 151.7 267.3 140.4 270.9 137.0 C288.1 120.7 292.3 117.9 295.6 120.7 C296.9 121.7 297.9 123.9 297.9 125.5 C297.9 129.3 301.3 129.2 303.7 125.3 C305.7 122.1 310.3 121.0 310.3 123.7 C310.3 124.6 311.0 125.3 311.9 125.3 C312.8 125.3 313.4 124.1 313.1 122.6 C312.7 120.3 313.8 119.9 320.4 120.2 C328.2 120.6 328.2 120.6 324.6 117.8 C322.3 116.0 321.4 114.2 322.1 112.4 C323.2 109.5 326.7 108.9 328.2 111.3 C329.7 113.8 334.9 113.1 336.5 110.2 C337.7 108.1 338.5 108.0 340.2 109.4 C341.9 110.8 342.9 110.5 345.0 108.1 C346.6 106.2 349.3 105.2 352.0 105.4 C354.4 105.6 358.3 104.2 361.1 102.1 C364.4 99.7 367.0 98.9 369.2 99.6 C373.1 100.8 373.5 102.8 370.2 104.1 C368.9 104.6 367.8 106.1 367.8 107.5 C367.8 111.5 373.0 109.4 374.1 105.1 C375.8 97.7 390.7 94.1 399.6 98.8 C403.0 100.6 404.7 100.7 408.6 99.2 C411.3 98.2 413.8 97.6 414.1 97.9 C416.1 99.9 413.6 143.8 411.4 146.1 C409.4 148.2 402.0 145.8 402.0 143.1 C402.0 141.8 403.1 140.3 404.4 139.9 C407.7 138.6 407.3 130.5 403.6 126.9 C401.4 124.6 398.4 123.7 393.0 123.7 C386.5 123.7 385.2 123.2 383.7 119.9 C381.2 114.5 379.6 115.0 377.5 121.8 C375.9 126.8 376.1 128.4 378.8 133.5 C382.1 139.9 383.3 162.6 380.3 162.6 C377.1 162.6 372.1 156.2 373.9 154.4 C376.6 151.7 375.9 146.4 372.4 143.5 C369.7 141.2 369.4 139.6 370.3 133.8 C371.1 128.2 370.9 126.9 369.0 126.9 C365.1 126.9 362.8 131.0 363.9 136.1 C364.5 138.7 364.5 144.5 363.9 149.1 C362.9 157.0 362.6 157.5 355.4 161.6 C348.3 165.5 347.7 165.6 346.2 163.0 C344.6 160.4 344.4 160.4 342.2 163.3 C340.9 165.0 339.9 167.8 339.9 169.6 C339.9 173.8 337.0 176.6 332.7 176.6 C330.8 176.6 327.1 177.8 324.4 179.3 C319.7 182.0 319.6 182.0 316.0 177.5 C313.6 174.5 312.6 171.7 313.1 169.1 C313.6 166.5 313.3 165.6 312.1 166.4 C311.1 167.0 310.3 168.5 310.3 169.8 C310.3 172.9 306.1 174.2 303.3 171.9 C299.3 168.6 296.3 171.3 296.3 178.1 C296.3 185.6 293.9 186.2 288.4 180.1 C285.0 176.3 284.6 174.5 284.7 164.3 C284.9 154.3 285.3 152.4 288.3 150.5 C290.1 149.3 291.7 147.1 291.7 145.7 C291.7 144.3 292.7 141.2 294.0 138.7 C295.3 136.3 296.3 133.3 296.3 132.1 C296.3 129.2 291.0 129.4 288.6 132.3 C287.5 133.6 285.8 134.6 284.8 134.6 C282.1 134.6 266.8 150.1 266.8 152.8 C266.8 154.4 268.1 154.9 271.1 154.6 C275.3 154.1 275.3 154.1 276.4 165.6 C277.2 174.4 278.1 177.7 280.5 179.6 C285.7 183.8 287.0 188.0 285.3 194.4 C282.2 205.4 273.7 202.9 275.4 191.4 C276.1 186.6 275.8 184.5 273.9 182.9 C272.6 181.8 271.4 179.7 271.4 178.2 C271.4 173.4 269.6 173.5 265.8 178.6 C259.4 187.4 259.0 189.6 260.4 207.3 C261.7 222.5 261.5 224.5 258.8 229.0 C256.9 232.1 256.4 234.2 257.4 234.9 C259.8 236.3 259.4 244.4 256.8 246.5 C253.9 248.9 252.0 260.4 254.1 262.5 C255.2 263.6 264.8 264.3 278.8 264.5 C291.4 264.7 311.2 265.9 322.8 267.3 C350.1 270.6 370.6 270.7 374.0 267.6 C375.4 266.3 378.8 264.8 381.5 264.3 C388.4 262.9 396.3 270.6 395.5 278.0 C395.1 282.6 394.5 283.1 388.2 284.2 C382.8 285.1 380.3 284.8 376.5 282.5 C372.5 280.0 367.5 279.4 346.1 278.8 C328.9 278.3 318.1 277.3 313.4 275.7 C308.3 274.0 298.0 273.2 275.5 272.8 L244.5 272.2 L240.1 280.7 C235.0 290.5 234.6 292.7 232.7 315.4 C231.6 328.5 231.8 334.2 233.6 341.8 C234.9 347.1 235.6 353.6 235.2 356.2 C234.7 359.6 235.5 361.7 238.2 364.3 C240.7 366.6 241.9 369.4 241.9 373.1 C241.9 376.1 242.6 379.0 243.4 379.4 C244.2 379.9 247.4 385.4 250.5 391.6 C257.0 404.6 259.7 409.5 262.5 413.5 C265.7 418.2 279.6 432.0 286.7 437.6 C293.8 443.2 296.3 448.9 293.2 452.6 C290.6 455.7 292.4 457.5 295.5 454.9 C298.3 452.6 302.5 455.2 302.6 459.4 C302.8 463.6 311.4 469.4 315.8 468.3 C320.9 467.0 329.4 471.3 328.6 474.8 C328.2 476.8 326.8 477.3 323.2 477.0 C317.0 476.4 315.3 479.2 319.5 483.1 C322.1 485.5 322.8 488.0 322.8 495.5 C322.8 502.3 323.7 506.4 326.2 510.9 L329.7 516.9 L326.0 520.8 C322.0 525.1 323.1 528.4 329.1 530.4 C330.7 530.9 332.1 532.3 332.1 533.5 C332.1 536.6 329.4 536.3 327.6 533.1 C326.2 530.6 325.6 530.7 319.0 534.0 C313.5 536.7 311.9 538.4 311.9 541.2 C311.9 544.3 312.9 545.1 318.5 546.2 C324.1 547.3 325.2 548.1 325.6 551.7 C326.2 556.9 322.2 557.6 319.6 552.9 C318.7 551.2 316.6 549.8 314.9 549.8 C313.2 549.8 311.4 548.7 310.9 547.4 C309.3 543.2 305.8 545.0 304.2 550.8 C302.3 557.8 303.0 559.1 308.9 559.1 C313.7 559.1 315.1 561.7 311.1 563.2 C305.9 565.2 300.8 562.2 297.8 555.3 C294.5 547.8 294.8 546.0 301.2 536.5 C307.2 527.6 307.2 526.0 301.8 525.0 C297.7 524.2 297.0 523.3 296.6 518.4 C296.1 511.6 300.8 506.2 307.4 506.2 C311.1 506.2 312.0 505.3 313.3 500.4 C314.2 497.2 315.0 493.7 315.0 492.6 C315.0 489.9 309.6 490.2 307.2 493.0 C304.3 496.5 296.7 496.0 295.5 492.2 C294.0 487.3 296.0 483.6 301.4 481.2 C304.2 480.0 306.7 477.7 307.0 476.1 C307.6 472.8 300.2 465.9 296.0 465.9 C294.6 465.8 291.5 465.0 289.3 463.9 C284.7 461.8 282.4 463.8 282.4 470.0 C282.3 472.0 280.6 474.6 278.2 476.2 C274.3 478.8 274.1 478.7 271.3 475.4 C268.6 472.0 268.5 472.0 266.9 474.9 C266.0 476.6 265.7 481.1 266.2 484.9 C266.8 489.3 266.5 492.2 265.4 492.9 C264.5 493.5 263.7 495.5 263.6 497.4 C263.6 499.2 261.9 502.0 259.9 503.5 C256.4 506.0 256.0 506.0 252.4 503.1 C247.5 499.3 245.0 501.6 246.1 508.6 C246.8 513.1 246.4 514.0 242.2 516.2 C239.0 517.9 237.3 520.0 237.0 522.9 C236.7 525.5 235.4 527.4 233.7 527.7 C229.4 528.5 228.7 523.6 232.4 519.6 C236.2 515.5 235.7 512.8 229.6 505.1 C225.0 499.3 222.3 498.7 220.9 503.1 C219.7 506.8 217.7 507.1 216.5 503.9 C215.9 502.4 213.5 501.6 210.1 501.6 C206.2 501.6 204.6 500.9 204.6 499.2 C204.6 495.7 212.2 493.2 216.7 495.2 C222.1 497.7 224.6 497.3 228.9 492.9 C232.4 489.5 232.8 488.1 231.9 482.3 C231.4 478.6 231.7 473.7 232.6 471.3 C233.5 468.9 234.0 466.7 233.7 466.4 C232.8 465.5 220.5 471.8 219.4 473.6 C217.2 477.1 214.0 475.1 214.9 470.7 C215.4 468.3 215.0 463.4 214.0 459.9 C212.5 454.2 211.7 453.4 207.8 453.4 C203.2 453.4 196.8 459.9 194.7 466.8 C194.1 468.7 192.6 471.0 191.3 472.1 C190.1 473.1 189.0 475.6 189.0 477.7 C189.0 479.8 187.9 481.9 186.3 482.4 C184.8 483.0 181.2 485.8 178.3 488.8 C173.4 493.7 173.0 494.9 173.2 502.9 C173.3 508.0 172.5 512.9 171.3 514.8 C170.1 516.7 168.6 521.4 168.0 525.3 C167.1 531.3 167.5 533.2 170.2 536.7 C175.2 543.0 174.6 546.6 168.4 546.6 C160.2 546.6 154.9 558.9 154.9 577.8 C154.8 587.7 155.4 590.3 158.8 595.3 C163.5 602.2 165.7 602.6 165.7 596.5 C165.7 591.3 169.4 586.8 172.7 588.1 C174.0 588.5 175.4 591.5 175.9 594.6 C177.9 606.9 178.4 608.6 181.3 611.2 C184.1 613.7 184.4 613.7 188.4 610.6 C191.6 608.0 193.1 607.7 194.7 609.0 C197.9 611.7 197.2 614.4 192.8 616.4 C190.0 617.7 189.0 619.2 189.3 621.7 C190.1 627.0 195.9 626.4 196.5 620.9 C197.1 616.3 201.1 614.3 207.9 615.3 C211.4 615.8 211.6 616.4 211.2 626.6 C211.0 634.9 211.3 637.0 212.7 635.5 C215.6 632.7 220.1 633.3 220.1 636.6 C220.1 640.5 213.1 645.0 209.1 643.8 C207.5 643.2 204.9 641.1 203.5 639.0 C200.8 634.8 193.9 630.6 189.7 630.6 C188.3 630.6 184.5 628.5 181.3 625.9 C178.0 623.4 174.3 621.3 172.9 621.3 C171.6 621.3 169.1 619.7 167.3 617.8 C164.4 614.7 164.0 614.6 161.6 617.0 C157.3 621.2 158.3 629.0 163.5 633.2 C168.8 637.4 170.8 637.7 173.5 634.5 C176.2 631.2 180.9 631.6 182.8 635.3 C183.7 637.0 185.3 638.4 186.4 638.4 C187.4 638.4 190.6 640.6 193.5 643.2 L198.7 648.0 L195.7 652.1 C194.0 654.4 192.2 658.1 191.6 660.4 C190.4 665.4 185.6 666.8 174.8 665.4 C168.1 664.5 166.5 664.8 164.7 667.2 C163.0 669.5 162.2 669.7 160.7 668.1 C159.1 666.5 159.3 665.7 161.6 664.0 C165.0 661.5 164.4 656.5 160.7 655.8 C158.9 655.4 157.4 656.7 156.5 659.1 C154.7 663.7 153.9 684.6 155.4 686.1 C157.4 688.1 187.4 687.3 189.4 685.2 C191.0 683.6 190.8 682.9 188.7 681.2 C185.3 678.8 185.2 676.7 188.2 674.2 C190.1 672.7 190.8 673.2 192.7 677.5 C193.9 680.4 196.7 684.6 198.9 687.0 C202.0 690.3 203.0 693.0 203.0 697.7 C203.0 703.6 203.3 704.0 206.5 702.9 C208.5 702.2 213.5 701.4 217.8 701.0 C222.1 700.6 226.7 699.3 228.1 698.0 C230.1 696.2 230.9 696.2 232.2 697.8 C236.0 702.4 235.9 707.6 231.9 713.5 C227.0 720.8 227.0 721.3 232.0 724.6 C237.8 728.4 239.2 725.6 238.2 712.2 C237.5 703.1 237.9 700.4 240.4 696.2 C242.1 693.4 243.5 690.8 243.5 690.4 C243.5 688.9 219.8 689.7 216.8 691.4 C214.3 692.7 213.0 692.5 210.7 690.3 C206.7 686.7 206.9 684.4 211.6 681.9 C217.0 679.0 216.9 672.2 211.5 669.7 C208.4 668.3 206.6 668.4 203.0 670.2 C197.3 673.2 195.4 673.2 194.3 670.2 C193.0 666.9 198.1 661.7 202.7 661.7 C205.9 661.7 206.4 661.1 205.8 657.8 C204.9 653.4 208.0 650.0 211.6 651.4 C212.9 651.9 213.9 654.1 213.9 656.4 C213.9 665.3 228.0 681.9 235.4 681.9 C243.0 681.8 244.6 679.7 241.4 673.7 L238.6 668.5 L244.9 661.7 C248.3 657.9 251.6 652.9 252.1 650.6 C252.6 648.3 254.0 645.5 255.2 644.5 C256.5 643.5 257.5 641.8 257.5 640.7 C257.5 639.7 258.8 637.1 260.4 635.1 C261.9 633.0 263.7 629.6 264.3 627.5 C264.9 625.4 266.4 621.5 267.5 618.9 C268.7 616.4 270.4 612.5 271.3 610.4 C272.2 608.3 275.1 603.0 277.6 598.7 C280.1 594.5 282.2 589.9 282.2 588.6 C282.3 587.3 283.6 584.5 285.1 582.4 C286.5 580.3 288.5 576.1 289.4 573.1 C291.7 565.1 297.3 564.6 298.7 572.2 C300.0 579.0 298.8 582.5 294.8 583.5 C292.3 584.1 291.7 585.6 291.7 590.5 C291.7 595.3 290.4 598.2 286.1 603.4 C282.3 608.1 280.8 611.2 281.5 613.2 C282.0 614.8 281.3 618.2 280.0 620.6 C278.7 623.1 277.7 626.0 277.7 627.0 C277.7 628.0 275.2 630.8 272.2 633.0 C269.2 635.3 266.8 638.3 266.8 639.7 C266.8 641.1 265.4 644.4 263.7 646.9 C262.0 649.5 260.6 653.1 260.6 655.0 C260.6 656.9 259.6 659.0 258.5 659.7 C257.3 660.4 255.9 662.8 255.4 665.2 C254.8 667.5 253.9 671.2 253.4 673.4 C251.9 679.2 255.2 682.2 261.9 681.0 C271.4 679.5 272.7 678.8 269.5 677.1 C266.2 675.2 266.1 671.3 269.2 667.2 C270.4 665.6 271.4 663.1 271.4 661.6 C271.4 660.2 272.7 657.9 274.3 656.5 C275.8 655.1 278.7 650.6 280.7 646.6 C282.7 642.5 286.7 636.3 289.5 632.8 C292.3 629.3 295.1 624.5 295.6 622.3 C296.6 618.3 308.7 606.2 316.5 601.3 C318.7 600.0 321.1 598.2 322.0 597.2 C323.4 595.6 335.6 588.0 345.0 582.9 C346.9 581.9 355.2 577.8 363.5 573.9 C371.8 569.9 379.0 566.1 379.4 565.4 C379.9 564.7 382.8 563.6 385.9 563.0 C389.0 562.4 394.1 560.6 397.2 559.0 C400.3 557.3 403.7 556.0 404.8 556.0 C405.8 556.0 409.3 554.6 412.5 552.9 C415.7 551.2 419.9 549.8 421.8 549.8 C423.7 549.8 427.6 548.4 430.4 546.6 C433.2 544.9 437.9 543.5 440.8 543.5 C443.7 543.5 447.4 542.4 448.9 541.0 C450.7 539.4 455.9 538.0 462.3 537.4 C468.1 536.9 474.3 535.6 476.2 534.5 C480.3 532.3 488.6 532.1 489.9 534.2 C491.3 536.5 493.8 536.1 493.8 533.5 C493.8 530.1 500.1 526.4 506.1 526.4 C511.8 526.4 519.8 524.1 527.0 520.2 C532.9 517.1 535.6 507.7 536.5 486.8 C537.0 478.2 537.7 468.6 538.3 465.4 C539.1 459.9 539.0 459.6 535.2 459.6 C529.8 459.6 528.9 457.6 528.4 443.4 C528.1 436.6 527.0 430.0 526.0 428.7 C524.9 427.4 524.1 421.3 524.0 413.9 C523.9 406.9 523.6 400.3 523.2 399.0 C522.8 397.7 523.8 396.5 525.7 396.1 C529.4 395.3 531.0 393.1 531.1 388.6 C531.1 386.5 532.4 384.8 534.4 384.1 C537.1 383.3 537.5 382.2 536.7 378.4 C536.2 375.8 535.8 373.1 535.8 372.3 C535.8 371.6 532.6 371.0 528.8 371.0 C523.8 371.0 521.8 370.3 521.8 368.8 C521.8 365.6 534.4 364.6 536.7 367.6 C539.2 371.0 543.5 368.7 543.5 364.0 C543.5 361.0 545.0 359.1 549.0 356.8 C552.0 355.0 554.4 352.9 554.4 352.1 C554.4 351.3 556.2 350.0 558.3 349.2 C560.4 348.4 562.2 347.0 562.2 346.1 C562.2 345.3 566.0 342.0 570.7 338.9 C575.4 335.8 579.3 332.2 579.3 331.0 C579.3 329.9 576.8 326.7 573.9 324.1 C569.8 320.5 568.4 318.1 568.4 314.4 C568.4 311.2 566.7 307.5 563.7 303.8 C559.2 298.3 559.1 298.0 562.0 296.4 C563.7 295.5 567.9 294.8 571.4 294.8 C575.8 294.8 577.7 294.1 577.7 292.6 C577.7 289.5 574.2 288.6 565.7 289.6 C558.8 290.4 558.1 290.1 554.8 285.7 C552.9 283.1 551.8 279.9 552.3 278.5 C553.5 275.2 555.6 275.5 556.7 279.1 C557.7 282.2 566.2 286.1 568.6 284.6 C569.3 284.1 570.0 280.3 570.0 276.2 C570.0 270.3 570.7 268.3 573.3 266.5 C575.9 264.8 576.4 263.3 575.6 260.2 C574.1 254.1 567.3 246.7 564.1 247.6 C562.5 248.0 560.0 246.9 558.3 245.0 C555.3 241.7 555.3 241.6 558.6 239.1 C562.3 236.1 563.6 229.1 564.7 206.2 C565.1 198.2 565.7 191.2 566.1 190.8 C567.6 189.3 569.9 193.1 569.8 196.9 C569.2 216.3 569.5 223.1 571.2 226.7 C572.3 229.1 572.7 232.8 572.2 234.9 C571.4 237.9 571.8 238.8 573.7 238.8 C575.1 238.8 576.2 238.1 576.2 237.2 C576.2 236.4 577.9 235.7 580.1 235.7 C583.6 235.7 584.0 236.3 584.0 242.0 C584.0 245.5 584.8 249.9 585.8 251.7 C586.8 253.6 588.0 257.2 588.6 259.8 C589.7 265.5 593.9 266.0 594.5 260.6 C594.7 258.4 595.6 254.0 596.5 250.8 C597.7 246.5 597.6 243.5 596.2 239.6 C594.4 234.7 594.6 234.1 597.9 231.4 C601.9 228.2 601.4 223.3 597.2 223.3 C595.6 223.3 594.8 224.8 594.8 227.9 C594.8 231.4 594.1 232.6 592.0 232.6 C588.8 232.6 584.0 228.0 584.0 225.0 C584.0 223.9 581.8 222.3 579.2 221.4 C575.2 220.1 574.6 219.1 575.4 216.4 C576.0 214.6 576.3 210.5 576.2 207.3 C576.1 203.1 576.7 201.5 578.4 201.5 C580.8 201.5 581.3 202.8 583.6 214.7 C584.7 219.9 585.5 221.0 589.1 221.4 C593.6 221.9 594.8 219.1 591.5 215.8 C590.1 214.4 590.1 212.5 591.7 207.7 C593.7 201.9 593.6 201.2 590.3 197.7 C587.2 194.5 587.0 193.4 588.4 188.2 C589.3 185.0 589.7 181.8 589.2 181.0 C587.7 178.6 582.5 179.7 580.8 182.8 C578.6 187.0 576.4 186.8 574.7 182.2 C573.9 180.2 572.4 178.2 571.2 177.8 C569.6 177.2 569.6 176.4 571.3 173.2 C574.1 167.9 573.0 163.5 568.7 162.9 C566.8 162.6 564.1 160.7 562.7 158.6 L560.2 154.8 L553.8 160.1 C548.8 164.2 546.3 165.2 543.0 164.6 C537.3 163.5 535.9 160.2 537.3 151.0 C538.0 146.7 538.4 143.1 538.3 143.1 C538.2 143.0 535.1 140.7 531.3 137.8 C525.7 133.4 524.7 131.9 525.4 128.5 C526.0 125.6 525.2 123.5 522.6 121.0 C516.3 115.0 515.1 116.4 515.8 129.0 C516.3 138.5 517.0 141.0 519.8 143.4 C522.9 146.1 523.1 146.8 521.4 153.7 C519.5 162.0 519.6 161.9 511.9 158.7 C505.3 156.0 505.0 154.8 509.4 148.9 L512.6 144.5 L507.2 138.8 C499.1 130.2 491.7 132.3 497.7 141.5 C500.2 145.2 500.2 145.8 497.8 149.3 C496.5 151.5 495.3 154.3 495.3 155.6 C495.3 156.9 493.8 158.7 491.8 159.5 C489.9 160.2 486.7 162.6 484.8 164.8 C481.7 168.1 481.5 169.1 483.2 171.9 C484.9 174.6 484.8 175.8 482.8 179.3 C479.2 185.8 475.8 184.9 476.4 177.7 C476.8 173.7 476.1 170.8 474.4 168.9 C473.0 167.4 471.5 163.7 471.0 160.7 C470.3 156.1 470.6 155.2 473.5 154.4 C478.6 153.1 477.3 146.3 472.0 146.3 C469.9 146.2 466.5 145.3 464.6 144.2 C460.2 141.8 458.7 142.7 457.5 148.6 C457.0 151.2 455.6 153.3 454.3 153.3 C451.5 153.3 450.1 149.7 451.9 146.9 C454.0 143.7 453.6 136.4 451.0 127.9 C449.4 122.5 449.2 119.5 450.3 117.4 C452.5 113.4 457.1 113.6 460.0 117.9 C461.7 120.6 462.8 121.0 464.4 119.7 C465.6 118.7 469.1 117.5 472.2 116.9 C479.4 115.6 482.3 112.5 479.0 109.8 C475.8 107.1 476.1 105.5 479.8 104.3 C482.1 103.6 482.9 102.0 482.9 98.0 C482.9 91.9 486.4 90.8 492.8 95.0 C496.0 97.1 496.9 97.1 500.9 95.0 C509.6 90.5 515.9 92.7 512.1 98.8 C509.0 103.8 512.2 107.4 519.6 107.4 L525.7 107.4 L525.4 100.0 C525.1 91.8 527.3 90.6 535.4 94.8 C541.9 98.0 550.2 99.1 555.4 97.3 C562.3 94.9 571.1 98.9 571.8 104.7 C572.3 109.4 572.8 109.5 584.2 106.3 C588.2 105.2 592.7 102.7 594.3 100.9 C599.4 94.9 603.1 95.1 611.4 101.7 C622.3 110.5 630.7 118.5 640.7 130.0 C645.6 135.5 653.1 143.8 657.4 148.4 C664.2 155.7 665.0 157.3 664.2 161.6 C663.6 164.3 662.1 167.3 660.8 168.3 C659.3 169.4 658.6 171.8 659.0 174.5 C659.5 178.5 659.7 178.6 660.9 175.8 C662.3 172.7 664.7 170.5 666.7 170.4 C667.3 170.4 670.3 175.5 673.4 181.7 C676.4 187.9 679.5 194.0 680.3 195.3 C686.5 205.9 693.8 225.3 695.2 235.0 C695.8 239.2 697.2 244.1 698.3 245.8 C701.3 250.4 702.9 290.1 700.6 301.8 C699.6 306.9 698.5 324.2 698.0 340.2 C697.3 366.7 697.6 370.7 700.7 383.7 C702.6 391.6 705.1 399.8 706.3 402.0 C707.4 404.2 708.3 408.0 708.3 410.5 C708.3 413.0 709.3 416.1 710.5 417.5 C711.7 418.8 713.4 422.4 714.3 425.4 C717.4 435.8 721.0 444.8 723.1 447.1 C724.2 448.4 725.6 451.9 726.2 454.8 C726.8 457.7 731.3 465.1 736.1 471.3 C747.1 485.4 756.0 498.2 762.0 508.6 C773.4 528.4 777.7 535.5 782.5 542.4 C785.3 546.4 787.6 550.8 787.6 552.1 C787.6 553.4 789.0 555.7 790.6 557.4 C792.2 559.0 794.0 562.0 794.7 564.0 C795.3 566.0 796.5 568.5 797.4 569.6 C799.2 572.0 803.7 579.8 807.0 586.6 C808.3 589.3 811.3 594.9 813.7 599.0 C816.0 603.1 821.0 613.5 824.7 622.0 C828.4 630.6 832.7 640.4 834.4 643.8 C836.0 647.2 837.4 650.8 837.4 651.8 C837.4 652.7 838.8 655.3 840.5 657.5 C842.7 660.3 844.0 664.8 844.5 672.1 C845.0 677.9 846.3 686.2 847.5 690.5 C848.7 694.7 851.9 707.7 854.5 719.2 C857.1 730.8 860.3 744.8 861.7 750.3 C866.6 770.8 868.7 790.5 866.3 795.1 C865.1 797.4 863.7 806.3 863.1 814.8 C861.7 834.5 860.2 840.6 855.3 845.1 C853.1 847.2 851.4 849.6 851.4 850.6 C851.4 851.7 849.8 854.3 847.9 856.5 C846.0 858.7 843.3 862.1 841.9 864.1 C840.2 866.5 835.4 868.9 827.9 871.2 C818.0 874.3 809.7 875.7 783.7 878.6 C781.2 878.8 777.1 879.8 774.7 880.8 C772.3 881.7 767.7 882.5 764.4 882.5 C761.1 882.5 757.7 883.4 756.7 884.6 C755.7 885.8 752.1 887.2 748.6 887.8 C745.1 888.3 740.3 889.8 738.1 890.9 C735.8 892.1 731.1 893.5 727.7 894.1 C722.5 894.9 700.5 904.4 692.8 909.1 C691.5 909.8 689.1 911.1 687.3 911.8 C685.6 912.6 682.9 914.7 681.3 916.5 C679.6 918.3 677.3 919.8 676.2 919.8 C672.3 919.8 664.8 926.5 664.8 929.9 C664.8 936.6 655.1 942.2 649.6 938.7 Z M675.0 908.4 C675.5 907.2 679.0 903.9 682.8 901.1 C686.6 898.2 689.7 894.7 689.7 893.2 C689.7 889.9 693.1 887.4 694.0 890.0 C695.0 892.9 702.8 892.1 705.6 888.7 C707.1 887.0 709.9 885.6 711.9 885.6 C713.9 885.6 717.2 883.9 719.1 881.8 C721.1 879.7 723.6 878.4 724.8 878.9 C726.0 879.3 729.8 878.6 733.3 877.2 C736.7 875.8 740.9 874.7 742.7 874.7 C749.6 874.7 762.4 870.0 762.2 867.5 C762.0 865.6 764.0 865.0 771.3 864.6 C786.1 863.8 793.5 862.2 796.2 859.2 C797.6 857.5 800.0 856.7 801.7 857.2 C806.2 858.3 805.4 862.0 800.5 862.6 C796.9 863.1 796.6 863.4 799.0 864.5 C800.7 865.3 804.4 864.7 808.7 863.1 C815.6 860.4 817.6 857.1 813.3 855.5 C812.0 855.0 811.0 853.8 811.0 852.8 C811.0 851.2 813.0 851.2 820.3 853.1 C821.8 853.5 822.7 852.6 822.8 850.6 C822.8 848.9 823.4 844.3 824.0 840.5 C826.0 827.1 819.9 798.4 812.4 786.2 C810.0 782.3 806.1 775.8 803.8 771.7 C801.5 767.7 798.1 763.9 796.3 763.4 C794.5 762.8 791.8 761.3 790.3 760.0 C786.3 756.4 785.4 758.7 788.5 764.6 C795.5 777.9 795.5 778.3 788.2 784.9 C775.9 796.1 758.1 814.3 758.1 815.7 C758.1 818.0 763.7 817.4 765.9 814.8 C766.9 813.6 768.8 812.5 769.9 812.5 C771.1 812.5 772.1 813.6 772.1 814.8 C772.1 816.1 770.7 817.2 768.9 817.2 C767.0 817.2 765.2 818.7 764.3 821.1 C763.5 823.2 761.8 824.9 760.5 824.9 C759.2 824.9 757.5 826.3 756.5 828.1 C755.6 829.8 753.6 831.2 752.0 831.2 C750.4 831.2 748.0 832.9 746.6 835.1 C745.2 837.2 742.8 838.9 741.2 838.9 C739.6 838.9 737.1 840.4 735.5 842.1 C731.5 846.5 726.2 845.6 726.2 840.5 C726.2 837.6 727.2 836.5 729.7 836.1 C733.2 835.6 734.1 834.2 732.2 832.3 C731.0 831.0 718.2 838.2 712.6 843.4 C709.9 845.9 708.3 848.9 708.3 851.7 C708.3 857.2 711.3 857.3 717.5 852.0 C721.9 848.4 722.8 848.2 727.8 849.8 C735.6 852.4 733.7 856.2 723.6 858.3 C721.3 858.8 717.4 860.9 714.9 863.0 C710.0 867.1 706.8 866.0 706.8 860.3 C706.8 857.8 706.1 858.0 701.3 861.8 C698.2 864.3 695.9 867.5 695.9 869.4 C695.9 871.2 694.5 873.9 692.8 875.5 C691.1 877.0 689.7 879.1 689.7 880.2 C689.7 881.2 688.6 883.0 687.3 884.1 C685.9 885.2 683.9 888.3 682.8 890.9 C681.7 893.5 678.2 898.3 675.1 901.4 C672.0 904.6 669.5 907.9 669.5 908.8 C669.5 911.2 674.1 910.8 675.0 908.4 Z M667.3 896.2 C667.9 895.2 667.2 893.5 665.6 892.4 C664.0 891.2 662.6 887.7 662.2 883.7 C661.6 877.5 662.0 876.5 669.4 868.7 C677.9 859.6 680.9 859.1 681.6 866.7 C682.2 872.4 684.5 873.1 686.4 868.0 C687.2 866.1 688.9 863.5 690.3 862.4 C691.7 861.3 692.8 859.0 692.8 857.4 C692.8 855.8 694.2 853.3 695.9 851.8 C700.2 848.1 699.8 844.1 694.7 841.4 L690.3 839.2 L691.0 844.5 C691.5 849.4 691.3 849.8 687.3 849.8 C681.6 849.8 666.3 857.0 663.0 861.2 C661.0 863.7 658.4 864.6 652.9 864.9 C645.3 865.2 629.7 871.7 631.6 873.6 C633.8 875.8 648.8 874.8 650.9 872.3 C652.2 870.7 653.4 870.4 654.4 871.5 C655.4 872.5 655.3 873.8 654.0 875.4 C652.4 877.3 652.4 878.3 653.8 880.0 C655.2 881.7 655.2 883.1 654.0 885.4 C651.4 890.4 652.1 893.1 656.6 895.6 C661.8 898.4 665.8 898.6 667.3 896.2 Z M673.7 887.5 C674.2 886.0 676.4 883.2 678.4 881.3 C680.5 879.3 681.9 876.6 681.6 875.2 C680.1 867.4 669.5 875.7 669.5 884.7 C669.5 890.5 672.0 892.2 673.7 887.5 Z M696.8 882.1 C698.3 877.1 700.5 874.7 703.6 874.7 C707.8 874.7 708.4 876.3 705.9 881.1 C702.9 886.9 695.0 887.8 696.8 882.1 Z M728.8 865.0 C729.4 860.6 735.9 859.2 737.3 863.1 C738.4 866.0 735.6 868.4 731.2 868.5 C729.1 868.5 728.5 867.5 728.8 865.0 Z M305.7 859.9 C308.5 856.1 314.1 850.2 318.1 846.9 C322.0 843.5 328.0 836.8 331.4 831.8 C334.8 826.8 338.6 821.6 339.9 820.2 C341.1 818.7 343.6 815.7 345.3 813.5 C347.0 811.3 349.4 809.5 350.7 809.5 C353.5 809.4 361.6 801.7 361.6 799.0 C361.6 797.9 362.3 797.0 363.1 797.0 C364.0 797.0 366.9 794.5 369.6 791.5 C372.3 788.5 375.5 786.1 376.6 786.1 C377.7 786.1 379.5 784.8 380.6 783.3 C381.7 781.8 384.4 779.4 386.5 778.0 C388.6 776.6 393.5 772.6 397.4 769.1 C401.2 765.6 405.8 762.7 407.5 762.7 C413.7 762.7 417.9 760.7 419.2 757.1 C420.9 752.8 427.6 749.8 432.7 751.0 C434.6 751.5 438.9 750.8 442.1 749.4 C445.3 748.0 451.4 746.6 455.7 746.2 C459.9 745.8 464.5 744.5 465.9 743.2 C467.3 742.0 469.4 741.0 470.7 741.0 C472.0 741.0 474.7 739.2 476.7 737.1 C479.5 734.1 481.8 733.3 486.7 733.4 C490.2 733.5 496.7 732.4 501.1 730.9 C507.4 728.8 510.3 728.6 513.8 729.8 C519.0 731.6 523.9 729.3 523.1 725.4 C522.5 722.0 527.7 713.0 530.4 713.0 C533.8 713.0 533.1 718.9 529.5 720.0 C525.4 721.3 527.1 723.9 532.0 723.9 C534.2 723.9 537.5 725.6 539.6 727.8 L543.2 731.8 L549.7 728.4 C555.0 725.6 556.0 724.4 555.3 721.7 C552.2 711.3 552.4 708.7 556.5 706.0 C560.4 703.5 560.8 703.5 565.5 706.2 C568.2 707.8 571.4 710.6 572.6 712.5 C575.1 716.3 574.4 717.2 565.7 722.4 C559.0 726.4 559.0 730.1 565.7 730.1 C568.5 730.1 572.2 729.2 573.9 728.0 C575.6 726.9 578.9 725.4 581.2 724.9 C586.2 723.7 588.2 718.1 585.6 713.1 C583.5 709.2 584.9 706.2 588.1 707.5 C591.2 708.6 596.4 705.7 596.4 702.8 C596.4 694.2 583.8 685.3 574.7 687.3 C571.9 688.0 569.8 687.5 568.5 685.9 C566.1 683.0 560.1 682.6 561.0 685.4 C561.4 686.5 563.2 687.6 565.1 687.9 C569.9 688.6 568.8 693.4 563.7 694.0 C561.6 694.3 558.4 695.2 556.6 696.1 C554.2 697.3 552.3 697.3 550.0 696.1 C548.3 695.1 545.1 694.3 543.0 694.3 C540.9 694.3 538.8 693.2 538.3 691.9 C537.6 690.1 536.1 689.7 532.8 690.4 C527.0 691.7 516.1 688.8 514.2 685.5 C513.3 683.9 511.8 683.4 510.1 684.0 C507.8 684.9 508.2 685.8 513.2 690.5 C518.9 695.9 519.2 696.0 528.2 695.0 C536.0 694.1 537.3 694.3 537.3 696.5 C537.3 699.9 514.1 700.2 508.9 696.8 C507.0 695.6 502.5 694.2 499.0 693.6 C494.9 693.0 490.2 690.6 486.3 687.2 C482.9 684.3 479.7 681.9 479.3 681.9 C478.9 681.9 478.3 686.2 477.9 691.4 C477.4 698.6 476.5 701.5 474.2 703.0 C472.6 704.2 470.7 705.8 470.0 706.6 C461.9 716.1 456.3 720.8 453.0 720.8 C450.8 720.8 448.2 721.8 447.1 723.1 C446.1 724.4 443.8 725.4 442.2 725.4 C440.5 725.4 435.5 729.2 431.0 733.9 C426.5 738.5 420.9 742.8 418.7 743.4 C416.4 743.9 414.2 745.8 413.6 747.5 C413.1 749.1 411.6 750.3 410.2 750.0 C406.5 749.3 406.1 746.0 409.7 744.9 C411.5 744.4 416.9 739.7 421.7 734.7 C426.5 729.6 431.4 725.4 432.4 725.4 C433.5 725.4 435.2 724.4 436.3 723.0 C437.4 721.7 440.5 719.7 443.1 718.6 C446.4 717.2 449.8 713.4 454.0 706.2 C457.3 700.5 461.2 695.2 462.5 694.4 C466.3 692.3 467.5 665.5 464.4 653.1 C463.3 648.9 462.1 642.9 461.6 639.9 C461.1 636.9 460.0 634.0 459.1 633.5 C458.2 632.9 457.3 622.4 456.8 609.0 L456.1 585.6 L460.2 580.8 C464.3 575.8 464.8 574.6 464.3 569.1 C464.2 567.3 465.5 564.6 467.3 563.0 C472.1 558.7 471.4 555.4 466.0 556.5 C463.4 557.0 460.3 556.5 458.7 555.3 C456.3 553.5 455.0 553.7 449.8 556.4 C446.5 558.1 443.4 560.6 442.9 561.8 C441.3 566.0 434.4 572.3 432.0 571.8 C430.7 571.5 426.9 573.5 423.6 576.2 C417.3 581.2 416.7 581.0 415.7 573.1 C414.7 564.4 403.5 569.4 399.0 580.5 C397.9 583.3 394.0 588.2 390.5 591.4 C386.9 594.6 383.5 598.4 382.9 599.9 C381.7 603.2 379.4 603.4 378.2 600.3 C377.6 598.9 378.5 597.1 380.3 596.0 C382.0 595.0 383.4 593.3 383.4 592.3 C383.4 591.4 384.4 589.7 385.7 588.6 C388.3 586.5 388.7 582.7 386.7 579.5 C384.9 576.8 379.2 578.5 378.0 582.1 C376.9 585.8 368.5 590.6 365.1 589.5 C363.6 589.1 361.4 589.3 360.1 590.1 C358.1 591.4 358.3 592.1 361.3 594.8 C367.0 600.2 364.9 605.4 357.5 604.4 C355.1 604.1 354.0 605.0 353.3 607.8 C352.0 612.8 348.1 614.2 346.0 610.3 C345.1 608.7 343.7 607.3 342.9 607.3 C340.8 607.3 341.0 612.5 343.2 614.7 C344.6 616.1 344.5 617.2 342.5 619.4 C341.0 621.0 339.9 624.1 339.9 626.4 C339.9 632.7 337.3 632.8 331.3 626.8 C327.9 623.4 324.3 621.3 321.9 621.3 C319.7 621.3 317.6 620.2 317.1 618.9 C314.5 612.2 307.2 621.8 307.2 631.8 C307.2 637.9 301.0 645.1 297.1 643.6 C293.6 642.2 292.3 647.5 295.6 649.9 C298.2 651.8 298.2 652.4 296.2 657.2 C295.0 660.1 294.2 663.1 294.5 663.9 C295.2 666.0 286.7 674.1 283.8 674.1 C282.3 674.1 280.4 675.1 279.4 676.3 C276.9 679.3 281.6 680.3 298.4 680.3 C325.4 680.4 357.3 677.3 363.7 674.0 C370.3 670.6 373.7 671.0 378.0 675.7 C380.5 678.5 380.6 679.5 378.7 685.1 C376.0 693.2 374.7 693.9 370.1 689.6 C366.7 686.4 365.5 686.2 354.3 687.2 C339.6 688.4 306.8 689.9 287.8 690.2 C276.5 690.4 273.8 690.9 273.8 692.8 C273.8 694.6 275.6 695.0 282.3 694.7 C292.4 694.3 296.4 696.0 293.4 699.5 C292.4 700.8 289.8 702.2 287.7 702.8 C284.2 703.7 283.9 704.3 284.8 710.3 C285.8 717.0 294.3 727.0 298.9 727.0 C300.7 727.0 305.0 732.9 303.8 733.9 C303.6 734.2 301.7 735.2 299.7 736.2 C296.4 738.0 296.2 738.8 296.9 749.9 C297.4 756.4 298.5 762.4 299.4 763.3 C301.6 765.5 301.4 770.1 299.0 771.6 C295.3 774.0 291.2 785.4 293.0 788.7 C293.9 790.4 294.0 792.6 293.2 793.8 C292.5 795.0 292.5 797.0 293.2 798.4 C293.9 799.7 296.0 804.6 298.0 809.1 C302.4 819.2 305.2 821.2 308.9 816.6 L311.6 813.3 L313.3 817.6 C314.8 821.5 319.6 823.7 319.6 820.4 C319.6 818.4 337.5 800.1 339.4 800.1 C340.2 800.1 344.0 797.1 347.9 793.5 C358.1 783.8 362.3 781.0 363.0 783.2 C363.3 784.2 362.5 785.9 361.1 786.9 C359.7 787.9 358.5 789.5 358.5 790.5 C358.5 791.4 356.3 793.3 353.7 794.7 C347.1 798.1 324.6 821.4 321.8 827.7 C320.6 830.4 319.0 832.7 318.3 832.7 C317.5 832.7 316.1 834.6 315.1 837.0 C314.2 839.3 311.3 842.5 308.7 843.9 C306.0 845.5 304.1 847.9 304.1 849.6 C304.1 853.2 300.2 857.6 297.1 857.6 C295.8 857.6 294.8 855.5 294.5 852.6 C294.1 848.8 292.9 847.0 289.6 845.4 C285.1 843.3 276.1 832.2 276.1 828.8 C276.1 827.7 275.1 826.1 273.9 825.1 C272.8 824.1 271.3 820.9 270.8 818.1 C270.3 815.2 268.8 812.0 267.6 811.0 C266.4 810.0 264.9 805.9 264.4 801.9 C263.9 797.9 262.5 791.5 261.4 787.6 C254.7 765.2 254.9 711.7 261.6 703.4 C262.6 702.3 263.8 699.1 264.4 696.3 C265.4 691.8 265.0 691.1 261.3 689.7 C255.8 687.6 251.4 689.0 250.5 693.3 C249.9 696.4 247.5 718.1 245.9 734.8 C245.1 743.0 242.8 754.6 241.2 758.5 C240.5 760.2 241.3 763.3 243.4 766.9 C245.3 770.0 247.1 776.2 247.6 780.5 C248.0 784.9 249.3 790.5 250.4 793.1 C253.0 799.2 257.3 812.0 259.0 818.5 C259.7 821.3 261.4 824.8 262.8 826.3 C264.1 827.9 265.2 830.2 265.2 831.7 C265.2 833.1 268.1 836.9 271.5 840.1 C275.0 843.3 279.2 848.2 281.0 851.0 C282.7 853.8 285.4 856.0 287.0 856.0 C292.1 856.0 294.8 857.9 294.8 861.4 C294.8 869.3 299.1 868.7 305.7 859.9 Z M238.8 860.8 C238.8 859.2 239.9 856.8 241.1 855.5 C242.6 854.0 242.9 852.8 241.9 852.2 C241.1 851.6 240.4 851.9 240.4 852.7 C240.4 853.5 238.3 854.9 235.7 855.8 C229.2 858.1 229.4 863.8 235.9 863.8 C237.7 863.8 238.8 862.7 238.8 860.8 Z M280.9 862.2 C286.8 859.0 284.5 856.0 276.1 856.0 C269.5 856.0 268.3 856.5 268.3 859.0 C268.3 863.6 275.1 865.3 280.9 862.2 Z M744.4 862.0 C740.7 858.3 742.4 856.0 748.8 856.0 C753.9 856.0 755.0 855.5 755.0 852.9 C755.0 849.3 759.9 848.7 762.6 852.0 C765.0 854.8 760.6 859.8 753.6 862.1 C747.0 864.2 746.7 864.2 744.4 862.0 Z M229.6 852.5 C230.7 850.6 232.3 848.5 233.2 847.9 C234.4 847.0 234.1 846.2 232.4 845.2 C231.0 844.3 229.4 841.4 228.9 838.6 C228.2 835.2 225.9 831.9 222.1 828.9 C218.9 826.4 215.7 823.4 215.0 822.3 C213.1 819.2 209.6 819.9 208.5 823.5 C207.0 828.1 203.8 826.2 203.8 820.7 C203.8 814.8 202.3 813.0 199.4 815.4 C197.0 817.4 198.9 825.3 202.9 830.2 C204.8 832.5 205.3 832.6 207.7 830.4 C209.1 829.1 211.0 828.1 211.9 828.1 C213.5 828.1 219.5 836.7 222.0 842.4 C222.6 843.9 224.0 845.2 225.0 845.2 C226.2 845.2 226.0 846.1 224.4 847.9 C222.6 849.8 222.3 851.4 223.4 853.3 C225.5 857.0 227.4 856.7 229.6 852.5 Z M355.1 847.4 C357.4 846.9 360.2 846.2 361.2 845.9 C363.6 845.1 362.2 841.0 359.1 839.9 C356.4 838.8 339.9 849.4 339.9 852.2 C339.9 855.9 343.7 855.7 347.3 852.0 C349.2 850.0 352.7 847.9 355.1 847.4 Z M425.4 848.4 C425.4 846.4 417.1 830.5 415.7 829.9 C415.1 829.6 412.1 827.7 409.1 825.6 C401.7 820.6 395.8 819.2 395.8 822.3 C395.8 826.7 397.8 829.8 401.5 831.2 C408.6 833.9 405.3 835.8 393.6 835.8 C373.9 835.8 377.1 841.3 397.0 841.8 C405.7 842.0 410.1 842.9 415.7 845.9 C423.8 850.1 425.4 850.5 425.4 848.4 Z M255.9 838.9 C255.9 835.6 253.6 834.8 252.0 837.4 C250.2 840.3 248.1 837.3 248.1 831.9 C248.1 827.3 247.6 826.5 244.5 826.5 C240.0 826.5 235.2 831.5 236.0 835.3 C236.7 839.0 242.9 842.0 250.1 842.0 C254.9 842.0 255.9 841.5 255.9 838.9 Z M306.9 835.1 C313.6 827.9 315.2 823.4 311.1 823.4 C309.7 823.4 308.8 824.8 308.8 827.1 C308.8 830.2 307.5 831.2 301.8 832.9 C295.1 834.9 292.3 837.7 294.1 840.6 C296.0 843.7 300.6 841.7 306.9 835.1 Z M472.7 838.4 C475.4 835.9 476.7 833.1 476.7 829.8 C476.7 827.1 477.6 824.5 478.8 824.1 C482.8 822.5 497.2 801.9 496.3 799.0 C495.7 797.1 497.5 793.7 501.7 788.8 C507.2 782.4 508.8 781.4 514.0 781.4 C519.2 781.4 520.4 782.2 523.4 786.9 C525.2 790.0 526.5 792.7 526.2 792.9 C525.9 793.1 522.4 794.9 518.4 796.8 C513.8 799.0 509.9 802.3 507.9 805.6 C506.2 808.6 503.1 811.6 501.2 812.3 C496.9 814.0 487.0 827.4 488.4 829.7 C489.5 831.4 498.0 830.2 500.9 827.9 C501.8 827.2 508.4 826.2 515.6 825.7 C522.9 825.1 533.0 823.4 538.1 821.9 C543.2 820.3 550.7 818.6 554.8 818.0 C558.8 817.5 562.5 816.3 563.0 815.5 C563.5 814.7 566.9 814.0 570.4 814.0 C579.8 813.9 609.3 805.6 614.3 801.7 C615.1 801.0 618.1 800.0 620.8 799.4 C623.5 798.8 626.5 797.4 627.4 796.2 C628.4 795.1 631.5 793.7 634.4 793.2 C637.3 792.7 640.5 791.2 641.5 789.9 C642.6 788.7 644.1 787.6 644.9 787.6 C647.8 787.6 661.7 772.8 661.7 769.7 C661.7 767.9 664.1 762.7 667.1 758.0 C673.1 748.6 674.1 745.4 669.7 749.3 C668.2 750.7 665.9 751.9 664.8 751.9 C663.6 751.9 660.5 754.0 657.8 756.5 C655.2 759.1 651.3 761.2 649.2 761.2 C635.9 761.3 632.5 760.8 627.8 758.0 C623.3 755.3 622.2 755.2 619.5 757.1 C617.8 758.3 615.0 758.9 613.3 758.5 C611.6 758.0 608.9 758.9 607.1 760.6 C604.6 762.9 603.5 763.1 601.4 761.5 C594.5 756.6 591.8 756.0 588.9 758.6 C587.3 760.0 584.4 761.2 582.4 761.2 C580.4 761.2 576.5 762.0 573.7 763.0 C569.5 764.5 568.0 764.4 564.8 762.3 C561.4 760.1 560.7 760.0 559.0 762.0 C557.7 763.6 554.0 764.3 546.5 764.3 C540.7 764.3 535.5 765.0 535.1 765.7 C534.6 766.5 532.1 767.6 529.6 768.2 C527.1 768.7 524.3 770.2 523.2 771.4 C522.2 772.6 519.3 773.6 516.7 773.6 C511.4 773.6 500.2 776.6 497.4 778.7 C496.3 779.5 495.0 783.2 494.5 787.0 C493.8 791.5 492.4 794.5 490.5 795.5 C488.9 796.4 487.6 798.4 487.6 800.1 C487.6 803.5 484.5 804.2 481.7 801.4 C479.8 799.4 478.9 800.7 477.9 807.1 C477.2 811.8 463.2 816.1 458.3 813.0 C455.1 811.0 454.4 811.1 450.1 814.8 C447.5 816.9 444.3 818.7 443.0 818.7 C440.4 818.7 425.3 824.8 423.1 826.8 C421.7 828.0 423.4 829.9 430.8 835.0 C433.5 836.8 436.3 836.8 450.2 835.0 C466.9 832.8 469.3 833.0 466.1 836.2 C463.5 838.7 463.8 842.0 466.5 842.0 C467.7 842.0 470.5 840.4 472.7 838.4 Z M709.9 834.3 C709.9 833.4 709.1 831.5 708.2 830.0 C705.8 826.1 715.8 815.2 719.8 817.5 C724.4 820.0 725.5 818.1 722.7 812.6 C719.8 806.8 716.1 804.5 716.1 808.5 C716.1 809.9 714.4 811.7 712.3 812.5 C710.2 813.3 707.4 816.1 706.0 818.7 C704.6 821.5 702.4 823.4 700.5 823.4 C696.5 823.4 696.5 828.6 700.6 832.7 C703.8 836.0 709.9 837.0 709.9 834.3 Z M744.7 825.7 C745.2 824.4 747.5 823.4 750.3 823.4 C755.7 823.4 756.2 821.5 752.1 817.4 C750.5 815.8 748.8 813.5 748.5 812.4 C747.1 808.2 742.5 812.3 742.5 817.8 C742.5 821.8 741.8 823.4 739.4 824.2 C737.7 824.7 736.3 825.8 736.3 826.6 C736.3 829.0 743.7 828.2 744.7 825.7 Z M242.7 820.7 C244.5 816.4 244.5 815.6 242.7 815.6 C241.6 815.6 240.3 816.4 240.0 817.5 C239.0 820.5 234.1 817.6 234.1 814.0 C234.1 812.2 235.5 808.9 237.2 806.7 C241.3 801.6 241.3 793.6 237.2 789.9 C229.8 783.3 227.5 777.2 228.7 767.7 C229.3 762.9 230.4 758.0 231.3 757.0 C232.1 756.0 232.6 752.9 232.3 750.0 C231.9 745.6 231.3 744.9 228.0 745.3 C223.0 745.9 222.8 746.1 225.0 750.8 C226.3 753.8 226.3 755.5 225.1 756.9 C221.8 760.9 221.1 774.8 224.0 779.2 C225.4 781.5 226.3 784.5 225.9 786.0 C225.5 787.5 225.8 795.0 226.5 802.6 C227.6 814.0 227.4 816.7 225.5 818.1 C222.2 820.6 222.7 823.2 226.7 824.1 C228.7 824.5 231.6 825.1 233.4 825.5 C238.9 826.7 240.6 825.8 242.7 820.7 Z M289.1 819.0 C287.7 815.9 285.6 810.5 284.4 807.1 C281.5 799.2 279.6 797.2 278.3 800.6 C276.6 805.0 279.0 813.2 284.0 820.0 C289.7 827.7 292.7 827.2 289.1 819.0 Z M686.5 810.6 C686.4 808.2 676.0 800.1 673.1 800.1 C669.6 800.1 670.8 802.6 676.5 807.7 C682.2 812.7 686.6 813.9 686.5 810.6 Z M773.6 810.4 C773.6 809.3 776.3 806.7 779.5 804.6 C782.7 802.5 786.0 799.3 786.8 797.3 C788.2 794.3 795.4 792.1 795.4 794.7 C795.4 795.2 791.5 799.4 786.7 804.0 C778.2 812.3 773.6 814.6 773.6 810.4 Z M703.7 804.8 C703.7 801.6 699.5 798.5 695.2 798.5 C692.1 798.5 692.1 801.4 695.4 805.0 C698.8 808.8 703.7 808.7 703.7 804.8 Z M187.2 799.2 C184.0 788.3 179.7 785.6 179.7 794.5 C179.7 798.5 180.8 800.6 184.0 802.9 C186.3 804.6 188.4 805.9 188.6 805.7 C188.8 805.5 188.1 802.6 187.2 799.2 Z M463.9 804.4 C466.3 802.1 466.3 797.5 464.0 796.1 C462.1 794.9 456.6 801.1 456.5 804.3 C456.5 806.8 461.5 806.9 463.9 804.4 Z M763.3 798.5 C764.9 798.5 768.2 796.4 770.8 793.9 C773.3 791.3 776.4 789.2 777.6 789.2 C779.0 789.2 779.9 787.6 779.9 785.3 C779.9 780.6 777.5 780.3 774.8 784.6 C773.7 786.4 768.1 790.7 762.4 794.2 C756.6 797.6 751.9 801.3 751.9 802.3 C751.9 806.3 754.3 806.4 757.4 802.5 C759.1 800.3 761.8 798.5 763.3 798.5 Z M217.0 795.8 C217.0 792.2 215.4 790.0 211.2 787.8 C209.3 786.8 207.7 784.6 207.7 782.9 C207.7 777.4 202.2 779.3 200.3 785.4 C198.8 790.4 198.9 790.9 201.2 790.0 C205.9 788.2 206.7 788.4 207.3 791.5 C208.4 797.6 209.2 798.5 213.1 798.5 C215.8 798.5 217.0 797.7 217.0 795.8 Z M695.3 786.1 C697.6 785.7 699.8 784.4 700.2 783.4 C701.2 780.2 696.0 779.3 693.0 782.0 C687.5 787.0 677.2 783.0 677.2 775.9 C677.2 771.2 674.7 771.0 670.0 775.5 C665.3 779.8 665.4 781.4 670.3 781.4 C672.9 781.4 676.4 783.6 680.5 788.0 L686.8 794.6 L688.9 790.7 C690.1 788.5 692.8 786.5 695.3 786.1 Z M278.4 782.6 C280.4 778.6 280.5 776.8 279.1 773.2 C276.5 767.1 272.1 768.2 272.6 774.8 C272.8 777.5 272.2 780.1 271.3 780.7 C270.3 781.4 270.6 782.8 272.4 784.7 C275.8 788.4 275.4 788.5 278.4 782.6 Z M696.7 766.8 C699.5 764.8 699.5 764.7 696.2 762.9 C691.9 760.6 691.9 757.5 696.0 751.7 L699.2 747.2 L694.0 747.2 C688.1 747.2 685.3 749.0 681.3 755.5 C678.4 760.1 678.9 764.6 682.3 764.2 C686.4 763.7 688.1 764.4 688.1 766.6 C688.1 769.6 692.8 769.7 696.7 766.8 Z M275.5 744.5 C275.6 742.6 276.5 740.0 277.6 738.7 C278.9 737.2 279.2 734.3 278.5 730.2 C277.4 723.6 274.2 721.8 272.3 726.6 C270.5 731.1 268.6 744.6 269.5 746.8 C270.7 750.1 275.3 748.3 275.5 744.5 Z M170.4 740.1 C170.4 736.2 164.6 726.1 163.1 727.5 C162.0 728.6 167.5 744.1 169.0 744.1 C169.8 744.1 170.4 742.3 170.4 740.1 Z M588.0 742.4 C589.4 740.1 585.8 737.9 580.6 737.9 C575.7 737.9 573.2 740.7 576.4 742.7 C579.4 744.6 586.7 744.4 588.0 742.4 Z M206.1 738.6 C206.1 736.1 202.7 731.7 200.7 731.7 C199.5 731.7 197.7 730.3 196.8 728.6 C194.4 724.0 192.2 724.7 192.2 730.0 C192.2 733.0 193.4 735.4 195.6 737.0 C198.9 739.3 206.1 740.4 206.1 738.6 Z M676.6 734.5 C677.8 732.5 677.4 732.2 671.5 731.0 C667.4 730.1 666.5 730.4 665.6 733.1 C664.1 738.0 665.8 739.5 671.1 737.6 C673.6 736.7 676.1 735.3 676.6 734.5 Z M458.0 735.6 C458.0 734.4 458.9 732.8 460.0 732.1 C461.1 731.4 462.8 728.9 463.9 726.5 C465.9 721.9 469.3 721.6 470.2 726.0 C470.7 728.7 462.6 737.9 459.7 737.9 C458.8 737.9 458.0 736.9 458.0 735.6 Z M635.7 727.5 C636.4 726.4 638.0 725.4 639.3 725.4 C643.2 725.4 651.6 716.2 649.5 714.2 C648.2 712.9 647.0 713.2 644.7 715.3 C642.9 716.9 640.3 717.7 638.4 717.2 C636.0 716.6 635.3 717.2 635.3 719.7 C635.3 722.2 634.8 722.5 633.4 721.1 C631.8 719.5 626.0 721.8 619.9 726.4 C619.6 726.7 619.7 727.9 620.2 729.1 C621.3 732.0 633.9 730.7 635.7 727.5 Z M608.9 728.5 C610.5 727.7 612.3 724.5 612.8 721.5 C614.3 713.8 621.4 708.1 629.3 708.6 C636.1 709.0 640.6 705.8 639.0 701.6 C637.9 698.8 634.3 698.3 628.8 700.3 C626.8 701.1 623.3 702.1 621.1 702.7 C617.0 703.6 617.0 703.5 617.8 696.6 C618.4 690.7 618.0 688.9 615.0 685.7 C613.0 683.6 610.2 681.9 608.6 681.9 C607.1 681.9 604.6 680.6 603.1 679.0 C599.1 674.8 591.6 673.5 587.8 676.3 C584.9 678.5 585.0 678.7 590.5 681.0 C593.7 682.4 597.0 683.5 597.9 683.5 C598.8 683.5 599.5 685.2 599.5 687.3 C599.5 689.7 601.0 692.1 603.5 693.8 C607.0 696.1 607.4 697.2 607.0 705.1 C606.5 713.6 606.4 713.8 601.8 713.8 C596.0 713.9 595.0 719.7 600.7 720.5 C604.9 721.1 605.4 723.9 601.2 723.9 C596.6 723.9 593.3 725.6 593.3 727.9 C593.3 730.5 604.3 731.0 608.9 728.5 Z M711.5 726.8 C714.2 721.9 710.9 719.4 706.8 723.1 C705.1 724.6 703.7 726.9 703.7 728.0 C703.7 731.3 709.6 730.4 711.5 726.8 Z M299.5 719.9 C295.0 715.5 296.9 712.0 303.0 713.6 C307.2 714.6 309.2 717.9 307.8 721.6 C306.5 724.8 304.0 724.3 299.5 719.9 Z M196.8 712.3 C198.7 709.9 197.6 703.7 195.2 703.7 C194.4 703.7 193.7 702.4 193.7 700.8 C193.7 696.7 189.8 693.9 186.0 695.1 C181.6 696.5 182.0 700.3 186.7 702.4 C189.7 703.8 190.6 705.3 190.6 709.4 C190.6 715.0 193.4 716.3 196.8 712.3 Z M699.8 693.6 C700.0 686.7 700.4 680.4 700.6 679.6 C701.8 674.0 700.2 671.1 694.5 668.4 C691.1 666.9 688.0 664.4 687.6 662.9 C687.2 661.4 686.1 660.1 685.2 660.1 C682.6 660.1 683.1 664.4 685.8 665.9 C687.4 666.9 688.3 671.1 688.9 681.2 C690.5 706.6 690.8 708.4 693.7 711.6 L696.6 714.8 L697.9 710.4 C698.7 708.0 699.5 700.4 699.8 693.6 Z M175.7 705.9 C179.6 702.0 178.6 699.3 171.7 695.8 C166.6 693.2 164.5 692.8 161.6 694.2 C157.7 695.9 156.6 700.6 160.0 700.6 C161.1 700.6 164.4 702.3 167.3 704.5 C173.5 709.1 172.7 708.9 175.7 705.9 Z M743.6 696.5 C747.3 692.8 748.4 692.6 756.0 693.5 C762.8 694.4 764.3 695.1 764.3 697.6 C764.3 699.2 765.4 700.6 766.6 700.6 C770.2 700.6 769.5 697.7 764.7 692.6 C761.3 689.0 759.5 688.3 756.2 689.0 C753.9 689.5 750.6 689.1 748.7 688.1 C745.9 686.6 745.3 686.8 744.6 689.4 C744.2 691.1 741.8 693.4 739.3 694.4 C734.5 696.4 733.1 700.6 737.2 700.6 C738.5 700.6 741.4 698.7 743.6 696.5 Z M639.9 686.6 C639.9 682.8 641.3 682.6 643.8 686.0 C646.2 689.3 653.1 686.1 651.7 682.4 C651.2 681.2 650.8 679.5 650.8 678.7 C650.8 676.3 643.0 677.1 642.0 679.6 C641.5 681.1 639.1 681.9 635.5 681.9 C625.1 682.0 622.7 686.9 632.2 688.6 C639.3 689.8 639.9 689.7 639.9 686.6 Z M737.3 684.4 C738.7 680.6 735.0 675.7 730.8 675.7 C725.8 675.7 724.3 679.6 727.8 683.5 C731.1 687.1 736.1 687.5 737.3 684.4 Z M532.5 677.0 C536.6 673.8 544.4 673.3 553.0 675.7 C558.8 677.3 567.6 674.9 573.1 670.3 C576.7 667.3 585.2 666.2 588.6 668.3 C593.0 671.0 596.0 667.8 593.8 662.9 C592.9 661.0 592.5 658.5 592.9 657.4 C593.7 655.1 601.1 654.8 601.1 657.0 C601.1 657.9 601.8 658.6 602.6 658.6 C603.5 658.6 604.2 657.4 604.2 655.9 C604.2 654.5 606.1 651.7 608.4 649.8 C611.8 647.1 612.3 646.0 610.8 644.4 C609.3 642.9 608.3 643.0 606.0 645.1 C601.9 648.8 598.8 648.3 596.3 643.7 C594.6 640.4 593.4 639.8 589.8 640.5 C584.2 641.7 584.1 642.5 591.4 627.7 C594.9 620.7 594.1 615.1 589.6 615.1 C588.5 615.1 586.1 613.0 584.3 610.5 C582.3 607.8 579.2 605.7 576.7 605.4 C573.2 605.0 572.2 603.9 571.4 599.8 C570.0 593.0 569.0 592.3 565.3 595.6 C563.3 597.4 562.2 600.4 562.2 603.8 C562.2 608.4 561.9 608.9 559.9 607.3 C558.6 606.2 557.5 603.6 557.5 601.5 C557.5 598.0 557.1 597.7 553.3 598.6 C550.9 599.2 546.9 600.1 544.3 600.6 C541.7 601.0 538.4 602.5 536.9 603.9 C534.3 606.1 533.8 606.0 530.0 602.2 C526.5 598.8 526.2 597.7 527.9 595.7 C529.0 594.4 532.2 593.3 535.1 593.3 C537.9 593.3 540.7 592.5 541.3 591.6 C542.6 589.5 538.9 586.9 536.6 588.3 C535.7 588.8 532.2 589.7 528.8 590.1 C523.7 590.8 522.4 591.6 522.0 594.7 C521.2 600.7 517.1 605.7 513.1 605.7 C508.0 605.7 505.2 610.5 505.9 617.9 C506.6 625.1 509.9 627.3 514.2 623.4 C517.0 620.9 517.3 620.9 519.4 623.7 C522.4 627.7 522.3 628.5 518.7 632.2 C514.3 636.5 514.8 638.4 520.2 638.4 C526.2 638.4 526.5 642.6 520.7 644.0 C517.2 644.9 515.8 644.1 511.0 638.6 C504.6 631.1 496.9 629.4 496.9 635.4 C496.9 639.2 506.8 649.0 512.0 650.3 C516.7 651.4 516.5 652.4 510.5 658.1 C504.0 664.2 501.1 665.1 497.1 662.3 C494.5 660.4 494.1 659.3 495.3 657.0 C496.4 655.1 496.4 653.8 495.3 653.1 C492.4 651.3 490.9 653.9 491.2 660.5 C491.4 665.6 492.1 667.2 494.3 667.6 C495.9 667.9 498.5 669.5 500.1 671.2 C501.9 673.0 505.3 674.1 508.6 674.1 C513.0 674.1 514.4 674.9 515.6 678.1 C516.9 681.7 517.6 682.0 522.9 681.0 C526.1 680.4 530.4 678.6 532.5 677.0 Z M493.8 678.8 C493.8 677.9 492.8 677.2 491.7 677.2 C490.5 677.2 487.5 674.3 485.1 670.6 C477.4 659.3 473.0 654.1 471.7 654.9 C469.4 656.3 470.4 661.6 473.3 663.1 C474.9 663.9 477.0 667.5 478.0 671.0 C480.0 677.5 483.4 680.1 490.3 680.3 C492.2 680.3 493.8 679.7 493.8 678.8 Z M515.5 671.0 C513.3 666.8 514.8 665.1 518.7 667.6 C520.4 668.6 523.5 669.5 525.8 669.5 C532.0 669.5 529.5 673.3 522.9 673.8 C518.5 674.2 516.9 673.6 515.5 671.0 Z M768.9 665.1 C768.9 661.2 761.8 656.6 757.8 657.9 C754.6 658.9 754.7 659.2 760.3 664.2 C766.3 669.5 769.0 669.8 768.9 665.1 Z M645.8 665.5 C648.9 664.5 648.0 658.9 644.5 657.8 C640.6 656.5 635.3 660.8 635.3 665.1 C635.3 667.9 637.6 668.0 645.8 665.5 Z M706.8 666.7 C706.8 666.0 705.4 662.5 703.7 659.0 C702.0 655.4 700.6 651.8 700.6 650.9 C700.6 648.8 693.2 645.3 691.8 646.7 C691.2 647.2 691.5 649.5 692.5 651.7 C693.5 653.8 694.3 657.0 694.3 658.6 C694.3 662.3 700.2 667.9 704.0 667.9 C705.5 667.9 706.8 667.3 706.8 666.7 Z M808.7 651.7 C810.4 649.1 810.8 646.3 810.1 642.4 C808.9 636.1 807.7 635.5 805.5 639.7 C804.6 641.3 802.7 644.9 801.2 647.6 C799.6 650.3 798.8 653.1 799.3 654.0 C801.0 656.8 806.2 655.5 808.7 651.7 Z M687.1 630.6 C688.2 625.0 691.2 624.6 699.8 629.0 C707.2 632.8 715.0 633.1 717.8 629.6 C719.7 627.4 719.2 626.5 714.6 622.6 C711.6 620.2 707.6 618.2 705.6 618.2 C702.0 618.2 702.0 618.1 704.6 613.7 C707.3 609.0 706.7 595.9 703.6 594.0 C700.3 592.0 702.5 590.4 707.6 591.3 C713.9 592.3 714.2 591.5 709.7 585.3 C706.3 580.4 706.7 576.2 710.6 576.2 C712.0 576.2 713.0 574.8 713.0 573.1 C713.0 569.9 707.8 568.6 706.1 571.4 C705.6 572.1 699.5 572.6 692.5 572.5 C679.8 572.2 679.7 572.1 677.8 567.4 C676.6 564.3 674.3 562.2 671.8 561.5 C668.6 560.8 668.0 559.9 668.7 557.5 C669.5 555.1 669.0 554.4 666.5 554.4 C664.4 554.4 663.3 555.4 663.3 557.2 C663.3 558.8 661.2 561.6 658.6 563.5 C653.8 567.0 652.2 573.1 656.1 573.1 C657.5 573.1 658.6 575.9 659.3 581.6 C659.9 586.3 660.9 590.5 661.6 590.9 C666.5 593.9 662.9 616.6 657.6 616.6 C655.0 616.6 654.8 620.0 657.3 622.5 C660.0 625.2 661.2 624.8 662.1 621.3 C663.7 615.3 673.0 617.7 676.7 625.0 C679.5 630.5 683.4 635.3 685.1 635.3 C685.7 635.3 686.6 633.2 687.1 630.6 Z M478.0 624.7 C478.2 622.7 477.6 620.1 476.6 618.9 C474.1 615.8 477.3 611.9 482.3 611.9 C484.3 611.9 486.0 611.2 486.0 610.4 C486.0 609.5 485.0 608.8 483.7 608.8 C479.6 608.8 471.5 602.9 469.7 598.4 L467.9 594.1 L465.9 597.7 C464.2 600.9 464.5 602.4 468.0 608.8 C470.5 613.5 472.0 618.7 472.0 622.8 C472.0 628.1 472.5 629.2 474.7 628.8 C476.2 628.5 477.7 626.6 478.0 624.7 Z M227.9 621.4 C227.9 616.5 228.7 614.8 231.4 613.3 C233.3 612.3 235.7 610.3 236.7 609.0 C238.4 606.7 238.7 606.8 239.7 609.4 C240.3 611.0 240.1 612.7 239.1 613.3 C238.1 613.9 236.3 617.2 235.2 620.6 C232.2 629.2 227.9 629.7 227.9 621.4 Z M524.4 622.4 C523.2 615.2 528.8 610.4 538.2 610.4 C544.8 610.4 545.1 610.6 543.5 613.6 C542.6 615.3 540.2 617.4 538.3 618.1 C536.3 618.8 533.6 621.2 532.1 623.5 C528.5 629.0 525.4 628.5 524.4 622.4 Z M568.0 620.8 C564.8 619.5 563.7 618.1 563.7 614.8 C563.7 607.9 567.8 609.4 572.1 617.8 C574.9 623.2 574.6 623.4 568.0 620.8 Z M727.6 610.9 C723.7 605.6 722.2 605.1 718.4 607.9 C715.4 610.1 715.4 610.2 719.3 611.7 C721.5 612.5 724.2 614.3 725.4 615.7 C729.1 620.3 731.2 615.7 727.6 610.9 Z M206.8 597.3 C205.4 595.3 205.0 592.2 205.6 588.3 C206.5 582.5 206.5 582.4 202.1 583.2 C195.1 584.5 192.6 582.0 194.8 576.2 C196.6 571.4 196.6 571.3 191.7 571.8 C187.8 572.2 186.2 573.4 184.5 577.3 C180.9 585.6 173.6 583.9 171.1 574.3 C170.3 571.0 171.0 568.9 174.1 565.2 C176.3 562.6 178.2 559.1 178.2 557.4 C178.2 555.8 179.6 552.9 181.4 551.1 L184.7 547.9 L190.4 553.5 C193.6 556.6 197.0 559.1 198.0 559.1 C200.9 559.1 201.8 561.9 199.9 565.3 C198.1 568.8 198.8 569.1 203.1 566.8 C205.5 565.6 206.7 565.9 208.8 568.4 C211.8 571.9 215.5 572.5 215.5 569.6 C215.5 568.5 214.1 565.0 212.4 561.8 C208.4 554.3 208.4 554.1 214.0 549.9 C219.4 545.9 221.3 546.4 218.4 551.0 C215.8 555.1 217.8 559.7 221.7 558.6 C226.7 557.3 226.9 560.3 222.1 566.5 C218.0 571.7 217.6 573.4 217.7 583.2 C217.8 594.0 217.8 594.0 222.5 594.8 C225.0 595.3 227.3 596.8 227.6 598.1 C228.3 602.1 209.6 601.4 206.8 597.3 Z M232.0 592.6 C231.6 591.3 228.9 589.7 226.0 589.0 C219.6 587.3 218.0 582.4 224.0 582.4 C228.4 582.4 238.8 589.8 238.8 592.9 C238.8 595.6 233.1 595.3 232.0 592.6 Z M474.8 588.3 C477.0 586.1 477.3 578.3 475.3 577.1 C473.5 576.0 467.0 586.8 468.2 588.7 C469.4 590.7 472.6 590.5 474.8 588.3 Z M447.1 576.0 C447.1 571.9 452.9 563.7 455.8 563.7 C459.0 563.7 458.5 569.6 454.8 574.8 C451.0 580.1 447.1 580.7 447.1 576.0 Z M485.6 569.3 C487.2 567.3 491.2 564.5 494.5 563.1 C499.5 561.0 500.2 560.1 499.4 556.9 C498.9 554.8 499.1 552.6 500.0 552.1 C502.7 550.4 500.0 548.2 495.2 548.2 C491.3 548.2 490.3 549.1 488.2 554.4 C486.5 558.6 484.7 560.6 482.7 560.6 C479.3 560.6 475.8 567.0 477.2 570.6 C478.6 574.2 482.2 573.6 485.6 569.3 Z M426.9 567.6 C426.9 566.3 428.1 565.3 429.6 565.3 C433.1 565.3 442.4 558.8 442.5 556.4 C442.5 555.3 440.7 554.4 438.6 554.4 C436.4 554.4 434.7 555.3 434.7 556.4 C434.7 557.5 431.6 560.1 427.7 562.2 C420.7 566.0 419.8 567.0 421.7 568.9 C423.6 570.8 426.9 570.0 426.9 567.6 Z M239.9 553.2 C236.1 549.0 236.5 544.1 240.7 543.0 C246.5 541.4 246.8 541.7 246.3 548.5 C245.7 555.8 243.6 557.4 239.9 553.2 Z M524.8 550.0 C526.8 546.2 523.5 541.4 519.8 542.8 C516.9 543.9 514.8 548.9 516.3 551.3 C517.9 553.9 523.1 553.1 524.8 550.0 Z M227.8 542.6 C226.4 540.9 226.2 539.4 227.3 537.7 C229.7 533.9 232.6 533.6 232.6 537.1 C232.6 538.8 233.3 540.7 234.2 541.2 C236.2 542.5 234.6 545.1 231.9 545.1 C230.8 545.1 228.9 544.0 227.8 542.6 Z M209.3 536.6 C206.5 533.2 208.5 527.3 213.1 525.2 C216.9 523.5 217.0 523.6 217.0 528.7 C217.0 538.3 213.6 541.8 209.3 536.6 Z M547.2 531.6 C546.6 529.1 547.4 527.8 550.8 526.1 C554.6 524.3 555.1 523.2 554.7 518.6 C553.7 508.6 551.1 508.2 542.2 516.9 C537.8 521.2 534.1 525.9 534.0 527.5 C533.3 534.7 534.0 535.4 541.1 535.2 C547.4 535.0 548.0 534.7 547.2 531.6 Z M610.5 532.7 C618.3 531.9 624.0 530.5 625.7 529.0 C627.3 527.6 629.7 526.4 631.2 526.4 C632.7 526.4 636.1 525.3 638.8 523.8 C645.8 520.2 666.5 519.4 672.5 522.5 C675.2 523.9 681.8 525.0 688.5 525.1 C697.2 525.3 700.6 526.1 703.1 528.4 C705.2 530.2 708.1 531.1 710.9 530.8 C716.2 530.2 716.3 527.0 711.5 516.4 C707.6 507.8 703.8 506.5 696.5 511.0 C692.0 513.8 690.3 514.1 687.2 512.7 C682.7 510.6 682.4 508.4 686.5 506.3 C691.4 503.6 686.2 494.4 681.0 496.4 C679.8 496.9 676.3 496.8 673.3 496.2 C668.8 495.4 667.6 494.3 666.9 490.7 C665.7 484.9 662.3 481.9 655.5 480.9 C652.5 480.5 648.5 479.6 646.7 479.0 C644.1 478.2 643.1 478.7 642.3 481.2 C641.0 485.4 634.4 485.5 631.8 481.3 C629.4 477.6 627.7 477.4 625.2 480.8 C622.7 484.2 618.6 482.6 616.6 477.5 C615.5 474.5 614.0 473.6 610.5 473.6 C602.7 473.6 598.0 476.2 598.0 480.4 C598.0 489.0 593.9 491.6 588.5 486.7 C586.0 484.4 585.5 484.5 583.1 488.3 C580.5 492.2 580.5 492.5 583.7 495.9 L587.1 499.4 L583.1 504.7 C579.2 510.1 579.0 514.0 581.7 527.5 C582.4 530.7 594.0 536.3 596.8 534.7 C597.5 534.3 603.6 533.4 610.5 532.7 Z M333.6 511.7 C333.6 508.6 345.4 501.0 348.4 502.1 C352.1 503.6 351.2 505.8 344.9 510.0 C338.4 514.5 333.6 515.2 333.6 511.7 Z M609.2 506.7 C601.2 505.1 608.5 500.8 617.6 501.8 C623.7 502.5 623.6 506.9 617.4 507.2 C614.8 507.3 611.1 507.1 609.2 506.7 Z M647.7 500.1 C647.7 497.5 651.4 492.2 653.2 492.2 C656.7 492.2 661.7 496.4 661.7 499.5 C661.7 502.7 661.0 503.1 654.7 503.1 C648.8 503.1 647.7 502.6 647.7 500.1 Z M276.9 498.5 C276.4 496.9 274.6 495.1 272.9 494.5 C271.3 494.0 269.9 493.0 269.9 492.4 C269.9 490.1 279.0 482.6 280.7 483.6 C282.8 484.9 282.9 489.1 280.8 489.1 C278.0 489.1 279.2 493.0 282.6 495.2 C285.9 497.2 285.9 497.3 283.1 499.4 C279.2 502.3 278.1 502.1 276.9 498.5 Z M551.7 497.0 C553.2 494.6 554.4 491.2 554.4 489.6 C554.4 488.0 555.8 485.5 557.4 484.1 C560.0 481.9 560.2 480.9 558.6 476.8 C557.1 472.8 557.3 471.1 559.7 466.7 C561.3 463.8 562.1 460.6 561.5 459.7 C559.9 457.1 556.3 457.7 555.3 460.9 C554.8 462.4 552.3 465.6 549.9 468.0 C545.5 472.2 545.4 472.7 546.2 483.6 C546.8 491.2 546.5 495.3 545.3 496.0 C542.5 497.7 543.2 501.6 546.3 501.6 C547.8 501.6 550.3 499.5 551.7 497.0 Z M334.3 497.4 C333.8 495.8 332.7 493.0 332.0 491.0 C330.1 486.4 330.1 481.3 332.0 481.3 C334.7 481.3 338.3 488.2 338.3 493.3 C338.3 498.9 335.6 501.7 334.3 497.4 Z M197.3 488.2 C196.3 485.5 205.4 475.1 208.8 475.1 C212.9 475.1 211.0 483.7 206.2 487.3 C200.8 491.3 198.6 491.5 197.3 488.2 Z M637.1 465.0 C638.1 462.9 640.2 460.8 641.8 460.2 C644.0 459.5 644.7 458.0 644.5 454.4 C644.1 446.9 644.4 445.6 646.5 445.6 C651.9 445.5 652.7 443.0 649.4 436.4 C646.9 431.6 646.5 429.3 647.6 427.1 C648.8 424.9 648.5 423.2 646.3 420.5 C644.7 418.5 643.1 415.4 642.8 413.7 C642.5 412.0 640.8 410.4 638.9 410.1 C634.3 409.5 633.2 405.8 636.2 401.2 C637.8 398.8 638.3 395.9 637.7 393.5 C636.5 388.4 635.1 388.6 631.8 394.3 C629.0 399.4 624.4 399.3 624.4 394.1 C624.4 392.5 623.7 391.2 622.8 391.2 C622.0 391.2 621.3 392.9 621.3 395.1 C621.3 400.0 618.2 400.0 613.5 395.1 C610.4 391.7 610.1 390.7 611.7 387.2 C614.0 382.1 614.0 380.3 611.5 380.3 C607.3 380.3 604.4 388.2 603.6 402.3 C603.4 406.3 602.3 410.6 601.3 411.9 C599.7 413.8 599.7 415.0 601.3 417.9 C602.4 420.0 603.1 425.5 602.8 431.2 C602.4 440.5 602.6 441.0 606.7 442.5 C609.6 443.6 611.4 443.6 612.5 442.5 C614.9 440.1 618.2 440.6 618.2 443.4 C618.2 444.7 621.0 449.1 624.4 453.2 C628.3 457.8 630.6 462.1 630.6 464.7 C630.6 470.1 634.7 470.3 637.1 465.0 Z M667.9 467.4 C667.9 466.6 666.5 465.1 664.7 464.2 C661.9 462.7 661.5 461.3 662.0 453.6 C662.4 445.5 662.2 444.8 659.0 444.3 C655.6 443.8 655.5 444.3 655.5 454.7 C655.5 463.5 656.0 466.0 658.2 467.2 C661.7 469.2 667.9 469.4 667.9 467.4 Z M263.7 461.3 C263.7 456.0 261.9 453.4 258.3 453.4 C253.5 453.4 250.9 449.9 252.1 445.2 C252.8 442.2 252.3 441.2 249.8 440.5 C247.6 439.9 246.6 438.4 246.6 435.6 C246.6 431.3 245.5 431.0 237.4 432.6 C232.0 433.6 231.4 435.5 235.0 439.5 C237.3 442.0 237.3 442.6 234.9 446.2 C233.1 448.9 232.6 451.6 233.3 454.8 C234.4 459.9 237.0 460.7 241.8 457.7 C245.2 455.6 256.1 458.4 259.2 462.2 C261.7 465.1 263.7 464.7 263.7 461.3 Z M553.5 459.2 C555.3 456.4 555.9 449.3 556.2 426.5 C556.4 406.7 557.0 397.4 558.2 397.4 C560.5 397.4 568.4 387.2 568.4 384.3 C568.4 383.0 567.0 381.2 565.3 380.3 C563.6 379.4 562.2 377.5 562.2 376.1 C562.2 373.3 557.9 367.8 555.7 367.8 C554.9 367.8 552.2 370.0 549.7 372.6 C545.0 377.4 543.5 383.4 547.1 383.4 C550.1 383.4 552.7 386.6 551.8 389.0 C550.6 392.2 547.3 391.6 544.8 387.8 C543.3 385.5 541.6 384.7 539.9 385.4 C537.6 386.3 537.3 388.3 537.6 397.7 C537.8 404.0 536.9 413.0 535.8 417.9 C533.6 426.7 533.7 426.9 537.4 430.9 C540.9 434.7 541.2 435.9 540.7 447.9 C540.1 460.5 540.2 460.9 543.8 461.6 C550.6 462.9 551.2 462.7 553.5 459.2 Z M279.0 454.9 C279.3 452.8 280.4 450.5 281.6 449.9 C284.1 448.4 282.7 442.5 279.8 442.5 C278.2 442.5 277.9 443.6 278.6 446.4 C279.4 449.6 279.0 450.2 276.3 450.2 C274.6 450.2 272.4 448.8 271.4 447.1 C269.5 443.4 265.9 443.1 264.6 446.5 C263.1 450.4 263.5 451.8 266.0 451.8 C267.2 451.8 269.4 453.6 270.9 455.8 C274.0 460.6 278.3 460.1 279.0 454.9 Z M711.4 448.5 C711.4 447.6 709.7 444.6 707.6 441.8 C705.4 439.0 703.7 435.0 703.7 432.8 C703.7 430.6 702.6 428.0 701.3 426.9 C700.1 425.9 699.0 423.4 699.0 421.5 C699.0 419.6 697.6 413.9 695.9 408.9 C694.3 403.8 692.9 397.9 692.8 395.6 C692.8 390.1 689.0 387.0 685.6 389.7 C681.3 393.3 685.4 409.8 690.7 409.8 C692.7 409.8 692.9 411.1 692.0 417.6 C691.0 425.3 691.0 425.4 695.1 425.4 C699.2 425.4 699.3 425.5 698.3 432.8 C697.4 439.7 697.7 440.5 702.8 446.1 C707.9 451.5 711.4 452.5 711.4 448.5 Z M267.1 436.8 C270.1 434.0 270.9 428.5 268.3 428.5 C267.4 428.5 266.0 426.7 265.2 424.6 C263.6 420.3 259.4 419.4 258.0 423.1 C257.5 424.4 257.9 426.4 258.8 427.5 C259.8 428.7 260.2 431.7 259.6 434.5 C258.8 438.5 259.1 439.4 261.4 439.4 C263.0 439.4 265.5 438.2 267.1 436.8 Z M246.0 420.5 C251.2 422.9 251.2 422.9 251.2 417.7 C251.2 412.3 248.9 410.3 245.7 413.0 C243.9 414.5 242.8 414.4 240.6 412.4 C236.0 408.2 229.2 409.2 222.8 414.9 C216.9 420.1 215.4 423.8 219.1 423.8 C220.2 423.8 221.9 423.0 223.0 421.9 C224.4 420.5 225.4 420.6 227.2 422.5 C229.4 424.7 230.3 424.6 235.9 421.8 C240.9 419.3 242.8 419.1 246.0 420.5 Z M685.8 373.7 C684.8 362.8 684.7 362.4 685.4 351.5 C686.0 342.3 685.5 340.7 682.5 343.1 C680.9 344.5 680.6 346.9 681.3 352.5 C682.0 357.4 681.7 360.8 680.4 362.3 C679.1 363.9 679.0 366.1 680.2 370.3 C681.1 373.5 681.5 376.6 681.1 377.3 C679.8 379.3 682.1 383.4 684.5 383.4 C686.4 383.4 686.6 381.6 685.8 373.7 Z M580.2 367.6 C580.9 366.5 579.3 363.9 576.4 361.4 C571.2 356.7 570.0 352.3 573.9 352.3 C576.5 352.3 577.0 349.9 574.6 348.4 C573.8 347.9 572.6 348.5 572.1 349.9 C571.6 351.2 570.4 352.3 569.4 352.3 C567.5 352.3 559.1 361.1 559.1 363.1 C559.1 364.1 565.9 367.8 567.8 367.8 C568.3 367.8 568.2 366.4 567.6 364.7 C567.1 363.0 567.4 361.6 568.3 361.6 C569.2 361.6 570.0 362.3 570.0 363.2 C570.0 364.0 571.0 364.7 572.3 364.7 C573.7 364.7 575.1 365.8 575.6 367.1 C576.7 369.9 578.7 370.1 580.2 367.6 Z M543.9 346.1 C540.9 344.3 538.9 341.7 538.9 339.9 C538.9 336.6 539.9 336.2 547.1 336.7 C550.1 336.9 552.7 335.7 555.2 333.0 C560.1 327.8 566.0 327.4 564.4 332.5 C563.9 334.4 562.5 337.0 561.5 338.3 C560.5 339.6 558.9 342.6 557.9 344.9 C555.7 350.1 551.1 350.5 543.9 346.1 Z M241.3 321.9 C239.8 318.1 240.2 312.2 241.9 311.1 C243.7 310.0 246.9 317.4 246.2 321.0 C245.6 324.3 242.5 324.9 241.3 321.9 Z M556.3 319.3 C555.3 318.3 552.2 316.7 549.4 315.8 C544.1 314.1 539.5 307.2 541.0 303.2 C542.4 299.7 548.2 300.6 551.5 304.8 C553.3 307.1 556.5 308.8 559.5 309.1 C563.7 309.5 564.6 310.2 565.0 314.0 C565.7 320.2 560.4 323.5 556.3 319.3 Z M539.4 264.4 C538.1 260.9 540.0 257.5 543.3 257.5 C546.5 257.5 548.6 260.7 546.9 263.2 C545.0 266.0 540.3 266.8 539.4 264.4 Z M544.3 224.8 C541.8 220.7 550.8 218.3 556.0 221.7 C558.0 223.1 558.0 223.4 556.0 224.8 C552.9 226.8 545.5 226.8 544.3 224.8 Z M550.9 214.5 C550.4 214.0 550.3 211.6 550.8 209.3 C551.2 206.9 550.7 203.3 549.7 201.3 C548.6 199.3 547.2 193.5 546.6 188.3 C546.0 183.2 545.1 177.8 544.5 176.4 C543.7 174.8 544.3 173.5 546.0 172.9 C549.3 171.6 551.0 174.0 552.3 181.6 C552.8 184.8 554.2 188.2 555.4 189.2 C558.9 192.1 557.3 213.7 553.5 215.0 C552.6 215.3 551.4 215.1 550.9 214.5 Z M503.9 207.0 C498.9 204.8 500.1 203.5 507.8 202.7 C510.8 202.4 511.8 203.1 512.2 205.8 C512.7 209.8 510.7 210.1 503.9 207.0 Z M506.9 186.9 C506.4 184.9 506.2 180.9 506.5 178.0 C506.9 173.8 507.8 172.6 510.7 172.2 C514.2 171.7 514.4 172.0 513.5 177.6 C512.9 180.9 512.5 185.2 512.5 187.1 C512.4 191.8 508.1 191.6 506.9 186.9 Z M410.9 165.1 C409.6 161.8 414.0 152.9 416.5 153.7 C419.8 154.8 419.4 159.0 415.6 163.5 C412.4 167.2 411.8 167.4 410.9 165.1 Z M434.1 163.0 C433.7 161.5 432.9 156.3 432.3 151.3 C431.1 141.4 431.3 141.6 426.9 144.3 C424.3 145.9 423.5 145.9 422.2 144.0 C420.0 140.5 420.4 130.6 423.0 124.3 C425.1 119.4 425.1 118.3 422.8 114.0 C421.1 110.6 420.8 108.4 421.9 106.7 C422.7 105.3 423.9 102.0 424.5 99.2 C425.8 93.2 431.3 91.2 438.5 94.1 C447.3 97.8 451.4 97.8 456.3 94.3 C459.5 92.0 461.2 91.6 462.0 92.8 C462.6 93.8 462.0 95.3 460.6 96.0 C459.0 96.9 458.0 99.5 458.0 102.8 C458.0 109.0 456.6 109.5 452.6 105.1 C451.0 103.4 447.8 102.0 445.5 102.0 C443.2 102.0 440.9 100.9 440.4 99.6 C439.1 96.4 434.7 96.7 434.7 100.1 C434.7 101.7 436.4 105.2 438.5 108.1 C443.5 114.8 442.0 118.8 433.0 122.1 C427.1 124.3 426.1 125.3 425.7 129.6 C425.2 134.0 425.8 134.9 430.7 137.2 C433.7 138.7 436.6 139.4 437.1 139.0 C437.6 138.5 438.4 134.1 438.9 129.4 C439.4 124.3 440.6 120.6 441.6 120.6 C448.7 120.6 449.2 133.9 442.5 140.8 C437.5 145.9 436.9 148.6 439.3 153.2 C440.4 155.1 440.3 157.7 439.2 160.9 C437.3 166.3 435.3 167.1 434.1 163.0 Z M488.2 153.9 C489.5 148.9 488.0 144.0 485.2 144.0 C482.3 144.0 480.6 152.8 483.0 155.7 C485.7 159.0 487.1 158.5 488.2 153.9 Z M352.1 152.8 C355.0 149.2 350.6 144.7 346.3 146.9 C341.6 149.4 341.8 154.8 346.7 154.8 C348.7 154.8 351.1 153.9 352.1 152.8 Z M633.6 145.6 C636.3 140.7 631.6 134.4 627.4 137.0 C625.3 138.3 625.6 144.6 627.8 146.8 C630.4 149.4 631.8 149.1 633.6 145.6 Z M338.4 141.2 C344.2 137.5 344.5 136.9 341.5 136.4 C339.4 136.1 336.7 137.3 335.0 139.2 C330.7 143.8 327.5 143.2 326.4 137.7 C325.5 133.1 322.8 129.6 322.8 133.0 C322.8 136.9 327.4 145.5 329.5 145.5 C330.8 145.5 334.8 143.6 338.4 141.2 Z M624.3 130.1 C626.2 126.7 621.3 120.7 609.2 111.4 C601.2 105.3 597.4 105.6 596.7 112.4 L596.2 117.3 L603.7 117.0 C611.0 116.8 611.2 116.9 611.9 121.8 C612.5 125.3 614.2 127.9 617.4 130.0 C623.0 133.7 622.4 133.7 624.3 130.1 Z M495.9 116.8 C497.4 106.8 496.4 105.2 488.7 105.1 C484.1 105.1 483.0 107.3 486.9 108.8 C488.8 109.5 489.1 111.2 488.2 116.9 C487.4 122.2 487.7 124.4 489.3 125.4 C493.1 127.9 494.5 126.0 495.9 116.8 Z M295.8 115.2 C294.8 112.8 303.5 103.6 306.7 103.5 C307.7 103.5 310.7 101.7 313.4 99.4 C317.6 95.9 318.8 95.6 322.2 97.1 C327.4 99.5 326.5 104.1 320.7 104.8 C316.4 105.3 314.1 106.8 306.6 114.0 C302.4 118.0 297.1 118.6 295.8 115.2 Z M339.4 97.1 C335.5 94.9 338.7 91.1 344.5 91.1 C346.8 91.1 350.0 89.7 351.5 88.0 C353.0 86.3 356.8 84.5 359.9 84.0 C363.0 83.5 368.8 81.7 372.8 80.1 C376.8 78.4 382.7 77.1 385.9 77.1 C389.1 77.1 393.0 76.0 394.5 74.6 C396.3 72.9 401.3 71.7 408.6 71.2 C415.1 70.8 421.6 69.4 423.7 67.9 C429.7 64.0 513.0 64.2 519.1 68.2 C521.5 69.8 526.2 70.9 530.5 70.9 C534.6 70.9 540.7 72.2 544.2 73.8 C547.7 75.5 553.9 77.1 558.0 77.5 C562.1 78.0 566.7 79.4 568.2 80.8 C569.7 82.2 573.2 83.7 575.9 84.3 C578.6 84.8 580.8 85.9 580.8 86.6 C580.8 87.3 583.3 89.0 586.3 90.2 C592.5 92.8 593.2 95.3 588.3 97.1 C584.2 98.7 580.0 97.8 577.6 94.8 C576.6 93.6 574.2 92.7 572.3 92.7 C570.4 92.7 567.1 91.3 564.9 89.5 C562.7 87.8 558.9 86.4 556.4 86.4 C554.0 86.4 549.2 85.0 545.9 83.3 C541.8 81.3 536.7 80.2 530.7 80.2 C525.2 80.2 520.2 79.3 518.0 77.8 C516.0 76.5 512.0 75.5 509.1 75.5 C506.2 75.6 497.4 75.0 489.5 74.3 C481.5 73.6 466.0 73.6 454.5 74.4 C427.5 76.2 425.7 76.4 418.4 78.4 C415.0 79.4 408.8 80.2 404.6 80.2 C399.5 80.2 395.9 81.2 393.1 83.3 C390.6 85.3 386.8 86.4 382.7 86.4 C379.2 86.4 373.5 87.8 370.2 89.5 C366.8 91.3 361.7 92.7 358.8 92.7 C355.9 92.7 351.8 94.0 349.6 95.8 C345.2 99.3 343.4 99.5 339.4 97.1 Z" fill="#17232b" data-role="body" data-layer="ink"/>
  </g>
</svg>
