<svg xmlns="http://www.w3.org/2000/svg" viewBox="0 0 1000 1000" role="img" aria-labelledby="title" data-source="gray-anatomy" data-figure="Gray288">
  <title id="title">Right metatarsal 5</title>
  <g fill-rule="nonzero">
  <path d="M474.3 934.5 C475.9 932.8 478.6 930.6 480.4 929.7 C482.1 928.7 483.9 927.6 484.4 927.2 C485.6 926.4 493.0 924.2 499.7 922.8 C507.7 921.1 514.2 917.7 517.8 913.4 C519.5 911.4 521.5 909.1 522.3 908.4 C523.1 907.6 523.7 906.8 523.7 906.4 C523.7 905.6 521.5 903.8 520.5 903.8 C520.0 903.8 517.0 906.5 513.7 909.8 C506.9 916.6 506.8 916.7 501.3 918.2 C493.0 920.4 491.9 920.4 485.3 917.6 C482.0 916.2 478.0 914.1 476.3 912.9 C474.6 911.7 472.9 910.7 472.7 910.7 C470.8 910.7 458.8 899.1 455.6 894.2 C452.4 889.2 452.2 888.4 454.0 885.1 C456.8 880.2 459.3 875.0 462.0 868.9 C463.4 865.6 464.8 862.6 465.1 862.0 C465.4 861.5 466.1 860.2 466.6 859.1 C467.1 858.0 467.8 857.1 468.1 857.1 C468.5 857.1 469.1 856.0 469.4 854.6 C469.8 853.3 470.5 851.9 471.0 851.4 C471.5 851.0 471.9 849.9 471.9 848.9 C471.9 846.5 474.3 842.7 475.7 842.7 C476.7 842.7 476.9 843.2 476.9 844.9 C476.9 846.1 477.3 847.6 477.7 848.3 C478.3 849.3 478.3 849.8 477.7 850.8 C476.7 852.4 476.7 854.5 477.9 856.4 C478.9 858.2 479.1 862.4 478.2 862.9 C477.9 863.1 477.0 862.7 476.1 862.0 C475.2 861.3 474.1 861.0 473.5 861.2 C473.0 861.4 472.1 861.2 471.6 860.8 C470.8 860.1 470.4 860.2 469.5 861.2 C468.3 862.3 468.3 862.4 470.1 864.5 C471.9 866.6 472.0 866.6 474.0 865.9 C475.2 865.5 476.6 865.3 477.2 865.5 C477.8 865.8 478.3 865.5 478.6 864.8 C478.8 864.2 479.9 862.8 481.1 861.7 C483.1 859.6 483.2 859.5 482.2 857.7 C481.7 856.7 480.7 855.7 480.0 855.5 C478.1 854.9 479.6 853.6 482.7 853.0 C484.8 852.7 485.0 852.8 485.4 854.4 C485.6 855.3 485.9 856.5 486.0 856.9 C486.4 858.3 487.8 857.7 488.9 855.8 C490.7 852.7 491.9 853.3 491.5 857.2 C491.3 859.0 491.0 860.6 490.9 860.7 C490.8 860.8 490.0 860.4 489.1 859.8 C487.5 858.7 487.4 858.7 485.9 860.5 C485.1 861.4 484.4 863.0 484.4 864.0 C484.4 865.4 484.0 865.9 482.2 866.8 C479.4 868.1 479.1 868.6 480.1 870.8 C480.7 872.2 480.7 872.9 480.1 873.4 C478.9 874.6 479.3 875.9 480.8 875.6 C481.7 875.5 482.7 874.6 483.5 873.0 C484.2 871.6 485.3 870.4 486.0 870.3 C486.7 870.2 487.8 869.8 488.6 869.4 C489.8 868.8 490.2 868.9 491.1 869.7 C491.7 870.3 493.0 871.4 493.9 872.1 C495.8 873.5 496.1 875.0 494.7 875.5 C493.7 875.9 491.3 879.8 491.3 881.1 C491.3 882.5 492.6 882.9 493.5 881.8 C494.7 880.1 495.6 880.6 495.6 882.9 C495.6 884.9 496.4 885.7 498.4 885.7 C499.8 885.7 508.7 876.6 508.7 875.2 C508.7 874.5 509.3 873.6 510.0 873.3 C511.6 872.4 511.6 870.8 510.0 870.8 C508.2 870.8 507.9 868.2 509.3 864.9 C510.5 862.1 512.0 860.8 512.9 861.7 C513.2 861.9 513.0 862.6 512.6 863.3 C512.2 864.0 511.8 865.8 511.8 867.4 C511.8 870.0 512.0 870.3 513.7 870.9 C514.7 871.2 515.6 871.8 515.6 872.1 C515.6 872.6 520.2 875.8 521.0 875.8 C521.5 875.8 520.7 872.0 519.9 871.0 C519.5 870.5 518.7 870.1 518.1 870.1 C516.1 870.1 514.7 865.0 516.6 864.3 C517.9 863.8 517.5 861.2 515.9 860.9 C515.3 860.8 513.9 859.9 513.0 858.9 C512.0 857.9 510.7 857.0 510.1 856.8 C509.4 856.6 508.6 855.7 508.2 854.8 C507.8 853.9 506.0 851.9 504.3 850.4 C502.6 848.8 501.2 847.2 501.2 846.7 C501.2 846.2 500.6 845.4 499.8 844.9 C498.9 844.3 497.8 842.6 497.2 841.0 C496.6 839.4 495.3 837.3 494.3 836.3 C493.3 835.4 492.5 834.1 492.5 833.5 C492.5 832.8 491.8 831.2 491.0 830.0 C489.2 827.5 489.0 825.9 490.1 824.8 C491.3 823.6 490.2 823.1 488.3 823.9 C487.3 824.3 486.0 825.7 485.4 826.9 C484.1 829.3 482.2 830.6 481.6 829.6 C481.1 828.8 482.0 827.2 484.0 825.3 C486.3 823.2 486.1 821.8 483.2 819.9 C480.9 818.4 480.7 818.0 480.7 815.6 C480.7 812.3 479.6 809.0 478.4 809.0 C477.3 809.0 477.3 810.6 478.5 812.4 C479.1 813.3 479.5 814.6 479.4 815.4 C479.3 816.2 479.5 817.3 479.7 818.0 C480.1 818.8 479.7 819.6 478.6 820.8 C477.7 821.7 476.9 823.0 476.9 823.5 C476.9 824.1 476.3 825.2 475.5 825.9 C474.2 827.1 474.2 827.3 475.2 828.0 C476.9 829.2 476.6 832.2 474.5 834.9 C473.4 836.2 472.3 838.6 471.9 840.6 C471.5 842.5 470.7 844.5 470.1 845.1 C469.4 845.7 468.7 846.9 468.5 847.8 C468.3 848.7 467.5 850.0 466.9 850.6 C466.2 851.1 465.7 852.4 465.7 853.4 C465.7 854.4 465.3 855.4 464.8 855.6 C464.3 855.8 463.6 856.7 463.3 857.7 C462.9 858.7 462.3 859.5 462.0 859.5 C461.6 859.5 461.3 860.5 461.3 861.7 C461.3 863.2 460.9 864.3 460.1 865.0 C459.3 865.6 458.8 866.8 458.8 868.0 C458.8 869.4 458.4 870.3 457.3 871.0 C456.3 871.7 455.7 872.6 455.7 873.7 C455.7 874.6 454.7 877.1 453.5 879.3 C452.3 881.5 451.4 883.7 451.4 884.2 C451.4 887.3 447.7 884.5 446.3 880.3 C445.9 879.2 445.4 878.3 445.1 878.3 C444.7 878.3 444.1 877.5 443.7 876.5 C443.3 875.6 442.7 874.4 442.2 873.9 C440.8 872.1 438.0 866.1 436.9 862.4 C435.3 856.6 433.9 853.3 432.6 851.6 C431.9 850.7 431.4 849.5 431.4 848.8 C431.4 848.1 430.8 846.9 430.1 846.0 C429.5 845.1 428.9 844.1 428.9 843.6 C428.9 843.2 428.5 842.5 428.0 842.1 C427.5 841.7 426.9 840.3 426.7 839.1 C426.4 837.8 425.7 835.6 425.1 834.2 C423.9 831.6 423.3 818.7 424.2 816.4 C424.6 815.5 423.7 813.0 419.9 804.4 C418.5 801.3 417.5 788.2 418.4 785.1 C418.8 783.7 419.1 779.7 419.0 776.3 C419.0 770.9 419.2 769.6 420.4 766.9 C421.3 765.2 422.2 762.4 422.6 760.7 C423.3 757.7 426.2 752.8 428.3 751.2 C429.4 750.3 431.8 750.2 432.4 751.1 C432.8 751.8 430.9 757.3 428.9 761.0 C427.3 764.3 426.8 766.9 427.8 767.8 C428.5 768.3 429.0 768.2 429.9 767.5 C430.7 766.8 430.9 766.4 430.3 766.2 C429.3 765.8 429.3 764.1 430.3 764.1 C430.8 764.1 431.5 764.4 431.8 764.8 C432.3 765.3 433.0 765.2 434.4 764.5 C436.4 763.5 438.9 763.2 438.9 763.9 C438.9 764.1 438.4 764.8 437.9 765.5 C437.0 766.4 437.0 766.8 437.6 767.5 C438.8 768.9 441.6 768.7 443.0 767.2 C444.5 765.5 447.6 764.1 450.2 764.1 C451.9 764.1 452.1 764.3 451.7 765.7 C451.3 767.5 452.6 767.9 453.8 766.3 C455.0 764.9 458.0 765.1 458.5 766.6 C459.0 768.1 459.4 768.1 461.6 767.1 C463.0 766.5 463.5 766.6 465.1 767.8 C466.1 768.5 467.6 769.1 468.4 769.1 C469.3 769.1 470.8 769.4 471.7 769.8 C472.7 770.2 475.8 770.6 478.7 770.6 C484.3 770.7 485.3 771.3 484.6 773.9 C484.4 774.7 484.6 775.4 484.9 775.4 C485.2 775.4 485.7 776.1 485.9 777.1 C486.6 779.8 487.4 780.4 489.1 779.6 C490.2 779.1 490.8 779.1 491.5 779.6 C492.6 780.6 496.0 779.3 496.9 777.4 C497.4 776.6 498.0 776.0 498.2 776.0 C498.5 776.0 498.6 774.9 498.4 773.6 C498.0 771.1 499.2 769.2 500.6 770.0 C502.6 771.3 500.5 775.8 495.7 780.7 C492.1 784.3 491.6 784.5 488.4 783.3 C485.9 782.4 484.4 783.4 484.4 786.0 C484.4 787.8 485.2 788.4 486.0 787.2 C486.6 786.2 487.5 786.5 488.1 788.0 C488.5 788.8 489.4 790.2 490.3 791.2 C491.6 792.8 492.0 792.9 492.8 792.2 C493.3 791.8 493.8 790.8 493.8 790.0 C493.8 789.1 494.3 788.2 495.0 787.8 C495.8 787.4 496.3 786.5 496.3 785.5 C496.3 784.1 496.4 784.0 498.0 784.4 C501.7 785.3 502.7 785.1 503.4 783.3 C503.9 781.8 503.8 781.3 502.7 780.4 C501.1 779.2 500.5 776.9 501.8 776.9 C502.8 776.9 504.4 779.5 505.6 783.0 C506.3 785.1 506.2 785.6 505.1 787.8 C503.7 790.5 504.0 791.5 505.8 789.9 C506.9 788.8 507.0 788.8 507.9 790.0 C508.3 790.6 508.7 792.0 508.7 793.1 C508.7 794.3 509.2 795.5 510.0 796.1 C510.9 796.9 511.1 797.6 510.9 798.7 C510.6 799.8 510.9 800.8 511.8 801.9 C512.5 802.8 513.1 804.3 513.1 805.2 C513.1 806.2 513.8 807.5 514.9 808.5 C515.9 809.5 517.1 811.7 517.7 813.6 C518.3 815.5 519.3 818.1 520.0 819.4 C520.7 820.7 521.2 822.3 521.2 822.9 C521.2 823.6 521.9 825.0 522.6 826.1 C524.3 828.4 525.6 831.8 525.6 834.1 C525.6 835.0 526.1 836.4 526.8 837.2 C527.4 838.1 528.2 839.5 528.4 840.4 C528.6 841.3 529.2 842.3 529.6 842.6 C530.0 842.8 530.8 843.9 531.4 845.0 C532.3 846.7 532.3 847.0 531.4 848.3 C530.0 850.3 530.2 857.0 531.7 858.2 C532.6 858.9 532.8 858.7 533.5 857.1 C534.5 854.7 536.2 854.5 536.2 856.8 C536.2 857.9 535.8 858.5 534.9 858.7 C532.8 859.3 533.9 860.5 536.3 860.3 L538.5 860.1 L538.9 863.6 C539.1 865.5 539.9 867.9 540.5 868.8 C541.2 869.7 542.1 871.9 542.6 873.7 C543.0 875.5 543.9 877.4 544.5 877.8 C545.0 878.2 545.9 880.0 546.4 881.7 C547.8 886.6 549.4 890.7 549.9 890.7 C550.1 890.7 551.0 890.0 551.7 889.2 C552.8 888.1 553.0 887.4 552.6 886.9 C552.2 886.4 551.7 885.4 551.5 884.5 C551.2 883.6 550.5 881.8 549.9 880.4 C548.1 876.5 546.8 873.4 546.8 873.0 C546.8 872.7 547.7 871.1 548.9 869.3 C554.6 860.5 558.6 839.5 558.6 818.0 C558.6 808.6 558.7 807.5 559.9 806.1 C560.8 804.9 561.1 803.5 561.1 800.4 C561.1 798.1 561.7 794.1 562.4 791.6 C563.3 788.0 563.6 784.8 563.6 778.3 C563.6 771.5 563.9 769.1 564.8 766.5 C565.5 764.7 566.5 759.4 567.0 754.8 C568.9 739.1 570.9 728.2 572.5 725.0 C577.0 716.2 577.5 707.6 574.0 697.6 C572.8 694.1 571.5 689.2 571.1 686.7 C570.7 684.2 570.2 680.6 569.8 678.7 C569.5 676.8 569.2 666.4 569.3 655.3 C569.4 633.9 569.2 631.6 567.0 628.3 C565.9 626.7 565.5 625.2 565.4 622.6 C565.4 620.7 565.2 617.2 565.1 614.8 C564.7 607.9 564.6 600.1 564.8 587.3 C564.9 580.8 564.8 570.4 564.5 564.2 C564.3 558.1 564.2 552.0 564.2 550.8 C564.8 542.4 564.2 526.7 563.2 521.7 C562.9 520.2 563.1 519.3 563.8 518.5 C564.6 517.6 565.0 514.8 565.5 504.0 C565.9 496.7 566.1 488.8 566.0 486.6 C565.9 484.4 566.1 481.9 566.3 481.2 C566.6 480.4 566.5 478.9 566.2 477.7 C565.9 476.6 565.9 473.9 566.2 471.6 C566.7 467.3 566.9 442.4 566.4 430.5 C566.3 426.5 566.2 422.3 566.3 421.1 C566.8 411.9 565.8 354.5 564.9 342.0 C564.7 338.0 564.4 333.7 564.3 332.5 C564.0 327.5 564.2 261.6 564.5 252.7 C564.7 247.4 565.0 239.3 565.1 234.8 C565.2 230.3 565.6 225.2 566.0 223.6 C566.4 221.9 566.7 220.2 566.7 219.7 C566.7 217.3 569.5 210.9 571.7 208.2 C573.1 206.5 574.2 204.7 574.2 204.1 C574.2 202.6 576.1 201.0 578.7 200.3 C579.8 200.0 582.0 198.5 583.5 197.0 C585.7 194.7 586.2 193.7 586.6 190.9 C586.9 189.0 587.3 187.2 587.6 186.7 C587.8 186.3 588.3 183.9 588.6 181.4 C588.9 179.0 590.0 174.4 591.1 171.3 C592.3 167.9 593.3 163.7 593.6 160.4 C593.8 157.5 594.4 154.1 594.8 152.9 C595.2 151.7 595.4 148.4 595.4 145.4 C595.3 138.0 595.4 136.4 595.8 125.7 C596.1 118.2 596.0 115.9 595.3 114.5 C594.8 113.5 594.0 110.9 593.5 108.8 C593.1 106.6 592.1 103.9 591.3 102.8 C590.5 101.7 588.6 98.5 586.9 95.6 C582.3 87.7 572.1 77.9 564.9 74.5 C564.0 74.1 562.9 73.5 562.4 73.1 C556.8 69.7 541.9 65.8 538.8 66.9 C537.7 67.3 537.0 67.3 536.3 66.7 C534.8 65.5 508.8 65.9 506.3 67.2 C505.3 67.7 503.2 68.1 501.7 68.1 C500.1 68.1 498.1 68.5 497.1 69.0 C496.1 69.6 494.9 70.0 494.3 70.0 C493.7 70.0 493.0 70.4 492.6 70.8 C492.2 71.3 490.6 72.0 489.1 72.4 C487.6 72.8 485.2 74.1 483.7 75.3 C482.2 76.5 479.4 78.6 477.5 80.0 C473.4 83.2 469.6 87.2 468.6 89.4 C468.2 90.3 466.5 92.6 464.8 94.4 C460.9 98.8 455.7 106.2 455.7 107.4 C455.7 108.0 455.2 109.0 454.5 109.6 C452.7 111.2 448.9 119.6 448.9 121.8 C448.9 122.9 448.3 124.4 447.7 125.2 C446.4 126.8 445.7 130.9 445.5 138.4 C445.4 141.8 445.0 143.8 444.2 145.0 C443.2 146.6 443.2 146.7 444.4 148.8 C446.1 151.7 447.5 162.2 446.5 164.5 C446.1 165.4 445.7 166.9 445.7 167.9 C445.7 170.0 443.9 173.9 441.6 177.0 C440.8 178.1 439.8 180.5 439.5 182.3 C437.6 193.2 437.6 193.8 438.2 195.5 C438.6 196.5 438.9 199.2 438.9 201.6 C438.9 206.6 440.5 211.6 443.7 216.1 C444.8 217.7 445.7 219.3 445.7 219.6 C445.7 219.9 448.1 222.6 451.0 225.5 C454.0 228.5 456.3 231.4 456.3 232.0 C456.3 233.1 458.6 237.8 460.3 240.3 C460.9 241.1 461.3 242.2 461.3 242.7 C461.3 243.7 463.4 249.3 464.9 252.6 C465.5 253.7 466.1 255.8 466.4 257.2 C467.0 260.8 469.2 269.3 469.7 270.1 C470.3 271.1 471.4 280.1 471.3 283.3 C471.3 284.8 471.7 287.9 472.2 290.1 C473.0 293.7 474.4 309.5 474.7 320.1 C474.8 322.0 475.2 326.4 475.5 330.0 C475.9 333.7 476.2 338.0 476.1 339.7 C476.1 341.4 476.4 345.6 476.8 349.1 C477.2 352.5 477.7 365.4 477.9 377.8 C478.1 390.1 478.3 400.6 478.3 401.1 C478.4 403.0 477.0 416.8 476.6 417.4 C476.4 417.7 476.3 422.5 476.2 428.1 C476.2 435.5 476.0 439.2 475.2 441.7 C474.7 443.6 474.2 447.4 474.1 450.1 C474.1 452.9 473.4 457.5 472.7 460.4 C471.9 463.6 471.3 468.8 471.1 473.6 C470.9 477.9 470.3 482.7 469.8 484.2 C469.3 485.7 468.8 489.4 468.5 492.5 C468.3 495.5 467.9 498.5 467.6 499.1 C467.3 499.7 466.7 503.2 466.3 506.9 C465.9 510.7 465.3 514.3 464.8 515.0 C464.4 515.7 463.8 517.8 463.6 519.8 C463.3 521.8 462.7 524.2 462.2 525.1 C461.7 526.1 461.3 527.6 461.3 528.5 C461.3 530.7 456.0 551.3 454.8 553.6 C454.3 554.7 453.8 557.0 453.7 558.8 C453.5 560.6 453.0 562.5 452.5 563.1 C451.9 563.7 451.3 565.2 451.0 566.4 C450.8 567.6 450.3 569.2 449.9 569.9 C448.4 572.7 445.7 581.2 445.7 583.2 C445.7 584.7 445.0 586.6 443.5 588.8 C441.5 591.9 440.4 594.2 438.2 600.0 C437.8 601.1 436.8 602.5 435.9 603.1 C433.8 604.5 431.4 608.5 431.4 610.6 C431.4 611.6 431.0 612.7 430.6 613.1 C428.8 614.6 423.9 622.5 423.9 623.9 C423.9 624.8 423.5 625.9 423.0 626.3 C422.4 626.8 422.0 628.1 422.0 629.7 C422.0 631.4 421.7 632.6 420.9 633.3 C419.0 634.8 417.3 641.8 416.0 652.5 C415.7 655.2 413.4 660.6 412.6 660.6 C411.9 660.6 408.9 669.7 408.3 674.0 C407.2 681.0 407.1 685.7 407.8 686.6 C408.3 687.3 408.2 688.1 407.1 690.2 C405.8 692.9 404.2 703.1 404.9 704.3 C405.1 704.6 404.8 706.3 404.2 708.1 C403.3 710.8 403.3 711.7 403.9 713.4 C404.5 715.0 404.4 716.1 403.6 718.9 C403.1 720.8 402.4 722.3 402.0 722.3 C401.7 722.3 401.5 734.0 401.5 751.7 C401.5 776.0 401.6 781.0 402.3 781.0 C402.9 781.0 403.3 782.1 403.5 784.4 C403.7 786.4 404.3 788.6 404.9 789.4 C405.4 790.2 405.8 791.7 405.8 792.6 C405.9 793.6 406.3 795.1 406.8 795.9 C407.3 796.8 407.7 798.1 407.7 798.9 C407.7 799.7 408.1 801.0 408.7 801.9 C409.4 802.9 409.6 804.1 409.3 805.8 C409.0 807.4 409.2 809.0 410.1 810.9 C410.7 812.5 411.4 815.4 411.6 817.4 C411.8 819.5 412.9 824.3 414.1 828.1 C417.0 837.2 419.4 845.2 419.8 847.1 C420.6 851.5 422.3 857.0 423.3 859.0 C424.0 860.3 424.5 862.5 424.5 864.1 C424.5 865.6 425.0 867.9 425.5 869.1 C426.0 870.3 426.4 872.3 426.4 873.4 C426.4 874.5 427.0 876.6 427.7 877.9 C428.3 879.3 428.9 881.1 428.9 881.9 C428.9 885.4 435.4 903.7 437.8 907.0 C438.3 907.9 438.1 908.5 436.4 910.7 C434.0 913.7 430.8 919.8 430.8 921.4 C430.8 921.9 431.2 922.7 431.7 923.1 C432.6 923.9 433.8 922.4 436.6 916.9 C437.7 914.7 440.2 912.6 440.6 913.6 C441.4 915.9 446.7 923.3 449.3 925.7 C452.8 929.0 458.2 933.1 459.0 933.1 C459.3 933.1 460.3 933.7 461.2 934.4 C462.1 935.1 463.7 935.6 465.0 935.7 C466.2 935.7 467.8 936.1 468.5 936.6 C470.4 938.0 471.2 937.7 474.3 934.5 Z M461.8 929.9 C459.9 928.4 456.3 923.2 457.2 923.2 C458.2 923.2 466.3 929.3 466.3 930.1 C466.3 930.9 463.0 930.8 461.8 929.9 Z M451.9 922.5 C451.2 922.1 450.7 921.2 450.7 920.3 C450.7 919.0 451.0 918.8 452.9 918.8 C455.7 918.8 457.2 921.0 455.4 922.3 C454.0 923.3 453.5 923.4 451.9 922.5 Z M444.7 915.0 C444.5 914.5 444.9 913.8 445.6 913.1 C446.4 912.5 447.0 911.5 447.0 910.7 C447.0 908.9 448.8 908.3 449.9 909.8 C451.0 911.3 450.9 913.2 449.7 914.5 C448.5 915.8 445.4 916.1 444.7 915.0 Z M486.3 906.4 C486.3 904.8 484.6 903.4 483.7 904.3 C482.7 905.3 483.4 907.2 484.9 907.5 C485.9 907.6 486.3 907.3 486.3 906.4 Z M524.3 902.1 C524.3 901.4 525.0 900.3 525.8 899.6 C526.6 898.9 527.5 897.5 527.7 896.4 C528.0 895.4 528.5 894.2 529.0 893.8 C529.5 893.4 529.9 892.4 529.9 891.5 C529.9 890.7 530.3 888.7 530.8 887.1 C531.3 885.5 532.0 882.8 532.4 881.1 C532.8 879.3 533.7 877.2 534.3 876.4 C536.4 873.8 536.9 872.0 536.0 870.9 C535.6 870.4 535.1 868.4 534.9 866.5 C534.7 863.7 534.4 862.9 533.4 862.8 C531.6 862.4 531.2 863.7 531.3 871.0 C531.4 876.9 531.2 877.9 530.3 878.6 C529.7 879.1 528.8 880.9 528.3 882.7 C527.8 884.6 526.3 889.4 525.0 893.5 C522.2 901.5 522.0 903.2 523.4 903.2 C523.9 903.2 524.3 902.7 524.3 902.1 Z M481.6 902.0 C481.8 901.7 481.8 900.7 481.6 899.8 C481.2 898.4 481.3 898.2 483.0 898.2 C486.6 898.2 487.7 893.7 484.2 893.3 C482.5 893.1 482.3 893.3 481.6 896.5 C481.4 897.4 480.9 898.2 480.3 898.2 C479.8 898.2 479.4 898.6 479.4 899.0 C479.4 899.4 479.2 900.4 479.0 901.2 C478.7 902.3 478.9 902.6 479.9 902.6 C480.6 902.6 481.4 902.3 481.6 902.0 Z M439.2 901.2 C439.1 900.7 438.7 899.1 438.3 897.6 C437.8 896.0 437.0 893.5 436.3 891.9 C435.7 890.3 435.1 888.2 435.1 887.2 C435.1 886.3 434.5 884.9 433.8 884.1 C432.7 882.9 432.6 882.2 432.9 879.9 C433.4 876.4 434.1 875.9 435.5 878.0 C436.3 879.2 436.4 879.7 435.9 880.3 C434.5 881.6 435.1 883.3 437.7 885.7 C439.5 887.4 440.2 888.6 440.0 889.6 C439.9 890.4 440.1 891.9 440.5 892.9 C442.5 898.6 442.6 898.9 441.6 900.5 C440.5 902.1 439.6 902.4 439.2 901.2 Z M501.1 899.3 C503.1 897.2 502.9 895.6 500.8 895.8 C498.9 896.0 498.2 897.9 499.2 899.8 C499.7 900.6 499.9 900.5 501.1 899.3 Z M474.4 897.6 C474.9 897.3 476.0 897.2 476.8 897.4 C478.6 897.8 478.5 897.4 476.3 895.1 C473.3 892.1 471.3 892.8 471.3 896.7 C471.3 898.3 472.7 898.7 474.4 897.6 Z M495.3 895.3 C495.5 894.8 495.2 893.8 494.7 893.2 C493.4 891.8 493.5 891.6 495.3 891.1 C497.4 890.6 497.3 889.2 495.0 887.6 C492.6 885.9 491.1 886.3 491.6 888.5 C491.9 889.6 491.7 890.2 490.7 890.7 C489.2 891.5 488.9 894.4 490.1 895.6 C491.3 896.7 494.8 896.5 495.3 895.3 Z M476.7 889.7 C476.9 889.2 476.8 887.9 476.4 886.9 C475.2 883.6 477.1 882.0 479.5 884.3 C481.5 886.0 482.1 884.5 480.6 881.7 C478.4 877.4 477.8 877.1 476.0 879.1 C474.1 881.1 472.2 881.2 471.3 879.5 C470.5 878.0 467.6 877.8 467.6 879.2 C467.6 879.7 468.3 880.5 469.2 880.9 C470.2 881.4 470.6 881.9 470.4 882.6 C469.6 884.4 469.7 884.6 471.9 885.3 C473.9 886.0 474.1 886.3 474.1 888.2 C474.1 890.6 476.0 891.7 476.7 889.7 Z M488.5 889.5 C489.7 887.6 486.5 885.0 484.1 886.0 C483.0 886.4 482.9 888.3 483.9 889.4 C484.8 890.3 487.9 890.3 488.5 889.5 Z M498.1 880.4 C496.2 879.4 495.9 878.6 496.8 877.0 C498.1 875.1 501.9 878.2 501.0 880.4 C500.6 881.6 500.4 881.6 498.1 880.4 Z M485.6 879.5 C486.5 877.9 486.4 876.4 485.5 876.4 C484.4 876.4 481.9 879.0 481.9 880.0 C481.9 881.2 484.9 880.9 485.6 879.5 Z M503.3 876.9 C500.8 875.2 500.8 874.3 502.9 871.3 C504.7 868.6 505.0 868.5 507.2 869.9 C509.1 871.1 509.1 872.1 507.5 873.6 C506.8 874.2 506.2 875.5 506.2 876.5 C506.2 878.6 506.0 878.7 503.3 876.9 Z M430.5 870.8 C430.0 869.8 429.5 868.5 429.5 867.9 C429.5 867.3 428.9 865.9 428.2 864.8 C427.1 863.0 427.0 862.4 427.7 860.2 C428.4 858.0 428.3 857.5 427.3 856.1 C425.1 853.1 423.9 850.5 423.9 848.9 C423.9 848.0 423.4 846.5 422.7 845.7 C421.9 844.7 421.4 843.1 421.4 841.6 C421.4 839.9 421.0 838.8 420.1 838.0 C419.1 837.0 418.9 836.4 419.2 834.3 C419.5 832.3 419.3 831.1 418.0 828.8 C416.4 825.7 415.9 822.7 417.1 822.7 C417.4 822.7 418.0 823.5 418.4 824.5 C418.8 825.4 419.5 826.9 419.9 827.8 C420.4 828.7 420.8 830.7 420.8 832.1 C420.8 833.5 421.2 835.5 421.7 836.4 C423.8 840.3 426.6 846.9 426.7 848.0 C426.7 848.7 427.5 850.8 428.4 852.7 C430.2 856.5 431.6 863.7 431.0 866.0 C430.8 866.9 431.2 868.5 432.0 870.1 C433.1 872.2 433.1 872.6 432.4 872.6 C431.8 872.6 431.0 871.8 430.5 870.8 Z M469.1 869.5 C469.7 866.8 468.7 865.8 466.9 867.4 C465.3 868.8 465.5 871.0 467.4 871.3 C468.4 871.4 468.8 871.1 469.1 869.5 Z M542.7 867.1 C542.2 866.0 541.8 864.5 541.8 863.6 C541.8 862.7 541.1 861.3 540.3 860.5 C539.4 859.6 538.6 858.3 538.3 857.5 C538.1 856.8 537.7 855.8 537.4 855.5 C536.6 854.4 536.1 847.6 536.7 845.6 C540.0 834.6 541.6 830.5 543.3 828.1 C544.1 827.1 545.2 824.9 545.8 823.3 C547.0 819.8 548.2 818.7 551.2 818.1 C554.3 817.6 554.5 818.1 552.6 821.5 C550.6 825.0 550.9 826.7 553.4 826.1 C554.8 825.8 555.0 825.9 554.8 827.2 C554.6 828.5 554.3 828.7 551.3 828.7 C549.6 828.7 548.0 828.8 547.8 829.0 C547.6 829.2 547.7 831.7 548.1 834.6 C548.6 839.1 548.6 839.9 547.7 840.4 C546.3 841.2 546.6 842.7 548.2 842.7 C550.9 842.7 551.1 843.8 549.3 847.4 C548.3 849.6 547.3 850.8 546.6 850.8 C545.0 850.8 543.0 852.0 543.0 852.9 C543.0 853.4 543.7 853.7 544.4 853.7 C545.5 853.6 545.9 854.0 546.1 855.2 C546.3 857.0 547.3 858.3 548.3 858.2 C551.1 857.9 551.2 859.0 548.6 861.4 C547.3 862.7 546.8 863.7 546.8 865.3 C546.8 869.1 544.3 870.1 542.7 867.1 Z M497.1 868.1 C496.7 867.7 496.5 865.9 496.5 864.2 C496.6 861.3 496.7 861.1 498.2 860.9 C499.6 860.8 500.1 861.2 501.5 863.5 C503.5 867.0 503.5 867.4 501.4 868.2 C499.0 869.0 497.8 869.0 497.1 868.1 Z M496.0 857.7 C495.4 856.9 497.4 852.7 498.4 852.7 C499.8 852.7 501.2 853.4 501.2 854.1 C501.2 855.1 498.1 858.3 497.1 858.3 C496.7 858.3 496.2 858.0 496.0 857.7 Z M460.9 854.7 C461.5 854.0 462.0 852.8 462.0 852.0 C462.0 850.7 461.5 850.3 459.5 849.7 C458.2 849.3 457.0 848.9 456.7 848.9 C455.9 848.9 457.1 854.3 458.1 855.0 C459.4 856.1 459.7 856.0 460.9 854.7 Z M448.8 854.4 C450.1 853.1 450.2 853.1 451.0 854.1 C452.4 856.0 453.2 855.3 453.2 852.4 C453.2 850.0 453.5 849.4 454.8 848.8 C455.6 848.4 456.3 847.7 456.3 847.1 C456.3 846.0 458.8 844.3 461.5 843.7 C463.6 843.2 463.8 841.3 461.8 839.9 C461.1 839.4 460.2 839.0 460.0 839.0 C458.9 839.0 456.3 842.5 456.3 844.1 C456.3 845.8 456.2 845.8 453.1 845.9 C449.1 845.9 447.4 847.7 446.8 852.2 C446.5 855.7 446.9 856.2 448.8 854.4 Z M443.9 854.8 C443.9 853.9 442.0 850.2 441.5 850.2 C438.5 850.2 438.0 852.8 440.7 854.2 C442.6 855.2 443.9 855.4 443.9 854.8 Z M482.0 849.1 C481.9 848.2 482.5 847.6 485.0 846.5 C487.5 845.5 488.1 844.9 488.3 843.5 C488.4 842.5 488.9 841.7 489.6 841.6 C491.4 841.2 491.5 843.2 489.7 846.1 C488.4 848.4 487.8 848.9 486.3 848.9 C485.3 848.9 484.4 849.4 484.2 849.9 C483.7 851.2 482.3 850.7 482.0 849.1 Z M448.9 843.0 C448.9 841.7 449.2 840.8 449.6 840.8 C450.1 840.7 451.0 840.7 451.7 840.6 C452.5 840.6 453.0 840.0 453.1 838.8 C453.3 837.5 453.7 837.0 455.0 836.8 C455.9 836.6 457.5 836.2 458.6 835.8 C462.3 834.7 463.7 835.0 464.7 837.3 C465.9 840.2 466.5 840.4 469.1 839.2 C472.8 837.4 471.6 835.2 467.0 835.2 C465.5 835.2 463.8 834.8 463.2 834.3 C460.6 831.9 449.4 833.6 445.1 837.0 C443.7 838.2 442.3 838.8 441.7 838.6 C440.6 838.1 435.8 841.2 435.8 842.4 C435.8 843.5 437.5 844.1 438.9 843.3 C439.5 843.0 440.8 842.7 441.7 842.7 C442.6 842.7 443.4 842.3 443.6 841.8 C443.8 841.3 444.5 840.8 445.2 840.8 C446.1 840.8 446.4 841.3 446.4 843.0 C446.4 844.8 446.6 845.2 447.6 845.2 C448.6 845.2 448.9 844.8 448.9 843.0 Z M525.6 841.2 C525.6 840.0 525.2 838.8 524.7 838.5 C524.3 838.3 523.7 837.5 523.5 836.9 C523.3 836.3 522.8 835.8 522.5 835.8 C521.4 835.8 521.7 837.6 522.9 838.2 C523.9 838.8 523.9 838.9 522.9 840.4 C521.4 842.7 521.6 843.3 523.7 843.3 C525.4 843.3 525.6 843.2 525.6 841.2 Z M531.2 839.3 C531.2 837.9 530.7 836.7 529.9 836.0 C529.1 835.3 528.7 834.2 528.7 832.7 C528.7 831.1 528.2 830.0 527.1 829.0 C526.3 828.2 525.6 826.9 525.6 826.2 C525.6 825.5 525.2 823.8 524.7 822.5 C522.9 817.4 522.3 814.8 522.6 813.7 C522.8 812.7 523.0 812.9 523.8 814.6 C524.4 815.8 525.6 817.7 526.5 818.7 L528.1 820.6 L529.3 819.1 C530.1 818.1 530.6 816.7 530.6 815.0 C530.6 810.7 533.0 809.6 534.9 813.0 C535.7 814.5 535.6 814.8 534.3 816.2 C533.1 817.5 532.9 818.3 532.9 821.8 C533.0 824.0 532.7 826.0 532.4 826.2 C531.7 826.7 531.6 830.2 532.3 830.2 C532.6 830.2 533.4 829.7 534.0 829.0 C536.0 826.8 537.0 827.4 536.5 830.4 C536.3 831.8 535.9 834.4 535.6 836.0 C534.8 840.9 531.2 843.6 531.2 839.3 Z M473.4 831.7 C473.6 831.5 473.8 830.5 473.8 829.5 C473.8 828.1 473.5 827.7 472.5 827.7 C471.4 827.7 471.3 828.1 471.4 829.7 C471.6 831.6 472.5 832.6 473.4 831.7 Z M441.7 828.4 C442.3 826.6 440.9 825.0 439.7 826.0 C439.2 826.4 438.9 827.3 439.0 828.0 C439.3 829.8 441.2 830.0 441.7 828.4 Z M468.8 827.9 C470.9 827.6 471.9 826.1 471.9 823.6 C471.9 821.9 471.6 821.3 470.3 820.9 C468.0 820.0 467.8 820.0 466.2 822.6 C464.2 826.0 463.9 826.7 464.6 827.6 C465.2 828.4 465.9 828.4 468.8 827.9 Z M510.6 827.6 C510.6 827.4 510.2 826.2 509.6 825.0 C508.6 822.4 506.7 822.1 506.4 824.4 C506.2 825.6 506.6 825.9 510.1 827.6 C510.4 827.7 510.6 827.7 510.6 827.6 Z M503.0 823.2 C502.8 821.5 502.5 821.2 501.1 821.0 C498.9 820.7 498.8 822.0 500.8 823.9 C502.8 825.7 503.2 825.6 503.0 823.2 Z M438.4 822.9 C438.6 822.7 438.8 820.9 438.8 819.0 C438.8 816.0 438.6 815.4 436.8 813.6 C434.4 811.1 432.5 811.0 429.4 813.1 C427.5 814.4 427.0 815.1 427.0 816.7 C427.0 817.8 427.3 819.1 427.7 819.6 C428.2 820.4 428.4 820.4 429.2 819.3 C429.7 818.7 430.5 817.2 430.9 816.1 C431.5 814.6 432.0 814.0 433.1 814.0 C434.4 814.0 434.5 814.3 434.5 817.0 C434.5 818.6 434.9 820.6 435.3 821.5 C436.1 823.1 437.9 823.9 438.4 822.9 Z M475.4 819.4 C476.1 816.4 475.5 814.4 473.6 813.9 C472.6 813.7 471.4 812.9 470.9 812.2 C470.4 811.5 469.6 810.9 469.2 810.9 C468.7 810.9 468.0 810.5 467.6 810.0 C465.7 807.7 461.8 806.6 455.8 806.7 C450.7 806.7 449.7 806.9 448.4 808.1 C446.0 810.1 447.0 811.1 451.0 810.8 C453.1 810.6 454.9 810.0 456.0 809.2 C457.7 807.9 459.5 807.9 459.4 809.3 C459.4 810.3 456.2 813.7 454.8 814.2 C453.9 814.6 453.8 814.9 454.3 815.4 C454.9 815.9 455.3 815.9 455.9 815.4 C456.5 814.9 456.9 815.0 457.5 815.9 C458.5 817.7 461.0 817.4 462.5 815.5 L463.8 813.9 L464.2 815.8 C464.7 818.0 464.7 818.0 466.3 817.0 C467.2 816.4 467.9 816.7 470.2 818.6 C473.5 821.2 474.9 821.5 475.4 819.4 Z M504.2 811.5 C505.9 809.3 506.0 808.4 504.5 808.4 C502.9 808.4 500.4 811.2 500.8 812.4 C501.4 813.9 502.7 813.6 504.2 811.5 Z M442.2 810.4 C443.2 809.3 443.2 809.1 442.3 808.4 C441.0 807.3 438.1 808.6 438.4 810.1 C438.7 811.7 440.9 811.8 442.2 810.4 Z M518.4 808.1 C517.9 806.0 518.4 805.3 520.3 805.3 C522.3 805.3 522.8 806.3 521.6 808.1 C520.3 810.1 519.0 810.1 518.4 808.1 Z M495.6 807.8 C496.5 807.2 496.4 807.0 495.5 806.3 C494.9 805.8 494.2 804.6 494.0 803.5 C493.6 801.4 492.3 800.6 490.6 801.6 C489.3 802.3 488.4 804.8 489.1 805.9 C489.3 806.2 490.3 806.5 491.4 806.5 C492.4 806.5 493.6 807.0 494.0 807.5 C494.5 808.1 495.0 808.2 495.6 807.8 Z M553.2 806.5 C552.7 806.0 551.9 806.0 550.2 806.6 C548.3 807.3 547.9 807.3 547.4 806.6 C546.6 805.3 547.1 804.6 550.9 801.6 C552.8 800.1 554.3 798.4 554.3 797.8 C554.3 797.1 554.8 796.3 555.5 796.0 C557.1 795.1 557.2 795.1 558.0 796.5 C558.4 797.4 558.2 798.9 557.0 802.4 C555.4 807.0 554.6 807.9 553.2 806.5 Z M478.4 804.8 C478.6 804.5 478.1 803.6 477.2 802.9 C475.4 801.3 475.2 799.0 476.9 797.9 C477.7 797.4 478.2 796.5 478.2 795.2 L478.2 793.3 L475.7 795.5 C473.8 797.2 472.6 797.8 471.0 797.8 C466.7 797.8 467.6 800.0 472.9 802.5 C474.8 803.4 476.3 804.3 476.3 804.7 C476.3 805.4 478.0 805.5 478.4 804.8 Z M465.9 803.6 C467.1 802.4 466.2 800.8 463.6 799.6 C458.9 797.3 457.1 799.2 461.4 801.9 C464.5 803.9 465.3 804.2 465.9 803.6 Z M516.8 801.2 C516.4 800.0 515.7 798.8 515.2 798.6 C514.7 798.4 514.0 797.1 513.6 795.7 C512.7 792.3 510.8 788.0 510.0 787.5 C509.2 787.0 509.2 782.4 510.0 781.9 C510.3 781.7 511.9 784.2 513.4 787.4 C515.0 790.7 517.4 794.8 518.8 796.5 L521.3 799.6 L519.9 801.5 C518.1 803.9 517.7 803.9 516.8 801.2 Z M524.0 800.9 C523.7 800.5 524.2 799.6 525.1 798.8 C526.0 798.1 526.8 797.0 527.0 796.4 C527.2 795.8 528.0 795.3 528.6 795.3 C529.3 795.3 530.0 795.0 530.2 794.7 C530.8 793.8 533.1 793.9 533.1 794.9 C533.1 796.1 531.2 798.4 530.2 798.4 C529.8 798.4 528.9 799.1 528.3 800.0 C527.1 801.6 524.7 802.1 524.0 800.9 Z M498.6 800.3 C499.4 799.6 500.0 798.6 500.0 798.1 C500.0 797.7 500.8 796.7 501.7 796.1 L503.3 794.9 L502.0 792.0 C501.2 790.4 500.4 789.1 500.2 789.1 C498.6 789.1 495.6 793.7 495.6 796.0 C495.6 796.8 495.2 798.1 494.7 798.9 C493.8 800.1 493.8 800.3 495.0 800.9 C496.6 801.8 497.1 801.7 498.6 800.3 Z M424.6 799.6 C425.2 798.5 424.9 794.0 424.1 792.6 C423.4 791.5 422.0 793.7 422.0 795.9 C422.1 800.5 423.2 802.2 424.6 799.6 Z M488.8 798.5 C488.8 796.8 488.4 796.4 485.5 795.0 C483.7 794.2 482.2 793.6 482.0 793.7 C481.6 794.2 483.3 798.8 484.3 799.5 C484.8 799.9 486.1 800.3 487.0 800.3 C488.5 800.3 488.8 800.1 488.8 798.5 Z M545.8 796.7 C545.5 795.4 545.0 793.8 544.6 793.1 C544.1 792.4 543.6 790.8 543.4 789.4 C542.7 785.9 539.2 781.0 535.6 778.8 C529.6 775.0 527.5 773.5 526.8 772.2 C525.9 770.4 526.5 769.1 528.2 769.1 C530.1 769.1 531.2 768.0 531.2 766.2 C531.2 764.3 530.5 764.1 527.8 764.8 C526.4 765.2 525.3 766.0 524.8 767.0 C524.0 768.7 523.6 768.8 521.8 767.9 C520.0 766.9 519.2 765.0 519.9 763.5 C521.0 761.6 526.1 758.5 528.2 758.5 C529.4 758.5 531.0 757.8 532.7 756.5 C534.1 755.3 536.0 754.1 537.0 753.7 C538.1 753.2 538.7 752.5 538.7 751.6 C538.7 750.8 540.0 747.4 541.7 743.8 C544.5 738.1 544.8 737.2 544.6 733.8 C544.4 731.2 544.6 729.9 545.3 729.1 C545.8 728.5 546.4 726.8 546.6 725.3 C546.8 723.9 547.6 721.9 548.3 720.9 C549.3 719.5 549.6 718.2 549.6 714.6 C549.6 710.9 549.8 710.0 551.0 708.8 C552.7 707.0 553.3 704.7 552.4 703.1 C551.9 702.0 551.6 690.2 551.9 675.3 C552.0 670.3 550.8 665.7 548.4 662.2 C547.2 660.4 546.2 658.7 546.2 658.4 C546.2 658.1 544.8 656.4 543.2 654.6 C541.6 652.8 539.4 650.3 538.4 649.0 C534.9 644.7 533.7 643.8 532.1 643.8 C531.3 643.8 530.6 644.0 530.6 644.4 C530.6 646.0 533.4 650.0 537.4 653.8 C539.8 656.1 541.8 658.2 541.8 658.4 C541.8 658.7 542.4 659.8 543.2 660.8 C544.8 662.9 545.7 666.2 545.8 670.3 C545.8 671.7 546.2 673.3 546.5 673.8 C548.2 675.8 549.0 686.9 547.7 689.0 C547.0 690.1 547.0 691.8 547.5 697.1 C548.1 703.3 548.0 703.9 546.9 705.1 C545.8 706.3 545.7 707.2 545.9 712.8 C546.1 718.6 546.0 719.2 544.6 721.1 C543.7 722.3 543.0 724.1 543.0 725.2 C543.0 726.3 542.5 728.4 541.8 729.9 C541.1 731.4 540.6 733.4 540.6 734.3 C540.5 736.3 538.3 742.2 537.1 743.6 C536.6 744.1 536.0 745.5 535.8 746.7 C535.6 747.9 534.8 749.3 534.2 750.0 C533.6 750.6 533.1 751.5 533.1 752.0 C533.1 752.5 532.4 753.1 531.5 753.3 C530.6 753.5 529.9 753.9 529.9 754.2 C529.9 754.6 528.6 754.8 527.1 754.7 C524.9 754.6 524.0 754.8 523.4 755.6 C523.0 756.2 521.9 756.6 521.1 756.6 C519.3 756.6 516.7 760.0 515.9 763.2 C515.3 765.8 514.8 766.0 508.3 766.0 C502.5 766.0 502.5 766.0 501.8 764.3 C501.4 763.3 500.6 761.5 499.9 760.3 C499.3 759.0 498.8 757.6 498.8 757.1 C498.8 756.7 498.2 755.3 497.5 754.0 C496.8 752.7 496.3 751.2 496.3 750.7 C496.3 750.1 495.7 749.0 495.0 748.1 C494.3 747.2 493.8 746.0 493.8 745.4 C493.8 744.9 493.4 743.9 492.8 743.2 C492.3 742.5 491.9 741.3 491.9 740.5 C491.9 739.6 491.5 738.5 490.9 737.9 C490.4 737.3 489.6 735.3 489.1 733.3 C488.6 731.3 487.7 729.1 487.2 728.4 C486.7 727.6 486.3 726.5 486.3 725.8 C486.3 725.1 485.7 723.7 485.0 722.7 C484.4 721.6 483.8 720.0 483.8 719.1 C483.8 718.2 483.4 716.7 482.9 715.7 C480.2 710.4 479.3 707.9 479.7 706.3 C480.6 702.8 477.2 699.1 474.4 700.5 C471.3 702.2 471.6 705.2 475.3 708.9 C476.5 710.1 477.8 712.1 478.2 713.4 C478.6 714.7 479.3 716.2 479.7 716.7 C480.1 717.2 480.8 718.8 481.2 720.2 C482.7 725.8 486.7 736.6 487.6 737.6 C487.9 737.9 488.2 738.6 488.2 739.1 C488.2 739.7 488.9 741.5 489.7 743.2 C490.6 744.9 491.3 746.8 491.3 747.3 C491.3 747.9 492.3 750.2 493.4 752.6 C494.6 755.0 495.6 757.5 495.6 758.2 C495.6 758.9 496.2 760.5 496.9 761.8 C497.6 763.1 498.1 764.7 498.1 765.4 C498.1 766.6 497.9 766.7 496.1 766.3 C495.0 766.0 492.3 765.7 490.0 765.7 C487.8 765.6 485.1 765.4 484.0 765.1 C482.6 764.8 481.3 765.0 479.5 766.0 C476.4 767.5 475.9 767.6 475.4 766.0 C474.9 764.5 474.0 764.2 468.2 763.8 C463.0 763.4 461.5 763.1 460.1 762.0 C459.6 761.6 457.2 760.6 454.8 759.8 C452.4 759.0 449.7 757.8 448.8 757.2 C447.9 756.5 446.7 756.0 446.2 756.0 C445.7 756.0 444.8 755.5 444.2 754.8 C443.6 754.1 442.4 753.5 441.7 753.5 C440.9 753.5 439.1 752.6 437.6 751.6 C436.1 750.5 434.3 749.6 433.6 749.5 C432.6 749.5 432.3 749.0 432.1 747.4 C431.9 745.4 433.6 737.3 435.5 731.1 C436.0 729.5 436.5 726.3 436.7 723.9 C437.0 721.5 437.9 717.4 438.9 714.9 C441.2 708.9 447.6 696.1 449.7 693.3 C450.6 692.2 451.4 690.9 451.4 690.6 C451.4 690.2 452.5 688.7 453.8 687.2 C455.2 685.7 456.3 684.2 456.3 683.8 C456.3 683.4 456.8 682.7 457.3 682.2 C458.8 680.6 461.3 675.7 461.3 674.1 C461.3 673.3 461.9 672.1 462.6 671.5 C463.2 670.9 464.0 669.8 464.2 669.1 C464.4 668.4 465.6 666.5 466.7 664.8 C467.9 663.2 468.8 661.7 468.8 661.5 C468.8 660.2 480.2 648.6 484.3 645.7 C491.5 640.7 494.3 639.7 501.6 639.6 C511.6 639.4 514.2 639.1 515.0 638.4 C516.4 636.9 513.4 636.4 502.7 636.2 C493.2 636.0 491.9 636.1 490.8 637.1 C490.2 637.7 489.1 638.1 488.5 638.1 C487.9 638.1 486.7 638.7 485.8 639.4 C485.0 640.1 483.9 640.6 483.5 640.6 C483.1 640.6 480.2 641.7 477.0 643.1 C469.7 646.2 467.9 645.8 470.8 641.9 C472.1 640.2 472.1 640.0 471.1 638.9 C469.7 637.3 469.8 635.6 471.3 635.6 C472.9 635.6 473.0 634.8 472.3 630.5 L471.9 628.1 L469.4 628.5 C466.9 628.9 466.9 628.9 467.1 627.1 C467.3 625.3 467.7 625.2 470.5 626.0 C472.7 626.7 472.2 625.1 470.0 624.3 C468.3 623.7 468.2 623.4 468.5 622.0 C469.3 618.8 472.1 617.5 472.9 620.1 C473.5 622.0 476.2 621.9 479.0 619.9 C480.7 618.7 480.8 618.4 480.4 615.3 C480.2 613.0 480.3 611.5 481.0 610.3 C481.5 609.3 482.0 607.8 482.2 606.8 C482.4 605.9 483.1 605.0 483.7 604.8 C486.4 604.0 485.7 599.5 482.9 599.5 C481.3 599.5 478.2 602.6 478.2 604.2 C478.2 605.7 475.6 607.0 473.1 606.6 C470.4 606.1 467.0 607.9 465.3 610.5 C464.4 611.9 464.4 612.1 465.3 613.1 C466.8 614.7 466.6 615.3 463.8 617.8 C460.8 620.5 460.6 621.9 463.1 621.9 C465.5 621.9 466.0 622.6 464.4 623.6 C462.9 624.7 462.9 626.5 464.2 628.8 C465.2 630.4 465.2 630.6 464.2 632.0 C463.6 632.8 463.2 634.7 463.2 636.3 C463.2 639.8 462.4 640.6 458.8 641.0 C455.7 641.2 455.2 641.7 454.5 644.6 C454.1 646.3 454.3 647.2 455.2 648.5 C455.8 649.5 456.3 650.6 456.3 651.0 C456.3 652.6 454.3 653.7 451.8 653.7 C449.8 653.7 449.0 654.1 448.4 655.0 C448.0 655.7 447.2 656.2 446.7 656.2 C445.9 656.2 445.8 657.6 445.8 664.0 C445.9 668.3 445.6 672.2 445.3 672.6 C444.9 673.0 444.5 675.5 444.3 678.1 C443.9 682.7 442.6 686.9 441.4 687.7 C441.0 687.9 440.8 689.3 440.8 690.8 C440.8 693.5 439.7 695.1 438.2 694.8 C437.7 694.7 437.3 695.2 437.3 696.0 C437.2 696.8 437.0 697.6 436.8 697.8 C436.1 698.5 433.2 697.2 432.4 696.0 C431.8 695.1 432.1 694.6 433.9 693.2 C439.7 688.6 439.9 688.3 438.7 686.3 C437.2 683.7 437.3 683.0 439.6 681.0 C441.4 679.4 441.5 679.1 441.1 676.3 C440.5 672.8 440.4 672.5 439.0 672.4 C438.4 672.4 437.4 671.2 436.5 669.4 C435.1 666.5 435.1 666.3 436.0 664.4 C437.5 661.6 436.8 658.3 434.7 657.9 C432.7 657.5 431.2 659.9 430.9 663.7 C430.4 671.2 430.4 671.7 432.1 673.5 C434.4 676.0 436.4 679.6 436.4 681.2 C436.4 682.7 436.1 682.7 432.3 681.1 C429.9 680.2 428.3 680.7 428.3 682.3 C428.3 683.1 428.9 683.8 430.1 684.2 C431.1 684.5 432.1 685.4 432.3 686.1 C432.9 687.9 431.2 690.4 429.2 690.9 C428.2 691.2 427.4 692.1 426.7 694.0 C426.1 695.5 425.0 697.2 424.2 697.7 C422.1 699.0 421.0 703.1 422.1 705.2 C423.0 707.0 422.2 708.3 420.6 707.6 C419.1 707.1 417.4 703.2 418.1 702.2 C418.5 701.8 419.0 700.1 419.2 698.5 C419.6 695.9 419.8 695.5 421.1 695.5 C422.2 695.5 422.7 695.2 422.7 694.3 C422.7 693.6 423.9 691.8 425.5 690.3 C428.8 687.0 429.1 685.1 426.4 684.2 C424.5 683.5 424.1 682.3 425.1 680.6 C425.6 679.9 425.3 678.9 424.3 677.1 C422.9 674.9 422.9 674.4 423.6 672.7 C424.0 671.6 424.7 670.5 425.1 670.3 C426.0 669.8 426.0 667.1 425.1 665.6 C424.7 664.6 424.8 663.8 425.8 661.9 C426.5 660.5 427.0 658.3 427.0 657.0 C427.0 655.3 427.4 654.2 428.3 653.4 C429.4 652.4 429.5 651.5 429.5 646.4 C429.5 643.2 429.8 640.0 430.2 639.2 C430.6 638.5 431.2 637.0 431.5 636.0 C431.7 634.9 432.1 633.5 432.4 632.7 C432.8 631.4 432.6 631.3 430.8 631.4 C428.2 631.6 427.6 630.3 429.8 629.3 C433.1 627.8 435.0 622.4 433.6 618.3 C433.2 617.3 433.4 616.9 434.1 616.9 C435.3 616.9 435.7 615.9 435.3 613.4 C435.0 611.4 438.9 602.0 440.0 602.0 C440.3 602.0 441.5 600.5 442.6 598.7 C443.7 596.9 445.1 594.7 445.7 593.9 C446.3 593.0 447.0 591.8 447.2 591.1 C447.5 590.3 448.0 590.1 448.7 590.4 C449.3 590.7 450.8 591.0 452.1 591.2 C454.1 591.5 454.5 591.3 454.5 590.5 C454.5 589.8 453.7 589.1 452.7 588.7 C449.9 587.7 449.7 583.7 452.0 578.4 C454.0 574.1 455.8 567.9 456.1 564.5 C456.4 561.5 457.8 556.2 458.6 555.1 C460.3 552.9 462.0 547.7 462.1 544.3 C462.3 542.2 462.7 539.9 463.1 539.2 C463.5 538.5 464.0 536.2 464.2 534.2 C464.5 532.2 465.0 530.0 465.4 529.3 C465.8 528.6 466.3 526.7 466.5 525.1 C466.8 523.5 467.5 521.0 468.2 519.7 C469.2 517.7 469.4 516.0 469.4 511.3 C469.4 506.6 469.6 505.3 470.5 504.6 C472.0 503.3 473.2 500.1 473.2 497.2 C473.2 495.4 473.4 494.7 474.1 494.7 C475.9 494.7 476.3 492.6 475.3 487.8 C474.6 484.4 474.5 482.9 475.0 481.8 C475.5 480.8 475.5 479.9 475.1 479.1 C474.4 477.8 474.2 471.1 474.8 469.5 C475.6 467.5 476.3 468.6 476.2 471.6 C476.2 473.2 476.3 474.9 476.6 475.3 C477.4 476.7 478.2 475.3 478.2 472.4 C478.2 470.8 478.6 468.7 479.0 467.9 C480.9 464.3 481.7 454.6 480.3 452.7 C479.0 450.8 479.2 449.4 481.0 447.8 C482.8 446.1 483.9 441.1 483.0 438.4 C482.6 437.1 482.7 436.3 483.4 435.1 C484.8 433.1 484.7 430.9 483.2 429.5 C481.4 427.9 481.5 426.1 483.4 426.1 C484.7 426.1 484.9 425.7 485.3 423.1 C485.9 419.3 486.1 417.1 486.5 409.9 C486.9 402.1 487.4 397.2 488.2 393.0 C488.7 390.6 488.7 388.5 488.3 386.6 C487.8 384.3 487.9 383.1 488.9 380.2 C489.8 377.7 490.0 375.2 490.0 371.0 C489.9 367.9 490.1 362.5 490.3 359.1 C491.2 345.9 491.1 319.9 490.1 317.8 C489.3 316.0 489.3 315.4 490.2 312.1 C491.2 308.7 491.2 308.2 490.2 305.6 C489.4 303.2 489.3 302.5 490.0 301.7 C491.7 299.6 494.9 303.6 493.8 306.5 C493.5 307.4 493.6 308.5 494.2 309.7 C494.9 311.1 494.9 311.9 494.4 313.6 C493.7 315.5 493.8 315.9 495.1 317.5 C496.5 319.2 496.8 319.4 499.7 319.0 C504.2 318.5 504.4 318.2 503.8 311.7 C503.5 308.3 503.5 305.4 503.8 304.5 C504.5 302.7 504.0 299.9 502.8 298.8 C501.9 298.1 501.6 294.2 502.2 292.4 C502.8 290.8 503.7 291.2 503.7 293.0 C503.7 294.0 504.2 294.8 505.4 295.3 L507.0 296.0 L506.7 302.4 C506.4 309.2 506.7 310.4 508.4 307.9 C509.4 306.4 511.3 305.9 513.3 306.7 C514.9 307.3 512.8 312.6 510.9 312.6 C508.7 312.6 507.7 314.2 508.6 316.5 C509.2 318.1 509.1 318.7 508.0 320.9 C506.8 323.2 506.8 323.7 507.5 326.8 C508.0 329.0 508.9 330.6 509.9 331.4 C512.0 333.0 513.0 332.0 512.0 329.2 C511.0 326.6 511.0 317.8 511.9 317.2 C513.2 316.4 515.6 319.5 515.6 322.1 C515.6 323.4 516.2 325.9 516.9 327.6 C518.0 330.1 518.1 331.0 517.6 332.2 C517.1 333.2 517.1 333.8 517.6 334.3 C518.2 334.9 518.8 338.9 518.8 342.9 C518.8 344.0 518.3 345.6 517.7 346.5 C516.9 347.8 516.8 348.3 517.5 349.1 C518.1 349.8 518.1 350.4 517.6 351.6 C517.1 352.6 517.0 353.6 517.4 354.3 C517.7 354.9 518.1 362.0 518.2 370.1 C518.5 384.1 518.4 384.8 517.3 385.5 C516.3 386.1 516.1 386.7 516.5 388.6 C516.7 389.8 516.9 391.9 516.9 393.1 C516.8 395.7 517.8 396.9 518.4 395.0 C518.6 394.3 518.8 392.2 518.9 390.4 C519.1 388.2 519.6 386.4 520.5 385.2 C521.7 383.4 521.8 382.9 521.5 367.2 C521.0 337.6 521.0 335.5 520.1 335.2 C519.2 334.9 519.1 332.4 520.0 331.5 C520.5 331.0 520.4 330.3 519.7 328.9 C519.2 327.9 518.7 325.5 518.7 323.6 C518.7 321.1 518.4 320.0 517.5 319.1 C516.3 318.1 516.3 317.9 517.2 316.9 C518.2 315.8 518.2 315.6 517.2 314.5 C516.1 313.3 516.3 311.3 517.7 309.6 C518.0 309.1 518.5 307.4 518.7 305.8 C519.1 302.4 520.4 301.9 521.7 304.6 C522.4 306.0 522.4 307.7 521.8 313.6 C521.2 319.9 521.2 321.0 522.0 321.8 C523.7 323.4 524.9 322.3 524.9 319.2 C524.9 317.7 525.2 315.8 525.5 315.0 C526.1 313.3 525.4 302.9 524.4 299.2 C524.0 297.8 523.6 293.3 523.3 289.2 C523.1 285.1 522.5 280.8 522.1 279.6 C521.6 278.5 521.2 275.7 521.2 273.6 C521.2 269.3 520.3 268.0 518.9 269.9 C518.2 270.8 518.0 272.6 518.2 276.7 C518.4 282.0 518.3 282.3 517.2 282.3 C516.2 282.3 515.7 281.6 515.1 279.5 C514.6 278.0 513.9 275.8 513.6 274.7 C513.1 273.0 513.2 272.3 514.0 271.0 C514.9 269.8 515.0 268.7 514.6 265.4 C514.3 262.7 514.5 260.8 515.0 259.5 C515.7 257.8 515.7 257.5 514.8 257.0 C514.1 256.6 513.7 255.6 513.7 254.2 C513.7 253.0 513.4 251.9 512.9 251.8 C511.8 251.3 511.7 242.9 512.9 242.5 C513.4 242.3 513.7 241.2 513.7 239.8 C513.7 238.5 513.8 235.8 513.9 233.7 C514.0 230.2 514.1 229.9 515.6 229.9 L517.2 229.9 L517.0 223.4 C516.8 217.7 516.6 216.4 514.9 213.0 C513.2 209.4 513.1 209.2 514.1 207.2 C514.7 206.1 514.9 204.6 514.7 203.8 C514.5 203.0 514.6 200.2 515.0 197.6 C515.5 193.9 515.5 192.3 514.9 190.7 C514.3 188.9 514.3 188.2 514.9 187.0 C515.7 185.6 515.6 185.0 514.8 182.7 C513.9 180.5 513.8 179.2 514.3 174.8 C514.9 170.1 514.8 169.2 513.8 167.3 C512.5 164.7 512.4 154.7 513.6 150.9 C514.2 149.2 514.2 148.3 513.7 147.3 C512.9 145.8 511.3 145.7 510.8 147.0 C510.4 148.2 509.0 148.2 508.5 147.0 C508.0 145.8 506.5 145.8 506.0 147.0 C505.8 147.5 504.9 147.9 504.1 147.9 C502.8 147.9 502.5 147.6 502.5 146.4 C502.5 145.5 502.8 144.8 503.1 144.8 C503.5 144.8 504.4 143.8 505.1 142.7 C505.9 141.5 507.2 140.2 508.0 139.7 C509.1 139.1 509.4 138.6 509.1 137.4 C508.9 136.1 509.2 135.4 510.8 134.1 C512.7 132.5 512.7 132.4 511.9 130.1 L511.1 127.7 L513.6 125.5 C516.1 123.3 517.0 121.0 515.6 120.2 C514.6 119.6 513.1 121.1 513.1 122.6 C513.1 124.4 510.7 126.7 508.7 126.7 C507.7 126.7 506.7 127.0 506.5 127.4 C506.3 127.8 505.3 127.9 504.2 127.7 C502.4 127.4 502.4 127.4 502.7 129.2 C503.0 130.5 502.7 131.3 501.8 132.1 C501.2 132.7 500.6 133.8 500.6 134.7 C500.6 135.5 500.3 136.7 500.0 137.4 C499.4 138.4 499.5 138.8 500.4 139.5 C501.0 140.0 501.3 140.7 501.1 141.3 C500.5 142.8 499.4 142.5 499.4 140.8 C499.4 139.9 498.9 139.1 498.2 138.9 C496.6 138.4 496.1 136.7 496.9 134.5 C497.3 133.5 497.5 131.3 497.4 129.6 C497.4 127.8 497.6 125.8 498.0 125.1 C498.4 124.3 498.8 123.3 498.8 122.9 C498.8 122.5 499.5 121.1 500.3 119.8 C501.9 117.7 501.9 115.5 500.5 115.5 C500.1 115.5 498.6 116.8 497.2 118.4 C494.8 120.9 494.5 121.8 493.9 125.7 C493.5 128.2 493.3 132.8 493.4 135.9 C493.5 140.7 493.4 141.8 492.5 142.6 C491.9 143.2 491.6 144.2 491.7 145.4 C491.9 146.7 491.5 147.7 490.0 149.4 C487.2 152.6 485.9 153.2 483.8 152.3 C482.4 151.7 481.7 151.8 480.1 152.6 L478.1 153.6 L478.5 159.5 C478.7 162.7 478.7 165.9 478.5 166.6 C478.0 168.3 476.4 168.3 476.0 166.5 C475.9 165.7 475.6 164.4 475.4 163.5 C474.6 159.0 473.7 157.0 471.5 154.3 C468.7 151.0 469.0 153.1 468.6 133.3 C468.4 125.8 468.5 125.0 469.9 122.6 C470.8 120.8 471.3 119.0 471.3 116.8 C471.3 115.1 471.6 113.6 471.9 113.4 C472.2 113.2 473.6 110.6 475.1 107.7 C476.8 104.3 478.1 102.4 478.8 102.4 C479.3 102.4 480.3 102.0 481.0 101.5 C482.7 100.2 487.9 100.2 488.4 101.6 C488.7 102.3 489.3 102.5 491.0 102.2 C493.1 101.9 493.3 102.0 494.0 103.7 C494.8 105.8 495.1 105.9 498.7 104.6 C502.1 103.4 502.5 103.7 501.8 106.5 C500.7 110.4 502.4 110.8 506.7 107.6 C508.0 106.7 508.1 106.7 508.5 107.7 C508.7 108.3 508.5 109.6 507.9 110.5 C507.2 111.8 507.1 112.4 507.6 112.9 C509.1 114.3 510.5 113.6 512.5 110.5 C513.6 108.8 514.8 107.4 515.1 107.4 C516.3 107.4 516.3 109.4 515.0 110.7 C514.3 111.5 513.7 112.6 513.7 113.1 C513.7 113.6 513.1 114.5 512.4 115.1 C511.0 116.3 511.3 117.4 513.3 117.4 C514.2 117.4 515.6 116.4 517.0 114.6 C519.9 111.2 520.6 111.1 520.6 113.9 C520.6 116.4 522.0 117.2 524.1 115.8 C525.7 114.8 526.0 113.7 524.9 112.6 C523.9 111.6 524.8 110.5 526.6 110.5 C527.8 110.5 528.3 111.0 528.8 112.4 C529.3 113.9 529.8 114.3 530.6 114.1 C531.6 113.8 531.8 114.1 531.8 115.5 C531.8 116.4 532.4 117.7 533.1 118.4 C534.4 119.5 534.4 119.5 535.3 118.3 C535.8 117.6 536.4 116.4 536.6 115.5 C537.5 111.4 538.2 111.6 539.7 116.5 C540.8 120.1 542.0 121.2 543.2 120.0 C544.3 118.8 546.0 119.1 546.5 120.5 C547.0 122.1 548.0 121.5 548.0 119.5 C548.0 118.5 547.7 118.0 546.9 118.0 C546.3 118.0 545.4 117.7 545.0 117.3 C544.2 116.5 544.0 114.3 544.7 114.3 C545.4 114.3 549.3 116.9 549.3 117.4 C549.3 117.6 550.1 118.2 551.1 118.5 C552.6 119.0 553.0 119.6 553.1 121.2 C553.3 122.8 553.6 123.3 554.7 123.5 C556.0 123.7 556.1 123.5 555.7 120.9 C555.4 118.1 555.4 118.0 557.0 118.0 C557.9 118.0 558.8 118.5 559.2 119.2 C560.1 120.8 561.0 120.8 562.5 119.5 C563.5 118.5 563.7 118.5 564.8 119.5 C565.4 120.0 566.8 120.5 567.9 120.5 C569.8 120.5 569.9 120.6 569.6 122.3 C569.1 124.4 571.7 128.0 573.8 128.0 C574.5 128.0 575.6 128.5 576.2 129.0 C577.3 130.0 577.5 130.0 578.8 128.4 C580.1 126.8 580.2 126.8 581.9 127.7 C582.9 128.2 584.1 128.6 584.6 128.6 C585.8 128.6 586.8 125.8 586.6 123.1 C586.5 121.9 586.7 120.8 587.1 120.7 C588.2 120.3 590.0 123.4 589.5 124.7 C589.2 125.3 588.9 128.5 588.8 131.8 C588.7 138.5 588.1 140.1 585.8 140.7 C585.0 140.9 584.1 141.7 583.9 142.3 C583.7 143.0 582.4 144.3 581.0 145.2 C578.3 146.9 578.2 147.1 579.5 148.8 C580.7 150.4 580.7 152.2 579.5 152.7 C579.0 152.9 578.6 153.4 578.6 153.9 C578.6 154.8 577.4 157.8 575.3 162.1 C574.7 163.5 574.3 165.0 574.4 165.3 C574.6 165.6 574.1 167.2 573.3 168.9 C572.5 170.6 571.7 173.3 571.5 175.0 C571.3 177.4 570.8 178.4 569.6 179.4 C568.3 180.5 568.0 181.2 568.0 183.7 C568.0 185.3 567.6 187.5 567.0 188.5 C566.5 189.5 565.9 191.6 565.7 193.2 C565.4 195.7 565.5 196.3 566.5 197.0 C567.6 197.8 567.7 197.7 568.6 194.6 C569.6 191.3 571.2 190.0 571.9 191.8 C572.4 193.0 571.2 197.4 570.3 198.0 C569.9 198.2 569.6 199.2 569.7 200.2 C569.9 201.4 569.2 203.2 567.7 205.7 C566.5 207.7 565.5 209.7 565.5 210.1 C565.5 210.4 564.9 211.2 564.2 211.9 C563.3 212.7 563.0 213.8 563.0 216.0 C563.0 219.2 562.9 219.4 561.2 218.4 C560.3 218.0 559.8 218.1 558.9 219.1 C558.0 220.1 557.3 220.3 555.3 219.9 C553.6 219.6 552.7 219.8 552.3 220.4 C551.4 221.9 551.7 222.2 554.4 222.0 C556.8 221.9 557.1 222.0 558.1 223.9 C558.6 225.0 559.4 226.3 559.9 226.8 C560.7 227.8 560.3 229.6 559.3 229.6 C559.0 229.6 558.6 229.0 558.4 228.3 C557.9 226.5 556.9 227.4 556.1 230.4 C555.4 232.8 555.5 233.1 556.7 233.9 C557.4 234.4 558.0 235.4 558.0 236.2 C558.0 237.0 558.3 237.8 558.6 238.1 C559.4 238.6 559.4 243.2 558.6 243.7 C558.3 243.9 558.0 244.9 558.0 245.9 C558.0 246.8 558.3 247.8 558.6 248.0 C559.5 248.6 559.4 250.3 558.4 251.4 C556.5 253.7 555.3 272.3 556.9 275.3 C557.7 276.9 558.4 276.7 559.1 274.4 C559.6 272.6 559.8 272.5 560.2 273.5 C560.5 274.2 560.4 275.5 559.9 276.7 C558.4 280.3 557.7 285.2 558.5 286.4 C559.5 288.0 559.5 289.5 558.5 289.5 C558.0 289.5 556.9 290.4 556.0 291.4 C554.4 293.2 554.3 293.5 555.2 294.7 C556.4 296.4 556.4 298.2 555.2 299.8 C554.1 301.2 553.9 303.9 554.9 303.9 C555.3 303.9 556.4 303.2 557.4 302.5 C558.4 301.7 559.4 301.3 559.6 301.5 C560.4 302.3 560.6 307.4 559.9 308.8 C559.4 309.8 559.4 310.7 559.9 312.6 C560.6 314.7 560.5 315.3 559.6 316.7 C558.4 318.4 558.2 321.6 558.9 328.5 C559.3 333.2 559.3 337.0 558.9 337.4 C558.8 337.6 558.9 338.2 559.3 338.8 C559.9 340.0 560.0 343.1 559.9 365.3 C559.9 373.1 560.1 379.2 560.5 380.2 C560.8 381.1 561.1 384.2 561.1 387.1 C561.1 390.0 561.4 393.1 561.8 393.9 C562.4 395.2 562.3 395.9 561.5 397.6 C560.3 400.3 560.2 404.1 561.4 408.7 C562.3 412.2 562.3 429.6 561.5 431.0 C561.2 431.5 561.4 432.6 561.8 433.7 C562.5 435.3 562.4 436.1 561.4 438.9 C560.4 441.9 560.4 442.4 561.2 443.4 C562.2 444.6 562.4 451.6 561.4 453.8 C561.1 454.5 561.2 455.7 561.7 456.9 C562.7 459.1 562.7 459.8 561.7 465.7 C560.9 470.8 560.9 475.4 561.8 476.3 C562.7 477.2 562.5 479.9 561.4 481.3 C560.3 482.7 560.2 484.9 561.2 486.8 C562.4 489.0 562.5 492.2 561.5 493.8 C560.3 495.6 560.2 497.2 561.2 499.4 C561.8 500.6 561.8 501.1 561.2 501.7 C560.4 502.6 560.3 513.8 561.1 517.4 C561.6 519.7 561.6 519.8 559.8 520.5 C558.1 521.1 557.9 521.4 558.3 523.4 C559.7 531.4 560.0 536.1 560.1 550.9 C560.2 563.3 560.4 567.8 561.0 568.5 C561.6 569.2 561.6 569.8 561.2 570.6 C560.6 571.8 560.7 587.0 561.4 589.6 C561.7 590.7 561.5 591.9 560.8 593.3 C560.1 594.6 559.9 596.0 560.1 597.6 C560.3 599.0 560.1 601.0 559.6 602.5 C559.0 604.2 558.9 605.6 559.2 606.5 C560.6 610.4 560.7 620.4 559.2 618.1 C558.9 617.6 558.6 616.6 558.6 615.8 C558.6 614.2 557.0 613.3 556.0 614.3 C555.6 614.7 555.6 615.6 556.0 617.0 C558.0 623.6 559.2 626.7 562.2 633.4 C565.7 641.4 566.3 645.4 564.8 650.7 C564.4 652.2 564.4 655.6 564.8 660.9 C565.2 666.2 565.2 669.3 564.8 670.6 C564.3 671.9 564.3 673.0 564.8 674.5 C565.2 675.7 565.8 679.0 566.1 681.8 C567.1 690.5 569.9 701.3 571.4 702.2 C571.8 702.5 572.3 704.3 572.5 706.3 C572.9 709.6 572.8 710.1 571.4 711.3 C570.5 712.0 569.9 713.0 569.9 713.4 C569.9 713.9 569.4 714.2 568.7 714.1 C568.1 714.0 567.5 714.1 567.5 714.4 C567.2 715.7 567.4 716.2 568.3 715.9 C568.9 715.6 569.2 715.9 569.2 716.7 C569.2 717.4 568.9 718.0 568.4 718.0 C568.0 718.0 567.1 718.4 566.4 718.9 C565.2 719.8 565.2 719.8 566.6 720.8 C568.6 722.2 568.4 724.6 566.3 725.6 C564.7 726.4 564.6 726.6 564.8 729.7 C565.0 733.1 563.5 738.7 561.9 740.6 C560.5 742.1 558.7 741.9 558.1 740.2 C557.8 739.5 557.1 738.4 556.5 738.0 C556.0 737.5 555.5 736.5 555.5 735.7 C555.5 734.0 554.8 733.8 553.6 735.1 C552.6 736.4 551.9 736.3 551.5 734.8 C551.2 734.1 550.8 733.6 550.5 733.6 C549.1 733.6 550.5 738.8 552.3 740.1 C552.7 740.5 553.4 741.5 553.8 742.3 C554.5 743.6 555.0 743.8 556.7 743.7 C558.5 743.5 558.7 743.6 558.5 744.9 C558.4 745.9 557.8 746.4 556.4 746.7 C552.4 747.5 551.8 748.3 551.8 752.0 C551.8 753.9 552.2 756.3 552.7 757.3 C553.3 758.3 553.5 759.4 553.3 759.8 C552.6 760.9 551.1 760.4 551.1 759.2 C551.1 757.7 549.0 756.4 547.6 756.9 C546.7 757.2 546.9 757.7 548.5 759.3 C550.8 761.7 551.0 763.2 549.3 764.1 C548.6 764.5 548.0 765.2 548.0 765.7 C548.0 767.0 549.7 766.8 550.5 765.4 C551.5 763.5 553.0 763.8 553.0 765.9 C553.0 767.2 553.5 768.0 554.6 768.8 C555.8 769.5 556.1 770.1 555.8 771.1 C555.5 771.9 555.8 772.8 556.7 773.8 C558.3 775.4 558.0 776.5 555.3 779.3 C553.0 781.8 548.0 788.8 548.0 789.6 C548.0 790.0 548.7 790.7 549.6 791.0 C551.0 791.7 551.3 791.5 553.8 788.7 C555.5 786.9 556.8 785.9 557.3 786.2 C558.6 787.0 558.0 788.7 555.4 791.7 C553.9 793.3 551.8 795.6 550.8 796.8 C548.1 799.8 546.3 799.8 545.8 796.7 Z M436.9 796.6 C437.3 795.9 438.1 795.3 438.8 795.3 C441.0 795.3 442.1 793.0 440.5 791.4 C440.1 791.0 439.5 789.0 439.3 787.0 C438.9 782.7 440.0 781.6 442.2 784.3 C443.4 785.6 446.9 787.8 447.8 787.8 C448.0 787.8 448.6 787.3 449.2 786.8 C449.8 786.2 451.4 785.6 452.7 785.6 C454.7 785.5 455.3 785.7 456.1 786.9 C456.7 787.8 457.7 788.4 458.6 788.4 C459.5 788.4 461.0 789.1 462.0 789.8 C463.5 790.9 463.9 791.0 464.7 790.3 C465.9 789.4 464.8 787.5 463.5 788.1 C462.5 788.4 460.3 786.9 459.4 785.2 C458.6 783.7 459.5 782.9 461.8 782.8 C463.6 782.8 464.2 781.5 463.2 779.8 C462.5 778.5 462.2 778.4 455.4 778.4 C452.0 778.4 449.6 779.2 447.9 781.0 C445.9 783.0 444.4 783.3 443.2 781.9 C442.2 780.6 441.2 780.7 438.6 782.3 C435.7 784.0 435.0 787.1 436.9 789.7 C438.7 792.1 438.6 792.8 436.3 794.7 C435.2 795.7 434.5 796.7 434.8 797.1 C435.4 798.1 436.0 798.0 436.9 796.6 Z M409.6 794.0 C409.6 793.1 409.0 791.7 408.4 791.1 C407.6 790.4 407.1 788.8 406.9 786.1 C406.7 783.4 406.2 781.7 405.3 780.7 C403.7 778.9 403.2 771.0 404.0 759.5 C404.3 753.6 404.3 750.5 403.9 750.0 C403.4 749.5 403.5 748.9 403.9 748.0 C404.8 746.3 404.7 742.4 403.7 740.1 C402.9 738.1 403.5 733.5 405.1 730.6 C405.5 729.9 405.8 728.4 405.8 727.4 C405.8 726.4 406.1 725.4 406.4 725.2 C407.3 724.6 409.1 727.2 409.1 729.0 C409.0 730.0 409.0 731.7 408.9 732.9 C408.9 734.1 408.2 736.2 407.3 737.6 C405.4 740.9 405.4 741.5 407.4 742.4 C409.2 743.2 409.3 744.3 407.9 746.7 C406.9 748.4 406.9 748.7 407.8 750.6 C409.4 753.8 409.5 754.2 408.5 759.8 C407.9 763.8 407.8 766.4 408.3 770.8 C408.7 774.0 408.9 776.9 408.9 777.2 C408.9 777.6 409.9 778.3 411.2 778.8 C413.4 779.8 413.4 779.8 412.4 781.3 C411.7 782.4 411.4 784.8 411.2 789.5 C410.9 797.2 411.0 796.7 410.2 796.2 C409.8 796.0 409.6 795.0 409.6 794.0 Z M523.3 794.6 C522.9 794.3 522.1 793.9 521.4 793.8 C519.1 793.5 516.8 785.5 518.7 784.4 C520.4 783.4 521.8 784.8 522.0 787.7 C522.1 790.4 522.3 790.7 524.2 791.2 C526.2 791.8 527.3 793.4 526.5 794.7 C526.0 795.5 524.1 795.5 523.3 794.6 Z M527.8 791.2 C527.2 791.0 526.8 790.1 526.8 789.0 C526.8 787.9 526.2 786.7 525.1 785.7 C522.8 783.5 523.9 782.4 527.1 783.5 C529.1 784.2 529.3 784.6 529.0 785.9 C528.8 786.8 529.0 787.8 529.7 788.5 C531.4 790.4 530.2 792.1 527.8 791.2 Z M468.7 785.7 C469.8 784.5 468.9 782.7 467.3 783.0 C466.4 783.1 466.0 783.6 466.0 784.7 C466.0 786.5 467.6 787.1 468.7 785.7 Z M452.0 782.1 C452.0 781.5 452.3 781.0 452.8 781.0 C454.5 781.0 456.3 781.8 456.3 782.6 C456.3 783.4 454.1 784.0 452.8 783.6 C452.3 783.4 452.0 782.8 452.0 782.1 Z M548.6 782.1 C548.9 781.3 550.0 778.6 551.0 776.1 C552.1 773.6 552.8 771.6 552.6 771.6 C551.5 771.6 549.3 773.9 549.3 775.0 C549.3 775.7 548.7 777.1 548.0 778.2 C546.7 780.2 546.4 782.5 547.4 783.1 C547.7 783.4 548.3 782.9 548.6 782.1 Z M482.1 781.9 C484.1 780.7 484.3 779.3 482.4 778.7 C481.4 778.4 480.8 778.7 479.9 779.7 C477.9 782.2 479.2 783.4 482.1 781.9 Z M445.9 779.9 C446.9 779.0 446.3 777.2 444.8 776.6 C442.5 775.7 441.8 776.4 443.0 778.5 C443.9 780.3 445.1 780.8 445.9 779.9 Z M437.3 777.3 C437.8 776.6 439.1 776.0 440.0 775.8 C442.2 775.3 443.8 772.4 442.3 771.8 C441.7 771.6 440.3 771.9 439.0 772.4 C437.7 773.0 435.6 773.4 434.2 773.4 C432.8 773.4 430.2 773.6 428.3 773.9 C425.4 774.3 424.8 774.6 424.6 775.8 C424.4 777.5 425.0 777.6 426.4 776.3 C427.4 775.4 427.8 775.4 430.7 776.3 C432.5 776.9 434.1 777.6 434.2 777.9 C434.8 778.8 436.1 778.5 437.3 777.3 Z M454.2 775.1 C455.1 773.8 455.7 773.5 458.0 773.5 C460.3 773.5 460.8 773.3 460.6 772.4 C460.4 771.6 459.9 771.3 458.8 771.5 C458.0 771.5 455.0 771.7 452.3 771.8 L447.3 771.9 L447.3 773.8 C447.3 775.3 447.6 775.7 448.9 775.8 C449.7 775.8 451.0 776.1 451.8 776.3 C452.8 776.6 453.4 776.3 454.2 775.1 Z M541.4 767.1 C543.3 764.5 542.0 760.6 540.1 763.2 C539.2 764.5 539.0 768.5 539.9 768.5 C540.2 768.5 540.9 767.9 541.4 767.1 Z M435.5 760.6 C434.2 760.1 434.2 758.7 435.6 758.0 C437.2 757.2 438.3 757.8 438.3 759.5 C438.3 761.0 437.4 761.4 435.5 760.6 Z M561.7 759.4 C561.7 758.9 561.2 757.7 560.5 756.8 C559.8 755.7 559.3 753.8 559.1 751.7 C559.0 748.7 559.1 748.2 560.1 748.0 C562.2 747.6 563.0 749.6 563.0 755.2 C563.0 758.2 562.7 760.4 562.4 760.4 C562.0 760.4 561.7 760.0 561.7 759.4 Z M420.4 739.3 C418.7 737.5 416.3 731.6 416.3 729.5 C416.4 726.9 417.2 722.6 417.7 722.1 C418.3 721.4 422.0 723.4 422.0 724.4 C422.0 724.9 421.5 725.8 420.8 726.4 C419.3 727.7 419.2 729.2 420.4 732.6 C421.4 735.5 423.5 736.4 424.1 734.2 C424.5 732.8 426.4 732.5 426.4 733.8 C426.4 734.3 425.8 735.2 425.1 735.7 C423.9 736.5 423.8 736.8 424.5 738.6 C425.4 741.2 425.4 741.0 423.5 741.0 C422.5 741.0 421.3 740.4 420.4 739.3 Z M560.5 736.3 C561.9 732.7 560.1 726.5 557.7 726.8 C556.2 727.0 556.1 729.5 557.4 734.3 C558.3 737.8 559.6 738.6 560.5 736.3 Z M553.2 727.5 C553.6 726.5 554.1 725.6 554.4 725.4 C555.1 724.9 558.0 720.4 558.0 719.8 C558.0 719.5 558.6 719.0 559.2 718.6 C560.6 717.9 560.9 716.7 559.8 716.7 C558.5 716.7 553.0 722.6 553.0 724.0 C553.0 724.9 552.6 725.4 551.6 725.6 C549.6 725.8 549.2 729.2 551.1 729.2 C551.9 729.2 552.7 728.6 553.2 727.5 Z M411.2 720.6 C411.0 720.0 411.2 718.3 411.7 716.7 C412.3 714.8 412.3 713.4 411.9 712.4 C411.2 710.5 411.9 704.1 412.7 704.6 C413.0 704.8 413.3 705.5 413.3 706.1 C413.3 706.7 413.9 707.7 414.6 708.3 C415.2 708.9 415.8 709.8 415.8 710.3 C415.8 710.7 415.2 711.4 414.6 711.7 C413.2 712.5 412.9 714.8 414.1 716.0 C415.4 717.3 416.3 716.8 416.5 714.7 C416.7 713.1 417.1 712.6 418.1 712.5 C420.9 712.1 420.5 714.2 417.1 717.5 C415.4 719.2 413.9 720.9 413.9 721.2 C413.9 722.2 411.5 721.7 411.2 720.6 Z M406.6 711.6 C406.8 708.8 407.9 708.0 409.2 710.0 C410.0 711.3 408.8 714.2 407.4 714.2 C406.6 714.2 406.4 713.7 406.6 711.6 Z M556.7 712.1 C557.0 711.3 557.6 710.5 557.9 710.3 C559.1 709.5 556.8 696.8 555.5 696.8 C554.7 696.8 553.6 698.9 553.6 700.4 C553.6 701.0 554.2 702.3 555.0 703.3 C556.2 704.8 556.2 705.0 555.3 706.0 C553.8 707.7 554.0 713.6 555.6 713.6 C555.9 713.6 556.4 712.9 556.7 712.1 Z M423.0 704.3 C422.8 703.7 422.9 702.4 423.3 701.5 C423.8 700.1 424.1 699.9 424.8 700.5 C425.8 701.3 426.6 704.1 426.1 704.9 C425.4 705.9 423.4 705.6 423.0 704.3 Z M409.6 702.5 C409.6 702.2 410.0 701.6 410.5 701.1 C411.3 700.5 411.3 700.2 410.4 698.5 C409.5 696.6 409.7 693.6 410.8 693.6 C411.2 693.6 411.4 693.9 411.4 694.3 C411.4 695.5 413.4 694.8 414.1 693.3 C415.2 690.7 414.0 687.3 411.6 686.2 C409.6 685.3 409.0 684.1 410.1 683.4 C410.4 683.2 410.8 682.0 411.0 680.6 C411.3 679.3 411.9 677.9 412.4 677.4 C413.0 676.9 413.3 675.7 413.2 673.8 C413.2 671.7 413.6 669.9 414.8 667.6 C415.7 665.8 416.4 663.9 416.4 663.4 C416.4 662.9 416.6 662.5 416.9 662.5 C417.9 662.5 419.0 659.8 419.6 655.5 C420.3 650.4 421.5 648.6 423.9 648.9 C426.2 649.1 426.1 651.5 423.8 651.7 C421.8 652.0 421.3 654.2 423.0 655.6 C424.5 656.9 424.1 658.1 421.3 660.8 C418.8 663.1 418.7 663.4 418.3 668.1 C418.0 672.0 417.5 673.6 416.2 675.5 L414.5 678.0 L415.7 682.8 C417.0 688.0 418.3 689.6 418.3 685.9 C418.3 684.7 418.6 683.0 419.0 682.0 C419.6 680.4 419.7 680.3 420.5 681.4 C421.0 682.1 421.3 684.0 421.2 686.4 C421.1 690.1 421.0 690.4 418.8 692.3 C417.5 693.4 416.2 695.4 415.8 696.6 C414.7 699.9 409.6 704.7 409.6 702.5 Z M559.8 693.7 C560.5 693.3 560.5 692.7 560.0 691.1 C559.6 689.9 559.1 688.1 558.9 687.1 C558.5 685.3 558.5 685.3 557.6 686.4 C556.6 687.9 556.5 692.5 557.5 693.5 C558.4 694.4 558.7 694.4 559.8 693.7 Z M559.8 679.0 C560.7 678.0 560.3 676.0 558.9 674.9 C557.6 673.8 557.2 674.5 557.7 677.4 C558.1 680.1 558.6 680.5 559.8 679.0 Z M450.5 667.9 C451.2 666.3 455.1 663.5 455.8 664.2 C456.7 665.1 456.0 666.0 453.6 667.5 C451.4 668.9 450.0 669.1 450.5 667.9 Z M454.9 660.3 C454.5 659.3 456.8 657.3 457.7 657.9 C458.3 658.2 458.4 660.2 457.8 660.8 C457.1 661.6 455.2 661.2 454.9 660.3 Z M449.0 659.5 C449.2 658.4 452.3 657.0 453.0 657.7 C453.7 658.3 451.3 660.6 450.0 660.6 C449.2 660.6 448.8 660.2 449.0 659.5 Z M446.2 653.4 C446.4 652.8 446.1 652.1 445.4 651.6 C444.9 651.2 444.1 649.6 443.8 648.1 C443.3 645.8 442.4 630.6 442.5 625.8 C442.5 623.4 444.5 619.6 446.2 618.9 C447.4 618.3 447.6 617.9 447.2 616.8 C446.9 616.0 446.8 613.8 446.9 611.8 C447.0 608.5 446.9 608.2 445.8 608.2 C444.4 608.2 441.9 612.2 442.4 613.6 C442.6 614.0 441.8 616.1 440.6 618.3 C438.6 622.2 438.6 622.3 438.5 631.6 C438.4 638.7 438.6 641.3 439.3 642.4 C439.8 643.2 440.3 645.5 440.4 647.6 C440.6 650.4 441.0 651.8 442.1 652.9 C443.7 654.6 445.6 654.8 446.2 653.4 Z M421.4 642.4 C421.4 640.7 421.8 639.9 422.7 639.4 C424.2 638.6 424.3 638.6 425.1 640.7 C425.5 641.8 425.3 642.8 424.4 644.7 C423.2 647.0 423.1 647.0 422.3 645.9 C421.8 645.3 421.4 643.7 421.4 642.4 Z M556.8 644.8 C556.8 643.0 555.1 640.6 553.9 640.6 C553.2 640.6 553.0 641.1 553.4 643.0 C553.9 646.0 554.1 646.3 555.5 646.3 C556.4 646.3 556.8 645.8 556.8 644.8 Z M529.0 644.4 C529.7 643.2 528.4 642.0 524.6 640.4 C516.6 637.1 513.8 639.2 521.2 642.9 C525.2 645.0 528.3 645.6 529.0 644.4 Z M552.6 636.5 C554.2 634.9 551.0 630.1 549.0 630.9 C547.5 631.4 547.7 635.4 549.2 636.3 C550.6 637.0 552.0 637.1 552.6 636.5 Z M461.0 629.6 C461.5 628.2 460.7 624.6 459.7 624.2 C458.4 623.7 458.3 624.5 459.0 627.7 C459.7 630.8 460.3 631.4 461.0 629.6 Z M533.1 627.3 C533.1 626.8 532.7 626.2 532.4 625.9 C532.0 625.7 531.8 625.0 532.0 624.3 C532.3 623.4 531.9 622.9 530.5 622.4 C529.5 622.1 528.2 621.0 527.7 620.0 C526.5 617.7 526.4 617.7 525.3 620.4 C523.7 624.1 525.8 627.2 530.4 627.9 C532.6 628.2 533.1 628.1 533.1 627.3 Z M541.1 622.1 C541.1 620.1 536.2 615.5 534.5 615.8 C532.5 616.2 533.0 617.4 536.1 619.3 C537.8 620.4 539.4 621.8 539.6 622.5 C540.2 624.4 541.2 624.1 541.1 622.1 Z M523.3 617.6 C523.5 617.3 523.3 616.7 522.7 616.3 C522.2 615.8 521.4 614.5 520.9 613.4 C519.8 610.8 519.0 610.8 518.5 613.3 C518.0 615.8 519.4 618.2 521.5 618.2 C522.3 618.2 523.2 617.9 523.3 617.6 Z M472.0 614.5 C471.3 612.5 471.3 611.8 471.9 611.0 C473.0 609.8 473.3 609.8 474.9 611.3 C476.7 613.0 476.7 615.4 475.0 616.6 C473.2 617.8 473.0 617.6 472.0 614.5 Z M531.4 615.9 C532.2 615.1 531.8 613.7 530.2 611.6 C527.3 607.8 525.6 609.8 528.3 613.8 C529.9 616.3 530.6 616.7 531.4 615.9 Z M495.6 610.5 C496.2 609.6 496.5 608.1 496.4 606.2 C496.2 604.5 494.4 604.8 494.5 606.5 C494.6 607.3 494.4 608.5 494.2 609.2 C493.6 610.8 494.6 611.7 495.6 610.5 Z M452.2 604.4 C454.3 602.2 454.1 601.7 451.5 602.7 C450.0 603.2 449.5 603.7 449.5 604.8 C449.5 606.8 450.1 606.7 452.2 604.4 Z M492.8 600.1 C493.4 599.4 494.6 598.9 495.3 598.9 C497.1 598.9 498.3 597.4 497.9 595.9 C497.5 594.6 497.9 593.8 499.6 592.9 C500.6 592.3 501.7 590.1 503.0 585.8 C503.3 585.0 503.8 584.2 504.2 584.0 C505.2 583.7 507.1 586.8 507.1 588.8 C507.2 591.3 510.1 591.5 511.2 589.1 C511.9 587.5 511.8 587.2 510.4 586.1 C509.6 585.4 508.7 583.9 508.4 582.8 C508.2 581.7 507.7 580.7 507.3 580.7 C505.2 580.5 502.8 581.0 502.4 581.6 C501.0 583.9 498.4 587.0 497.8 587.0 C496.2 587.0 491.5 593.0 491.0 595.5 C490.8 596.8 490.2 598.5 489.7 599.2 C488.2 601.6 490.8 602.3 492.8 600.1 Z M478.8 596.8 C481.6 594.4 481.9 593.9 481.9 591.5 L481.9 588.8 L479.6 589.0 C477.1 589.2 477.0 589.5 477.9 592.6 C478.3 594.0 478.2 594.0 476.5 593.7 C474.9 593.4 474.3 593.6 473.6 594.7 C472.6 596.0 472.5 596.0 471.7 595.0 C470.1 592.9 469.2 593.5 468.5 597.1 C468.0 599.7 468.9 600.2 471.3 598.7 C472.2 598.2 472.8 598.2 474.0 598.7 C475.5 599.4 475.9 599.2 478.8 596.8 Z M512.7 598.4 C512.8 598.1 513.1 596.5 513.2 594.8 C513.4 591.9 513.3 591.7 511.9 591.5 C510.5 591.3 510.5 591.4 510.8 593.4 C511.2 595.1 511.0 595.7 510.3 596.0 C508.7 596.6 509.1 598.9 510.9 598.9 C511.7 598.9 512.5 598.6 512.7 598.4 Z M554.9 597.7 C554.9 597.4 553.6 596.3 552.1 595.1 C550.5 594.0 549.3 592.8 549.3 592.5 C549.3 592.2 548.6 591.7 547.8 591.3 C547.0 590.9 546.0 589.9 545.6 589.1 C545.0 587.8 544.7 587.6 544.0 588.3 C543.4 588.7 543.0 589.5 543.0 590.1 C543.0 591.5 546.9 595.0 549.6 596.1 C550.8 596.6 551.9 597.2 552.1 597.6 C552.5 598.3 554.9 598.5 554.9 597.7 Z M466.9 594.8 L467.7 591.4 L470.1 591.4 C471.4 591.4 472.7 591.1 472.9 590.7 C473.1 590.3 474.0 589.8 474.8 589.5 C475.9 589.1 476.3 588.4 476.4 586.6 C476.6 584.4 476.8 584.2 478.6 584.0 C480.3 583.8 480.7 583.5 481.0 582.1 C481.2 581.2 481.8 579.6 482.2 578.6 C483.7 575.2 484.3 571.3 483.7 569.6 C483.1 568.0 483.1 568.0 482.1 569.2 C481.5 570.1 481.3 571.4 481.5 573.2 C481.9 576.6 481.1 578.9 479.6 578.9 C478.9 578.9 477.9 579.3 477.2 579.8 C474.6 581.8 472.5 580.1 473.5 576.9 C473.8 576.2 474.0 573.8 474.1 571.6 C474.2 568.2 474.0 567.5 472.8 566.3 C471.1 564.8 471.3 562.6 473.4 560.4 C475.2 558.4 475.7 559.1 475.7 563.7 C475.7 565.9 476.0 568.3 476.3 569.0 C476.8 569.8 476.8 570.9 476.4 572.4 C475.6 575.1 476.0 576.4 477.6 576.4 C478.7 576.4 478.8 575.9 478.7 571.9 C478.7 566.7 479.3 562.1 480.2 561.0 C480.7 560.4 480.5 559.8 479.7 558.9 C478.5 557.6 478.5 557.5 479.9 556.6 C481.8 555.3 481.7 553.7 479.6 552.2 L477.9 550.9 L479.6 549.4 C480.9 548.4 481.3 547.5 481.3 546.1 C481.2 542.8 481.3 541.8 481.6 539.5 C481.9 538.1 481.8 537.1 481.3 536.8 C480.2 536.2 480.6 534.4 481.9 533.5 C483.0 532.8 483.1 532.5 482.5 531.4 C481.8 530.0 482.0 526.4 483.2 520.9 C483.6 519.0 483.9 516.9 483.8 516.2 C483.3 508.7 484.2 503.6 486.0 504.3 C488.2 505.1 488.7 502.3 488.1 491.9 C488.1 491.2 488.2 487.7 488.4 484.1 C488.6 478.7 488.5 477.4 487.7 476.5 C486.8 475.5 486.8 475.3 487.7 474.3 C488.7 473.1 488.6 468.8 487.5 466.5 C486.9 465.4 488.8 460.4 490.3 459.2 C492.0 457.8 492.2 460.1 490.7 463.0 C489.3 465.6 489.3 465.6 490.5 467.2 C491.2 468.1 492.5 469.0 493.6 469.1 C494.7 469.3 496.1 470.2 496.8 471.1 C498.9 473.7 498.4 475.1 496.2 473.1 C493.9 471.0 490.9 475.4 493.2 477.6 C493.6 478.1 493.6 478.8 493.2 480.0 C492.1 482.8 492.3 483.5 494.6 483.5 C496.8 483.5 499.4 484.9 499.4 486.2 C499.4 486.6 498.7 487.2 498.0 487.5 C497.2 487.9 496.5 488.7 496.4 489.4 C495.9 491.8 495.2 491.7 494.3 489.0 C493.4 486.0 492.6 485.7 491.4 487.9 C490.8 489.0 490.7 490.9 491.0 495.0 C491.9 506.6 491.6 508.0 488.8 506.5 C487.8 506.0 487.2 506.0 486.7 506.5 C485.8 507.4 485.8 522.9 486.6 528.1 C487.1 530.9 487.1 532.3 486.5 533.7 C486.1 534.7 485.7 536.6 485.7 537.8 C485.7 539.1 485.2 541.1 484.7 542.3 C483.9 544.3 483.9 544.5 484.9 545.5 C486.6 546.9 488.1 546.7 488.9 544.9 C490.0 542.5 491.6 543.2 491.6 546.0 C491.6 547.3 491.9 548.4 492.2 548.5 C493.0 548.7 494.4 544.6 494.0 543.3 C493.7 542.8 493.4 541.3 493.2 539.9 C492.9 538.0 492.5 537.4 491.4 537.2 C490.4 537.1 489.9 536.4 489.4 534.5 C488.6 531.6 489.1 530.6 490.5 532.6 C491.6 534.2 493.5 534.4 494.0 533.1 C494.7 531.2 495.5 532.2 495.8 535.3 C496.1 537.3 496.9 539.5 498.1 541.3 C500.2 544.4 500.4 545.8 499.2 547.0 C498.8 547.5 498.4 549.4 498.4 551.9 C498.4 555.6 498.3 556.1 496.7 557.4 C495.2 558.5 494.8 559.4 494.3 563.4 C494.0 565.9 493.9 570.2 494.1 573.0 C494.5 578.8 493.9 581.7 492.2 581.7 C491.2 581.7 491.1 581.0 490.9 575.5 C490.7 568.3 491.6 558.2 492.6 556.4 C493.4 554.8 492.2 553.2 490.4 553.4 C489.2 553.6 489.0 554.2 488.6 558.6 C487.8 565.7 487.9 568.8 488.8 570.4 C489.4 571.6 489.3 572.2 488.4 574.0 C487.2 576.2 486.5 584.5 487.1 587.3 C487.6 589.2 489.4 589.4 491.0 587.6 C491.6 586.9 492.8 586.4 493.6 586.4 C494.4 586.4 495.2 585.9 495.4 585.3 C495.6 584.7 496.0 583.8 496.3 583.3 C498.3 580.1 498.3 579.6 497.0 577.9 C495.4 575.9 495.2 572.6 496.6 570.6 C497.3 569.4 497.3 568.8 496.8 567.3 C495.9 565.1 496.4 563.3 497.8 563.3 C499.1 563.3 500.0 565.7 499.4 567.4 C498.8 568.9 499.3 575.8 500.0 575.8 C500.6 575.8 501.2 573.5 501.2 571.6 C501.2 570.9 501.7 570.0 502.2 569.5 C503.5 568.5 503.4 567.2 501.9 566.7 C500.8 566.4 500.7 565.9 501.0 562.0 C501.1 559.2 501.6 557.3 502.2 556.7 C503.3 555.5 503.3 555.6 502.4 553.8 C501.9 552.5 502.0 551.8 503.1 549.7 C503.8 548.3 504.4 546.5 504.4 545.6 C504.4 543.8 502.7 539.7 501.4 538.2 C500.1 536.8 500.9 535.8 503.3 536.0 C505.6 536.2 505.7 535.7 504.5 528.5 C504.0 525.3 504.0 524.0 504.8 521.9 C505.3 520.4 505.8 515.8 506.0 510.6 C506.4 501.3 506.9 499.1 508.4 499.1 C508.9 499.1 509.4 498.6 509.4 498.1 C509.4 497.1 507.1 496.8 506.8 497.8 C506.6 498.1 505.8 498.5 504.8 498.8 C503.2 499.2 503.1 499.1 503.0 496.5 C503.0 495.0 503.0 493.3 503.1 492.8 C503.2 492.3 503.2 489.3 503.2 486.0 C503.1 481.5 502.9 479.9 502.1 479.0 C501.1 477.9 501.1 477.8 502.1 476.7 C503.0 475.7 503.1 475.2 502.5 474.2 C501.5 472.3 501.7 471.7 503.6 471.5 C505.0 471.3 505.3 471.0 505.5 469.3 C505.7 467.1 504.2 466.3 503.5 468.2 C503.1 469.2 500.6 469.5 500.6 468.6 C500.6 468.3 501.0 467.0 501.6 465.8 C502.2 464.2 502.8 463.7 503.5 463.9 C504.9 464.5 505.6 463.1 505.6 460.0 C505.6 458.1 505.3 457.2 504.5 456.7 C503.6 456.2 503.6 455.9 504.2 454.7 C504.6 453.9 504.9 452.2 504.9 451.0 C504.8 449.8 504.9 448.4 505.1 447.9 C505.2 447.3 504.8 446.9 503.6 446.8 C501.3 446.5 500.8 444.7 502.2 441.6 C503.1 439.5 503.2 438.7 502.6 437.2 C501.9 435.3 502.2 433.6 503.2 433.6 C503.5 433.6 503.7 434.1 503.7 434.7 C503.7 436.7 504.4 436.7 506.7 434.5 C508.7 432.5 508.9 432.1 508.4 430.6 C507.9 429.2 507.4 428.9 505.6 428.9 L503.4 428.9 L503.6 425.8 C503.7 424.1 504.3 422.2 504.8 421.6 C505.5 420.8 505.6 420.3 505.0 419.3 C504.0 417.3 504.2 416.7 506.2 416.7 C507.7 416.7 508.1 416.5 508.1 415.5 C508.1 414.6 507.7 414.2 506.5 414.2 C504.5 414.2 501.2 417.2 501.2 419.0 C501.2 421.2 500.6 422.3 498.7 423.3 C496.7 424.3 496.6 424.2 495.4 420.3 C495.2 419.6 494.7 419.2 494.2 419.4 C492.0 420.1 494.1 426.7 496.7 426.7 C497.7 426.7 498.1 427.1 498.1 428.0 C498.1 428.9 497.7 429.2 496.6 429.2 C495.7 429.2 494.7 429.8 494.1 430.6 L493.1 432.0 L491.6 430.1 L490.1 428.3 L489.4 430.1 C489.1 431.1 488.9 432.8 489.1 433.9 C489.4 435.3 489.1 437.1 488.3 439.3 C487.5 441.3 486.9 445.2 486.6 449.2 C486.3 452.8 485.7 456.7 485.3 457.9 C484.8 459.0 484.2 463.0 484.0 466.6 C483.8 470.2 483.2 473.7 482.8 474.4 C481.5 476.6 481.1 483.5 482.3 484.8 C483.6 486.2 483.0 489.1 480.8 491.7 C479.7 493.0 479.0 494.7 478.7 497.0 C478.5 498.9 477.8 501.0 477.2 501.6 C476.3 502.6 476.2 503.5 476.5 507.1 C476.9 511.2 476.8 511.5 475.5 512.2 C473.5 513.3 473.1 514.1 473.5 516.3 C473.7 517.6 473.5 518.5 472.9 519.0 C472.1 519.7 472.1 519.9 472.9 521.2 C473.9 522.7 473.3 525.3 471.9 525.3 C471.6 525.3 471.3 526.5 471.3 527.9 C471.3 529.4 471.0 531.0 470.5 531.4 C470.1 531.8 469.8 533.6 469.8 535.4 C469.8 538.3 469.6 538.6 468.2 539.0 C466.2 539.5 465.7 541.4 467.5 541.9 C469.1 542.3 469.1 542.4 467.8 544.3 C467.1 545.4 466.9 546.7 467.1 548.8 C467.4 551.6 467.3 551.9 465.3 553.7 C463.7 555.2 463.2 556.2 463.2 557.8 C463.2 559.2 462.7 560.4 461.9 561.1 C461.0 562.0 460.7 563.0 460.8 565.1 C460.9 566.7 460.6 568.7 460.1 569.5 C459.4 570.7 459.5 571.1 460.3 571.5 C461.7 572.3 461.6 573.7 460.2 574.2 C458.9 574.6 455.7 579.0 455.7 580.4 C455.7 580.9 456.3 581.5 457.0 581.7 C458.6 582.2 458.3 583.6 456.6 583.6 C456.0 583.6 455.3 584.1 455.2 584.7 C455.0 585.6 455.5 585.8 457.8 585.8 C460.5 585.8 460.7 585.6 461.2 583.7 C461.8 581.6 463.4 581.0 463.7 582.8 C463.8 583.4 463.5 584.6 462.9 585.5 C462.2 586.6 462.1 587.3 462.6 588.2 C462.9 588.9 463.2 590.8 463.2 592.4 C463.2 595.3 464.5 598.2 465.7 598.2 C466.0 598.2 466.6 596.7 466.9 594.8 Z M487.8 595.6 C488.9 594.1 489.1 592.0 488.2 592.0 C487.9 592.0 486.8 592.7 485.9 593.5 C484.5 594.8 484.4 595.3 485.0 596.0 C486.1 597.3 486.7 597.2 487.8 595.6 Z M538.7 590.8 C541.3 588.2 541.1 587.0 538.1 587.4 C534.9 587.9 531.7 585.5 529.6 581.3 C528.1 578.4 528.1 578.2 529.0 576.3 C530.4 573.7 530.0 573.1 525.9 572.1 C521.9 571.2 521.0 571.6 521.3 574.0 C521.5 575.0 522.1 575.5 523.5 575.8 C526.6 576.5 527.4 577.3 527.0 580.1 C526.7 582.3 526.9 582.7 529.2 585.0 C530.6 586.4 532.2 588.5 532.8 589.6 C534.6 593.2 536.0 593.5 538.7 590.8 Z M469.2 584.8 C468.6 583.3 468.7 579.8 469.5 577.9 C469.9 576.6 470.3 576.4 470.9 577.0 C471.8 577.7 472.7 583.4 472.2 584.8 C471.7 586.1 469.7 586.0 469.2 584.8 Z M523.9 564.2 C525.1 563.0 525.1 563.0 524.3 561.4 C523.9 560.6 523.0 560.2 521.8 560.2 C520.1 560.2 519.9 560.4 520.1 561.8 C520.2 562.7 520.9 563.9 521.6 564.4 C522.8 565.1 523.1 565.1 523.9 564.2 Z M511.6 561.1 C512.6 560.5 513.0 559.4 513.2 557.2 C513.4 555.6 513.6 553.9 513.8 553.4 C513.9 552.8 513.4 552.3 512.1 552.1 C509.0 551.4 508.6 552.0 509.1 556.2 C509.8 561.7 510.0 562.3 511.6 561.1 Z M469.2 559.2 C467.6 558.6 468.0 557.2 469.9 556.8 C471.5 556.4 471.7 556.0 472.4 552.2 C472.9 549.9 473.4 548.0 473.5 547.8 C473.6 547.7 474.5 548.0 475.3 548.6 C476.6 549.4 476.9 550.1 476.8 552.2 C476.7 555.5 476.0 556.4 473.8 556.4 C472.6 556.4 471.9 556.9 471.4 558.0 C470.6 559.7 470.6 559.7 469.2 559.2 Z M489.1 551.8 C489.7 549.6 488.4 548.1 486.8 549.0 C485.4 549.8 485.3 551.0 486.6 552.3 C488.0 553.7 488.7 553.6 489.1 551.8 Z M474.1 538.7 C473.7 536.0 474.6 533.0 475.7 533.7 C476.6 534.2 477.0 538.6 476.3 540.4 C475.5 542.7 474.6 542.1 474.1 538.7 Z M499.4 530.2 C499.4 527.2 500.3 525.5 500.8 527.6 C501.3 529.3 501.3 532.8 500.9 533.4 C500.1 534.7 499.4 533.2 499.4 530.2 Z M474.6 531.2 C474.4 530.6 474.7 529.7 475.3 529.1 C476.3 528.0 476.8 522.7 476.0 520.5 C475.7 519.6 475.9 519.1 476.7 518.8 C477.2 518.6 477.8 518.5 478.0 518.6 C478.4 519.1 478.3 530.8 477.9 531.5 C477.3 532.5 475.1 532.2 474.6 531.2 Z M491.3 526.8 C489.4 528.0 488.9 519.5 490.4 511.5 C491.2 507.3 492.9 507.4 495.2 511.8 C496.2 513.7 496.8 515.5 496.6 515.9 C496.0 516.9 493.9 516.7 493.3 515.5 C492.2 513.6 491.6 515.1 491.8 519.3 C492.0 523.4 492.0 523.4 493.8 523.4 C495.5 523.4 495.6 523.6 495.6 525.8 C495.6 528.9 495.2 529.2 493.3 527.7 C492.4 527.1 491.5 526.7 491.3 526.8 Z M498.1 522.4 C497.2 521.4 498.2 518.4 499.3 518.4 C500.3 518.4 501.2 520.6 500.8 522.0 C500.4 523.6 499.2 523.8 498.1 522.4 Z M522.3 521.1 C523.4 519.0 523.8 514.8 523.0 514.3 C521.8 513.6 520.6 515.9 520.6 518.8 C520.6 521.7 521.4 522.8 522.3 521.1 Z M510.4 516.4 C510.2 515.4 510.0 513.8 510.0 512.9 C510.0 511.4 509.9 511.3 508.9 512.3 C508.0 513.2 508.0 513.6 508.7 515.9 C509.7 518.9 510.9 519.3 510.4 516.4 Z M477.3 516.2 C476.8 515.0 477.5 513.4 478.5 513.4 C479.6 513.4 480.9 515.1 480.4 516.2 C480.0 517.4 477.8 517.4 477.3 516.2 Z M498.9 511.3 C498.8 508.9 498.7 505.7 498.6 504.4 C498.5 502.2 498.6 501.9 499.7 501.9 C500.8 501.9 501.0 502.3 501.1 506.3 C501.3 509.7 501.6 511.0 502.5 511.8 C503.6 512.9 503.6 512.9 501.7 514.7 C500.6 515.6 499.6 516.3 499.4 516.1 C499.2 516.0 499.0 513.8 498.9 511.3 Z M478.9 506.2 C478.9 501.7 478.9 501.6 480.4 501.6 C482.0 501.6 482.0 501.6 481.6 505.1 C480.6 512.9 478.8 513.6 478.9 506.2 Z M517.8 503.4 C518.0 503.0 517.8 502.3 517.3 501.7 C516.6 500.9 516.4 499.9 516.6 498.0 C516.9 496.4 516.7 495.3 516.2 495.0 C514.7 494.1 514.2 495.8 514.6 500.0 C515.0 503.4 515.3 504.1 516.2 504.1 C516.9 504.1 517.6 503.8 517.8 503.4 Z M494.3 499.6 C494.7 492.9 496.9 490.8 496.9 497.2 C496.9 501.4 496.0 504.3 494.9 503.9 C494.3 503.7 494.1 502.4 494.3 499.6 Z M483.5 498.9 C483.5 496.2 484.4 495.8 485.6 497.9 C486.7 499.8 486.1 501.7 484.6 501.4 C483.8 501.3 483.5 500.6 483.5 498.9 Z M524.3 494.3 C525.7 492.5 526.0 490.6 524.9 490.0 C523.8 489.3 522.5 491.1 522.0 493.7 C521.6 496.4 522.4 496.6 524.3 494.3 Z M510.3 492.8 C510.5 492.5 510.6 491.0 510.6 489.6 C510.5 485.8 511.2 481.7 512.2 480.9 C513.4 479.9 513.3 479.1 511.9 479.1 C511.3 479.1 509.8 479.9 508.7 481.0 C507.2 482.4 506.8 483.3 506.9 484.9 C507.0 486.0 506.8 487.7 506.6 488.6 C506.1 490.4 506.8 491.8 508.8 492.9 C509.5 493.2 510.0 493.2 510.3 492.8 Z M517.1 488.8 C517.9 488.0 517.9 487.5 517.3 486.2 C516.8 485.1 516.8 484.5 517.4 484.0 C518.4 482.9 518.3 479.7 517.2 479.7 C516.7 479.7 516.2 480.2 516.0 480.8 C515.9 481.4 515.4 483.2 515.0 484.9 C513.9 489.1 514.9 491.0 517.1 488.8 Z M517.8 470.7 C517.8 467.8 517.4 465.3 517.1 465.2 C516.8 465.1 516.4 465.7 516.3 466.4 C516.2 467.2 515.7 468.1 515.2 468.5 C514.1 469.5 514.1 471.3 515.3 472.3 C515.8 472.7 516.2 473.4 516.1 473.7 C516.0 475.3 516.3 476.0 517.0 476.0 C517.7 476.0 517.9 474.7 517.8 470.7 Z M511.1 473.2 C511.0 471.3 511.3 470.0 512.0 469.3 C513.4 467.8 513.4 465.8 512.1 464.7 C511.4 464.1 511.2 463.3 511.5 461.8 C511.7 460.7 511.6 459.2 511.2 458.5 C510.7 457.5 510.8 456.9 511.9 455.3 C512.7 454.2 513.5 452.3 513.7 451.1 C514.0 449.4 514.4 448.8 515.4 448.7 C516.6 448.5 516.8 448.1 516.8 446.2 C516.8 444.9 517.0 442.8 517.2 441.5 C517.5 439.7 517.4 439.2 516.7 439.2 C514.1 439.2 514.0 436.2 516.2 429.1 C516.6 427.6 516.5 427.3 515.6 427.3 C513.7 427.3 513.5 426.3 513.4 418.2 C513.4 411.9 513.2 410.4 512.3 409.4 C511.4 408.4 511.3 408.1 512.2 406.9 C513.0 405.8 513.0 405.4 512.0 403.7 C510.7 401.5 511.3 400.6 513.4 401.7 C516.4 403.4 517.3 400.4 514.7 397.3 C513.5 396.0 513.1 394.7 513.1 392.8 C513.1 391.4 512.9 388.1 512.7 385.6 C512.1 378.6 512.2 372.5 513.0 369.0 C513.8 365.0 512.9 363.8 510.2 365.1 L508.4 365.9 L508.5 376.4 C508.5 382.1 508.3 386.8 508.1 386.8 C506.7 386.8 505.9 382.2 506.4 377.6 C506.8 373.7 506.7 372.6 505.9 371.4 C505.1 370.1 505.0 369.5 505.6 368.1 C506.5 365.8 506.8 360.6 506.1 359.2 C505.8 358.5 505.5 352.4 505.6 345.6 C505.6 335.3 505.4 332.8 504.6 331.2 C504.1 330.1 503.6 327.8 503.5 326.1 L503.4 322.9 L500.2 322.3 C497.8 321.9 496.8 321.4 496.5 320.5 C495.9 318.6 494.1 320.7 494.6 322.8 C494.9 324.1 495.4 324.4 496.9 324.4 C497.9 324.4 498.8 324.7 499.0 325.0 C499.7 326.0 498.0 328.8 496.8 328.8 C495.3 328.8 494.7 330.3 495.4 332.1 C495.8 333.0 495.8 333.9 495.3 334.9 C494.2 337.0 494.9 339.5 496.3 339.1 C498.5 338.4 499.8 344.7 497.8 346.3 C497.1 346.9 496.8 346.8 496.5 346.0 C496.0 344.8 495.0 344.7 495.0 346.0 C495.0 346.9 495.2 347.5 497.2 351.2 C498.1 352.9 498.2 353.5 497.5 354.7 C496.5 356.5 497.1 357.4 498.4 356.3 C499.2 355.6 499.4 355.8 499.4 357.7 C499.4 359.0 499.1 360.0 498.8 360.0 C497.3 360.0 496.3 359.1 496.3 357.9 C496.3 355.6 495.3 357.6 495.2 360.2 C495.0 364.5 495.1 368.3 495.4 368.7 C495.6 368.9 496.0 368.5 496.3 367.9 C497.4 366.1 498.1 366.7 498.1 369.4 C498.1 371.7 498.0 371.9 496.4 371.7 L494.7 371.5 L494.5 377.1 C494.4 380.2 494.3 383.7 494.2 384.9 C494.1 387.0 494.2 387.1 496.2 387.1 C497.4 387.1 498.5 387.5 498.6 387.9 C499.0 389.0 500.4 388.9 500.9 387.6 C501.3 386.7 501.4 386.7 502.4 387.7 C503.4 388.7 503.4 388.8 502.2 389.7 C501.3 390.3 501.2 390.7 501.7 391.3 C502.3 391.8 502.7 391.8 503.6 391.1 C505.3 389.7 508.0 388.6 508.4 389.3 C509.1 390.4 509.0 403.3 508.2 405.1 L507.4 406.9 L505.9 405.5 C504.3 404.0 503.9 402.4 505.0 401.4 C506.2 400.2 506.4 394.7 505.4 393.3 C504.5 392.1 504.4 392.2 502.2 394.8 C499.6 397.7 498.4 397.7 499.0 394.6 C499.4 392.3 498.2 390.8 496.5 391.4 C495.7 391.7 495.6 392.2 496.0 393.8 C496.8 397.5 496.4 399.5 494.4 401.1 C491.5 403.6 491.1 405.6 492.0 411.6 C492.8 417.2 493.8 418.4 493.8 414.0 C493.8 410.6 494.7 408.3 496.6 407.1 C497.5 406.5 498.1 405.4 498.2 404.1 C498.4 402.6 498.7 402.1 499.7 402.1 C501.4 402.1 501.6 403.8 500.0 407.0 C499.3 408.4 498.8 410.2 498.8 410.8 C498.8 411.4 498.2 412.8 497.5 414.0 C496.1 416.2 496.8 417.5 498.5 415.8 C499.0 415.3 500.6 414.7 501.9 414.5 C504.1 414.1 504.4 413.9 504.4 412.3 C504.4 410.2 505.9 408.5 507.7 408.8 C508.8 408.9 509.0 409.4 509.0 411.3 C509.0 413.0 509.3 413.7 510.1 414.0 C511.5 414.4 511.5 415.7 510.3 416.7 C509.8 417.2 508.8 418.8 508.1 420.3 C507.0 422.9 507.0 423.2 507.8 424.9 C508.4 425.9 509.5 427.1 510.3 427.4 C511.9 428.2 512.8 431.2 511.8 433.0 C510.8 435.0 511.3 442.3 512.8 447.1 C513.1 448.1 512.9 448.6 512.0 449.1 C509.9 450.2 509.3 453.3 509.0 464.9 C508.6 475.9 508.6 476.0 509.9 476.0 C511.1 476.0 511.3 475.7 511.1 473.2 Z M495.6 463.2 C495.6 460.8 497.3 460.2 498.8 462.0 C499.5 462.9 499.4 463.2 498.2 464.2 C496.1 465.9 495.6 465.7 495.6 463.2 Z M494.1 453.2 C493.9 452.6 493.8 451.3 493.8 450.1 C493.8 449.0 493.3 447.7 492.8 447.3 C491.4 446.1 491.6 440.9 493.1 439.5 C493.9 438.8 494.4 437.6 494.4 436.4 C494.4 434.2 496.4 431.3 497.4 432.0 C498.6 432.7 498.2 437.8 496.9 440.4 C495.3 443.6 495.3 445.7 497.0 446.8 L498.3 447.7 L496.8 450.9 C495.2 454.4 494.8 454.8 494.1 453.2 Z M525.8 433.6 C526.9 430.0 526.3 426.6 524.4 424.6 L523.1 423.4 L522.5 425.1 C521.6 427.4 521.6 435.0 522.6 435.9 C524.0 437.4 524.9 436.7 525.8 433.6 Z M550.5 419.3 C550.5 418.7 550.1 417.8 549.7 417.4 C549.2 417.0 548.6 415.9 548.4 414.9 C548.0 412.8 546.2 411.8 546.2 413.7 C546.2 415.1 549.2 420.4 550.0 420.5 C550.3 420.5 550.5 420.0 550.5 419.3 Z M525.2 416.6 C526.5 414.7 526.5 413.5 524.9 412.5 C524.1 412.0 523.7 411.1 523.7 409.6 C523.7 407.3 523.1 406.6 521.9 407.3 C521.2 407.7 521.2 408.5 521.8 411.2 C522.1 413.0 522.5 415.2 522.6 416.1 C522.8 418.1 524.0 418.4 525.2 416.6 Z M543.7 405.2 C543.7 404.2 543.0 402.3 542.2 400.9 C541.4 399.5 540.5 397.6 540.3 396.6 C540.1 395.7 539.6 394.9 539.3 394.9 C538.5 394.9 539.3 400.1 540.4 401.3 C540.9 401.9 541.5 403.2 541.7 404.4 C542.2 406.9 543.7 407.5 543.7 405.2 Z M525.2 398.6 C526.0 395.9 526.9 388.6 526.6 387.7 C526.0 386.1 524.7 387.0 524.2 389.3 C524.0 390.5 523.2 391.9 522.5 392.3 C521.8 392.8 521.2 393.8 521.2 394.6 C521.2 396.3 524.8 399.9 525.2 398.6 Z M483.5 394.0 C484.0 389.2 485.1 388.9 485.9 393.3 C486.4 396.1 486.3 396.4 485.0 397.5 C484.2 398.1 483.4 398.5 483.3 398.4 C483.2 398.3 483.3 396.3 483.5 394.0 Z M497.2 383.7 C496.3 382.7 496.2 382.0 496.6 379.8 C497.3 376.8 498.9 376.1 499.2 378.7 C499.3 379.6 499.7 380.9 500.1 381.6 C501.5 384.5 499.3 386.0 497.2 383.7 Z M535.8 383.3 C536.5 382.5 536.2 378.6 535.2 377.1 C534.5 376.0 534.2 374.8 534.5 373.1 C534.7 371.6 534.5 370.2 534.0 369.5 C533.2 368.3 532.7 366.2 531.8 358.9 C531.5 356.3 530.8 353.6 530.2 352.7 C529.3 351.3 529.3 350.7 529.9 348.8 C530.9 345.9 530.9 344.0 530.1 341.6 C529.7 340.6 529.0 337.6 528.6 335.1 C528.1 332.3 527.4 330.3 526.9 330.2 C526.2 329.9 526.1 331.2 526.4 337.3 C526.9 346.0 527.2 350.0 527.8 353.5 C528.1 355.9 528.0 356.3 526.2 358.2 C524.0 360.5 524.0 361.6 526.4 361.3 C527.7 361.2 528.1 361.5 528.3 362.6 C529.6 368.7 529.9 370.8 530.3 374.2 C530.5 376.5 531.1 378.6 531.9 379.6 C532.5 380.4 533.1 381.5 533.1 382.0 C533.1 382.5 533.5 383.1 534.0 383.3 C535.3 383.8 535.3 383.8 535.8 383.3 Z M484.1 375.7 C484.5 374.1 484.5 374.1 485.4 375.2 C486.3 376.5 486.1 378.3 484.8 379.9 C484.2 380.6 484.1 380.4 483.9 379.0 C483.8 378.1 483.9 376.6 484.1 375.7 Z M484.1 360.9 C484.0 357.9 484.4 356.8 485.1 357.2 C486.0 357.8 485.8 363.9 484.9 363.6 C484.5 363.4 484.1 362.2 484.1 360.9 Z M512.9 361.1 C513.6 359.9 513.1 356.1 512.1 355.1 C510.6 353.5 509.3 355.3 509.5 358.7 C509.6 361.1 509.9 361.6 511.0 361.7 C511.8 361.8 512.6 361.6 512.9 361.1 Z M511.2 351.6 C511.6 351.1 511.9 350.2 511.8 349.6 C511.7 349.0 511.8 348.1 512.0 347.7 C512.3 347.3 512.6 345.9 512.7 344.6 C512.9 343.3 513.2 341.0 513.4 339.6 C513.8 337.3 513.7 336.9 512.3 336.0 C511.5 335.5 510.3 335.2 509.8 335.4 C508.3 336.0 507.5 339.0 508.1 341.4 C508.4 342.5 508.8 345.2 508.9 347.4 C509.2 351.7 510.0 353.1 511.2 351.6 Z M483.9 348.5 C483.6 345.4 484.7 344.2 485.6 346.5 C486.4 348.5 485.8 351.4 484.8 351.1 C484.4 351.0 484.0 349.8 483.9 348.5 Z M496.6 314.1 C496.0 310.1 496.7 307.7 498.5 307.2 C499.3 307.0 500.3 307.1 500.7 307.3 C501.8 308.0 501.0 312.8 499.5 314.4 C498.7 315.1 498.1 316.0 498.1 316.3 C498.1 316.7 497.9 317.0 497.6 317.0 C497.3 317.0 496.8 315.7 496.6 314.1 Z M493.4 297.9 C493.0 296.2 493.4 294.5 494.4 294.5 C495.2 294.5 495.9 297.3 495.4 298.6 C494.9 300.0 493.8 299.7 493.4 297.9 Z M489.7 296.0 C489.7 293.6 489.9 292.9 490.8 292.7 C491.7 292.6 491.9 293.0 491.9 295.0 C491.9 298.1 491.4 299.6 490.4 299.3 C490.0 299.2 489.7 297.7 489.7 296.0 Z M516.5 294.6 C516.7 292.5 516.6 290.9 515.9 289.3 C514.7 286.3 515.5 283.9 517.8 283.9 C519.5 283.9 519.5 283.9 519.1 287.3 C518.8 289.5 518.9 291.1 519.4 291.8 C519.9 292.7 519.8 293.4 518.7 295.3 C516.8 298.5 516.0 298.3 516.5 294.6 Z M509.1 292.0 C508.4 288.0 508.4 287.4 509.0 287.0 C510.0 286.4 512.3 293.2 511.6 294.5 C510.7 295.8 509.7 294.7 509.1 292.0 Z M493.1 291.7 C493.1 291.2 492.4 290.1 491.6 289.4 C490.0 288.0 489.5 285.5 490.6 284.8 C491.6 284.2 491.4 283.5 489.7 281.5 C487.4 278.7 487.6 277.4 490.6 277.2 C493.3 277.1 493.7 277.8 493.8 281.9 C493.8 283.5 493.5 284.1 492.5 284.3 C490.7 284.8 491.0 286.1 493.5 288.6 C494.9 289.9 495.6 291.1 495.4 291.7 C494.9 292.9 493.1 292.9 493.1 291.7 Z M552.6 283.5 C553.1 283.0 553.1 279.3 552.6 278.0 C551.9 276.0 551.2 277.1 551.3 280.5 C551.3 283.7 551.6 284.4 552.6 283.5 Z M504.2 276.9 C502.1 276.8 500.8 273.9 502.3 272.4 C503.6 271.0 504.2 271.2 506.9 273.3 C509.9 275.7 510.3 278.1 507.6 277.4 C506.7 277.1 505.2 276.9 504.2 276.9 Z M484.4 273.5 C483.6 271.5 484.1 268.7 485.2 269.1 C486.1 269.4 487.7 273.8 487.2 274.6 C486.5 275.7 485.0 275.1 484.4 273.5 Z M502.0 268.5 C501.1 266.8 502.4 260.9 503.9 260.1 C504.7 259.7 505.3 259.7 506.0 260.2 C507.2 261.3 507.1 262.5 505.6 264.4 C504.9 265.3 504.4 266.8 504.4 267.8 C504.4 269.8 502.9 270.2 502.0 268.5 Z M490.7 261.1 C491.6 260.3 493.1 262.5 493.1 264.6 C493.1 265.5 492.8 266.5 492.4 267.0 C491.8 267.6 491.4 267.1 490.8 264.7 C490.3 262.7 490.3 261.6 490.7 261.1 Z M520.3 264.4 C520.9 262.9 520.4 259.4 519.5 259.1 C518.3 258.7 517.7 263.2 518.9 264.4 C519.8 265.3 519.9 265.3 520.3 264.4 Z M518.4 254.0 C518.6 253.6 518.6 251.4 518.4 249.2 C517.7 242.8 517.8 240.6 519.0 238.5 C520.2 236.5 519.9 234.6 518.4 234.6 C516.3 234.6 515.9 237.9 516.4 250.5 C516.5 254.0 517.4 255.5 518.4 254.0 Z M548.8 247.4 C549.2 245.4 547.7 244.6 546.3 246.0 C545.1 247.2 545.7 249.0 547.3 249.0 C548.1 249.0 548.6 248.4 548.8 247.4 Z M506.0 246.8 C505.0 244.4 505.2 243.0 506.7 242.5 C508.1 241.9 508.4 242.5 507.6 244.3 C507.1 245.4 507.1 246.3 507.5 247.1 C508.0 248.0 507.8 249.0 507.1 249.0 C507.0 249.0 506.5 248.0 506.0 246.8 Z M551.0 243.2 C552.5 241.8 551.9 240.2 549.9 240.2 C547.9 240.2 547.6 240.8 548.7 242.8 C549.4 244.2 550.0 244.3 551.0 243.2 Z M551.0 236.3 C551.6 235.7 551.1 234.7 549.2 232.1 C546.2 228.1 545.5 227.6 544.5 228.5 C543.3 229.5 543.5 230.6 545.1 232.6 C545.9 233.5 546.8 234.9 547.0 235.7 C547.5 237.3 549.9 237.7 551.0 236.3 Z M550.7 227.4 C551.8 224.8 551.6 223.9 549.6 222.5 C548.3 221.7 548.2 221.3 548.5 217.6 C548.7 214.7 548.6 213.5 548.0 213.1 C546.9 212.4 545.5 214.4 545.5 216.7 C545.5 217.7 545.1 218.6 544.6 218.8 C543.6 219.2 543.3 222.8 544.2 222.8 C545.7 222.8 548.6 226.1 548.6 227.8 C548.6 230.3 549.4 230.1 550.7 227.4 Z M510.2 228.7 C510.0 228.2 510.2 227.4 510.6 226.9 C511.1 226.2 511.1 225.6 510.3 224.4 C509.3 222.9 509.3 222.8 510.2 222.4 C512.3 221.6 513.1 222.6 513.1 225.8 C513.1 228.7 512.7 229.4 511.1 229.6 C510.8 229.6 510.4 229.2 510.2 228.7 Z M511.8 216.6 C511.8 213.8 512.3 212.2 513.2 212.2 C513.8 212.2 513.9 215.5 513.3 217.6 C512.7 219.9 511.8 219.3 511.8 216.6 Z M561.3 214.6 C561.8 213.4 562.6 211.4 563.0 210.0 C563.4 208.6 564.0 206.7 564.4 205.6 C565.6 201.9 565.7 200.9 564.6 200.9 C563.6 200.9 561.7 203.9 561.7 205.4 C561.7 205.9 560.8 208.0 559.7 210.2 L557.7 214.1 L559.0 215.3 L560.3 216.6 L561.3 214.6 Z M481.4 210.1 C481.6 207.9 483.3 207.3 483.7 209.2 C484.0 210.9 483.3 212.2 482.2 212.2 C481.5 212.2 481.3 211.7 481.4 210.1 Z M503.6 208.9 C503.7 207.4 503.6 205.5 503.2 204.7 C502.6 202.9 503.5 200.3 504.8 200.3 C505.7 200.3 506.4 202.7 506.4 205.4 C506.4 206.6 504.1 211.6 503.5 211.6 C503.5 211.6 503.5 210.4 503.6 208.9 Z M555.9 207.7 C556.7 206.2 557.6 203.5 557.9 201.6 C558.7 197.4 559.6 194.8 560.9 193.3 C561.8 192.4 561.8 192.2 560.9 190.9 C560.1 189.7 560.1 189.4 561.2 187.6 C562.1 186.1 562.3 185.0 562.0 183.0 C561.6 180.6 561.7 180.4 562.9 180.4 C563.6 180.4 564.3 180.1 564.5 179.7 C564.8 179.4 565.5 179.1 566.1 179.1 C567.2 179.1 567.3 178.8 567.0 176.4 C566.7 174.2 566.8 173.5 568.1 171.9 C569.0 170.9 570.1 168.5 570.7 166.6 C571.3 164.6 572.1 162.9 572.6 162.7 C573.3 162.4 573.4 161.9 573.0 160.4 C572.6 159.3 572.2 158.2 572.0 158.0 C571.5 157.5 570.5 159.3 570.5 160.7 C570.5 161.4 569.9 162.3 569.2 162.8 C568.5 163.2 568.0 164.1 568.0 164.7 C568.0 166.2 565.5 171.8 564.5 172.6 C563.5 173.4 561.1 177.9 561.1 179.1 C561.1 179.6 560.6 180.4 559.9 180.8 C559.1 181.3 558.5 182.6 558.3 184.7 C557.9 187.0 557.5 188.0 556.1 189.0 C555.1 189.8 553.9 191.3 553.3 192.5 C552.0 195.1 550.8 195.3 550.3 193.0 C549.8 190.0 550.5 188.1 552.4 187.4 C554.5 186.6 554.8 185.1 553.3 183.2 C551.8 181.2 552.1 178.7 553.9 178.3 C555.1 178.0 555.6 177.1 556.4 174.5 C556.9 172.7 557.8 170.8 558.3 170.4 C559.6 169.4 559.5 167.3 558.2 167.3 C556.9 167.3 557.6 163.0 559.2 161.7 C559.8 161.1 560.8 159.9 561.3 158.8 C561.9 157.6 563.3 156.4 564.8 155.8 C568.2 154.2 568.0 153.2 564.3 152.7 C559.3 152.0 555.8 153.2 557.3 155.0 C557.8 155.6 557.8 156.0 557.3 156.5 C557.0 156.8 556.6 157.8 556.5 158.6 C556.4 159.5 555.7 160.8 555.0 161.5 C554.2 162.3 553.6 163.7 553.6 164.6 C553.6 167.0 552.3 170.4 551.3 170.4 C550.9 170.4 549.4 171.0 548.0 171.7 C546.6 172.5 545.2 172.8 544.9 172.5 C544.1 171.5 543.7 168.8 544.3 167.9 C544.8 167.1 545.0 167.1 545.8 168.1 C547.0 169.6 547.2 169.4 547.6 166.2 C547.9 164.2 547.8 163.1 547.2 162.8 C546.8 162.5 546.5 161.3 546.5 160.0 C546.5 156.8 544.3 156.3 542.8 159.0 C539.5 164.9 536.9 165.1 536.2 159.5 C536.0 157.8 535.5 157.0 534.9 157.0 C534.2 157.0 533.9 157.9 533.8 160.6 C533.6 164.8 534.3 166.5 536.6 166.8 C538.3 167.0 538.4 167.1 538.5 170.9 C538.7 174.6 538.6 174.9 536.8 176.4 C534.4 178.5 534.4 179.6 537.0 179.9 C538.9 180.0 539.0 180.2 539.0 182.6 C539.1 184.0 539.3 185.5 539.5 185.9 C540.3 187.1 541.7 186.7 542.1 185.2 C542.4 184.4 543.3 182.8 544.1 181.5 C544.9 180.2 545.5 178.4 545.5 177.5 C545.5 175.7 548.0 172.9 549.6 172.9 C550.9 172.9 550.4 176.6 548.6 179.5 C547.1 182.0 547.1 182.2 549.0 182.9 C551.1 183.7 551.0 186.8 548.9 187.1 C547.8 187.3 547.5 187.9 547.1 190.6 C546.8 192.8 547.0 194.4 547.4 195.2 C548.5 196.9 547.6 200.7 545.7 202.4 C544.4 203.7 544.2 204.3 544.6 205.9 C545.2 208.6 547.4 208.4 548.3 205.6 C548.7 204.5 549.4 203.2 550.0 202.6 C550.6 202.1 551.2 200.7 551.5 199.7 C552.0 197.3 553.3 196.7 554.9 198.2 C556.9 200.0 556.5 202.4 553.6 205.2 C552.3 206.6 551.1 208.0 551.1 208.4 C551.1 208.9 553.6 210.3 554.5 210.3 C554.5 210.3 555.2 209.1 555.9 207.7 Z M487.8 208.8 C486.5 208.2 485.6 207.3 485.3 206.3 C484.5 202.9 487.0 202.3 488.6 205.6 C489.1 206.8 490.1 207.9 490.8 208.0 C491.5 208.2 491.8 208.6 491.6 209.0 C491.1 209.9 490.4 209.9 487.8 208.8 Z M476.9 206.3 C476.9 205.5 477.3 204.5 477.9 204.1 C479.2 202.9 479.0 201.4 477.2 199.7 C475.8 198.3 475.0 194.7 476.2 194.7 C477.2 194.7 479.4 196.7 479.4 197.7 C479.4 198.2 480.0 199.3 480.7 200.1 C481.7 201.2 481.9 201.9 481.6 203.5 C480.8 207.1 476.9 209.5 476.9 206.3 Z M464.1 204.0 C463.9 203.3 464.0 202.4 464.3 202.1 C465.4 201.0 466.9 202.0 466.9 203.7 C466.9 205.7 464.7 205.9 464.1 204.0 Z M470.7 199.8 C470.7 198.9 470.4 197.8 470.0 197.4 C469.2 196.6 469.8 195.1 470.7 195.7 C471.0 195.9 471.3 196.6 471.3 197.3 C471.3 197.9 471.8 198.7 472.4 198.9 C474.8 199.8 474.7 201.6 472.2 201.6 C471.0 201.6 470.7 201.3 470.7 199.8 Z M484.1 197.9 C484.4 196.1 484.2 194.8 483.2 192.9 C482.5 191.5 481.7 188.5 481.4 186.2 C480.9 181.4 479.5 180.3 478.7 184.0 C478.1 186.9 477.7 187.1 475.8 185.2 L474.2 183.5 L476.2 181.4 C478.2 179.3 478.3 179.1 477.8 175.7 C477.4 172.2 477.4 172.2 478.7 173.0 C479.4 173.4 480.2 173.6 480.4 173.4 C481.1 172.6 481.9 167.8 481.9 163.7 C481.9 159.9 482.0 159.8 483.5 159.8 C484.9 159.8 485.0 159.6 484.9 157.1 C484.7 154.8 484.9 154.5 486.0 154.7 C489.3 155.3 490.5 159.0 487.8 160.4 C486.9 160.9 486.3 161.8 486.3 162.7 C486.3 164.4 486.7 164.5 488.2 163.2 C488.8 162.6 489.6 162.3 490.0 162.6 C491.9 163.7 488.8 168.2 486.6 167.6 C484.4 167.1 484.1 169.1 485.7 174.0 C487.4 179.1 487.9 179.7 489.9 179.7 C491.2 179.7 491.4 179.6 491.0 178.1 C490.7 177.1 489.7 175.4 488.7 174.3 C486.0 171.2 486.3 170.1 490.0 168.8 C494.3 167.4 497.5 169.3 494.7 171.6 C493.7 172.5 493.4 176.3 494.4 176.9 C494.7 177.1 496.2 177.5 497.7 177.8 L500.3 178.2 L500.3 181.3 C500.4 187.1 500.6 187.6 502.2 188.4 C503.9 189.2 504.1 190.1 503.1 194.7 C502.2 198.5 501.2 198.8 501.2 195.2 C501.2 191.1 500.5 187.9 499.7 187.9 C499.3 187.9 498.3 186.4 497.5 184.7 C495.7 180.9 493.9 180.5 492.0 183.6 C490.9 185.5 490.8 186.0 491.5 188.6 C491.9 190.2 492.4 191.7 492.7 192.0 C493.4 192.7 493.2 196.0 492.5 196.0 C492.2 196.0 491.7 195.2 491.5 194.4 C490.8 191.5 488.7 192.6 487.4 196.7 C486.4 199.5 485.9 200.3 484.9 200.3 C483.8 200.3 483.7 200.0 484.1 197.9 Z M471.9 193.7 C471.9 193.2 472.2 192.2 472.6 191.6 C473.1 190.6 473.0 190.3 471.5 190.0 C469.4 189.4 468.8 188.7 468.8 186.5 C468.8 185.6 468.4 184.5 467.9 184.1 C467.4 183.7 466.9 183.0 466.9 182.6 C466.9 182.1 466.4 181.1 465.7 180.2 C464.1 178.2 463.5 175.6 464.5 175.0 C465.7 174.3 469.9 179.5 471.0 183.1 C472.1 186.8 474.1 189.1 476.1 189.1 C477.9 189.1 478.1 191.0 476.5 193.2 C475.2 194.9 471.9 195.3 471.9 193.7 Z M578.5 191.1 C578.2 189.2 579.3 185.7 580.4 185.1 C581.4 184.5 582.0 186.6 581.2 187.4 C580.8 187.8 580.5 189.0 580.5 190.1 C580.5 193.2 578.9 194.0 578.5 191.1 Z M523.0 190.2 C523.4 189.2 523.5 187.8 523.2 187.1 C522.5 184.9 522.7 176.2 523.6 170.5 C524.5 165.1 524.1 163.6 522.2 164.3 C521.5 164.6 521.3 166.5 521.1 174.3 C521.0 179.5 521.1 184.1 521.4 184.6 C521.7 185.0 521.8 186.1 521.5 187.1 C521.3 188.1 521.4 189.5 521.7 190.4 L522.3 191.9 L523.0 190.2 Z M572.0 183.2 C572.2 182.2 572.8 181.6 573.6 181.6 C575.1 181.6 575.2 182.5 573.9 185.0 C573.4 185.9 572.9 187.3 572.9 188.1 C572.9 188.9 572.6 188.5 572.2 187.1 C571.9 185.8 571.8 184.0 572.0 183.2 Z M507.0 185.5 C506.9 184.7 507.2 184.0 507.8 183.7 C508.3 183.5 508.7 183.0 508.7 182.6 C508.7 182.1 509.2 181.4 509.7 181.0 C510.5 180.3 510.6 180.6 510.6 183.0 C510.6 184.5 510.3 186.1 509.8 186.5 C508.7 187.6 507.2 187.1 507.0 185.5 Z M576.7 179.6 C576.7 179.1 577.1 178.2 577.6 177.5 C578.1 176.9 578.6 175.6 578.6 174.6 C578.6 172.4 581.1 169.4 582.5 170.0 C584.0 170.5 583.8 172.2 581.9 175.1 C578.9 179.7 576.7 181.5 576.7 179.6 Z M471.0 175.2 C470.8 173.8 470.5 171.2 470.3 169.5 C470.1 167.6 469.4 165.6 468.4 164.4 C466.6 162.0 466.4 159.2 468.1 159.2 C469.7 159.2 471.5 162.6 471.1 164.8 C470.8 166.1 471.1 166.7 472.1 167.4 C473.1 168.1 473.4 168.9 473.3 170.9 C473.2 172.4 473.5 174.1 473.9 174.7 C474.8 176.2 474.2 177.9 472.6 177.9 C471.7 177.9 471.4 177.3 471.0 175.2 Z M503.2 172.7 C502.0 171.4 502.0 171.2 502.9 169.9 C504.1 168.2 504.8 168.2 505.6 169.8 C506.4 171.2 506.0 174.1 505.1 174.1 C504.8 174.1 504.0 173.5 503.2 172.7 Z M463.2 169.2 C463.2 166.8 464.1 164.8 464.9 165.6 C465.5 166.2 465.8 171.0 465.4 172.2 C464.8 173.8 463.2 171.6 463.2 169.2 Z M585.0 165.9 C585.2 165.1 585.7 163.0 586.2 161.2 C586.6 159.4 587.2 157.9 587.5 157.9 C588.2 157.9 587.4 165.5 586.6 166.5 C585.5 167.7 584.6 167.4 585.0 165.9 Z M578.6 163.6 C578.6 161.9 579.9 160.7 580.7 161.5 C581.3 162.1 581.1 164.5 580.4 165.3 C579.3 166.3 578.6 165.6 578.6 163.6 Z M459.0 163.1 C458.7 161.4 460.4 161.1 462.2 162.5 C463.8 163.6 462.9 164.9 460.8 164.7 C459.6 164.5 459.1 164.1 459.0 163.1 Z M501.2 159.4 C500.6 157.6 500.7 157.0 501.6 155.6 C503.0 153.5 504.2 154.6 503.3 157.1 C502.9 158.1 502.8 159.8 503.0 160.7 C503.4 163.2 502.2 162.2 501.2 159.4 Z M553.0 156.5 C554.2 154.5 554.7 151.0 553.8 151.1 C553.5 151.1 552.2 151.9 550.8 152.8 C547.8 154.9 547.3 156.8 549.6 157.8 C551.7 158.8 551.6 158.8 553.0 156.5 Z M506.9 156.7 C505.4 153.2 507.1 150.1 508.9 153.0 C510.0 154.7 509.6 158.5 508.4 158.5 C508.0 158.5 507.3 157.7 506.9 156.7 Z M524.6 155.4 C525.1 152.5 524.1 150.6 522.7 151.7 C521.7 152.6 521.6 155.0 522.5 156.7 C523.5 158.6 524.2 158.2 524.6 155.4 Z M463.7 154.5 C463.8 153.1 463.9 149.9 463.8 147.4 C463.8 143.9 463.9 142.9 464.6 143.1 C465.1 143.3 465.5 145.0 465.8 148.0 C466.0 150.5 466.2 152.9 466.3 153.2 C466.4 153.6 466.4 154.7 466.4 155.6 C466.3 157.1 466.1 157.3 464.9 157.2 C463.7 157.0 463.5 156.7 463.7 154.5 Z M575.9 154.5 C577.5 153.3 577.9 149.8 576.5 149.8 C575.3 149.8 573.1 151.8 572.9 152.9 C572.6 155.7 573.6 156.1 575.9 154.5 Z M536.1 153.0 C536.7 151.6 536.7 150.8 536.2 149.9 C535.2 148.0 534.4 148.3 533.9 150.7 C533.2 154.7 534.8 156.3 536.1 153.0 Z M525.1 150.0 C525.8 148.9 526.2 143.6 525.8 142.1 C525.3 139.9 524.7 140.0 523.8 142.6 C522.6 145.9 523.8 152.3 525.1 150.0 Z M488.4 147.5 C489.8 144.5 490.8 138.3 490.4 135.0 C489.7 131.0 488.7 128.7 486.4 126.3 C484.2 124.0 483.9 122.1 485.4 120.0 C486.3 118.7 486.3 118.5 485.4 117.4 C484.0 115.9 484.1 115.2 486.6 112.5 C487.8 111.1 488.8 109.6 488.8 109.0 C488.8 107.3 485.7 108.3 483.6 110.7 C482.2 112.4 481.9 113.1 482.2 115.2 C482.5 117.5 482.1 119.2 480.6 123.9 C478.7 129.5 478.6 138.6 480.4 138.6 C481.0 138.6 481.3 137.8 481.3 136.2 C481.3 134.9 481.6 133.5 482.0 133.1 C482.4 132.7 482.9 131.3 483.1 130.0 C483.4 128.0 483.7 127.7 485.0 127.7 C486.4 127.7 486.6 128.0 486.8 130.1 C486.9 131.4 486.6 133.3 486.2 134.4 C485.5 136.1 485.6 136.3 487.0 137.4 C488.4 138.5 488.4 138.6 487.4 140.3 C486.9 141.2 486.2 143.2 486.0 144.7 C485.7 146.1 485.3 147.5 485.0 147.7 C483.9 148.3 484.4 149.2 486.0 149.2 C487.0 149.2 487.8 148.6 488.4 147.5 Z M527.6 136.8 C528.8 135.4 530.1 133.8 530.5 133.1 C530.9 132.4 531.7 131.6 532.4 131.4 C533.1 131.2 533.5 130.7 533.3 130.4 C532.7 129.4 531.3 129.8 529.1 131.7 C527.9 132.8 526.1 133.9 525.0 134.3 C522.9 135.0 522.6 136.3 523.9 138.1 C525.1 139.6 525.1 139.6 527.6 136.8 Z M572.9 134.9 C574.1 134.7 575.2 134.2 575.3 133.8 C575.6 132.9 570.5 132.1 569.7 132.9 C569.0 133.6 569.5 135.5 570.3 135.4 C570.6 135.3 571.7 135.1 572.9 134.9 Z M581.7 117.7 C581.7 115.3 582.6 114.4 583.9 115.5 C585.1 116.5 585.1 118.3 583.8 119.5 C582.5 120.9 581.7 120.2 581.7 117.7 Z M585.5 115.2 C585.1 112.7 584.1 112.2 580.6 112.6 C577.1 113.0 575.5 112.4 575.5 110.8 C575.5 109.6 579.1 108.5 580.6 109.3 C583.3 110.8 584.6 108.4 582.3 106.2 C580.8 104.6 578.4 104.6 576.1 105.9 C574.5 106.9 574.2 106.9 573.0 106.0 C572.2 105.4 571.2 104.3 570.9 103.5 C570.0 101.8 567.9 101.4 565.4 102.4 C564.0 103.0 563.6 103.5 563.8 104.8 C564.0 107.3 561.3 107.4 557.4 104.9 C553.4 102.5 552.2 102.6 545.7 105.3 C542.5 106.6 540.2 106.4 539.1 104.6 C538.5 103.8 536.8 102.3 535.2 101.4 C532.7 99.9 532.4 99.6 532.7 98.1 C533.2 95.9 531.6 94.3 530.0 95.3 C528.4 96.3 528.5 97.7 530.1 98.5 C531.5 99.1 532.8 102.2 532.1 103.0 C531.7 103.4 529.4 101.1 529.0 99.8 C528.4 97.9 525.7 98.4 523.0 100.9 C520.4 103.2 519.3 103.5 518.2 102.2 C517.2 101.0 518.5 99.5 521.5 98.5 C523.3 98.0 524.1 97.3 524.2 96.3 C524.5 94.3 523.0 94.0 520.0 95.5 C518.4 96.4 516.9 96.7 515.9 96.4 C514.2 96.0 511.0 97.0 509.0 98.6 C506.6 100.7 504.6 101.2 503.1 100.1 C502.2 99.5 501.0 99.3 499.5 99.5 C497.6 99.8 497.0 99.6 496.4 98.7 C495.4 97.1 491.6 96.9 490.7 98.5 C490.2 99.4 489.9 99.3 488.2 97.5 C486.8 96.1 486.3 95.2 486.6 94.3 C486.9 93.4 486.6 92.9 485.2 92.3 C483.1 91.3 482.6 90.7 483.0 89.4 C483.1 88.8 482.8 87.9 482.3 87.5 C481.2 86.6 481.0 84.9 481.9 84.9 C482.3 84.9 482.8 85.6 483.2 86.5 C483.5 87.4 484.2 88.1 484.7 88.1 C485.2 88.1 486.5 88.9 487.7 89.8 C490.7 92.5 491.5 92.6 493.7 90.6 C496.0 88.6 496.1 88.0 494.3 86.5 C493.1 85.3 493.0 85.3 491.9 86.8 C491.2 87.7 490.4 88.1 489.8 87.9 C488.1 87.2 488.7 85.5 491.6 82.7 C493.1 81.2 494.4 79.7 494.4 79.4 C494.4 78.5 496.8 77.3 498.7 77.2 C501.5 77.1 500.8 75.8 497.7 75.4 C495.2 75.1 494.6 75.2 493.8 76.3 C493.3 77.0 492.3 77.5 491.2 77.5 C490.1 77.5 489.1 77.9 488.6 78.7 C487.7 80.2 485.7 80.4 485.7 79.0 C485.7 78.5 486.1 78.1 486.7 78.1 C487.2 78.1 488.3 77.4 489.1 76.5 C489.9 75.7 491.1 75.0 491.8 75.0 C492.5 75.0 493.3 74.5 493.6 74.0 C493.9 73.5 495.2 72.9 496.5 72.7 C498.4 72.4 499.1 72.6 500.3 73.7 C501.8 75.1 502.0 75.1 504.3 74.4 C505.7 73.9 507.0 73.0 507.2 72.4 C507.7 70.9 508.6 70.7 517.8 70.2 C522.2 70.0 527.6 69.7 529.6 69.6 C531.7 69.4 534.3 69.3 535.5 69.3 C538.7 69.2 547.9 70.9 550.7 72.1 C551.9 72.6 553.5 73.1 554.2 73.1 C554.8 73.1 555.7 73.5 556.2 74.1 C556.6 74.6 557.6 75.3 558.4 75.6 C559.2 75.9 559.9 76.8 560.0 77.5 C560.1 78.6 561.0 79.2 564.1 80.2 C566.2 80.9 568.0 81.9 568.1 82.4 C568.2 82.9 570.0 84.5 572.0 85.9 C574.1 87.3 576.1 89.2 576.6 90.1 C577.0 91.0 577.8 91.8 578.3 91.8 C578.8 91.8 579.2 92.1 579.2 92.5 C579.2 92.9 579.9 93.9 580.8 94.7 C581.6 95.5 582.3 96.7 582.3 97.4 C582.3 98.0 582.8 99.0 583.5 99.4 C585.0 100.5 586.6 103.6 588.3 109.2 C590.4 115.7 590.3 116.9 587.8 116.6 C586.3 116.5 585.7 116.1 585.5 115.2 Z M568.7 108.3 C568.6 108.2 568.6 107.6 568.8 107.1 C569.3 105.8 571.3 105.1 571.6 106.0 C571.7 106.4 572.2 106.8 572.7 106.8 C573.9 106.8 573.8 107.8 572.5 108.6 C571.6 109.1 569.4 109.0 568.7 108.3 Z M549.0 101.8 C549.6 101.1 551.2 100.4 552.6 100.1 C555.9 99.4 556.1 97.8 553.0 97.5 C551.2 97.4 550.4 97.8 548.5 99.5 C545.9 101.9 545.8 102.1 547.0 102.6 C547.5 102.8 548.4 102.4 549.0 101.8 Z M544.1 101.4 C544.5 100.2 541.2 96.8 539.6 96.8 C537.8 96.8 537.8 98.7 539.6 100.6 C541.6 102.6 543.5 103.0 544.1 101.4 Z" fill="#17232b" data-role="body" data-layer="ink"/>
  </g>
</svg>
