<svg xmlns="http://www.w3.org/2000/svg" viewBox="0 0 1000 1000" role="img" aria-labelledby="title" data-source="bones-patent-art">
  <title id="title">Urinary bladder</title>
  <g shape-rendering="geometricPrecision">
  <path d="M500 209.9 L539.6 214.3 L580.3 226.3 L619.9 244.3 L656.3 266.9 L687.1 292.9 L712.8 323.4 L734.8 359.2 L752.3 398.3 L764.4 439 L770 479.5 L768.2 521.5 L759.6 565.8 L745.9 609.7 L728.3 650.5 L708.3 685.7 L684 715 L654.8 740 L623.5 760.6 L592.3 777 L563.5 789.4 L537.4 797.7 L512.4 802 L487.6 802 L462.6 797.7 L436.5 789.4 L407.7 777 L376.5 760.6 L345.2 740 L316 715 L291.7 685.7 L271.7 650.5 L254.1 609.7 L240.4 565.8 L231.8 521.5 L230 479.5 L235.6 439 L247.7 398.3 L265.2 359.2 L287.2 323.4 L312.9 292.9 L343.7 266.9 L380.1 244.3 L419.7 226.3 L460.4 214.3 Z M464.4 234 L426.7 245.1 L389.5 262 L355.5 283.1 L327.1 307.1 L303.5 335.2 L282.9 368.5 L266.5 405.2 L255.2 443.2 L250 480.5 L251.7 519.1 L259.8 560.9 L272.9 602.8 L289.6 641.6 L308.3 674.3 L330.4 701 L357.2 724 L386.7 743.4 L416.3 759 L443.5 770.6 L467.3 778.3 L489.3 782 L510.7 782 L532.7 778.3 L556.5 770.6 L583.7 759 L613.3 743.4 L642.8 724 L669.6 701 L691.7 674.3 L710.4 641.6 L727.1 602.8 L740.2 560.9 L748.3 519.1 L750 480.5 L744.8 443.2 L733.5 405.2 L717.1 368.5 L696.5 335.2 L672.9 307.1 L644.5 283.1 L610.5 262 L573.3 245.1 L535.6 234 L500 230.1 Z" fill="#17252c" data-role="body" data-layer="ink"/>
  <path d="M319.5 396.5 L333.4 394.7 L351.8 392 L373.8 388.7 L398.3 385.3 L424.2 382 L450.5 379.2 L476.1 377.2 L500 376.5 L523.9 377.2 L549.5 379.2 L575.8 382 L601.7 385.3 L626.2 388.7 L648.2 392 L666.6 394.7 L680.5 396.5 L679.5 403.5 L665.6 401.6 L647.1 398.9 L625.2 395.7 L600.8 392.2 L575 388.9 L548.9 386.1 L523.5 384.2 L500 383.5 L476.5 384.2 L451.1 386.1 L425 388.9 L399.2 392.2 L374.8 395.7 L352.9 398.9 L334.4 401.6 L320.5 403.5 Z" fill="#17252c" data-role="body" data-layer="ink"/>
  <path d="M339.7 456.5 L352.1 455.6 L368.5 454.2 L388 452.6 L409.7 450.9 L432.7 449.2 L456.1 447.8 L478.8 446.9 L500 446.5 L521.2 446.9 L543.9 447.8 L567.3 449.2 L590.3 450.9 L612 452.6 L631.5 454.2 L647.9 455.6 L660.3 456.5 L659.7 463.5 L647.4 462.6 L631 461.2 L611.4 459.6 L589.7 457.9 L566.8 456.2 L543.6 454.8 L521 453.9 L500 453.5 L479 453.9 L456.4 454.8 L433.2 456.2 L410.3 457.9 L388.6 459.6 L369 461.2 L352.6 462.6 L340.3 463.5 Z" fill="#17252c" data-role="body" data-layer="ink"/>
  <path d="M360 516.5 L370.8 516.5 L385.2 516.5 L402.2 516.5 L421.2 516.5 L441.3 516.5 L461.7 516.5 L481.5 516.5 L500 516.5 L518.5 516.5 L538.3 516.5 L558.7 516.5 L578.8 516.5 L597.8 516.5 L614.8 516.5 L629.2 516.5 L640 516.5 L640 523.5 L629.2 523.5 L614.8 523.5 L597.8 523.5 L578.8 523.5 L558.7 523.5 L538.3 523.5 L518.5 523.5 L500 523.5 L481.5 523.5 L461.7 523.5 L441.3 523.5 L421.2 523.5 L402.2 523.5 L385.2 523.5 L370.8 523.5 L360 523.5 Z" fill="#17252c" data-role="body" data-layer="ink"/>
  <path d="M380.3 576.5 L389.6 577.4 L401.9 578.8 L416.6 580.4 L432.9 582.1 L450 583.8 L467.4 585.2 L484.3 586.1 L500 586.5 L515.7 586.1 L532.6 585.2 L550 583.8 L567.1 582.1 L583.4 580.4 L598.1 578.8 L610.4 577.4 L619.7 576.5 L620.3 583.5 L611.1 584.4 L598.8 585.7 L584.2 587.4 L567.9 589.1 L550.6 590.8 L533.1 592.2 L516 593.1 L500 593.5 L484 593.1 L466.9 592.2 L449.4 590.8 L432.1 589.1 L415.8 587.4 L401.2 585.7 L388.9 584.4 L379.7 583.5 Z" fill="#17252c" data-role="body" data-layer="ink"/>
  <path d="M400.8 636.6 L408.6 638.4 L418.9 641.1 L431.1 644.4 L444.6 647.8 L458.8 651.1 L473.2 653.9 L487.2 655.8 L500 656.5 L512.8 655.8 L526.8 653.9 L541.2 651.1 L555.4 647.8 L568.9 644.4 L581.1 641.1 L591.4 638.4 L599.2 636.6 L600.8 643.4 L593.1 645.2 L582.9 647.9 L570.7 651.2 L557.1 654.7 L542.6 658 L527.9 660.8 L513.5 662.8 L500 663.5 L486.5 662.8 L472.1 660.8 L457.4 658 L442.9 654.7 L429.3 651.2 L417.1 647.9 L406.9 645.2 L399.2 643.4 Z" fill="#17252c" data-role="body" data-layer="ink"/>
  <path d="M370.1 338.4 L360.2 326.7 L346.3 310.9 L329.6 292 L311.4 270.9 L292.9 248.8 L275.4 226.7 L260.2 205.5 L248.5 186 L240.3 167.1 L234.8 148.1 L231.4 129.4 L229.5 111.7 L228.7 95.4 L228.3 81.3 L227.9 69.8 L227.1 61.2 L252.9 58.8 L253.8 68.3 L254.2 80.5 L254.6 94.3 L255.5 109.6 L257.2 125.7 L260.2 142.1 L264.8 158.4 L271.5 174 L281.9 191.2 L296.2 211.1 L313 232.4 L331.1 254.1 L349.2 274.9 L365.8 293.7 L379.9 309.7 L389.9 321.6 Z" fill="#17252c" data-role="body" data-layer="ink"/>
  <path d="M610.1 321.6 L620.1 309.7 L634.2 293.7 L650.8 274.9 L668.9 254.1 L687 232.4 L703.8 211.1 L718.1 191.2 L728.5 174 L735.2 158.4 L739.8 142.1 L742.8 125.7 L744.5 109.6 L745.4 94.3 L745.8 80.5 L746.2 68.3 L747.1 58.8 L772.9 61.2 L772.1 69.8 L771.7 81.3 L771.3 95.4 L770.5 111.7 L768.6 129.4 L765.2 148.1 L759.7 167.1 L751.5 186 L739.8 205.5 L724.6 226.7 L707.1 248.8 L688.6 270.9 L670.4 292 L653.7 310.9 L639.8 326.7 L629.9 338.4 Z" fill="#17252c" data-role="body" data-layer="ink"/>
  <path d="M517 780 L517 792.6 L517 810.5 L517 831.9 L517 855 L517 878.1 L517 899.5 L517 917.4 L517 930 L483 930 L483 917.4 L483 899.5 L483 878.1 L483 855 L483 831.9 L483 810.5 L483 792.6 L483 780 Z" fill="#17252c" data-role="body" data-layer="ink"/>
  </g>
</svg>
