<svg xmlns="http://www.w3.org/2000/svg" viewBox="0 0 1000 1000" role="img" aria-labelledby="title" data-source="gray-anatomy">
  <title id="title">Gray's Anatomy plate derivative: Radius</title>
  <metadata>Source plate: Gray217.png</metadata>
  <g fill-rule="evenodd" clip-rule="evenodd">
  <path d="M 562.98,936.26 562.98,938.55 565.27,938.55 565.27,936.26 Z" fill="#17232b" data-role="body"/>
  <path d="M 546.95,936.26 546.95,938.55 549.24,938.55 549.24,936.26 Z" fill="#17232b" data-role="body"/>
  <path d="M 528.63,936.26 528.63,938.55 530.92,938.55 530.92,936.26 Z" fill="#17232b" data-role="body"/>
  <path d="M 489.69,936.26 489.69,938.55 491.98,938.55 491.98,936.26 Z" fill="#17232b" data-role="body"/>
  <path d="M 473.66,936.26 473.66,938.55 475.95,938.55 475.95,936.26 Z" fill="#17232b" data-role="body"/>
  <path d="M 537.79,933.97 537.79,936.26 540.08,936.26 540.08,933.97 Z" fill="#17232b" data-role="body"/>
  <path d="M 382.06,933.97 382.06,936.26 384.35,936.26 384.35,933.97 Z" fill="#17232b" data-role="body"/>
  <path d="M 434.73,931.68 434.73,933.97 437.02,933.97 437.02,931.68 Z" fill="#17232b" data-role="body"/>
  <path d="M 372.90,929.39 372.90,936.26 375.19,936.26 375.19,929.39 Z" fill="#17232b" data-role="body"/>
  <path d="M 565.27,927.10 565.27,931.68 567.56,931.68 567.56,927.10 Z" fill="#17232b" data-role="body"/>
  <path d="M 560.69,927.10 558.40,927.10 556.11,936.26 558.40,936.26 Z" fill="#17232b" data-role="body"/>
  <path d="M 519.47,927.10 517.18,927.10 514.89,933.97 517.18,933.97 Z" fill="#17232b" data-role="body"/>
  <path d="M 494.27,927.10 494.27,929.39 498.85,929.39 501.15,936.26 505.73,938.55 503.44,929.39 Z" fill="#17232b" data-role="body"/>
  <path d="M 457.63,927.10 455.34,927.10 453.05,933.97 455.34,933.97 Z" fill="#17232b" data-role="body"/>
  <path d="M 425.57,927.10 423.28,927.10 420.99,933.97 423.28,933.97 Z" fill="#17232b" data-role="body"/>
  <path d="M 482.82,924.81 482.82,929.39 485.11,929.39 485.11,924.81 Z" fill="#17232b" data-role="body"/>
  <path d="M 469.08,924.81 471.37,931.68 473.66,931.68 473.66,927.10 Z" fill="#17232b" data-role="body"/>
  <path d="M 411.83,924.81 411.83,927.10 414.12,927.10 414.12,924.81 Z" fill="#17232b" data-role="body"/>
  <path d="M 402.67,924.81 402.67,927.10 411.83,933.97 411.83,931.68 Z" fill="#17232b" data-role="body"/>
  <path d="M 549.24,922.52 549.24,927.10 551.53,927.10 551.53,922.52 Z" fill="#17232b" data-role="body"/>
  <path d="M 375.19,922.52 375.19,924.81 377.48,924.81 377.48,922.52 Z" fill="#17232b" data-role="body"/>
  <path d="M 542.37,917.94 542.37,920.23 544.66,920.23 544.66,917.94 Z" fill="#17232b" data-role="body"/>
  <path d="M 583.59,906.49 583.59,908.78 585.88,908.78 585.88,906.49 Z" fill="#17232b" data-role="body"/>
  <path d="M 620.23,901.91 620.23,904.20 622.52,904.20 622.52,901.91 Z" fill="#17232b" data-role="body"/>
  <path d="M 611.07,899.62 611.07,901.91 613.36,901.91 613.36,899.62 Z" fill="#17232b" data-role="body"/>
  <path d="M 601.91,895.04 601.91,897.33 604.20,897.33 604.20,895.04 Z" fill="#17232b" data-role="body"/>
  <path d="M 636.26,892.75 631.68,892.75 629.39,899.62 631.68,899.62 Z" fill="#17232b" data-role="body"/>
  <path d="M 620.23,892.75 620.23,897.33 622.52,897.33 622.52,892.75 Z" fill="#17232b" data-role="body"/>
  <path d="M 585.88,892.75 585.88,901.91 588.17,901.91 590.46,897.33 592.75,904.20 595.04,904.20 597.33,895.04 595.04,895.04 592.75,899.62 590.46,892.75 Z" fill="#17232b" data-role="body"/>
  <path d="M 320.23,874.43 320.23,876.72 324.81,876.72 324.81,874.43 Z" fill="#17232b" data-role="body"/>
  <path d="M 757.63,872.14 757.63,874.43 759.92,874.43 759.92,872.14 Z" fill="#17232b" data-role="body"/>
  <path d="M 592.75,872.14 592.75,874.43 595.04,874.43 595.04,872.14 Z" fill="#17232b" data-role="body"/>
  <path d="M 748.47,869.85 748.47,874.43 750.76,874.43 750.76,869.85 Z" fill="#17232b" data-role="body"/>
  <path d="M 737.02,869.85 737.02,872.14 739.31,872.14 739.31,869.85 Z" fill="#17232b" data-role="body"/>
  <path d="M 718.70,869.85 718.70,874.43 723.28,874.43 723.28,872.14 Z" fill="#17232b" data-role="body"/>
  <path d="M 730.15,867.56 730.15,869.85 732.44,869.85 732.44,867.56 Z" fill="#17232b" data-role="body"/>
  <path d="M 704.96,867.56 704.96,869.85 707.25,869.85 707.25,867.56 Z" fill="#17232b" data-role="body"/>
  <path d="M 679.77,867.56 679.77,869.85 682.06,869.85 682.06,867.56 Z" fill="#17232b" data-role="body"/>
  <path d="M 629.39,867.56 629.39,872.14 631.68,872.14 631.68,867.56 Z" fill="#17232b" data-role="body"/>
  <path d="M 613.36,867.56 613.36,869.85 615.65,869.85 615.65,867.56 Z" fill="#17232b" data-role="body"/>
  <path d="M 583.59,867.56 583.59,869.85 585.88,869.85 585.88,867.56 Z" fill="#17232b" data-role="body"/>
  <path d="M 279.01,867.56 279.01,869.85 281.30,869.85 281.30,867.56 Z" fill="#17232b" data-role="body"/>
  <path d="M 267.56,867.56 267.56,869.85 269.85,869.85 269.85,867.56 Z" fill="#17232b" data-role="body"/>
  <path d="M 256.11,867.56 256.11,869.85 258.40,869.85 258.40,867.56 Z" fill="#17232b" data-role="body"/>
  <path d="M 244.66,867.56 244.66,869.85 246.95,869.85 246.95,867.56 Z" fill="#17232b" data-role="body"/>
  <path d="M 759.92,865.27 759.92,867.56 764.50,869.85 764.50,874.43 769.08,874.43 766.79,869.85 769.08,865.27 766.79,865.27 764.50,869.85 762.21,865.27 Z" fill="#17232b" data-role="body"/>
  <path d="M 285.88,865.27 285.88,867.56 290.46,869.85 290.46,867.56 Z" fill="#17232b" data-role="body"/>
  <path d="M 750.76,862.98 750.76,865.27 753.05,865.27 753.05,862.98 Z" fill="#17232b" data-role="body"/>
  <path d="M 720.99,862.98 720.99,865.27 723.28,865.27 723.28,862.98 Z" fill="#17232b" data-role="body"/>
  <path d="M 686.64,862.98 688.93,869.85 695.80,869.85 695.80,867.56 691.22,867.56 688.93,862.98 Z" fill="#17232b" data-role="body"/>
  <path d="M 663.74,862.98 661.45,872.14 666.03,874.43 663.74,869.85 666.03,862.98 Z" fill="#17232b" data-role="body"/>
  <path d="M 592.75,862.98 592.75,867.56 595.04,867.56 595.04,862.98 Z" fill="#17232b" data-role="body"/>
  <path d="M 620.23,860.69 622.52,869.85 624.81,869.85 622.52,860.69 Z" fill="#17232b" data-role="body"/>
  <path d="M 356.87,860.69 354.58,860.69 352.29,869.85 356.87,869.85 Z" fill="#17232b" data-role="body"/>
  <path d="M 350.00,860.69 347.71,860.69 345.42,867.56 347.71,867.56 Z" fill="#17232b" data-role="body"/>
  <path d="M 336.26,860.69 336.26,862.98 338.55,862.98 338.55,860.69 Z" fill="#17232b" data-role="body"/>
  <path d="M 331.68,860.69 329.39,860.69 327.10,869.85 329.39,869.85 Z" fill="#17232b" data-role="body"/>
  <path d="M 295.04,860.69 295.04,862.98 297.33,862.98 297.33,860.69 Z" fill="#17232b" data-role="body"/>
  <path d="M 274.43,860.69 274.43,862.98 276.72,862.98 276.72,860.69 Z" fill="#17232b" data-role="body"/>
  <path d="M 265.27,860.69 265.27,862.98 267.56,862.98 267.56,860.69 Z" fill="#17232b" data-role="body"/>
  <path d="M 242.37,860.69 242.37,862.98 244.66,862.98 244.66,860.69 Z" fill="#17232b" data-role="body"/>
  <path d="M 230.92,860.69 228.63,867.56 235.50,869.85 237.79,865.27 Z M 230.92,865.27 233.21,862.98 235.50,865.27 233.21,867.56 Z" fill="#17232b" data-role="body"/>
  <path d="M 650.00,858.40 645.42,860.69 645.42,867.56 640.84,869.85 640.84,872.14 647.71,874.43 645.42,869.85 650.00,862.98 Z" fill="#17232b" data-role="body"/>
  <path d="M 370.61,858.40 363.74,860.69 363.74,865.27 366.03,865.27 Z" fill="#17232b" data-role="body"/>
  <path d="M 762.21,856.11 762.21,858.40 764.50,858.40 764.50,856.11 Z" fill="#17232b" data-role="body"/>
  <path d="M 306.49,856.11 301.91,858.40 301.91,865.27 295.04,867.56 295.04,869.85 306.49,867.56 304.20,862.98 Z" fill="#17232b" data-role="body"/>
  <path d="M 258.40,856.11 258.40,858.40 260.69,858.40 260.69,856.11 Z" fill="#17232b" data-role="body"/>
  <path d="M 604.20,853.82 601.91,853.82 599.62,867.56 601.91,867.56 604.20,862.98 Z" fill="#17232b" data-role="body"/>
  <path d="M 748.47,840.08 748.47,844.66 750.76,844.66 750.76,840.08 Z" fill="#17232b" data-role="body"/>
  <path d="M 688.93,840.08 688.93,842.37 691.22,842.37 691.22,840.08 Z" fill="#17232b" data-role="body"/>
  <path d="M 739.31,837.79 739.31,840.08 743.89,840.08 743.89,837.79 Z" fill="#17232b" data-role="body"/>
  <path d="M 679.77,837.79 679.77,842.37 682.06,842.37 682.06,837.79 Z" fill="#17232b" data-role="body"/>
  <path d="M 633.97,837.79 633.97,840.08 636.26,840.08 636.26,837.79 Z" fill="#17232b" data-role="body"/>
  <path d="M 627.10,837.79 627.10,840.08 629.39,840.08 629.39,837.79 Z" fill="#17232b" data-role="body"/>
  <path d="M 599.62,837.79 599.62,842.37 601.91,842.37 601.91,837.79 Z" fill="#17232b" data-role="body"/>
  <path d="M 258.40,837.79 258.40,844.66 260.69,844.66 260.69,837.79 Z" fill="#17232b" data-role="body"/>
  <path d="M 759.92,835.50 757.63,844.66 759.92,844.66 762.21,840.08 764.50,846.95 766.79,846.95 769.08,837.79 766.79,837.79 764.50,842.37 762.21,835.50 Z" fill="#17232b" data-role="body"/>
  <path d="M 730.15,835.50 730.15,837.79 732.44,837.79 732.44,835.50 Z" fill="#17232b" data-role="body"/>
  <path d="M 652.29,835.50 652.29,837.79 654.58,837.79 654.58,835.50 Z" fill="#17232b" data-role="body"/>
  <path d="M 608.78,835.50 608.78,842.37 611.07,842.37 611.07,835.50 Z" fill="#17232b" data-role="body"/>
  <path d="M 235.50,835.50 235.50,837.79 237.79,837.79 237.79,835.50 Z" fill="#17232b" data-role="body"/>
  <path d="M 700.38,833.21 698.09,833.21 695.80,842.37 700.38,842.37 698.09,837.79 Z" fill="#17232b" data-role="body"/>
  <path d="M 672.90,833.21 672.90,835.50 675.19,835.50 675.19,833.21 Z" fill="#17232b" data-role="body"/>
  <path d="M 617.94,833.21 617.94,835.50 620.23,835.50 620.23,833.21 Z" fill="#17232b" data-role="body"/>
  <path d="M 363.74,833.21 363.74,837.79 366.03,837.79 366.03,833.21 Z" fill="#17232b" data-role="body"/>
  <path d="M 347.71,833.21 347.71,835.50 350.00,835.50 350.00,833.21 Z" fill="#17232b" data-role="body"/>
  <path d="M 279.01,833.21 276.72,833.21 274.43,844.66 276.72,844.66 Z" fill="#17232b" data-role="body"/>
  <path d="M 267.56,833.21 267.56,835.50 269.85,835.50 269.85,833.21 Z" fill="#17232b" data-role="body"/>
  <path d="M 716.41,830.92 714.12,842.37 720.99,844.66 720.99,842.37 725.57,840.08 725.57,833.21 723.28,833.21 723.28,840.08 718.70,842.37 716.41,840.08 718.70,830.92 Z" fill="#17232b" data-role="body"/>
  <path d="M 682.06,830.92 682.06,833.21 684.35,833.21 684.35,830.92 Z" fill="#17232b" data-role="body"/>
  <path d="M 583.59,830.92 585.88,835.50 583.59,840.08 585.88,840.08 588.17,833.21 Z" fill="#17232b" data-role="body"/>
  <path d="M 290.46,830.92 285.88,830.92 283.59,837.79 285.88,837.79 Z" fill="#17232b" data-role="body"/>
  <path d="M 356.87,828.63 356.87,833.21 359.16,833.21 359.16,828.63 Z" fill="#17232b" data-role="body"/>
  <path d="M 329.39,828.63 329.39,830.92 331.68,830.92 331.68,828.63 Z" fill="#17232b" data-role="body"/>
  <path d="M 304.20,828.63 301.91,828.63 299.62,835.50 301.91,835.50 Z" fill="#17232b" data-role="body"/>
  <path d="M 260.69,828.63 260.69,833.21 262.98,833.21 262.98,828.63 Z" fill="#17232b" data-role="body"/>
  <path d="M 750.76,826.34 750.76,828.63 755.34,828.63 755.34,826.34 Z" fill="#17232b" data-role="body"/>
  <path d="M 611.07,826.34 611.07,830.92 613.36,830.92 613.36,826.34 Z" fill="#17232b" data-role="body"/>
  <path d="M 366.03,826.34 366.03,828.63 368.32,828.63 368.32,826.34 Z" fill="#17232b" data-role="body"/>
  <path d="M 324.81,826.34 322.52,826.34 317.94,833.21 320.23,833.21 Z" fill="#17232b" data-role="body"/>
  <path d="M 308.78,826.34 308.78,833.21 311.07,833.21 311.07,826.34 Z" fill="#17232b" data-role="body"/>
  <path d="M 716.41,824.05 716.41,826.34 720.99,826.34 720.99,824.05 Z" fill="#17232b" data-role="body"/>
  <path d="M 693.51,824.05 693.51,828.63 695.80,828.63 695.80,824.05 Z" fill="#17232b" data-role="body"/>
  <path d="M 562.98,824.05 560.69,840.08 567.56,844.66 567.56,842.37 562.98,840.08 562.98,833.21 565.27,830.92 565.27,824.05 Z" fill="#17232b" data-role="body"/>
  <path d="M 246.95,819.47 246.95,837.79 249.24,837.79 249.24,819.47 Z" fill="#17232b" data-role="body"/>
  <path d="M 391.22,901.91 393.51,904.20 409.54,906.49 414.12,901.91 414.12,895.04 418.70,892.75 418.70,888.17 425.57,885.88 443.89,869.85 450.76,869.85 453.05,867.56 517.18,869.85 514.89,862.98 519.47,858.40 537.79,858.40 544.66,860.69 544.66,858.40 540.08,856.11 544.66,849.24 551.53,849.24 551.53,846.95 546.95,846.95 544.66,842.37 540.08,844.66 537.79,842.37 540.08,833.21 530.92,819.47 524.05,821.76 519.47,819.47 517.18,814.89 514.89,814.89 517.18,819.47 514.89,824.05 505.73,824.05 503.44,826.34 462.21,824.05 459.92,826.34 450.76,826.34 446.18,830.92 439.31,830.92 437.02,833.21 432.44,830.92 427.86,833.21 423.28,828.63 423.28,821.76 418.70,819.47 416.41,826.34 411.83,819.47 416.41,812.60 420.99,814.89 423.28,810.31 427.86,812.60 427.86,810.31 423.28,808.02 427.86,805.73 432.44,787.40 427.86,787.40 425.57,782.82 418.70,778.24 418.70,789.69 414.12,791.98 416.41,798.85 411.83,801.15 414.12,805.73 407.25,808.02 407.25,812.60 402.67,819.47 395.80,819.47 393.51,821.76 395.80,851.53 393.51,853.82 391.22,874.43 388.93,876.72 Z M 540.08,846.95 542.37,844.66 544.66,846.95 542.37,849.24 Z M 420.99,798.85 423.28,805.73 418.70,812.60 416.41,805.73 Z M 423.28,798.85 425.57,796.56 427.86,798.85 425.57,801.15 Z M 425.57,785.11 427.86,787.40 425.57,794.27 423.28,791.98 Z" fill="#17232b" data-role="body"/>
  <path d="M 510.31,764.50 510.31,766.79 512.60,766.79 512.60,764.50 Z" fill="#17232b" data-role="body"/>
  <path d="M 508.02,743.89 508.02,748.47 510.31,748.47 510.31,743.89 Z" fill="#17232b" data-role="body"/>
  <path d="M 423.28,743.89 416.41,773.66 423.28,773.66 425.57,771.37 427.86,775.95 430.15,775.95 432.44,759.92 427.86,757.63 430.15,753.05 425.57,750.76 430.15,748.47 430.15,746.18 Z M 425.57,762.21 427.86,759.92 430.15,762.21 427.86,764.50 Z" fill="#17232b" data-role="body"/>
  <path d="M 423.28,730.15 423.28,739.31 427.86,739.31 427.86,730.15 Z" fill="#17232b" data-role="body"/>
  <path d="M 505.73,718.70 505.73,725.57 508.02,725.57 508.02,718.70 Z" fill="#17232b" data-role="body"/>
  <path d="M 430.15,666.03 427.86,666.03 425.57,670.61 427.86,677.48 423.28,693.51 423.28,700.38 425.57,702.67 423.28,725.57 430.15,725.57 430.15,723.28 425.57,720.99 430.15,718.70 430.15,711.83 427.86,709.54 430.15,707.25 430.15,700.38 425.57,695.80 425.57,693.51 430.15,691.22 427.86,682.06 432.44,679.77 432.44,677.48 427.86,675.19 Z" fill="#17232b" data-role="body"/>
  <path d="M 501.15,656.87 501.15,666.03 503.44,666.03 503.44,656.87 Z" fill="#17232b" data-role="body"/>
  <path d="M 498.85,643.13 498.85,650.00 501.15,650.00 501.15,643.13 Z" fill="#17232b" data-role="body"/>
  <path d="M 494.27,613.36 494.27,622.52 496.56,622.52 496.56,613.36 Z" fill="#17232b" data-role="body"/>
  <path d="M 491.98,590.46 491.98,601.91 494.27,601.91 494.27,590.46 Z" fill="#17232b" data-role="body"/>
  <path d="M 489.69,569.85 489.69,581.30 491.98,581.30 491.98,569.85 Z" fill="#17232b" data-role="body"/>
  <path d="M 423.28,567.56 423.28,608.78 425.57,611.07 425.57,638.55 427.86,640.84 425.57,652.29 432.44,652.29 430.15,645.42 432.44,640.84 427.86,638.55 430.15,633.97 430.15,615.65 425.57,608.78 425.57,597.33 430.15,595.04 425.57,581.30 427.86,567.56 Z" fill="#17232b" data-role="body"/>
  <path d="M 464.50,530.92 464.50,535.50 466.79,535.50 469.08,530.92 471.37,535.50 473.66,535.50 473.66,530.92 469.08,528.63 Z" fill="#17232b" data-role="body"/>
  <path d="M 439.31,528.63 439.31,530.92 441.60,530.92 441.60,528.63 Z" fill="#17232b" data-role="body"/>
  <path d="M 485.11,524.05 478.24,526.34 478.24,528.63 485.11,528.63 Z" fill="#17232b" data-role="body"/>
  <path d="M 434.73,521.76 434.73,524.05 437.02,524.05 437.02,521.76 Z" fill="#17232b" data-role="body"/>
  <path d="M 489.69,517.18 489.69,528.63 491.98,528.63 491.98,517.18 Z" fill="#17232b" data-role="body"/>
  <path d="M 439.31,505.73 439.31,508.02 441.60,508.02 441.60,505.73 Z" fill="#17232b" data-role="body"/>
  <path d="M 427.86,505.73 425.57,505.73 425.57,528.63 430.15,530.92 423.28,535.50 423.28,562.98 427.86,562.98 425.57,558.40 425.57,537.79 432.44,533.21 432.44,530.92 427.86,528.63 430.15,521.76 427.86,517.18 Z" fill="#17232b" data-role="body"/>
  <path d="M 482.82,501.15 482.82,503.44 485.11,503.44 485.11,501.15 Z" fill="#17232b" data-role="body"/>
  <path d="M 459.92,503.44 459.92,505.73 466.79,503.44 469.08,508.02 471.37,508.02 466.79,501.15 Z" fill="#17232b" data-role="body"/>
  <path d="M 450.76,498.85 448.47,498.85 446.18,508.02 450.76,505.73 Z" fill="#17232b" data-role="body"/>
  <path d="M 471.37,496.56 471.37,498.85 473.66,498.85 473.66,496.56 Z" fill="#17232b" data-role="body"/>
  <path d="M 473.66,489.69 473.66,491.98 475.95,491.98 475.95,489.69 Z" fill="#17232b" data-role="body"/>
  <path d="M 441.60,501.15 443.89,501.15 443.89,494.27 446.18,491.98 453.05,494.27 450.76,489.69 441.60,489.69 Z" fill="#17232b" data-role="body"/>
  <path d="M 471.37,464.50 469.08,464.50 466.79,475.95 462.21,482.82 466.79,482.82 Z" fill="#17232b" data-role="body"/>
  <path d="M 425.57,459.92 425.57,491.98 427.86,494.27 425.57,498.85 430.15,496.56 427.86,489.69 430.15,485.11 427.86,480.53 430.15,473.66 427.86,471.37 427.86,459.92 Z" fill="#17232b" data-role="body"/>
  <path d="M 491.98,420.99 491.98,459.92 494.27,459.92 494.27,420.99 Z" fill="#17232b" data-role="body"/>
  <path d="M 494.27,382.06 494.27,398.09 496.56,398.09 496.56,382.06 Z" fill="#17232b" data-role="body"/>
  <path d="M 441.60,361.45 439.31,361.45 439.31,377.48 437.02,379.77 432.44,432.44 430.15,434.73 427.86,455.34 432.44,455.34 432.44,437.02 437.02,427.86 434.73,418.70 437.02,416.41 439.31,382.06 443.89,370.61 Z" fill="#17232b" data-role="body"/>
  <path d="M 496.56,350.00 496.56,352.29 498.85,352.29 498.85,350.00 Z" fill="#17232b" data-role="body"/>
  <path d="M 462.21,347.71 462.21,350.00 464.50,350.00 464.50,347.71 Z" fill="#17232b" data-role="body"/>
  <path d="M 496.56,343.13 496.56,345.42 498.85,345.42 498.85,343.13 Z" fill="#17232b" data-role="body"/>
  <path d="M 441.60,343.13 441.60,356.87 443.89,356.87 443.89,343.13 Z" fill="#17232b" data-role="body"/>
  <path d="M 448.47,331.68 446.18,331.68 443.89,336.26 448.47,336.26 Z" fill="#17232b" data-role="body"/>
  <path d="M 496.56,329.39 496.56,331.68 498.85,331.68 498.85,329.39 Z" fill="#17232b" data-role="body"/>
  <path d="M 496.56,322.52 496.56,324.81 498.85,324.81 498.85,322.52 Z" fill="#17232b" data-role="body"/>
  <path d="M 448.47,311.07 448.47,315.65 450.76,315.65 450.76,311.07 Z" fill="#17232b" data-role="body"/>
  <path d="M 494.27,304.20 494.27,306.49 501.15,308.78 501.15,306.49 Z" fill="#17232b" data-role="body"/>
  <path d="M 485.11,299.62 482.82,299.62 478.24,308.78 482.82,308.78 Z" fill="#17232b" data-role="body"/>
  <path d="M 503.44,283.59 494.27,288.17 496.56,299.62 501.15,299.62 501.15,297.33 496.56,295.04 498.85,290.46 503.44,288.17 Z" fill="#17232b" data-role="body"/>
  <path d="M 450.76,283.59 450.76,301.91 453.05,301.91 453.05,283.59 Z" fill="#17232b" data-role="body"/>
  <path d="M 494.27,279.01 494.27,281.30 496.56,281.30 496.56,279.01 Z" fill="#17232b" data-role="body"/>
  <path d="M 494.27,258.40 494.27,274.43 496.56,274.43 496.56,258.40 Z" fill="#17232b" data-role="body"/>
  <path d="M 519.47,237.79 517.18,237.79 514.89,256.11 517.18,256.11 Z" fill="#17232b" data-role="body"/>
  <path d="M 517.18,214.89 517.18,219.47 519.47,219.47 519.47,214.89 Z" fill="#17232b" data-role="body"/>
  <path d="M 457.63,196.56 457.63,240.08 455.34,242.37 457.63,249.24 453.05,262.98 453.05,279.01 455.34,279.01 455.34,262.98 459.92,251.53 459.92,230.92 462.21,228.63 462.21,198.85 Z" fill="#17232b" data-role="body"/>
  <path d="M 505.73,187.40 508.02,205.73 514.89,208.02 508.02,187.40 Z" fill="#17232b" data-role="body"/>
  <path d="M 505.73,175.95 505.73,182.82 508.02,182.82 508.02,175.95 Z" fill="#17232b" data-role="body"/>
  <path d="M 505.73,166.79 505.73,171.37 508.02,171.37 508.02,166.79 Z" fill="#17232b" data-role="body"/>
  <path d="M 450.76,166.79 453.05,180.53 459.92,182.82 457.63,173.66 453.05,166.79 Z" fill="#17232b" data-role="body"/>
  <path d="M 732.44,148.47 732.44,150.76 734.73,150.76 734.73,148.47 Z" fill="#17232b" data-role="body"/>
  <path d="M 656.87,148.47 656.87,153.05 661.45,153.05 661.45,150.76 Z" fill="#17232b" data-role="body"/>
  <path d="M 505.73,146.18 505.73,148.47 508.02,148.47 508.02,146.18 Z" fill="#17232b" data-role="body"/>
  <path d="M 272.14,146.18 272.14,148.47 274.43,148.47 274.43,146.18 Z" fill="#17232b" data-role="body"/>
  <path d="M 691.22,143.89 691.22,146.18 693.51,146.18 693.51,143.89 Z" fill="#17232b" data-role="body"/>
  <path d="M 640.84,143.89 640.84,146.18 643.13,146.18 643.13,143.89 Z" fill="#17232b" data-role="body"/>
  <path d="M 253.82,143.89 253.82,146.18 256.11,146.18 256.11,143.89 Z" fill="#17232b" data-role="body"/>
  <path d="M 725.57,141.60 725.57,143.89 727.86,143.89 727.86,141.60 Z" fill="#17232b" data-role="body"/>
  <path d="M 684.35,143.89 679.77,141.60 675.19,143.89 675.19,146.18 679.77,143.89 684.35,146.18 Z" fill="#17232b" data-role="body"/>
  <path d="M 659.16,141.60 659.16,143.89 661.45,143.89 661.45,141.60 Z" fill="#17232b" data-role="body"/>
  <path d="M 629.39,141.60 629.39,143.89 631.68,143.89 631.68,141.60 Z" fill="#17232b" data-role="body"/>
  <path d="M 743.89,139.31 739.31,141.60 739.31,148.47 741.60,148.47 Z" fill="#17232b" data-role="body"/>
  <path d="M 698.09,139.31 698.09,141.60 702.67,141.60 702.67,139.31 Z" fill="#17232b" data-role="body"/>
  <path d="M 595.04,139.31 595.04,141.60 597.33,141.60 597.33,139.31 Z" fill="#17232b" data-role="body"/>
  <path d="M 588.17,139.31 588.17,141.60 590.46,141.60 590.46,139.31 Z" fill="#17232b" data-role="body"/>
  <path d="M 361.45,139.31 361.45,141.60 363.74,141.60 363.74,139.31 Z" fill="#17232b" data-role="body"/>
  <path d="M 352.29,137.02 352.29,141.60 356.87,141.60 356.87,139.31 Z" fill="#17232b" data-role="body"/>
  <path d="M 682.06,134.73 682.06,137.02 684.35,137.02 684.35,134.73 Z" fill="#17232b" data-role="body"/>
  <path d="M 661.45,134.73 661.45,137.02 663.74,137.02 663.74,134.73 Z" fill="#17232b" data-role="body"/>
  <path d="M 617.94,134.73 617.94,141.60 620.23,141.60 620.23,134.73 Z" fill="#17232b" data-role="body"/>
  <path d="M 604.20,134.73 604.20,139.31 611.07,141.60 611.07,139.31 Z" fill="#17232b" data-role="body"/>
  <path d="M 581.30,134.73 581.30,137.02 583.59,137.02 583.59,134.73 Z" fill="#17232b" data-role="body"/>
  <path d="M 345.42,134.73 345.42,139.31 347.71,139.31 347.71,134.73 Z" fill="#17232b" data-role="body"/>
  <path d="M 285.88,134.73 285.88,141.60 288.17,141.60 288.17,134.73 Z" fill="#17232b" data-role="body"/>
  <path d="M 276.72,134.73 276.72,141.60 279.01,141.60 279.01,134.73 Z" fill="#17232b" data-role="body"/>
  <path d="M 267.56,134.73 267.56,139.31 269.85,139.31 269.85,134.73 Z" fill="#17232b" data-role="body"/>
  <path d="M 260.69,134.73 260.69,139.31 262.98,139.31 262.98,134.73 Z" fill="#17232b" data-role="body"/>
  <path d="M 743.89,132.44 743.89,134.73 746.18,134.73 746.18,132.44 Z" fill="#17232b" data-role="body"/>
  <path d="M 734.73,132.44 734.73,134.73 737.02,134.73 737.02,132.44 Z" fill="#17232b" data-role="body"/>
  <path d="M 714.12,132.44 716.41,137.02 714.12,143.89 716.41,143.89 718.70,134.73 Z" fill="#17232b" data-role="body"/>
  <path d="M 597.33,130.15 597.33,134.73 599.62,134.73 599.62,130.15 Z" fill="#17232b" data-role="body"/>
  <path d="M 361.45,130.15 361.45,132.44 366.03,134.73 366.03,132.44 Z" fill="#17232b" data-role="body"/>
  <path d="M 354.58,130.15 354.58,132.44 356.87,132.44 356.87,130.15 Z" fill="#17232b" data-role="body"/>
  <path d="M 329.39,130.15 329.39,132.44 333.97,134.73 333.97,139.31 336.26,139.31 336.26,134.73 Z" fill="#17232b" data-role="body"/>
  <path d="M 320.23,130.15 322.52,134.73 320.23,139.31 322.52,139.31 324.81,134.73 327.10,141.60 329.39,141.60 329.39,137.02 324.81,134.73 324.81,130.15 Z" fill="#17232b" data-role="body"/>
  <path d="M 730.15,127.86 727.86,127.86 725.57,137.02 727.86,137.02 Z" fill="#17232b" data-role="body"/>
  <path d="M 645.42,127.86 643.13,127.86 640.84,139.31 643.13,139.31 645.42,134.73 Z" fill="#17232b" data-role="body"/>
  <path d="M 297.33,127.86 295.04,137.02 297.33,137.02 299.62,132.44 301.91,134.73 301.91,141.60 304.20,141.60 306.49,137.02 301.91,134.73 299.62,127.86 Z" fill="#17232b" data-role="body"/>
  <path d="M 279.01,127.86 279.01,130.15 281.30,130.15 281.30,127.86 Z" fill="#17232b" data-role="body"/>
  <path d="M 693.51,125.57 691.22,125.57 688.93,139.31 691.22,139.31 693.51,134.73 Z" fill="#17232b" data-role="body"/>
  <path d="M 288.17,125.57 288.17,130.15 290.46,130.15 290.46,125.57 Z" fill="#17232b" data-role="body"/>
  <path d="M 281.30,120.99 281.30,123.28 283.59,123.28 283.59,120.99 Z" fill="#17232b" data-role="body"/>
  <path d="M 553.82,114.12 553.82,116.41 556.11,116.41 556.11,114.12 Z" fill="#17232b" data-role="body"/>
  <path d="M 546.95,114.12 546.95,116.41 549.24,116.41 549.24,114.12 Z" fill="#17232b" data-role="body"/>
  <path d="M 748.47,109.54 748.47,114.12 753.05,114.12 753.05,111.83 Z" fill="#17232b" data-role="body"/>
  <path d="M 258.40,109.54 258.40,111.83 260.69,111.83 260.69,109.54 Z" fill="#17232b" data-role="body"/>
  <path d="M 739.31,107.25 739.31,111.83 743.89,111.83 743.89,107.25 Z" fill="#17232b" data-role="body"/>
  <path d="M 661.45,107.25 661.45,111.83 666.03,114.12 663.74,107.25 Z" fill="#17232b" data-role="body"/>
  <path d="M 654.58,107.25 654.58,114.12 656.87,114.12 656.87,107.25 Z" fill="#17232b" data-role="body"/>
  <path d="M 306.49,107.25 306.49,109.54 308.78,109.54 308.78,107.25 Z" fill="#17232b" data-role="body"/>
  <path d="M 769.08,104.96 766.79,104.96 764.50,111.83 762.21,107.25 759.92,107.25 759.92,109.54 764.50,111.83 762.21,120.99 764.50,120.99 Z" fill="#17232b" data-role="body"/>
  <path d="M 730.15,104.96 730.15,107.25 732.44,107.25 732.44,104.96 Z" fill="#17232b" data-role="body"/>
  <path d="M 718.70,104.96 716.41,104.96 714.12,111.83 716.41,111.83 Z" fill="#17232b" data-role="body"/>
  <path d="M 693.51,104.96 693.51,107.25 700.38,111.83 700.38,109.54 Z" fill="#17232b" data-role="body"/>
  <path d="M 363.74,104.96 363.74,109.54 366.03,109.54 366.03,104.96 Z" fill="#17232b" data-role="body"/>
  <path d="M 347.71,104.96 347.71,107.25 350.00,107.25 350.00,104.96 Z" fill="#17232b" data-role="body"/>
  <path d="M 285.88,104.96 285.88,107.25 290.46,107.25 290.46,104.96 Z" fill="#17232b" data-role="body"/>
  <path d="M 279.01,104.96 276.72,104.96 274.43,116.41 276.72,116.41 Z" fill="#17232b" data-role="body"/>
  <path d="M 750.76,102.67 750.76,104.96 753.05,104.96 753.05,102.67 Z" fill="#17232b" data-role="body"/>
  <path d="M 604.20,102.67 604.20,104.96 606.49,104.96 606.49,102.67 Z" fill="#17232b" data-role="body"/>
  <path d="M 242.37,102.67 240.08,102.67 233.21,111.83 240.08,111.83 237.79,107.25 242.37,104.96 Z" fill="#17232b" data-role="body"/>
  <path d="M 684.35,100.38 684.35,104.96 686.64,104.96 686.64,100.38 Z" fill="#17232b" data-role="body"/>
  <path d="M 636.26,100.38 636.26,102.67 640.84,104.96 640.84,102.67 Z" fill="#17232b" data-role="body"/>
  <path d="M 627.10,100.38 620.23,104.96 620.23,111.83 622.52,111.83 622.52,104.96 627.10,102.67 Z" fill="#17232b" data-role="body"/>
  <path d="M 615.65,100.38 613.36,100.38 611.07,111.83 613.36,111.83 Z" fill="#17232b" data-role="body"/>
  <path d="M 595.04,100.38 588.17,102.67 585.88,111.83 588.17,111.83 590.46,107.25 592.75,111.83 595.04,111.83 590.46,104.96 592.75,102.67 597.33,104.96 Z" fill="#17232b" data-role="body"/>
  <path d="M 565.27,100.38 565.27,102.67 567.56,102.67 567.56,100.38 Z" fill="#17232b" data-role="body"/>
  <path d="M 356.87,100.38 356.87,104.96 359.16,104.96 359.16,100.38 Z" fill="#17232b" data-role="body"/>
  <path d="M 336.26,100.38 333.97,100.38 331.68,104.96 333.97,104.96 Z" fill="#17232b" data-role="body"/>
  <path d="M 315.65,100.38 315.65,102.67 320.23,104.96 320.23,100.38 Z" fill="#17232b" data-role="body"/>
  <path d="M 308.78,100.38 308.78,102.67 311.07,102.67 311.07,100.38 Z" fill="#17232b" data-role="body"/>
  <path d="M 295.04,100.38 295.04,102.67 301.91,107.25 304.20,100.38 301.91,100.38 299.62,104.96 297.33,100.38 Z" fill="#17232b" data-role="body"/>
  <path d="M 267.56,100.38 267.56,107.25 269.85,107.25 269.85,100.38 Z" fill="#17232b" data-role="body"/>
  <path d="M 260.69,100.38 260.69,104.96 262.98,104.96 262.98,100.38 Z" fill="#17232b" data-role="body"/>
  <path d="M 718.70,95.80 718.70,98.09 720.99,98.09 720.99,95.80 Z" fill="#17232b" data-role="body"/>
  <path d="M 695.80,95.80 695.80,100.38 698.09,100.38 698.09,95.80 Z" fill="#17232b" data-role="body"/>
  <path d="M 514.89,111.83 510.31,104.96 510.31,100.38 462.21,95.80 459.92,100.38 446.18,102.67 439.31,98.09 427.86,98.09 416.41,104.96 416.41,114.12 414.12,116.41 372.90,116.41 372.90,118.70 416.41,118.70 420.99,125.57 425.57,125.57 434.73,132.44 434.73,137.02 443.89,153.05 450.76,157.63 448.47,162.21 453.05,162.21 453.05,155.34 450.76,153.05 453.05,139.31 448.47,130.15 450.76,125.57 466.79,125.57 471.37,123.28 487.40,130.15 491.98,127.86 503.44,132.44 505.73,139.31 510.31,141.60 508.02,134.73 512.60,132.44 Z M 432.44,130.15 434.73,127.86 437.02,130.15 434.73,132.44 Z M 459.92,120.99 462.21,118.70 464.50,120.99 462.21,123.28 Z M 453.05,120.99 455.34,118.70 457.63,120.99 455.34,123.28 Z M 446.18,116.41 448.47,114.12 450.76,116.41 448.47,118.70 Z" fill="#17232b" data-role="body"/>
  <path d="M 366.03,95.80 366.03,100.38 368.32,100.38 368.32,95.80 Z" fill="#17232b" data-role="body"/>
  <path d="M 579.01,93.51 579.01,95.80 581.30,95.80 581.30,93.51 Z" fill="#17232b" data-role="body"/>
  <path d="M 567.56,93.51 567.56,95.80 569.85,95.80 569.85,93.51 Z" fill="#17232b" data-role="body"/>
  <path d="M 246.95,91.22 244.66,95.80 246.95,100.38 244.66,111.83 251.53,111.83 249.24,107.25 249.24,91.22 Z" fill="#17232b" data-role="body"/>
  <path d="M 457.63,72.90 457.63,77.48 459.92,77.48 459.92,72.90 Z" fill="#17232b" data-role="body"/>
  <path d="M 501.15,66.03 501.15,68.32 503.44,68.32 503.44,66.03 Z" fill="#17232b" data-role="body"/>
  <path d="M 485.11,66.03 485.11,68.32 487.40,68.32 487.40,66.03 Z" fill="#17232b" data-role="body"/>
  <path d="M 473.66,63.74 471.37,63.74 469.08,72.90 471.37,72.90 Z" fill="#17232b" data-role="body"/>
  <path d="M 459.92,63.74 459.92,68.32 462.21,68.32 462.21,63.74 Z" fill="#17232b" data-role="body"/>
  <path d="M 519.47,59.16 517.18,59.16 514.89,70.61 517.18,70.61 519.47,66.03 Z" fill="#17232b" data-role="body"/>
  </g>
</svg>
