<svg xmlns="http://www.w3.org/2000/svg" viewBox="0 0 1000 1000" role="img" aria-labelledby="title" data-source="gray-anatomy" data-figure="Gray220">
  <title id="title">Gray's Anatomy plate derivative: Right middle proximal phalanx</title>
  <g fill-rule="nonzero">
  <path d="M314.3 522.2 L314.3 103.4 L325.6 103.0 C339.0 102.5 341.7 101.1 346.4 91.8 C350.2 84.5 350.4 79.2 347.3 71.1 C346.0 67.8 345.0 64.0 345.0 62.6 L345.0 60.0 L515.9 60.0 L686.8 60.0 L686.8 500.6 L686.8 941.1 L500.6 941.1 L314.3 941.1 L314.3 522.2 Z" fill="#efe3c8" data-role="detail" data-layer="paper"/>
  <path d="M377.0 934.0 C375.8 930.1 374.7 925.4 374.7 923.5 C374.7 921.7 374.7 917.8 374.7 915.0 C374.6 907.7 375.1 904.0 377.3 896.3 C383.0 875.4 383.7 866.4 380.8 852.4 C378.1 839.4 382.3 827.7 393.7 816.9 C396.3 814.4 397.8 813.8 400.0 814.4 C401.6 814.8 404.1 815.4 405.5 815.7 C406.9 816.1 409.0 815.6 410.3 814.7 C413.1 812.6 411.2 809.9 406.2 808.8 C404.0 808.3 402.4 807.1 401.7 805.3 C400.0 800.8 400.4 789.8 402.4 787.0 C404.5 784.0 403.7 782.2 400.6 782.2 C399.2 782.2 397.8 781.0 397.1 779.0 C396.4 777.3 395.1 774.3 394.2 772.3 C393.4 770.4 392.7 768.1 392.7 767.3 C392.7 766.5 391.7 764.7 390.4 763.4 C388.3 761.2 388.0 759.0 387.5 738.9 C387.2 725.1 387.4 714.8 388.2 711.2 C390.2 701.9 391.9 669.5 390.5 667.2 C388.9 664.7 388.9 644.5 390.5 642.9 C391.2 642.2 392.2 638.9 392.7 635.6 C395.3 619.1 396.5 613.0 398.4 606.7 C399.5 603.0 401.1 596.1 401.9 591.4 C402.6 586.7 403.7 582.3 404.3 581.6 C404.8 580.9 405.7 575.8 406.3 570.3 C406.9 564.7 407.9 557.4 408.6 553.9 C409.8 547.5 410.6 529.2 411.4 489.2 C411.7 476.4 411.9 464.7 412.0 463.1 C412.1 461.5 411.9 455.1 411.5 448.9 C411.1 442.7 410.6 422.9 410.4 405.0 C410.1 387.0 409.6 370.8 409.2 368.8 C408.3 364.9 407.7 355.8 407.1 336.5 C406.5 318.6 405.2 303.6 403.5 294.5 C402.7 290.1 401.7 277.6 401.3 266.7 C400.9 254.1 400.1 244.9 399.0 241.7 C398.1 238.9 396.5 233.2 395.5 229.2 C394.6 225.1 393.4 220.7 393.1 219.3 C392.6 217.4 392.9 216.7 394.2 216.7 C395.2 216.7 397.4 214.7 399.2 212.2 C402.5 207.4 404.1 206.5 404.1 209.3 C404.1 210.2 402.8 211.8 401.2 212.8 C397.9 215.0 397.6 217.9 400.5 220.5 C403.5 223.3 406.1 222.8 409.9 218.7 C414.7 213.5 416.9 208.2 415.4 205.3 C414.7 204.1 413.4 203.1 412.5 203.1 C411.6 203.1 410.9 202.0 410.9 200.8 C410.9 197.9 412.7 197.8 413.5 200.7 C414.1 203.3 419.5 205.1 421.3 203.3 C423.1 201.5 421.3 196.1 418.8 195.4 C415.7 194.6 416.0 193.8 420.2 190.9 C423.4 188.7 424.0 188.6 424.5 190.1 C425.5 192.8 426.2 192.6 429.5 188.6 L432.6 184.9 L429.1 180.5 C424.0 174.0 427.5 173.4 432.8 179.8 C437.6 185.5 437.9 187.2 434.7 189.2 C431.8 191.0 431.8 194.5 434.6 196.5 C435.8 197.3 437.9 200.3 439.4 203.1 C440.8 205.9 443.0 209.5 444.2 211.2 C448.2 216.9 444.3 219.5 436.0 216.6 C432.7 215.4 432.5 215.0 432.7 210.2 C433.1 204.0 430.4 201.2 427.2 204.4 C424.8 206.8 423.0 217.7 424.6 219.7 C425.2 220.4 425.6 223.3 425.4 226.0 C425.1 229.8 424.6 231.0 422.8 231.3 C421.5 231.5 419.5 232.5 418.2 233.6 L416.0 235.4 L418.2 232.6 C419.5 231.0 421.4 229.1 422.5 228.3 C424.9 226.5 425.1 220.9 423.0 219.1 C422.1 218.4 419.9 217.5 418.1 217.2 C415.2 216.6 414.4 217.1 411.6 221.4 C409.0 225.4 408.5 227.1 409.1 230.3 C410.0 235.1 410.0 235.6 409.1 239.7 C408.5 242.1 408.9 243.6 410.6 245.4 C412.3 247.3 413.0 250.2 413.6 257.6 C414.1 264.4 414.9 267.6 416.1 268.6 C417.6 269.7 417.9 272.0 417.5 281.6 C417.2 291.5 417.4 293.3 418.8 293.3 C419.7 293.3 420.4 292.6 420.2 291.8 C420.0 290.9 420.8 289.2 421.9 288.0 C423.5 286.2 423.9 283.8 423.8 275.1 C423.8 266.9 424.1 264.4 425.3 264.4 C426.1 264.4 426.8 265.6 426.8 267.1 C426.8 268.6 427.5 270.4 428.5 271.2 C431.0 273.3 433.6 270.7 433.6 265.9 C433.6 263.6 434.0 262.3 434.7 262.7 C435.3 263.1 435.8 266.4 435.8 270.1 C435.8 275.6 436.3 277.1 438.1 278.3 C441.0 280.1 441.0 282.1 438.1 287.4 C436.9 289.7 435.8 293.3 435.8 295.3 C435.8 300.0 434.2 302.9 433.2 300.2 C432.8 299.1 432.4 296.8 432.4 295.1 C432.4 291.8 429.9 288.7 428.1 289.8 C427.5 290.2 427.3 291.7 427.6 293.3 C427.9 294.9 427.1 298.7 425.8 301.7 C424.2 305.5 423.3 310.4 423.0 317.4 C422.8 322.9 421.9 328.6 421.2 330.0 C419.5 333.2 420.4 334.8 423.9 334.8 C426.6 334.8 426.6 334.8 425.1 339.3 C423.9 342.7 423.8 344.7 424.7 347.3 C425.6 349.9 425.4 351.9 424.1 355.8 L422.4 360.9 L426.1 364.0 C428.3 365.8 430.2 368.7 430.7 370.8 C431.1 372.8 432.7 375.5 434.2 376.7 C438.0 379.6 437.7 381.8 433.3 383.1 L429.6 384.2 L429.8 393.8 C429.9 399.1 430.4 405.0 430.8 406.8 C431.4 409.1 431.0 411.3 429.6 413.9 C427.6 417.5 427.6 418.1 429.4 425.3 C431.2 432.7 431.1 433.0 429.0 435.3 C426.3 438.2 426.2 439.1 428.6 442.5 C430.5 445.2 430.9 452.9 429.5 460.3 C428.5 465.6 430.4 471.6 433.1 471.6 C434.6 471.6 435.2 472.3 435.0 473.9 C434.5 477.3 434.6 479.2 435.4 483.8 C436.3 489.1 434.3 489.5 432.5 484.4 C431.2 480.8 431.1 480.8 429.5 483.0 C428.4 484.4 428.0 486.5 428.4 488.6 C429.3 493.3 431.1 494.8 432.9 492.4 C436.0 488.1 436.9 494.9 434.2 502.6 C433.4 505.1 432.3 510.1 431.8 513.8 C431.4 517.4 430.3 521.2 429.5 522.2 C428.7 523.2 428.0 526.2 428.0 529.0 C428.0 534.6 427.4 544.0 426.1 554.5 C425.2 562.9 425.2 566.1 426.2 570.1 C427.3 574.3 426.1 577.3 424.1 575.6 C421.4 573.4 420.1 576.6 421.0 583.2 C421.5 586.5 421.4 589.1 420.9 589.1 C420.4 589.1 419.9 588.1 419.9 586.9 C419.9 584.2 418.1 582.9 416.9 584.9 C416.1 586.2 415.6 590.1 415.1 600.2 C414.9 605.8 416.7 608.4 419.3 606.2 C420.3 605.4 421.1 603.3 421.1 601.5 C421.1 598.8 421.6 598.2 423.8 598.2 C425.3 598.2 427.3 597.1 428.3 595.7 C430.0 593.1 430.0 593.1 430.1 595.5 C430.1 596.8 429.1 598.8 427.9 599.9 C426.6 601.1 425.6 603.1 425.6 604.4 C425.6 605.7 424.8 608.0 423.8 609.4 C422.4 611.4 422.1 613.7 422.5 618.7 C423.2 626.0 422.5 627.9 420.6 624.0 C418.6 620.1 415.1 620.8 413.5 625.5 C411.9 630.5 413.1 631.9 417.6 629.7 L421.1 627.9 L421.1 631.2 C421.1 633.0 421.7 634.8 422.4 635.2 C424.2 636.4 422.6 645.6 420.0 649.0 C417.9 651.6 417.7 653.6 417.7 666.4 C417.7 686.1 415.7 686.5 415.2 667.0 C414.6 642.3 409.8 643.5 409.0 668.6 C408.7 679.2 409.0 681.9 410.5 683.6 C411.7 684.9 412.1 686.8 411.7 689.3 C411.4 691.4 411.6 693.8 412.1 694.8 C412.6 695.8 413.1 702.5 413.2 709.7 C413.5 721.6 413.2 723.2 411.1 725.9 C407.2 730.9 407.0 734.7 410.3 741.2 C412.1 744.9 413.3 749.3 413.5 752.9 C413.7 758.3 413.5 758.8 410.9 759.4 C407.2 760.3 406.9 762.5 409.8 767.2 C412.0 770.9 412.2 771.0 414.3 769.1 C415.5 768.0 416.6 765.7 416.7 764.1 C416.7 762.2 417.2 762.9 417.8 766.3 C418.4 769.1 418.6 773.5 418.2 776.0 C417.6 780.5 417.4 780.7 412.2 781.7 C409.0 782.3 406.9 783.3 406.9 784.3 C406.9 785.8 408.8 786.3 419.1 787.1 C421.9 787.3 424.5 788.5 426.7 790.6 C429.7 793.5 430.3 793.7 432.0 792.3 C433.8 790.8 433.8 791.0 433.1 794.7 C432.6 796.8 432.1 801.2 432.0 804.3 C431.9 809.1 431.5 810.0 429.6 810.3 C427.8 810.6 426.9 809.7 425.8 806.7 C423.8 801.0 421.3 799.3 419.3 802.0 C418.3 803.3 418.0 805.1 418.5 806.5 C418.9 807.8 419.3 810.4 419.3 812.2 C419.4 815.1 418.8 815.7 415.3 816.8 C413.1 817.4 408.9 819.9 406.0 822.3 C399.3 827.8 398.8 832.1 404.2 837.2 C411.9 844.5 418.2 856.9 417.2 863.0 C416.8 865.3 417.0 867.5 417.7 867.9 C419.7 869.1 418.9 872.7 416.4 873.4 C413.4 874.1 414.2 876.9 417.5 877.3 C419.1 877.6 419.9 878.5 419.9 880.0 C419.9 881.6 419.4 882.1 418.3 881.7 C417.4 881.4 416.1 881.8 415.3 882.8 C413.9 884.4 415.9 887.7 421.1 892.1 C422.6 893.4 422.4 893.8 420.0 895.7 C417.4 897.6 416.9 897.7 415.3 896.2 C413.6 894.7 413.0 894.9 409.2 898.5 C405.5 902.0 405.1 902.8 406.4 904.3 C409.8 908.4 410.5 911.0 408.7 912.4 C407.1 913.6 407.1 914.1 408.9 917.4 C410.8 920.7 410.8 921.2 409.2 922.1 C406.3 923.7 407.1 928.2 410.9 931.3 C414.9 934.7 415.0 935.0 412.0 935.8 C410.6 936.1 409.7 937.3 409.7 938.8 C409.7 941.1 409.2 941.1 394.6 941.1 L379.4 941.1 L377.0 934.0 Z M442.7 940.3 C442.7 937.8 470.0 913.9 472.9 913.9 C473.2 913.9 475.8 912.8 478.7 911.5 C482.4 909.8 485.3 909.3 488.4 909.7 C491.9 910.2 493.7 909.7 496.1 908.0 C498.4 906.3 500.1 905.9 502.4 906.4 L505.6 907.2 L501.1 909.7 C497.4 911.8 496.5 912.9 496.3 916.2 C495.8 922.6 494.9 925.4 493.6 924.6 C492.9 924.1 492.7 922.0 493.1 918.9 C494.0 912.9 491.9 911.3 487.0 914.2 C484.7 915.6 483.6 915.7 482.6 914.8 C480.9 913.0 478.3 915.3 477.5 919.3 C477.2 921.1 475.8 923.9 474.4 925.6 C472.4 928.2 471.3 928.6 468.6 928.0 C464.5 927.1 463.2 929.7 465.8 933.7 C468.2 937.4 471.8 938.4 474.3 936.1 C475.9 934.8 476.6 934.7 477.7 935.7 C478.7 936.8 479.4 936.6 480.9 935.2 C482.5 933.5 482.6 933.0 481.2 931.4 C479.7 929.6 479.8 929.5 482.0 930.9 C484.0 932.2 485.0 932.1 488.5 930.5 C492.4 928.6 492.7 928.6 496.8 931.2 C503.6 935.5 505.2 935.8 505.9 933.1 C506.4 931.5 507.1 931.0 508.4 931.6 C509.4 932.1 511.4 932.5 512.8 932.5 C514.2 932.6 515.3 933.0 515.3 933.4 C515.3 933.9 516.6 935.1 518.2 936.1 C522.4 938.9 524.8 936.6 523.8 930.7 C523.2 927.3 523.4 926.4 524.7 926.4 C526.5 926.4 527.8 929.7 527.8 934.5 C527.8 941.4 529.4 941.1 494.3 941.1 L462.2 941.1 L460.4 936.6 C459.4 934.1 458.1 932.1 457.5 932.1 C456.0 932.1 454.0 935.9 454.0 938.8 C454.0 940.8 453.3 941.1 448.3 941.1 C445.2 941.1 442.7 940.8 442.7 940.3 Z M534.9 937.8 C531.8 933.8 531.7 930.8 534.7 928.1 C537.0 926.0 537.0 926.0 533.3 922.2 C531.0 919.8 528.6 918.4 526.6 918.4 C525.0 918.4 522.7 917.4 521.6 916.2 C520.4 914.9 518.2 913.9 516.6 913.9 C512.7 913.8 508.5 912.7 508.5 911.6 C508.5 911.2 510.5 910.5 512.8 910.1 C521.8 908.6 541.4 919.7 554.9 933.7 L562.0 941.1 L557.0 941.1 C552.8 941.1 551.8 940.7 550.4 938.1 C548.5 934.5 540.7 929.4 538.5 930.2 C536.2 931.1 536.5 934.8 539.2 937.2 C542.0 939.7 542.1 941.2 539.5 941.1 C538.4 941.0 536.3 939.6 534.9 937.8 Z M641.0 931.8 C640.7 926.6 639.9 921.0 639.2 919.4 C638.0 916.2 638.7 911.6 640.4 911.6 C640.9 911.6 641.4 912.8 641.4 914.3 C641.4 917.4 644.4 920.4 645.9 918.9 C646.4 918.3 647.1 916.1 647.4 913.9 C647.7 910.7 647.9 911.0 648.0 915.6 C648.1 920.1 647.7 921.6 646.0 922.6 C644.2 923.7 644.0 924.9 644.4 928.9 C645.6 938.3 650.5 939.1 650.5 929.9 C650.5 925.9 651.1 923.9 652.7 922.4 C654.6 920.7 655.0 918.9 655.0 911.4 C655.0 906.4 654.5 901.5 653.9 900.3 C653.2 899.0 653.2 897.1 654.1 894.9 C655.1 892.2 655.0 890.8 653.5 887.8 C652.4 885.7 651.6 882.9 651.6 881.5 C651.6 880.1 650.6 877.7 649.3 876.3 L647.1 873.6 L644.3 876.7 C641.5 879.8 641.5 879.9 643.4 884.9 C645.1 889.5 645.1 890.1 643.4 892.0 C642.1 893.4 641.8 894.6 642.6 895.9 C643.3 897.2 643.1 899.4 641.8 902.6 C639.9 907.2 639.8 907.3 638.9 904.7 C638.3 903.3 637.9 899.2 637.9 895.8 C638.0 892.3 637.7 885.0 637.3 879.5 C636.6 870.5 636.7 869.4 638.7 867.9 C640.3 866.7 640.5 865.9 639.6 864.3 C637.6 861.1 635.8 861.2 634.5 864.6 C632.9 868.7 628.7 872.5 626.2 872.1 C624.8 871.8 623.8 872.8 622.9 875.2 C621.2 879.6 618.4 879.9 618.9 875.7 C619.2 872.9 620.2 872.0 625.5 869.6 C626.4 869.2 627.3 867.7 627.5 866.3 C627.7 864.9 629.2 863.2 630.8 862.5 C632.3 861.8 634.4 859.7 635.3 857.9 C636.8 855.0 637.4 854.7 641.2 855.4 C645.4 856.1 645.6 856.0 650.2 849.2 C652.9 845.4 655.0 841.1 655.0 839.8 C655.0 836.6 650.2 827.1 646.0 821.8 C641.8 816.6 639.9 812.0 636.9 800.1 C634.3 789.6 633.6 772.1 635.6 767.0 C637.7 761.6 637.2 753.3 634.6 750.9 C631.2 747.9 626.6 750.2 626.6 754.9 C626.6 759.1 625.2 759.2 622.1 755.3 C618.6 750.8 619.2 746.1 625.0 734.5 C627.8 728.8 630.9 720.9 631.8 717.1 C632.7 713.2 634.2 707.7 635.2 704.9 C637.2 698.7 637.1 679.4 635.0 677.6 C633.7 676.5 632.0 677.9 630.9 681.1 C629.5 685.1 628.6 678.3 629.8 673.3 C630.5 670.4 631.4 665.1 631.8 661.6 C632.5 655.6 632.3 654.7 629.6 651.5 C624.2 645.1 625.6 641.8 633.6 642.4 C635.8 642.6 637.2 641.8 638.5 639.8 C640.2 637.2 640.2 636.5 638.6 631.8 C637.6 628.9 636.8 624.3 636.8 621.6 C636.8 615.5 634.3 612.7 632.1 616.3 C631.3 617.6 630.0 618.7 629.2 618.7 C626.8 618.7 627.6 614.4 630.0 613.8 C632.8 613.1 633.2 605.5 630.7 598.6 C629.0 593.7 628.0 586.2 627.1 572.1 C626.8 566.8 626.1 560.9 625.5 559.0 C624.7 556.8 624.7 554.3 625.4 551.8 C626.0 549.7 626.2 547.4 625.8 546.8 C625.1 545.7 624.1 529.8 624.3 522.7 C624.3 520.8 624.4 510.9 624.3 500.6 C624.3 490.3 624.8 471.1 625.5 458.0 C626.1 444.9 626.9 423.9 627.2 411.4 C627.6 398.9 628.6 384.4 629.5 379.2 C630.4 374.0 631.1 368.3 631.1 366.6 C631.1 365.0 632.1 359.8 633.3 355.2 C635.6 346.0 637.3 334.5 636.9 330.7 C636.8 329.3 637.5 325.0 638.6 321.0 C639.6 317.0 640.7 308.2 640.9 301.3 C641.5 285.1 642.4 272.3 643.0 271.4 C643.2 271.0 644.1 264.5 644.8 257.0 C645.7 248.0 647.3 240.2 649.5 234.0 C651.3 228.9 652.6 224.3 652.4 223.8 C652.3 223.3 653.3 221.8 654.7 220.4 C656.1 219.0 657.3 216.6 657.3 215.1 C657.3 213.6 658.0 211.8 659.0 211.0 C662.4 208.2 660.2 203.1 655.5 203.1 C654.2 203.1 652.1 202.0 651.0 200.8 C649.9 199.6 647.9 198.5 646.6 198.5 C645.3 198.5 643.0 197.4 641.5 196.2 L638.8 194.0 L641.5 191.8 C645.0 188.9 647.8 188.9 649.3 191.7 C651.0 194.9 654.8 194.6 656.4 191.0 C657.6 188.4 657.4 187.8 655.2 186.0 C653.9 184.9 652.7 182.9 652.7 181.6 C652.7 179.6 653.4 179.2 657.3 179.2 C661.9 179.2 663.7 181.7 660.1 183.0 C657.9 183.9 657.9 186.5 660.1 188.3 C662.3 190.1 666.7 186.4 669.6 180.4 C670.6 178.2 673.7 175.0 676.4 173.2 C679.1 171.4 681.8 168.7 682.5 167.2 C683.1 165.8 684.4 164.3 685.2 164.0 C686.5 163.5 686.8 165.6 686.8 174.5 C686.8 185.5 686.8 185.6 683.4 188.1 C681.6 189.5 679.1 190.6 677.9 190.6 C675.1 190.6 672.9 193.2 671.4 198.4 C670.7 201.0 669.5 202.6 668.0 202.9 C662.7 203.9 661.3 208.1 665.2 211.6 C667.7 213.8 667.6 216.8 665.0 219.8 C663.2 221.8 653.5 258.2 651.5 270.1 C651.0 273.5 649.7 280.1 648.7 284.8 C647.7 289.5 646.4 299.2 645.8 306.4 C645.2 313.6 644.3 321.0 643.6 322.9 C643.0 324.7 642.0 331.3 641.4 337.4 C640.8 343.5 639.5 350.3 638.5 352.5 C637.4 355.4 636.8 360.6 636.8 369.3 C636.8 376.8 636.1 385.4 635.0 390.4 C633.9 395.1 633.2 399.7 633.2 400.6 C633.3 401.6 633.6 405.7 633.9 409.7 C634.2 413.8 635.0 419.9 635.7 423.4 C636.8 428.7 636.8 430.4 635.3 434.0 C633.0 439.5 631.0 463.8 631.2 483.0 C631.3 491.1 631.6 512.0 631.8 529.5 C632.2 561.1 633.7 585.7 635.8 591.0 C636.4 592.6 636.8 595.6 636.8 597.8 C636.8 600.0 637.6 603.2 638.6 605.1 C639.5 606.9 640.8 612.6 641.5 617.7 C642.1 622.8 643.1 627.9 643.7 629.0 C645.6 632.6 645.3 644.9 643.2 651.3 C642.1 654.6 641.5 658.1 641.8 659.1 C643.4 663.2 644.7 691.0 643.6 697.6 C640.8 714.1 640.1 728.8 641.4 740.5 C642.7 752.0 642.7 754.1 642.5 773.3 C642.4 778.7 642.8 784.1 643.4 785.2 C644.0 786.3 644.9 791.6 645.3 796.9 C646.0 804.4 646.9 807.9 649.3 812.3 C651.0 815.4 652.8 819.2 653.3 820.8 C653.7 822.3 655.2 824.8 656.5 826.2 C660.1 830.1 660.5 841.5 657.4 848.6 C654.5 855.1 654.3 864.3 656.8 872.4 C658.1 876.7 658.6 884.2 658.8 901.9 C659.0 926.9 658.5 930.1 653.7 937.2 C651.4 940.6 650.4 941.1 646.4 941.1 L641.7 941.1 L641.0 931.8 Z M420.2 930.1 C414.9 924.5 414.7 924.1 417.1 924.1 C418.0 924.1 418.8 924.7 418.8 925.5 C418.9 927.8 424.3 932.3 426.4 931.8 C428.7 931.4 428.8 924.9 426.7 922.3 C426.0 921.4 426.1 920.5 427.3 919.6 C428.3 918.8 429.0 916.7 429.0 914.8 C429.0 913.0 429.8 909.7 430.7 907.5 C431.7 905.2 432.4 901.4 432.4 899.1 C432.4 894.5 434.3 892.1 435.9 894.7 C437.1 896.7 436.2 905.2 434.0 911.3 C432.3 916.0 432.4 916.2 435.2 919.9 C438.8 924.6 438.9 926.6 435.6 928.1 C433.9 928.9 433.1 930.1 433.3 931.7 C433.4 933.5 433.0 934.0 432.0 933.6 C431.1 933.3 430.1 933.6 429.6 934.2 C428.2 936.6 425.0 935.2 420.2 930.1 Z M571.5 913.7 C570.3 913.0 568.3 911.6 567.1 910.6 C565.9 909.5 563.0 908.8 559.8 908.8 L554.5 908.8 L554.8 903.1 C555.1 897.4 559.2 891.2 562.7 891.2 C563.6 891.2 565.8 890.1 567.6 888.7 L571.0 886.2 L574.6 888.9 C578.8 892.0 580.7 891.3 583.9 885.2 C586.2 880.8 590.3 878.0 592.9 879.0 C595.3 879.9 594.1 883.5 590.2 887.3 C588.4 889.0 586.9 890.9 586.9 891.4 C586.9 891.9 584.6 895.2 581.8 898.6 C578.9 902.1 576.6 905.6 576.6 906.4 C576.6 908.8 579.7 910.7 582.2 910.0 C586.3 908.6 585.9 911.5 581.7 913.3 C576.8 915.3 574.6 915.4 571.5 913.7 Z M571.0 904.7 C572.8 903.8 575.8 893.7 574.8 892.0 C572.8 888.8 559.6 897.9 559.6 902.5 C559.6 906.8 565.0 907.9 571.0 904.7 Z M538.0 904.0 C537.1 903.7 535.5 902.6 534.4 901.7 C532.5 900.1 532.7 899.6 536.9 894.6 C541.6 889.0 542.5 885.8 540.1 883.5 C537.7 881.1 536.0 881.9 531.7 887.5 C528.4 891.9 527.7 893.6 528.2 896.6 C528.8 899.9 528.5 900.3 526.1 900.3 C519.5 900.3 521.8 887.4 529.5 881.8 C534.5 878.1 538.4 878.0 546.3 881.3 C551.8 883.7 551.7 886.1 545.9 892.1 C541.0 897.2 540.7 900.0 544.9 901.1 C546.2 901.4 547.0 902.3 546.8 903.0 C546.3 904.4 540.7 905.0 538.0 904.0 Z M447.2 898.0 C447.2 897.3 448.4 896.4 449.8 895.8 C453.5 894.4 455.2 892.0 455.9 887.0 C456.3 884.6 457.2 881.4 458.0 879.8 C458.8 878.3 459.7 874.4 460.1 871.2 C460.8 865.8 460.6 865.2 458.0 863.5 C454.9 861.4 454.7 860.8 456.2 858.3 C457.1 856.9 457.7 857.0 460.1 859.2 C462.5 861.5 463.6 861.7 468.0 861.1 C471.2 860.6 473.3 860.7 473.8 861.5 C474.2 862.2 473.8 862.8 472.8 862.8 C469.7 862.8 467.3 868.0 468.1 873.1 C468.7 877.0 468.4 878.2 465.9 881.2 C463.0 884.7 462.7 888.2 465.0 894.1 C465.4 895.2 464.7 895.7 462.6 895.7 C461.0 895.7 457.8 896.5 455.5 897.4 C450.8 899.4 447.2 899.6 447.2 898.0 Z M497.8 897.3 C493.6 893.1 496.9 882.9 504.3 877.3 C507.6 874.8 508.3 874.6 511.9 875.8 C519.0 878.2 517.1 883.3 508.5 884.9 C503.8 885.8 500.6 888.4 500.6 891.3 C500.6 893.9 504.5 896.1 508.1 895.4 C511.1 894.8 511.5 895.7 509.4 897.8 C507.5 899.7 499.9 899.4 497.8 897.3 Z M408.5 894.1 C409.6 892.8 409.3 892.1 407.0 890.6 C403.8 888.5 401.8 889.1 401.8 892.2 C401.8 896.0 406.0 897.1 408.5 894.1 Z M474.5 892.6 C474.5 890.9 475.3 888.5 476.2 887.3 C477.1 886.1 477.9 882.8 477.9 880.1 C477.9 876.9 478.7 874.1 480.2 872.0 C482.1 869.4 482.3 868.4 481.3 865.7 C480.6 863.9 480.2 862.3 480.4 862.2 C481.2 861.4 493.8 860.4 493.8 861.1 C493.8 861.5 492.5 863.4 490.9 865.2 C489.4 867.1 487.6 870.7 486.9 873.3 C486.2 876.0 484.9 880.3 483.9 882.9 C482.9 885.5 482.3 889.5 482.6 891.7 C483.1 895.7 483.0 895.7 478.8 895.7 C474.8 895.7 474.5 895.5 474.5 892.6 Z M408.0 885.6 C409.9 883.5 409.8 883.3 406.6 881.6 C404.7 880.7 402.9 879.1 402.5 878.2 C401.7 875.9 399.1 875.9 397.2 878.2 C396.0 879.6 396.4 880.5 399.6 883.8 C403.9 888.4 405.2 888.6 408.0 885.6 Z M414.3 870.1 C414.3 867.7 410.9 862.8 409.3 862.8 C405.6 862.8 405.5 865.4 409.0 869.0 C412.6 872.7 414.3 873.1 414.3 870.1 Z M391.8 841.9 C391.5 836.3 391.9 833.5 393.2 831.4 C395.7 827.7 394.4 826.0 391.0 828.3 C384.7 832.4 384.1 851.3 390.2 850.0 C391.8 849.7 392.1 848.4 391.8 841.9 Z M433.3 784.4 C432.5 778.4 430.6 776.3 428.5 779.0 C425.6 783.1 424.6 781.3 425.3 773.4 C425.6 769.2 426.1 765.5 426.4 765.2 C426.6 764.9 428.1 765.7 429.8 767.0 C434.1 770.2 437.4 783.6 434.9 787.7 C434.2 788.7 433.7 787.6 433.3 784.4 Z M402.4 762.8 C404.4 760.6 404.4 760.5 402.1 758.2 C400.2 756.2 399.4 756.0 397.4 757.1 C394.7 758.5 394.2 761.7 396.3 763.8 C398.3 765.7 400.0 765.5 402.4 762.8 Z M436.5 760.7 C436.0 760.0 434.8 759.5 433.8 759.4 C430.5 759.4 429.2 757.8 428.4 752.9 C427.5 747.3 429.5 746.2 431.4 751.2 C432.1 752.9 433.9 755.7 435.6 757.5 C437.2 759.2 438.2 760.9 437.9 761.2 C437.5 761.6 436.9 761.3 436.5 760.7 Z M409.1 758.1 C411.3 754.9 411.4 751.1 409.2 749.3 C405.0 745.8 400.2 752.8 403.3 757.7 C405.7 761.3 406.8 761.3 409.1 758.1 Z M402.4 745.7 C402.8 744.5 402.5 742.7 401.7 741.8 C400.5 740.3 400.1 740.3 398.2 742.0 C395.8 744.2 395.5 747.0 397.4 749.0 C399.0 750.6 401.3 749.1 402.4 745.7 Z M420.2 739.9 C419.4 739.2 418.8 737.1 418.8 735.4 C418.8 731.6 422.0 729.7 423.6 732.6 C424.1 733.6 425.9 734.5 427.4 734.5 C429.4 734.5 430.2 735.1 430.2 736.7 C430.2 738.2 429.4 739.0 428.0 739.0 C426.8 739.0 425.4 739.5 425.1 740.2 C424.1 741.7 421.8 741.6 420.2 739.9 Z M409.5 720.4 C409.7 718.7 409.6 716.5 409.2 715.5 C408.2 712.8 405.2 715.9 405.2 719.7 C405.2 725.2 408.9 725.8 409.5 720.4 Z M410.2 701.9 C408.9 693.7 407.2 693.8 405.9 702.1 C404.8 709.5 406.4 713.3 409.5 710.2 C410.8 708.9 411.0 707.2 410.2 701.9 Z M627.2 633.9 C623.7 630.4 623.6 623.2 627.0 623.2 C628.3 623.2 632.3 631.1 632.3 633.6 C632.3 635.3 628.8 635.4 627.2 633.9 Z M441.5 572.7 C441.5 569.5 442.0 568.7 443.8 568.7 C446.4 568.7 447.0 573.0 444.7 575.3 C442.4 577.6 441.5 576.8 441.5 572.7 Z M427.7 380.7 C428.2 376.9 425.3 375.2 422.8 377.9 C421.1 379.8 421.0 380.5 422.2 381.9 C424.2 384.3 427.2 383.6 427.7 380.7 Z M440.7 374.2 C437.9 370.0 437.2 364.3 439.6 364.3 C441.5 364.3 444.9 371.4 444.9 375.1 C444.9 378.9 443.7 378.6 440.7 374.2 Z M389.1 204.1 C387.0 201.9 384.9 200.8 382.7 200.8 C378.3 200.8 377.1 197.9 380.4 195.2 L382.9 193.1 L379.0 189.6 C370.7 182.1 367.4 178.5 363.6 172.7 C361.5 169.4 359.8 166.3 359.8 165.8 C359.8 165.2 357.2 160.6 354.1 155.4 C351.0 150.2 347.8 143.8 347.2 141.3 C346.5 138.7 345.5 136.1 345.0 135.5 C343.7 133.9 343.9 113.5 345.2 112.7 C345.8 112.3 346.2 109.1 346.1 105.6 C346.0 98.7 347.5 89.9 349.6 85.9 C350.4 84.5 350.7 81.4 350.3 78.6 C349.7 74.1 349.8 73.6 351.9 73.6 C354.3 73.6 358.6 66.2 358.6 62.0 C358.6 60.2 360.1 60.0 373.4 60.0 C388.5 60.0 389.7 60.4 387.1 64.5 C386.2 65.8 385.5 65.9 383.0 64.7 C380.7 63.7 379.6 63.7 378.4 64.6 C376.2 66.5 376.4 67.3 379.8 71.3 C382.8 74.9 382.7 78.2 379.6 78.2 C378.7 78.2 375.6 76.0 372.7 73.4 C368.1 69.2 367.4 68.9 365.9 70.4 C364.4 71.9 364.3 73.0 365.3 76.5 C366.2 79.9 366.2 81.3 365.0 82.7 C360.9 87.5 362.2 91.8 367.7 91.8 C369.4 91.8 371.8 92.9 373.3 94.5 L375.9 97.3 L373.5 99.6 C372.2 100.9 371.1 103.3 371.1 104.8 C371.1 108.9 369.0 109.4 365.6 106.1 C361.2 101.9 354.5 101.9 352.9 106.1 C351.3 110.3 351.6 115.2 353.5 116.8 C355.3 118.2 355.6 117.7 355.3 114.2 C354.9 110.8 357.3 112.1 359.4 116.5 C360.5 118.8 362.8 123.0 364.5 125.8 C368.8 132.6 368.8 136.1 364.5 136.1 C362.8 136.1 360.4 136.8 359.2 137.7 C357.1 139.2 357.1 139.3 359.2 144.1 C360.4 146.7 361.4 149.7 361.4 150.7 C361.5 152.9 367.1 161.3 371.1 165.3 C373.2 167.3 374.7 167.9 376.9 167.4 C379.1 167.0 380.2 167.4 380.7 168.8 C382.7 174.4 387.3 179.8 391.8 182.2 C393.6 183.1 395.0 184.8 395.0 186.0 C395.0 189.1 396.5 189.6 399.4 187.6 C401.4 186.2 401.9 185.0 401.4 182.8 C400.8 179.6 403.3 176.9 408.1 175.4 C410.8 174.6 418.5 181.6 417.2 183.7 C416.6 184.5 415.7 184.1 414.4 182.5 C412.2 179.7 409.0 180.2 407.8 183.4 C407.3 184.6 408.0 186.0 409.7 187.4 L412.3 189.4 L409.5 189.4 C406.2 189.4 398.4 197.1 398.4 200.4 C398.4 202.4 394.0 207.8 392.6 207.5 C392.4 207.4 390.8 205.9 389.1 204.1 Z M630.0 190.7 C630.0 190.1 630.8 189.4 631.7 189.1 C632.6 188.7 633.7 186.5 634.1 184.2 C634.8 180.6 634.5 179.6 632.3 177.9 C629.8 175.9 629.8 175.7 631.7 174.3 C634.3 172.4 633.5 168.7 630.3 167.3 C625.8 165.3 627.1 153.1 631.8 153.1 C634.5 153.1 634.6 153.2 634.6 165.0 C634.6 175.9 634.8 177.0 637.0 178.6 L639.5 180.3 L637.0 183.0 C635.7 184.4 634.6 186.4 634.6 187.3 C634.6 188.2 633.5 189.5 632.3 190.3 C631.0 191.1 630.0 191.3 630.0 190.7 Z M391.3 171.7 C387.4 169.7 387.3 166.4 390.9 164.1 C393.6 162.3 393.6 162.3 394.4 167.5 C395.3 173.7 395.2 173.8 391.3 171.7 Z M345.4 164.6 C336.6 155.2 329.6 146.3 328.0 142.8 C327.3 141.3 326.0 138.8 325.1 137.2 C324.2 135.7 323.5 132.8 323.4 130.9 C323.4 128.4 322.1 126.0 318.8 122.4 C314.3 117.5 314.3 117.4 314.6 109.4 C314.8 104.0 315.2 102.2 315.8 103.7 C316.3 105.0 318.3 109.2 320.1 113.1 C321.9 117.0 323.4 121.2 323.4 122.4 C323.4 123.6 323.9 124.9 324.6 125.3 C325.2 125.7 327.3 129.3 329.1 133.3 C331.0 137.3 335.4 144.7 338.9 149.9 C342.4 155.0 345.6 160.2 346.1 161.6 C346.6 162.9 348.6 165.7 350.6 167.7 C352.5 169.8 354.1 171.7 354.1 172.0 C354.1 173.4 351.6 171.3 345.4 164.6 Z M377.1 164.8 C376.3 164.5 375.7 162.8 375.7 161.0 C375.7 159.2 375.2 157.5 374.5 157.1 C373.9 156.7 373.4 155.1 373.4 153.5 C373.4 149.4 376.2 150.8 376.6 155.1 C376.8 157.0 377.7 159.2 378.6 160.0 C379.5 160.7 380.2 162.3 380.2 163.5 C380.2 165.6 379.6 165.9 377.1 164.8 Z M412.5 162.7 C411.9 162.4 411.6 160.0 411.8 157.4 C412.2 153.1 411.9 152.3 408.5 149.5 C405.6 147.0 405.0 146.0 406.1 144.9 C408.6 142.4 407.5 138.9 402.9 134.4 C400.4 131.9 398.4 129.0 398.4 127.8 C398.4 124.9 390.2 116.8 387.4 116.8 C384.8 116.8 380.2 112.3 380.2 109.8 C380.2 108.0 382.3 105.4 383.8 105.4 C384.3 105.4 384.7 106.0 384.7 106.7 C384.7 107.4 389.9 113.1 396.1 119.3 C403.7 126.9 407.5 131.5 407.5 133.2 C407.5 134.6 408.5 136.7 409.7 137.8 C411.3 139.2 412.0 141.3 412.0 144.6 C412.0 147.9 412.7 150.0 414.3 151.5 C418.2 154.9 416.7 164.4 412.5 162.7 Z M678.8 146.4 C678.8 144.5 679.4 142.7 680.1 142.3 C680.8 141.8 682.1 139.8 682.9 137.6 C684.9 133.0 686.8 132.7 686.8 136.9 C686.8 139.1 686.0 140.4 684.2 141.2 C682.5 142.0 681.6 143.5 681.3 146.0 C680.9 150.6 678.8 150.9 678.8 146.4 Z M634.6 139.5 C633.2 138.6 633.1 138.0 634.3 136.4 C635.0 135.3 636.4 132.8 637.2 131.0 C638.1 129.1 639.6 126.9 640.6 126.0 C641.7 125.1 642.5 124.0 642.5 123.5 C642.5 122.2 649.1 112.5 650.6 111.6 C651.3 111.1 653.1 112.1 654.6 113.6 L657.4 116.4 L650.5 123.0 C646.3 127.1 643.6 130.5 643.6 132.1 C643.6 133.4 642.2 135.9 640.5 137.6 C636.9 141.0 636.9 141.0 634.6 139.5 Z M663.8 104.9 C661.8 102.1 661.8 102.1 666.7 99.2 C669.5 97.6 672.6 95.3 673.8 94.0 C674.9 92.7 676.6 92.0 677.7 92.4 C678.8 92.7 680.8 92.1 682.2 90.9 C684.6 89.0 684.7 88.7 683.2 81.5 C681.8 74.9 681.0 73.5 675.1 67.7 C671.6 64.1 668.6 60.9 668.6 60.6 C668.6 60.3 670.1 60.0 672.0 60.0 C674.7 60.0 675.5 60.6 676.1 62.8 C676.5 64.3 679.0 67.7 681.8 70.2 L686.8 74.8 L686.8 84.4 C686.8 91.6 686.4 94.1 685.3 94.1 C684.5 94.1 681.8 96.1 679.4 98.6 C676.8 101.3 673.9 103.1 672.4 103.1 C670.9 103.1 669.1 104.2 668.4 105.4 C666.6 108.3 666.2 108.2 663.8 104.9 Z M513.1 99.9 C508.4 99.5 503.8 98.6 502.8 98.0 C501.9 97.4 497.8 96.6 493.8 96.1 C479.5 94.6 470.3 92.3 464.8 88.9 C463.6 88.1 460.9 87.1 458.9 86.7 C456.9 86.3 454.7 85.2 454.0 84.3 C453.2 83.4 451.7 82.7 450.6 82.7 C449.5 82.7 447.4 81.8 445.9 80.6 C444.4 79.4 441.9 78.1 440.4 77.6 C438.8 77.1 436.8 76.1 435.8 75.3 C434.9 74.4 431.8 73.2 429.0 72.6 C420.6 70.6 415.2 68.4 414.1 66.4 C412.7 63.9 411.3 64.1 404.6 67.3 C401.5 68.8 398.8 69.9 398.6 69.7 C397.8 68.9 399.9 65.7 401.3 65.7 C402.1 65.7 403.8 64.4 405.0 62.8 C407.0 60.2 408.0 60.0 416.1 60.0 C423.8 60.0 425.3 60.3 426.5 62.3 C428.3 65.2 432.0 65.2 433.8 62.3 C435.1 60.3 436.5 60.0 444.6 60.0 C453.1 60.0 454.0 60.2 454.0 62.1 C454.0 65.7 457.6 69.0 464.2 71.4 C467.6 72.6 471.3 73.6 472.3 73.6 C473.2 73.6 475.2 74.9 476.7 76.4 C478.9 78.8 480.1 79.2 483.4 78.6 C486.9 78.1 487.7 78.4 488.6 80.6 C489.5 82.5 490.9 83.3 493.7 83.5 C495.8 83.7 498.4 84.6 499.3 85.4 C503.1 88.7 508.6 90.7 514.2 90.7 C517.3 90.7 521.7 91.4 523.9 92.3 C529.8 94.8 546.9 94.5 563.6 91.8 C567.3 91.1 571.8 90.4 573.5 90.2 C575.2 90.1 577.6 89.0 578.9 87.8 C580.6 86.3 581.5 86.1 582.7 87.1 C583.9 88.1 586.0 87.9 591.5 86.1 C595.5 84.9 599.7 83.9 600.9 83.9 C602.0 83.9 605.0 81.8 607.4 79.3 C609.9 76.8 612.7 74.8 613.6 74.8 C614.6 74.8 615.6 74.0 616.0 73.1 C616.3 72.1 617.5 71.4 618.6 71.4 C621.1 71.4 625.9 66.2 625.0 64.6 C624.5 64.0 622.4 63.4 620.3 63.4 C617.2 63.4 616.1 64.0 615.0 66.2 C614.3 67.8 613.1 69.1 612.3 69.1 C610.3 69.1 605.0 63.7 605.0 61.7 C605.0 59.1 609.2 59.7 609.9 62.3 C610.7 65.2 614.2 65.2 614.9 62.3 C615.5 60.1 616.5 60.0 634.1 60.0 C644.4 60.0 652.7 60.2 652.7 60.5 C652.7 61.8 643.8 69.4 639.9 71.4 C637.6 72.7 635.7 74.2 635.7 74.8 C635.7 75.5 634.8 76.3 633.7 76.7 C632.7 77.1 630.0 79.4 627.8 81.7 C624.9 84.7 622.4 86.1 619.2 86.6 C616.7 87.0 613.2 87.9 611.3 88.5 C602.6 91.6 587.0 94.8 573.2 96.4 C567.3 97.1 560.8 98.1 558.8 98.7 C554.2 100.2 524.0 100.9 513.1 99.9 Z M424.1 95.6 C422.8 94.3 423.3 92.9 425.1 92.9 C426.0 92.9 427.8 92.3 429.1 91.5 C431.1 90.3 431.7 90.4 433.1 92.4 C434.7 94.4 434.6 94.7 432.2 95.4 C428.6 96.4 425.0 96.5 424.1 95.6 Z M590.3 77.6 C589.2 76.4 588.4 76.2 587.6 77.0 C585.3 79.2 583.5 78.2 583.5 74.8 C583.5 72.6 582.6 70.9 581.2 70.0 C579.9 69.2 578.9 67.6 578.9 66.5 C578.9 63.7 581.0 64.1 581.4 67.0 C581.6 68.3 583.4 70.6 585.4 72.2 L589.1 75.0 L590.4 72.2 C591.1 70.6 592.9 68.8 594.4 68.1 C595.9 67.4 597.1 66.1 597.1 65.1 C597.1 64.2 597.5 63.4 597.9 63.4 C599.6 63.5 606.2 70.2 606.2 71.9 C606.2 73.9 601.6 74.3 599.8 72.4 C598.4 71.0 596.4 73.0 595.8 76.5 C595.2 79.3 592.2 79.9 590.3 77.6 Z M454.5 76.0 C455.3 74.7 450.0 69.1 447.9 69.1 C444.7 69.1 444.5 71.7 447.6 74.4 C450.8 77.1 453.4 77.8 454.5 76.0 Z" fill="#17232b" data-role="body" data-layer="ink"/>
  </g>
</svg>
